<?xml version="1.0" encoding="UTF-8"?> <svg xmlns="http://www.w3.org/2000/svg" width="360" height="72" viewBox="0 0 360 72" fill="none"> <path fill-rule="evenodd" clip-rule="evenodd" d="M78.0165 4.71911L79.5939 4.12451C79.9317 3.98964 80.0621 3.96981 80.136 4.03869C80.2079 4.10594 80.2131 4.16572 80.1935 4.25024L80.1538 4.38964C79.7636 5.71315 79.245 6.76037 78.569 7.5913C77.4237 8.99863 76.0993 9.76761 74.5311 9.93176L74.1339 9.9602C74.0748 9.96359 74.0261 9.98097 74.0074 9.99499C73.7608 10.1811 73.5807 10.3283 73.4211 10.4747C72.9157 10.9397 72.4187 11.4335 71.9328 11.9558C72.6559 11.5026 73.5404 11.2976 74.5353 11.3498C74.8986 11.3681 75.2603 11.4099 75.616 11.4585L76.9618 11.6551L77.6003 11.7644C77.7222 11.7857 78.011 11.8519 78.0775 11.9938C78.101 12.0419 78.0991 12.0948 78.073 12.1429L77.9969 12.2609C77.133 13.3879 76.1475 14.131 74.9845 14.5315C73.7084 14.9724 72.5227 14.9819 71.4505 14.5625L71.0973 14.4069C70.9143 14.3058 70.6987 14.2548 70.4519 14.2548C70.3127 14.2548 70.1994 14.2718 70.1352 14.2838L70.0882 14.2932C70.0112 14.3067 69.9166 14.3455 69.8978 14.3711C69.1699 15.335 68.4789 16.3629 67.8336 17.4442C68.3786 16.9106 69.0895 16.5508 70.0582 16.3166C70.7372 16.1537 71.4281 16.0933 72.1071 16.0538L73.29 15.9901L74.1339 15.9373C74.2061 15.9373 74.2614 15.9652 74.2952 16.0138C74.3327 16.0638 74.3421 16.1309 74.3197 16.1913L74.2725 16.3118C74.2644 16.3308 74.2569 16.347 74.2513 16.3566C73.3668 17.8471 72.3277 18.8781 71.0747 19.5079C69.8508 20.124 68.7442 20.2877 67.6293 20.0184C67.4996 19.9865 67.3496 19.9706 67.1959 19.9706C66.7213 19.9706 66.3892 20.1159 66.3189 20.2539C65.7067 21.5264 65.1588 22.8511 64.6863 24.2019C65.1814 23.5136 65.8755 22.9545 66.7523 22.5376C67.3331 22.2613 67.9302 22.0009 68.5238 21.7494L70.5787 20.8873C70.631 20.8636 70.7014 20.8683 70.754 20.9033C70.8065 20.9384 70.8375 20.9969 70.8375 21.0599L70.8065 21.1738C70.6014 21.8097 69.3967 24.8657 67.7155 26.1403C66.9604 26.7123 66.032 27.3007 64.8596 27.329C64.5673 27.3342 64.2667 27.3698 64.0155 27.5642L63.8008 27.7649L63.7156 27.8082C63.6208 27.8396 63.5956 27.8974 63.5486 28.0936C63.1697 29.6977 62.8931 31.351 62.7234 33.0303C62.775 32.8596 62.8341 32.6874 62.9025 32.5129C63.3171 31.4565 64.0129 30.5321 65.0952 29.6033L65.9456 28.8937L67.7623 27.4307L67.9207 27.2938C67.9781 27.2457 68.0605 27.2354 68.1253 27.2686C68.1927 27.3026 68.2331 27.3734 68.2276 27.4489L68.204 27.8208C68.1918 28.0332 68.1795 28.2333 68.1582 28.4315C67.9584 30.3556 67.3899 31.9617 66.4212 33.3418C65.881 34.1101 65.1304 35.0312 64.0073 35.5678L63.6189 35.7316C63.2926 35.8524 63.0554 36.0344 62.8021 36.3622C62.563 36.6699 62.5179 36.9505 62.5236 37.3033C62.5462 38.783 62.6511 40.249 62.836 41.6857C62.8789 41.2866 62.9699 40.8748 63.1106 40.447C63.4014 39.5617 63.8544 38.7007 64.4959 37.8152L65.3376 36.6658L66.8781 34.6024C66.903 34.5644 66.9372 34.5425 66.9685 34.5281L67.012 34.5109C67.0504 34.492 67.1124 34.4881 67.1621 34.5079C67.1952 34.5229 67.2233 34.5465 67.2434 34.5759L67.2852 34.6824L67.2934 34.7184C67.678 37.0249 67.4425 39.0906 66.5731 41.0355C66.2022 41.8673 65.7199 42.7955 64.933 43.5338L64.5766 43.8378C64.1188 44.1909 63.757 44.6871 63.5579 45.234C63.5159 45.3517 63.5176 45.4029 63.5224 45.4227C63.9473 47.1936 64.5015 48.902 65.1768 50.5179C65.0023 49.6657 65.0145 48.7716 65.2123 47.8433C65.3999 46.9677 65.6776 46.11 65.9696 45.3124L66.4089 44.1663L67.1546 42.2788C67.1808 42.2109 67.2456 42.1648 67.3188 42.1609C67.3675 42.159 67.4146 42.1763 67.45 42.2069L67.4931 42.262L67.6432 42.5536C68.5106 44.5248 68.8033 46.5454 68.5135 48.5592C68.3063 49.9987 67.9546 51.0298 67.3741 51.9021C67.073 52.3536 66.788 52.8557 66.7354 53.473C66.7232 53.6192 66.729 53.7203 66.7935 53.8356C67.3795 54.8683 68.0225 55.8549 68.7168 56.7876L69.2417 57.4683C68.5896 56.2688 68.5707 54.981 68.6364 53.8794C68.6745 53.2491 68.7347 52.6199 68.8015 52L69.1363 49.0189C69.1437 48.9556 69.1812 48.9007 69.2386 48.8727C69.2563 48.8633 69.2796 48.8574 69.306 48.8574C69.4119 48.8574 69.5396 48.9445 69.683 49.1154C70.9105 50.5766 71.6721 52.2289 71.947 54.0247C72.2319 55.8864 72.0773 57.48 71.4742 58.8959L71.4626 58.9438L71.4584 59.0394L71.491 59.8552C71.4958 59.9103 71.5259 59.9761 71.552 60.001C72.7769 61.1896 74.1264 62.2221 75.5753 63.0825C74.8899 62.4585 74.3965 61.6445 74.0777 60.6136C73.794 59.6987 73.6208 58.7545 73.4731 57.8242L73.2546 56.4154L73.0809 55.3341C73.0705 55.2652 73.0967 55.1973 73.1512 55.1558C73.1843 55.1285 73.2287 55.1148 73.2726 55.1166L73.3368 55.1311L73.4023 55.1577C73.4717 55.187 73.5327 55.2123 73.5911 55.2426C76.3285 56.619 78.1301 59.8291 77.8759 62.8754C77.8355 63.3525 77.8787 63.8006 78.0091 64.2454C78.0213 64.285 78.0598 64.3297 78.0746 64.3359C79.3754 64.8882 80.6116 65.2914 81.855 65.5674C81.9198 65.5824 81.9705 65.6288 81.9902 65.6902C82.0108 65.7525 81.9986 65.8205 81.9563 65.8705C81.8204 66.0319 81.7033 66.2057 81.6065 66.387C81.5739 66.4481 81.511 66.4861 81.4426 66.4861L81.3994 66.481C80.6397 66.306 79.8948 66.0929 79.1762 65.8447L78.4667 65.585C78.3899 65.5538 78.3289 65.541 78.2792 65.5485C78.1404 65.5673 77.9966 65.5926 77.8439 65.6255L77.6077 65.6807C77.557 65.6928 77.5167 65.7163 77.5073 65.7257C76.983 66.7821 76.0678 67.4632 74.7173 67.7936C74.4227 67.8654 74.12 67.9173 73.816 67.949C73.4981 67.9833 73.1435 68 72.7618 68L72.0463 67.9802C71.9252 67.9734 71.854 67.9674 71.854 67.9674C70.6817 67.8362 69.682 67.5708 68.7958 67.156C68.4328 66.9863 68.0185 66.758 67.7003 66.3507C67.6394 66.2726 67.6497 66.159 67.7239 66.0942C68.6232 65.2954 69.5396 64.7149 70.5242 64.3192C71.9835 63.7348 73.3133 63.5773 74.616 63.8291C74.8112 63.868 75.0016 63.9151 75.1862 63.9707C73.967 63.2369 72.8005 62.3753 71.6985 61.3931C71.6769 61.3732 71.6421 61.3566 71.613 61.3511L71.1888 61.2898C71.1093 61.2805 71.0266 61.2722 70.9424 61.266L70.8908 61.2826C70.304 61.9441 69.5631 62.3046 68.6357 62.3766L68.2792 62.39L68.1111 62.3877C66.9191 62.3488 65.7216 62.0191 64.5492 61.4076C63.6976 60.96 62.8105 60.4396 62.0903 59.6626L61.8638 59.3923L61.4797 58.8771C61.4488 58.8365 61.4358 58.7838 61.4432 58.733C61.4526 58.6811 61.4826 58.6344 61.5249 58.6061L61.8527 58.4415C61.9397 58.4007 62.0352 58.3582 62.1277 58.3219C63.9913 57.5968 65.8726 57.5226 67.6677 58.1051C68.1373 58.2567 68.5854 58.4703 69.0214 58.7512L69.344 58.972L68.7577 58.2622C68.1782 57.5365 67.6262 56.7717 67.104 55.9709L66.5919 55.1583C66.5825 55.1433 66.559 55.1045 66.5479 55.0953L66.1254 54.8398L65.9251 54.7035C65.8428 54.6417 65.8054 54.6253 65.7447 54.6512L65.6738 54.6912C65.5163 54.7941 65.3343 54.8469 65.1758 54.8882C64.2426 55.1292 63.3049 55.0091 62.2658 54.5184C61.3167 54.0708 60.5869 53.3628 59.9398 52.665C58.9982 51.6463 58.3831 50.7276 58.0043 49.7732L57.899 49.4697L57.7323 48.8783C57.7105 48.8069 57.7335 48.7316 57.7863 48.6844L57.8484 48.6479L57.8785 48.6423L58.2355 48.6499C59.206 48.692 62.0045 48.9622 63.738 50.6552C64.1742 51.0808 64.5653 51.533 64.9216 52.0284C64.2876 50.6767 63.7305 49.2668 63.256 47.8108L62.896 46.6453L62.8847 46.6172L62.3623 45.8955C62.3485 45.8742 62.3426 45.8671 62.3311 45.8647L61.752 45.8883C61.5834 45.8897 61.4554 45.8813 61.3429 45.8636C60.5965 45.7445 59.923 45.3672 59.2834 44.7069C57.7894 43.1644 56.7606 41.2396 56.1388 38.8226C56.0945 38.6499 56.0714 38.4761 56.0551 38.2976L56.001 37.6366C55.9945 37.5735 56.0197 37.5122 56.0675 37.4713C56.1162 37.4319 56.1839 37.4177 56.243 37.4375L56.4557 37.5017C56.5983 37.5433 56.7213 37.5791 56.8432 37.6291C58.7694 38.3997 60.2868 39.7195 61.4807 41.6649C61.7753 42.1459 62.0041 42.6452 62.1861 43.1438C61.9208 41.6541 61.8365 40.9723 61.7836 39.5217L61.7633 38.8199L61.763 38.7008C61.763 38.4845 61.763 38.2798 61.7162 38.0918C61.678 37.9445 61.6149 37.7968 61.5445 37.6514L61.3448 37.254L61.2987 37.2318C60.7492 37.1467 60.2615 36.9116 59.8104 36.5123C59.3547 36.107 58.9804 35.6115 58.6971 35.0392C57.6806 32.986 57.1714 30.7172 57.1846 28.2964L57.203 27.9484L57.2821 27.2467C57.2886 27.1824 57.328 27.125 57.3853 27.0977C57.4406 27.0703 57.5109 27.0727 57.5644 27.1051L57.7848 27.2429C58.6522 27.8699 59.4174 28.6489 60.0589 29.5591C60.9902 30.8816 61.5746 32.3578 61.8081 33.9691L61.878 34.574L61.9347 33.8856C61.9983 33.0776 62.0651 32.2411 62.1193 31.4186L62.1552 31.1141L62.2093 30.8182C62.2855 30.4342 62.3558 30.0781 62.2432 29.7052L62.1748 29.4521C62.131 29.2767 61.946 29.0233 61.658 28.7394L61.4091 28.5092C61.191 28.3098 60.533 27.6294 60.1463 26.3859C59.824 25.3519 59.7619 24.2831 59.761 23.3696L59.7739 22.4863C59.8049 21.0408 59.9605 19.9507 60.2764 18.9537L60.4997 18.3519C60.5148 18.3107 60.5443 18.2768 60.5818 18.2554L60.6433 18.2333L60.6743 18.2303C60.7117 18.2303 60.7476 18.2418 60.7778 18.2624L60.8185 18.3003L61.1263 18.677C62.6005 20.4866 63.3246 22.6104 63.2794 24.9874C63.271 25.4058 63.24 25.8351 63.1848 26.2791C63.5598 24.9763 63.9997 23.7091 64.4995 22.4885L64.5119 22.4468L64.5166 22.4025L64.5202 22.2364C64.5259 21.9957 64.5305 21.7461 64.5211 21.502C64.5192 21.4613 64.493 21.3883 64.4385 21.3168L64.3183 21.1644L64.1929 21.0154C64.0364 20.8315 63.8806 20.6492 63.756 20.4397C63.3582 19.7685 63.1707 18.9745 63.1678 17.9425C63.1623 16.7285 63.3488 15.4492 63.7541 13.9178C63.9764 13.0823 64.3101 11.9981 64.9338 11.0146L65.1439 10.7268C65.1795 10.6782 65.2339 10.6501 65.2911 10.6501C65.3698 10.655 65.4262 10.6907 65.4572 10.7466C66.2392 12.1672 66.6286 13.6856 66.6473 15.3878C66.6632 16.8066 66.4428 18.0283 66.1671 18.9934C66.6938 18.024 67.2644 17.0796 67.8737 16.1686L68.5369 15.2123L68.6269 14.5358L68.6545 14.2435L68.5242 14.021L68.4328 13.8799C68.2989 13.674 68.1637 13.4674 68.0775 13.2358C67.8168 12.5364 67.7577 11.7436 67.8984 10.8126C68.2079 8.75171 69.1099 6.89553 70.6575 5.13842L70.9076 4.87963L71.4536 4.37658C71.5004 4.33139 71.5717 4.31403 71.6356 4.33313C71.6781 4.34682 71.7136 4.37456 71.7372 4.41088L71.7631 4.47107L71.8512 4.87622C72.0596 6.12673 72.0435 7.46764 71.8044 8.97363C71.5662 10.4668 71.0925 11.7547 70.3658 12.8733C71.4555 11.58 72.5172 10.4935 73.6285 9.52868L73.6369 9.49755C73.5507 8.74952 73.7344 8.04157 74.2006 7.33728C74.8119 6.41111 75.6618 5.70584 76.7251 5.23938C77.1498 5.0544 77.5847 4.88318 78.0165 4.71911Z" fill="black"></path> <path fill-rule="evenodd" clip-rule="evenodd" d="M282.984 4.71911L281.406 4.12451C281.068 3.98964 280.938 3.96981 280.864 4.03869C280.792 4.10594 280.787 4.16572 280.807 4.25024L280.846 4.38964C281.236 5.71315 281.755 6.76037 282.431 7.5913C283.576 8.99863 284.901 9.76761 286.469 9.93176L286.866 9.9602C286.925 9.96359 286.974 9.98097 286.993 9.99499C287.239 10.1811 287.419 10.3283 287.579 10.4747C288.084 10.9397 288.581 11.4335 289.067 11.9558C288.344 11.5026 287.46 11.2976 286.465 11.3498C286.101 11.3681 285.74 11.4099 285.384 11.4585L284.038 11.6551L283.4 11.7644C283.278 11.7857 282.989 11.8519 282.922 11.9938C282.899 12.0419 282.901 12.0948 282.927 12.1429L283.003 12.2609C283.867 13.3879 284.853 14.131 286.016 14.5315C287.292 14.9724 288.477 14.9819 289.55 14.5625L289.903 14.4069C290.086 14.3058 290.301 14.2548 290.548 14.2548C290.687 14.2548 290.801 14.2718 290.865 14.2838L290.912 14.2932C290.989 14.3067 291.083 14.3455 291.102 14.3711C291.83 15.335 292.521 16.3629 293.166 17.4442C292.621 16.9106 291.911 16.5508 290.942 16.3166C290.263 16.1537 289.572 16.0933 288.893 16.0538L287.71 15.9901L286.866 15.9373C286.794 15.9373 286.739 15.9652 286.705 16.0138C286.667 16.0638 286.658 16.1309 286.68 16.1913L286.728 16.3118C286.736 16.3308 286.743 16.347 286.749 16.3566C287.633 17.8471 288.672 18.8781 289.925 19.5079C291.149 20.124 292.256 20.2877 293.371 20.0184C293.5 19.9865 293.65 19.9706 293.804 19.9706C294.279 19.9706 294.611 20.1159 294.681 20.2539C295.293 21.5264 295.841 22.8511 296.314 24.2019C295.819 23.5136 295.125 22.9545 294.248 22.5376C293.667 22.2613 293.07 22.0009 292.476 21.7494L290.421 20.8873C290.369 20.8636 290.299 20.8683 290.246 20.9033C290.193 20.9384 290.162 20.9969 290.162 21.0599L290.194 21.1738C290.399 21.8097 291.603 24.8657 293.285 26.1403C294.04 26.7123 294.968 27.3007 296.14 27.329C296.433 27.3342 296.733 27.3698 296.984 27.5642L297.199 27.7649L297.284 27.8082C297.379 27.8396 297.404 27.8974 297.451 28.0936C297.83 29.6977 298.107 31.351 298.277 33.0303C298.225 32.8596 298.166 32.6874 298.098 32.5129C297.683 31.4565 296.987 30.5321 295.905 29.6033L295.054 28.8937L293.238 27.4307L293.079 27.2938C293.022 27.2457 292.94 27.2354 292.875 27.2686C292.807 27.3026 292.767 27.3734 292.772 27.4489L292.796 27.8208C292.808 28.0332 292.82 28.2333 292.842 28.4315C293.042 30.3556 293.61 31.9617 294.579 33.3418C295.119 34.1101 295.87 35.0312 296.993 35.5678L297.381 35.7316C297.707 35.8524 297.945 36.0344 298.198 36.3622C298.437 36.6699 298.482 36.9505 298.476 37.3033C298.454 38.783 298.349 40.249 298.164 41.6857C298.121 41.2866 298.03 40.8748 297.889 40.447C297.599 39.5617 297.146 38.7007 296.504 37.8152L295.662 36.6658L294.122 34.6024C294.097 34.5644 294.063 34.5425 294.031 34.5281L293.988 34.5109C293.95 34.492 293.888 34.4881 293.838 34.5079C293.805 34.5229 293.777 34.5465 293.757 34.5759L293.715 34.6824L293.707 34.7184C293.322 37.0249 293.558 39.0906 294.427 41.0355C294.798 41.8673 295.28 42.7955 296.067 43.5338L296.423 43.8378C296.881 44.1909 297.243 44.6871 297.442 45.234C297.484 45.3517 297.482 45.4029 297.478 45.4227C297.053 47.1936 296.499 48.902 295.823 50.5179C295.998 49.6657 295.985 48.7716 295.788 47.8433C295.6 46.9677 295.322 46.11 295.03 45.3124L294.591 44.1663L293.845 42.2788C293.819 42.2109 293.754 42.1648 293.681 42.1609C293.632 42.159 293.585 42.1763 293.55 42.2069L293.507 42.262L293.357 42.5536C292.489 44.5248 292.197 46.5454 292.486 48.5592C292.694 49.9987 293.045 51.0298 293.626 51.9021C293.927 52.3536 294.212 52.8557 294.265 53.473C294.277 53.6192 294.271 53.7203 294.206 53.8356C293.62 54.8683 292.977 55.8549 292.283 56.7876L291.758 57.4683C292.41 56.2688 292.429 54.981 292.364 53.8794C292.325 53.2491 292.265 52.6199 292.199 52L291.864 49.0189C291.856 48.9556 291.819 48.9007 291.761 48.8727C291.744 48.8633 291.72 48.8574 291.694 48.8574C291.588 48.8574 291.46 48.9445 291.317 49.1154C290.089 50.5766 289.328 52.2289 289.053 54.0247C288.768 55.8864 288.923 57.48 289.526 58.8959L289.537 58.9438L289.542 59.0394L289.509 59.8552C289.504 59.9103 289.474 59.9761 289.448 60.001C288.223 61.1896 286.874 62.2221 285.425 63.0825C286.11 62.4585 286.603 61.6445 286.922 60.6136C287.206 59.6987 287.379 58.7545 287.527 57.8242L287.745 56.4154L287.919 55.3341C287.929 55.2652 287.903 55.1973 287.849 55.1558C287.816 55.1285 287.771 55.1148 287.727 55.1166L287.663 55.1311L287.598 55.1577C287.528 55.187 287.467 55.2123 287.409 55.2426C284.671 56.619 282.87 59.8291 283.124 62.8754C283.164 63.3525 283.121 63.8006 282.991 64.2454C282.979 64.285 282.94 64.3297 282.925 64.3359C281.625 64.8882 280.388 65.2914 279.145 65.5674C279.08 65.5824 279.03 65.6288 279.01 65.6902C278.989 65.7525 279.001 65.8205 279.044 65.8705C279.18 66.0319 279.297 66.2057 279.393 66.387C279.426 66.4481 279.489 66.4861 279.557 66.4861L279.601 66.481C280.36 66.306 281.105 66.0929 281.824 65.8447L282.533 65.585C282.61 65.5538 282.671 65.541 282.721 65.5485C282.86 65.5673 283.003 65.5926 283.156 65.6255L283.392 65.6807C283.443 65.6928 283.483 65.7163 283.493 65.7257C284.017 66.7821 284.932 67.4632 286.283 67.7936C286.577 67.8654 286.88 67.9173 287.184 67.949C287.502 67.9833 287.856 68 288.238 68L288.954 67.9802C289.075 67.9734 289.146 67.9674 289.146 67.9674C290.318 67.8362 291.318 67.5708 292.204 67.156C292.567 66.9863 292.982 66.758 293.3 66.3507C293.361 66.2726 293.35 66.159 293.276 66.0942C292.377 65.2954 291.46 64.7149 290.476 64.3192C289.017 63.7348 287.687 63.5773 286.384 63.8291C286.189 63.868 285.998 63.9151 285.814 63.9707C287.033 63.2369 288.2 62.3753 289.302 61.3931C289.323 61.3732 289.358 61.3566 289.387 61.3511L289.811 61.2898C289.891 61.2805 289.973 61.2722 290.058 61.266L290.109 61.2826C290.696 61.9441 291.437 62.3046 292.364 62.3766L292.721 62.39L292.889 62.3877C294.081 62.3488 295.278 62.0191 296.451 61.4076C297.302 60.96 298.189 60.4396 298.91 59.6626L299.136 59.3923L299.52 58.8771C299.551 58.8365 299.564 58.7838 299.557 58.733C299.547 58.6811 299.517 58.6344 299.475 58.6061L299.147 58.4415C299.06 58.4007 298.965 58.3582 298.872 58.3219C297.009 57.5968 295.127 57.5226 293.332 58.1051C292.863 58.2567 292.415 58.4703 291.979 58.7512L291.656 58.972L292.242 58.2622C292.822 57.5365 293.374 56.7717 293.896 55.9709L294.408 55.1583C294.418 55.1433 294.441 55.1045 294.452 55.0953L294.875 54.8398L295.075 54.7035C295.157 54.6417 295.195 54.6253 295.255 54.6512L295.326 54.6912C295.484 54.7941 295.666 54.8469 295.824 54.8882C296.757 55.1292 297.695 55.0091 298.734 54.5184C299.683 54.0708 300.413 53.3628 301.06 52.665C302.002 51.6463 302.617 50.7276 302.996 49.7732L303.101 49.4697L303.268 48.8783C303.29 48.8069 303.266 48.7316 303.214 48.6844L303.152 48.6479L303.122 48.6423L302.764 48.6499C301.794 48.692 298.995 48.9622 297.262 50.6552C296.826 51.0808 296.435 51.533 296.078 52.0284C296.712 50.6767 297.269 49.2668 297.744 47.8108L298.104 46.6453L298.115 46.6172L298.638 45.8955C298.651 45.8742 298.657 45.8671 298.669 45.8647L299.248 45.8883C299.417 45.8897 299.545 45.8813 299.657 45.8636C300.404 45.7445 301.077 45.3672 301.717 44.7069C303.211 43.1644 304.239 41.2396 304.861 38.8226C304.906 38.6499 304.929 38.4761 304.945 38.2976L304.999 37.6366C305.005 37.5735 304.98 37.5122 304.932 37.4713C304.884 37.4319 304.816 37.4177 304.757 37.4375L304.544 37.5017C304.402 37.5433 304.279 37.5791 304.157 37.6291C302.231 38.3997 300.713 39.7195 299.519 41.6649C299.225 42.1459 298.996 42.6452 298.814 43.1438C299.079 41.6541 299.163 40.9723 299.216 39.5217L299.237 38.8199L299.237 38.7008C299.237 38.4845 299.237 38.2798 299.284 38.0918C299.322 37.9445 299.385 37.7968 299.455 37.6514L299.655 37.254L299.701 37.2318C300.251 37.1467 300.738 36.9116 301.19 36.5123C301.645 36.107 302.02 35.6115 302.303 35.0392C303.319 32.986 303.829 30.7172 303.815 28.2964L303.797 27.9484L303.718 27.2467C303.711 27.1824 303.672 27.125 303.615 27.0977C303.559 27.0703 303.489 27.0727 303.436 27.1051L303.215 27.2429C302.348 27.8699 301.583 28.6489 300.941 29.5591C300.01 30.8816 299.425 32.3578 299.192 33.9691L299.122 34.574L299.065 33.8856C299.002 33.0776 298.935 32.2411 298.881 31.4186L298.845 31.1141L298.791 30.8182C298.715 30.4342 298.644 30.0781 298.757 29.7052L298.825 29.4521C298.869 29.2767 299.054 29.0233 299.342 28.7394L299.591 28.5092C299.809 28.3098 300.467 27.6294 300.854 26.3859C301.176 25.3519 301.238 24.2831 301.239 23.3696L301.226 22.4863C301.195 21.0408 301.04 19.9507 300.724 18.9537L300.5 18.3519C300.485 18.3107 300.456 18.2768 300.418 18.2554L300.357 18.2333L300.326 18.2303C300.288 18.2303 300.252 18.2418 300.222 18.2624L300.181 18.3003L299.874 18.677C298.4 20.4866 297.675 22.6104 297.721 24.9874C297.729 25.4058 297.76 25.8351 297.815 26.2791C297.44 24.9763 297 23.7091 296.5 22.4885L296.488 22.4468L296.483 22.4025L296.48 22.2364C296.474 21.9957 296.469 21.7461 296.479 21.502C296.481 21.4613 296.507 21.3883 296.561 21.3168L296.682 21.1644L296.807 21.0154C296.964 20.8315 297.119 20.6492 297.244 20.4397C297.642 19.7685 297.829 18.9745 297.832 17.9425C297.838 16.7285 297.651 15.4492 297.246 13.9178C297.024 13.0823 296.69 11.9981 296.066 11.0146L295.856 10.7268C295.821 10.6782 295.766 10.6501 295.709 10.6501C295.63 10.655 295.574 10.6907 295.543 10.7466C294.761 12.1672 294.371 13.6856 294.353 15.3878C294.337 16.8066 294.557 18.0283 294.833 18.9934C294.306 18.024 293.736 17.0796 293.126 16.1686L292.463 15.2123L292.373 14.5358L292.345 14.2435L292.476 14.021L292.567 13.8799C292.701 13.674 292.836 13.4674 292.922 13.2358C293.183 12.5364 293.242 11.7436 293.102 10.8126C292.792 8.75171 291.89 6.89553 290.343 5.13842L290.092 4.87963L289.546 4.37658C289.5 4.33139 289.428 4.31403 289.364 4.33313C289.322 4.34682 289.286 4.37456 289.263 4.41088L289.237 4.47107L289.149 4.87622C288.94 6.12673 288.957 7.46764 289.196 8.97363C289.434 10.4668 289.908 11.7547 290.634 12.8733C289.545 11.58 288.483 10.4935 287.371 9.52868L287.363 9.49755C287.449 8.74952 287.266 8.04157 286.799 7.33728C286.188 6.41111 285.338 5.70584 284.275 5.23938C283.85 5.0544 283.415 4.88318 282.984 4.71911Z" fill="black"></path> <path d="M138.24 28.616L142.56 24.056C143.723 22.8293 144.304 21.7467 144.304 20.808C144.304 20.264 144.155 19.8373 143.856 19.528C143.557 19.2187 143.136 19.064 142.592 19.064C141.408 19.064 140.725 19.8213 140.544 21.336H138.592C138.667 20.0773 139.056 19.1067 139.76 18.424C140.475 17.7413 141.44 17.4 142.656 17.4C143.829 17.4 144.752 17.7093 145.424 18.328C146.096 18.9467 146.432 19.7627 146.432 20.776C146.432 21.48 146.24 22.1627 145.856 22.824C145.483 23.4747 144.928 24.1573 144.192 24.872L141.648 27.352H146.512V29H138.24V28.616ZM147.682 30.44L149.138 26.648L150.978 27.384L148.882 30.968L147.682 30.44ZM156.836 27.464C158.575 27.464 159.444 26.152 159.444 23.528V22.968C159.444 21.7307 159.215 20.7707 158.756 20.088C158.308 19.4053 157.657 19.064 156.804 19.064C155.94 19.064 155.279 19.4 154.82 20.072C154.361 20.7333 154.132 21.704 154.132 22.984V23.56C154.132 24.8507 154.361 25.8267 154.82 26.488C155.289 27.1387 155.961 27.464 156.836 27.464ZM156.788 29.16C155.337 29.16 154.175 28.6587 153.3 27.656C152.425 26.6427 151.988 25.2827 151.988 23.576V23C151.988 21.2827 152.425 19.9227 153.3 18.92C154.175 17.9067 155.337 17.4 156.788 17.4C158.239 17.4 159.396 17.9013 160.26 18.904C161.135 19.896 161.572 21.2453 161.572 22.952V23.528C161.572 25.256 161.145 26.6267 160.292 27.64C159.439 28.6533 158.271 29.16 156.788 29.16ZM168.117 27.464C169.856 27.464 170.725 26.152 170.725 23.528V22.968C170.725 21.7307 170.496 20.7707 170.037 20.088C169.589 19.4053 168.938 19.064 168.085 19.064C167.221 19.064 166.56 19.4 166.101 20.072C165.642 20.7333 165.413 21.704 165.413 22.984V23.56C165.413 24.8507 165.642 25.8267 166.101 26.488C166.57 27.1387 167.242 27.464 168.117 27.464ZM168.069 29.16C166.618 29.16 165.456 28.6587 164.581 27.656C163.706 26.6427 163.269 25.2827 163.269 23.576V23C163.269 21.2827 163.706 19.9227 164.581 18.92C165.456 17.9067 166.618 17.4 168.069 17.4C169.52 17.4 170.677 17.9013 171.541 18.904C172.416 19.896 172.853 21.2453 172.853 22.952V23.528C172.853 25.256 172.426 26.6267 171.573 27.64C170.72 28.6533 169.552 29.16 168.069 29.16ZM179.398 27.464C181.137 27.464 182.006 26.152 182.006 23.528V22.968C182.006 21.7307 181.777 20.7707 181.318 20.088C180.87 19.4053 180.22 19.064 179.366 19.064C178.502 19.064 177.841 19.4 177.382 20.072C176.924 20.7333 176.694 21.704 176.694 22.984V23.56C176.694 24.8507 176.924 25.8267 177.382 26.488C177.852 27.1387 178.524 27.464 179.398 27.464ZM179.35 29.16C177.9 29.16 176.737 28.6587 175.862 27.656C174.988 26.6427 174.55 25.2827 174.55 23.576V23C174.55 21.2827 174.988 19.9227 175.862 18.92C176.737 17.9067 177.9 17.4 179.35 17.4C180.801 17.4 181.958 17.9013 182.822 18.904C183.697 19.896 184.134 21.2453 184.134 22.952V23.528C184.134 25.256 183.708 26.6267 182.854 27.64C182.001 28.6533 180.833 29.16 179.35 29.16ZM184.667 30.44L186.123 26.648L187.963 27.384L185.867 30.968L184.667 30.44ZM193.82 27.464C195.559 27.464 196.428 26.152 196.428 23.528V22.968C196.428 21.7307 196.199 20.7707 195.74 20.088C195.292 19.4053 194.642 19.064 193.788 19.064C192.924 19.064 192.263 19.4 191.804 20.072C191.346 20.7333 191.116 21.704 191.116 22.984V23.56C191.116 24.8507 191.346 25.8267 191.804 26.488C192.274 27.1387 192.946 27.464 193.82 27.464ZM193.772 29.16C192.322 29.16 191.159 28.6587 190.284 27.656C189.41 26.6427 188.972 25.2827 188.972 23.576V23C188.972 21.2827 189.41 19.9227 190.284 18.92C191.159 17.9067 192.322 17.4 193.772 17.4C195.223 17.4 196.38 17.9013 197.244 18.904C198.119 19.896 198.556 21.2453 198.556 22.952V23.528C198.556 25.256 198.13 26.6267 197.276 27.64C196.423 28.6533 195.255 29.16 193.772 29.16ZM205.102 27.464C206.84 27.464 207.71 26.152 207.71 23.528V22.968C207.71 21.7307 207.48 20.7707 207.022 20.088C206.574 19.4053 205.923 19.064 205.07 19.064C204.206 19.064 203.544 19.4 203.086 20.072C202.627 20.7333 202.398 21.704 202.398 22.984V23.56C202.398 24.8507 202.627 25.8267 203.086 26.488C203.555 27.1387 204.227 27.464 205.102 27.464ZM205.054 29.16C203.603 29.16 202.44 28.6587 201.566 27.656C200.691 26.6427 200.254 25.2827 200.254 23.576V23C200.254 21.2827 200.691 19.9227 201.566 18.92C202.44 17.9067 203.603 17.4 205.054 17.4C206.504 17.4 207.662 17.9013 208.526 18.904C209.4 19.896 209.838 21.2453 209.838 22.952V23.528C209.838 25.256 209.411 26.6267 208.558 27.64C207.704 28.6533 206.536 29.16 205.054 29.16ZM216.383 27.464C218.121 27.464 218.991 26.152 218.991 23.528V22.968C218.991 21.7307 218.761 20.7707 218.303 20.088C217.855 19.4053 217.204 19.064 216.351 19.064C215.487 19.064 214.825 19.4 214.367 20.072C213.908 20.7333 213.679 21.704 213.679 22.984V23.56C213.679 24.8507 213.908 25.8267 214.367 26.488C214.836 27.1387 215.508 27.464 216.383 27.464ZM216.335 29.16C214.884 29.16 213.721 28.6587 212.847 27.656C211.972 26.6427 211.535 25.2827 211.535 23.576V23C211.535 21.2827 211.972 19.9227 212.847 18.92C213.721 17.9067 214.884 17.4 216.335 17.4C217.785 17.4 218.943 17.9013 219.807 18.904C220.681 19.896 221.119 21.2453 221.119 22.952V23.528C221.119 25.256 220.692 26.6267 219.839 27.64C218.985 28.6533 217.817 29.16 216.335 29.16ZM101.527 44.632H103.463V45.912C103.676 45.496 104.007 45.1493 104.455 44.872C104.903 44.5947 105.42 44.456 106.007 44.456C107.17 44.456 107.959 44.9573 108.375 45.96C108.684 45.4693 109.095 45.096 109.607 44.84C110.119 44.584 110.652 44.456 111.207 44.456C112.028 44.456 112.695 44.728 113.207 45.272C113.73 45.8053 113.991 46.616 113.991 47.704V53H112.055V47.832C112.055 46.6587 111.559 46.072 110.567 46.072C110.055 46.072 109.618 46.2427 109.255 46.584C108.903 46.9147 108.727 47.384 108.727 47.992V53H106.791V47.832C106.791 46.6587 106.295 46.072 105.303 46.072C104.791 46.072 104.354 46.2427 103.991 46.584C103.639 46.9147 103.463 47.384 103.463 47.992V53H101.527V44.632ZM120.021 51.656C120.746 51.656 121.312 51.4107 121.717 50.92C122.122 50.4187 122.325 49.736 122.325 48.872V48.76C122.325 47.896 122.122 47.2187 121.717 46.728C121.312 46.2267 120.746 45.976 120.021 45.976C119.296 45.976 118.725 46.2213 118.309 46.712C117.904 47.2027 117.701 47.88 117.701 48.744V48.872C117.701 49.736 117.904 50.4187 118.309 50.92C118.714 51.4107 119.285 51.656 120.021 51.656ZM123.093 51.976C122.282 52.7653 121.253 53.16 120.005 53.16C118.757 53.16 117.728 52.7707 116.917 51.992C116.117 51.2027 115.717 50.1733 115.717 48.904V48.776C115.717 47.496 116.122 46.456 116.933 45.656C117.744 44.856 118.773 44.456 120.021 44.456C121.258 44.456 122.282 44.8507 123.093 45.64C123.904 46.4293 124.309 47.4587 124.309 48.728V48.856C124.309 50.1467 123.904 51.1867 123.093 51.976ZM126.121 44.632H128.057V45.96C128.27 45.5227 128.606 45.1653 129.065 44.888C129.534 44.6 130.099 44.456 130.761 44.456C131.646 44.456 132.345 44.728 132.857 45.272C133.369 45.8053 133.625 46.6267 133.625 47.736V53H131.689V47.912C131.689 47.272 131.555 46.808 131.289 46.52C131.022 46.2213 130.601 46.072 130.025 46.072C129.449 46.072 128.974 46.248 128.601 46.6C128.238 46.9413 128.057 47.432 128.057 48.072V53H126.121V44.632ZM138.766 53.144C137.934 53.144 137.304 52.9307 136.878 52.504C136.451 52.0773 136.238 51.464 136.238 50.664V46.088H135.118V44.632H136.238V42.792H138.174V44.632H140.014V46.088H138.174V50.488C138.174 51.2027 138.494 51.56 139.134 51.56C139.518 51.56 139.832 51.5067 140.078 51.4V52.936C139.704 53.0747 139.267 53.144 138.766 53.144ZM141.886 40.76H143.822V45.96C144.036 45.5227 144.372 45.1653 144.83 44.888C145.3 44.6 145.865 44.456 146.526 44.456C147.412 44.456 148.11 44.728 148.622 45.272C149.134 45.8053 149.39 46.6267 149.39 47.736V53H147.454V47.912C147.454 47.272 147.321 46.808 147.054 46.52C146.788 46.2213 146.366 46.072 145.79 46.072C145.214 46.072 144.74 46.248 144.366 46.6C144.004 46.9413 143.822 47.432 143.822 48.072V53H141.886V40.76ZM151.731 40.76H153.667V53H151.731V40.76ZM158.538 52.152L155.226 44.632H157.322L159.546 50.024L161.594 44.632H163.482L158.922 55.864H157.018L158.538 52.152ZM171.063 53.16C170.241 53.16 169.569 52.9573 169.047 52.552C168.524 52.136 168.263 51.512 168.263 50.68C168.263 49.7627 168.652 49.0907 169.431 48.664C170.22 48.2373 171.26 48.024 172.551 48.024H173.591V47.592C173.591 47.0053 173.479 46.5787 173.255 46.312C173.031 46.0453 172.636 45.912 172.071 45.912C171.121 45.912 170.588 46.3493 170.471 47.224H168.599C168.684 46.296 169.052 45.6027 169.703 45.144C170.353 44.6853 171.18 44.456 172.183 44.456C174.412 44.456 175.527 45.4747 175.527 47.512V53H173.623V51.976C173.004 52.7653 172.151 53.16 171.063 53.16ZM171.527 51.768C172.145 51.768 172.641 51.6187 173.015 51.32C173.399 51.0213 173.591 50.6053 173.591 50.072V49.24H172.599C170.988 49.24 170.183 49.6933 170.183 50.6C170.183 51.3787 170.631 51.768 171.527 51.768ZM181.472 53.16C180.246 53.16 179.232 52.7813 178.432 52.024C177.643 51.256 177.248 50.2213 177.248 48.92V48.792C177.248 47.5013 177.648 46.456 178.448 45.656C179.259 44.856 180.267 44.456 181.472 44.456C182.496 44.456 183.366 44.712 184.08 45.224C184.795 45.7253 185.2 46.5147 185.296 47.592H183.424C183.264 46.536 182.624 46.008 181.504 46.008C180.832 46.008 180.283 46.2533 179.856 46.744C179.44 47.2347 179.232 47.9067 179.232 48.76V48.888C179.232 49.7947 179.435 50.488 179.84 50.968C180.256 51.4373 180.827 51.672 181.552 51.672C182.086 51.672 182.539 51.5173 182.912 51.208C183.286 50.8987 183.504 50.456 183.568 49.88H185.344C185.28 50.8507 184.896 51.64 184.192 52.248C183.488 52.856 182.582 53.16 181.472 53.16ZM189.922 53.144C189.09 53.144 188.461 52.9307 188.034 52.504C187.607 52.0773 187.394 51.464 187.394 50.664V46.088H186.274V44.632H187.394V42.792H189.33V44.632H191.17V46.088H189.33V50.488C189.33 51.2027 189.65 51.56 190.29 51.56C190.674 51.56 190.989 51.5067 191.234 51.4V52.936C190.861 53.0747 190.423 53.144 189.922 53.144ZM193.091 44.632H195.027V53H193.091V44.632ZM194.851 42.936C194.627 43.1493 194.355 43.256 194.035 43.256C193.715 43.256 193.443 43.1493 193.219 42.936C192.995 42.7227 192.883 42.4613 192.883 42.152C192.883 41.832 192.995 41.5653 193.219 41.352C193.443 41.1387 193.715 41.032 194.035 41.032C194.355 41.032 194.627 41.1387 194.851 41.352C195.075 41.5653 195.187 41.832 195.187 42.152C195.187 42.4613 195.075 42.7227 194.851 42.936ZM196.585 44.632H198.665L200.857 51.016L203.017 44.632H204.921L201.897 53H199.641L196.585 44.632ZM209.785 53.16C208.526 53.16 207.502 52.776 206.713 52.008C205.934 51.24 205.545 50.2053 205.545 48.904V48.776C205.545 47.496 205.934 46.456 206.713 45.656C207.502 44.856 208.5 44.456 209.705 44.456C210.836 44.456 211.774 44.808 212.521 45.512C213.278 46.216 213.657 47.272 213.657 48.68V49.24H207.529C207.561 50.04 207.769 50.6533 208.153 51.08C208.548 51.5067 209.108 51.72 209.833 51.72C210.964 51.72 211.604 51.2933 211.753 50.44H213.625C213.486 51.3253 213.081 52.0027 212.409 52.472C211.748 52.9307 210.873 53.16 209.785 53.16ZM211.737 47.944C211.63 46.5573 210.953 45.864 209.705 45.864C209.129 45.864 208.649 46.0507 208.265 46.424C207.892 46.7867 207.657 47.2933 207.561 47.944H211.737ZM222.124 53.16C221.249 53.16 220.551 52.8987 220.028 52.376C219.505 51.8533 219.244 51.0587 219.244 49.992V44.632H221.18V49.768C221.18 50.408 221.313 50.8773 221.58 51.176C221.847 51.464 222.263 51.608 222.828 51.608C223.383 51.608 223.847 51.432 224.22 51.08C224.593 50.728 224.78 50.2373 224.78 49.608V44.632H226.716V53H224.78V51.688C224.257 52.6693 223.372 53.16 222.124 53.16ZM231.938 53.16C230.85 53.16 230.002 52.9253 229.394 52.456C228.797 51.976 228.477 51.288 228.434 50.392H230.258C230.322 50.84 230.477 51.176 230.722 51.4C230.967 51.624 231.367 51.736 231.922 51.736C232.925 51.736 233.426 51.3787 233.426 50.664C233.426 50.3333 233.287 50.088 233.01 49.928C232.743 49.7573 232.285 49.6187 231.634 49.512C230.514 49.3413 229.73 49.0693 229.282 48.696C228.834 48.3227 228.61 47.7467 228.61 46.968C228.61 46.1787 228.919 45.5653 229.538 45.128C230.167 44.68 230.903 44.456 231.746 44.456C233.751 44.456 234.845 45.2987 235.026 46.984H233.234C233.149 46.5893 232.989 46.3067 232.754 46.136C232.519 45.9547 232.183 45.864 231.746 45.864C231.33 45.864 231.005 45.9547 230.77 46.136C230.535 46.3173 230.418 46.5573 230.418 46.856C230.418 47.1653 230.535 47.3947 230.77 47.544C231.015 47.6933 231.474 47.8213 232.146 47.928C233.234 48.0987 234.029 48.36 234.53 48.712C235.031 49.064 235.282 49.656 235.282 50.488C235.282 51.3413 234.994 52.0027 234.418 52.472C233.842 52.9307 233.015 53.16 231.938 53.16ZM240.723 53.16C239.464 53.16 238.44 52.776 237.651 52.008C236.872 51.24 236.483 50.2053 236.483 48.904V48.776C236.483 47.496 236.872 46.456 237.651 45.656C238.44 44.856 239.437 44.456 240.643 44.456C241.773 44.456 242.712 44.808 243.459 45.512C244.216 46.216 244.595 47.272 244.595 48.68V49.24H238.467C238.499 50.04 238.707 50.6533 239.091 51.08C239.485 51.5067 240.045 51.72 240.771 51.72C241.901 51.72 242.541 51.2933 242.691 50.44H244.563C244.424 51.3253 244.019 52.0027 243.347 52.472C242.685 52.9307 241.811 53.16 240.723 53.16ZM242.675 47.944C242.568 46.5573 241.891 45.864 240.643 45.864C240.067 45.864 239.587 46.0507 239.203 46.424C238.829 46.7867 238.595 47.2933 238.499 47.944H242.675ZM246.386 44.632H248.322V46.2C248.877 45.08 249.784 44.5147 251.042 44.504V46.312C250.146 46.312 249.469 46.4933 249.01 46.856C248.552 47.208 248.322 47.8053 248.322 48.648V53H246.386V44.632ZM255.672 53.16C254.584 53.16 253.736 52.9253 253.128 52.456C252.531 51.976 252.211 51.288 252.168 50.392H253.992C254.056 50.84 254.211 51.176 254.456 51.4C254.702 51.624 255.102 51.736 255.656 51.736C256.659 51.736 257.16 51.3787 257.16 50.664C257.16 50.3333 257.022 50.088 256.744 49.928C256.478 49.7573 256.019 49.6187 255.368 49.512C254.248 49.3413 253.464 49.0693 253.016 48.696C252.568 48.3227 252.344 47.7467 252.344 46.968C252.344 46.1787 252.654 45.5653 253.272 45.128C253.902 44.68 254.638 44.456 255.48 44.456C257.486 44.456 258.579 45.2987 258.76 46.984H256.968C256.883 46.5893 256.723 46.3067 256.488 46.136C256.254 45.9547 255.918 45.864 255.48 45.864C255.064 45.864 254.739 45.9547 254.504 46.136C254.27 46.3173 254.152 46.5573 254.152 46.856C254.152 47.1653 254.27 47.3947 254.504 47.544C254.75 47.6933 255.208 47.8213 255.88 47.928C256.968 48.0987 257.763 48.36 258.264 48.712C258.766 49.064 259.016 49.656 259.016 50.488C259.016 51.3413 258.728 52.0027 258.152 52.472C257.576 52.9307 256.75 53.16 255.672 53.16Z" fill="black"></path> </svg> 