<?xml version="1.0" encoding="UTF-8"?> <svg xmlns="http://www.w3.org/2000/svg" width="311" height="48" viewBox="0 0 311 48" fill="none"> <path d="M30.6073 17.54L33.1993 16.136L30.6073 14.684V13.124L35.5033 15.956V16.304L30.6073 19.124V17.54ZM39.7571 20.132C38.7491 20.132 37.9691 19.876 37.4171 19.364C36.9051 18.9 36.6251 18.26 36.5771 17.444H38.3651C38.4131 17.828 38.5331 18.116 38.7251 18.308C38.9251 18.532 39.2651 18.644 39.7451 18.644C40.1771 18.644 40.5091 18.508 40.7411 18.236C40.9731 17.956 41.0891 17.584 41.0891 17.12C41.0891 16.656 40.9651 16.292 40.7171 16.028C40.4691 15.756 40.1291 15.62 39.6971 15.62C39.0011 15.62 38.4531 15.848 38.0531 16.304H36.9731L37.0931 11.42H42.5291V12.896H38.5451L38.5091 15.044C38.9331 14.516 39.5691 14.252 40.4171 14.252C41.1931 14.252 41.8251 14.504 42.3131 15.008C42.8011 15.52 43.0451 16.232 43.0451 17.144C43.0451 18.056 42.7451 18.78 42.1451 19.316C41.5531 19.86 40.7571 20.132 39.7571 20.132ZM43.5707 21.032L44.6267 18.068L46.2587 18.68L44.6267 21.476L43.5707 21.032ZM50.7318 18.608C51.9078 18.608 52.4958 17.7 52.4958 15.884V15.5C52.4958 13.7 51.8998 12.8 50.7078 12.8C49.4998 12.8 48.8958 13.7 48.8958 15.5V15.908C48.8958 17.708 49.5078 18.608 50.7318 18.608ZM50.6838 20.132C49.5318 20.132 48.6278 19.756 47.9718 19.004C47.2918 18.26 46.9518 17.232 46.9518 15.92V15.512C46.9518 14.208 47.2998 13.176 47.9958 12.416C48.6758 11.672 49.5758 11.3 50.6958 11.3C51.8158 11.3 52.7158 11.66 53.3958 12.38C54.0838 13.132 54.4278 14.164 54.4278 15.476V15.872C54.4278 17.184 54.0958 18.224 53.4318 18.992C52.7438 19.752 51.8278 20.132 50.6838 20.132ZM59.4272 18.608C60.6032 18.608 61.1912 17.7 61.1912 15.884V15.5C61.1912 13.7 60.5952 12.8 59.4032 12.8C58.1952 12.8 57.5912 13.7 57.5912 15.5V15.908C57.5912 17.708 58.2032 18.608 59.4272 18.608ZM59.3792 20.132C58.2272 20.132 57.3232 19.756 56.6672 19.004C55.9872 18.26 55.6472 17.232 55.6472 15.92V15.512C55.6472 14.208 55.9952 13.176 56.6912 12.416C57.3712 11.672 58.2712 11.3 59.3912 11.3C60.5112 11.3 61.4112 11.66 62.0912 12.38C62.7792 13.132 63.1232 14.164 63.1232 15.476V15.872C63.1232 17.184 62.7912 18.224 62.1272 18.992C61.4392 19.752 60.5232 20.132 59.3792 20.132ZM68.1225 18.608C69.2985 18.608 69.8865 17.7 69.8865 15.884V15.5C69.8865 13.7 69.2905 12.8 68.0985 12.8C66.8905 12.8 66.2865 13.7 66.2865 15.5V15.908C66.2865 17.708 66.8985 18.608 68.1225 18.608ZM68.0745 20.132C66.9225 20.132 66.0185 19.756 65.3625 19.004C64.6825 18.26 64.3425 17.232 64.3425 15.92V15.512C64.3425 14.208 64.6905 13.176 65.3865 12.416C66.0665 11.672 66.9665 11.3 68.0865 11.3C69.2065 11.3 70.1065 11.66 70.7865 12.38C71.4745 13.132 71.8185 14.164 71.8185 15.476V15.872C71.8185 17.184 71.4865 18.224 70.8225 18.992C70.1345 19.752 69.2185 20.132 68.0745 20.132ZM78.0139 20.132C77.3739 20.132 76.8659 19.944 76.4899 19.568C76.0819 19.16 75.8779 18.56 75.8779 17.768V13.724H77.6059V17.528C77.6059 18.368 77.9699 18.788 78.6979 18.788C79.0819 18.788 79.3939 18.672 79.6339 18.44C79.8819 18.2 80.0059 17.856 80.0059 17.408V13.724H81.7339V20H80.0059V19.016C79.6299 19.76 78.9659 20.132 78.0139 20.132ZM85.6942 20.132C84.8462 20.132 84.1862 19.952 83.7142 19.592C83.2422 19.232 82.9902 18.712 82.9582 18.032H84.5782C84.6262 18.336 84.7302 18.56 84.8902 18.704C85.0502 18.848 85.3142 18.92 85.6822 18.92C86.3382 18.92 86.6662 18.692 86.6662 18.236C86.6662 18.02 86.5702 17.86 86.3782 17.756C86.1862 17.644 85.8582 17.556 85.3942 17.492C84.5462 17.356 83.9542 17.152 83.6182 16.88C83.2582 16.6 83.0782 16.152 83.0782 15.536C83.0782 14.92 83.3342 14.428 83.8462 14.06C84.2862 13.74 84.8582 13.58 85.5622 13.58C86.2902 13.58 86.8782 13.724 87.3262 14.012C87.7982 14.332 88.0742 14.836 88.1542 15.524H86.5582C86.5102 15.26 86.4102 15.068 86.2582 14.948C86.1062 14.828 85.8782 14.768 85.5742 14.768C85.2942 14.768 85.0742 14.828 84.9142 14.948C84.7622 15.068 84.6862 15.224 84.6862 15.416C84.6862 15.616 84.7702 15.764 84.9382 15.86C85.1142 15.956 85.4342 16.036 85.8982 16.1C86.7222 16.212 87.3262 16.4 87.7102 16.664C88.1262 16.976 88.3342 17.444 88.3342 18.068C88.3342 18.74 88.1022 19.252 87.6382 19.604C87.1822 19.956 86.5342 20.132 85.6942 20.132ZM92.4703 20.132C91.4943 20.132 90.7143 19.848 90.1303 19.28C89.5063 18.704 89.1943 17.924 89.1943 16.94V16.844C89.1943 15.868 89.5063 15.076 90.1303 14.468C90.7383 13.876 91.5023 13.58 92.4223 13.58C93.2943 13.58 94.0063 13.832 94.5583 14.336C95.1743 14.896 95.4823 15.708 95.4823 16.772V17.252H90.9583C90.9823 17.78 91.1263 18.188 91.3903 18.476C91.6623 18.756 92.0383 18.896 92.5183 18.896C93.2703 18.896 93.7063 18.604 93.8263 18.02H95.4703C95.3663 18.7 95.0543 19.224 94.5343 19.592C94.0223 19.952 93.3343 20.132 92.4703 20.132ZM93.7903 16.184C93.7343 15.248 93.2783 14.78 92.4223 14.78C92.0303 14.78 91.7063 14.904 91.4503 15.152C91.2023 15.392 91.0463 15.736 90.9823 16.184H93.7903ZM96.7619 13.724H98.5019V14.924C98.9019 14.068 99.5779 13.636 100.53 13.628V15.248C99.8579 15.24 99.3499 15.36 99.0059 15.608C98.6699 15.856 98.5019 16.272 98.5019 16.856V20H96.7619V13.724ZM104.093 20.132C103.245 20.132 102.585 19.952 102.113 19.592C101.641 19.232 101.389 18.712 101.357 18.032H102.977C103.025 18.336 103.129 18.56 103.289 18.704C103.449 18.848 103.713 18.92 104.081 18.92C104.737 18.92 105.065 18.692 105.065 18.236C105.065 18.02 104.969 17.86 104.777 17.756C104.585 17.644 104.257 17.556 103.793 17.492C102.945 17.356 102.353 17.152 102.017 16.88C101.657 16.6 101.477 16.152 101.477 15.536C101.477 14.92 101.733 14.428 102.245 14.06C102.685 13.74 103.257 13.58 103.961 13.58C104.689 13.58 105.277 13.724 105.725 14.012C106.197 14.332 106.473 14.836 106.553 15.524H104.957C104.909 15.26 104.809 15.068 104.657 14.948C104.505 14.828 104.277 14.768 103.973 14.768C103.693 14.768 103.473 14.828 103.313 14.948C103.161 15.068 103.085 15.224 103.085 15.416C103.085 15.616 103.169 15.764 103.337 15.86C103.513 15.956 103.833 16.036 104.297 16.1C105.121 16.212 105.725 16.4 106.109 16.664C106.525 16.976 106.733 17.444 106.733 18.068C106.733 18.74 106.501 19.252 106.037 19.604C105.581 19.956 104.933 20.132 104.093 20.132Z" fill="black"></path> <path d="M23.4794 34.4C23.9994 34.4 24.4127 34.22 24.7194 33.86C25.0327 33.5 25.1894 33.0233 25.1894 32.43V32.36C25.1894 31.7533 25.0327 31.27 24.7194 30.91C24.4127 30.55 23.9994 30.37 23.4794 30.37C22.9527 30.37 22.5361 30.55 22.2294 30.91C21.9227 31.27 21.7694 31.75 21.7694 32.35V32.43C21.7694 33.0367 21.9194 33.5167 22.2194 33.87C22.5261 34.2233 22.9461 34.4 23.4794 34.4ZM23.4694 35.09C22.7294 35.09 22.1161 34.84 21.6294 34.34C21.1494 33.8333 20.9094 33.1967 20.9094 32.43V32.35C20.9094 31.57 21.1494 30.93 21.6294 30.43C22.1161 29.93 22.7327 29.68 23.4794 29.68C24.2261 29.68 24.8394 29.93 25.3194 30.43C25.8061 30.9233 26.0494 31.56 26.0494 32.34V32.42C26.0494 33.2067 25.8061 33.85 25.3194 34.35C24.8327 34.8433 24.2161 35.09 23.4694 35.09ZM27.4615 29.77H28.2915V30.6C28.4249 30.3333 28.6349 30.1133 28.9215 29.94C29.2082 29.7667 29.5582 29.68 29.9715 29.68C30.5449 29.68 30.9949 29.85 31.3215 30.19C31.6482 30.53 31.8115 31.0633 31.8115 31.79V35H30.9815V31.73C30.9815 31.27 30.8815 30.9333 30.6815 30.72C30.4815 30.5067 30.1715 30.4 29.7515 30.4C29.3449 30.4 28.9982 30.5267 28.7115 30.78C28.4315 31.0333 28.2915 31.3833 28.2915 31.83V35H27.4615V29.77ZM33.585 27.27H34.425V35H33.585V27.27ZM36.2608 29.77H37.0908V35H36.2608V29.77ZM37.0508 28.52C36.9442 28.6267 36.8142 28.68 36.6608 28.68C36.5075 28.68 36.3775 28.6267 36.2708 28.52C36.1642 28.4133 36.1108 28.2833 36.1108 28.13C36.1108 27.9767 36.1642 27.8467 36.2708 27.74C36.3775 27.6333 36.5075 27.58 36.6608 27.58C36.8142 27.58 36.9442 27.6333 37.0508 27.74C37.1575 27.8467 37.2108 27.9767 37.2108 28.13C37.2108 28.2833 37.1575 28.4133 37.0508 28.52ZM38.9068 29.77H39.7368V30.6C39.8702 30.3333 40.0802 30.1133 40.3668 29.94C40.6535 29.7667 41.0035 29.68 41.4168 29.68C41.9902 29.68 42.4402 29.85 42.7668 30.19C43.0935 30.53 43.2568 31.0633 43.2568 31.79V35H42.4268V31.73C42.4268 31.27 42.3268 30.9333 42.1268 30.72C41.9268 30.5067 41.6168 30.4 41.1968 30.4C40.7902 30.4 40.4435 30.5267 40.1568 30.78C39.8768 31.0333 39.7368 31.3833 39.7368 31.83V35H38.9068V29.77ZM47.1504 35.09C46.4037 35.09 45.7937 34.8467 45.3204 34.36C44.8537 33.8733 44.6204 33.2333 44.6204 32.44V32.36C44.6204 31.5733 44.847 30.93 45.3004 30.43C45.7604 29.93 46.3504 29.68 47.0704 29.68C47.737 29.68 48.2937 29.8967 48.7404 30.33C49.1937 30.7567 49.4204 31.4067 49.4204 32.28V32.55H45.4804C45.5204 33.7833 46.0804 34.4 47.1604 34.4C47.9804 34.4 48.4437 34.0967 48.5504 33.49H49.3804C49.287 34.01 49.0437 34.4067 48.6504 34.68C48.257 34.9533 47.757 35.09 47.1504 35.09ZM48.5704 31.88C48.497 30.8733 47.997 30.37 47.0704 30.37C46.6504 30.37 46.3037 30.5033 46.0304 30.77C45.757 31.0367 45.5837 31.4067 45.5104 31.88H48.5704ZM55.5976 35.09C54.851 35.09 54.241 34.8467 53.7676 34.36C53.301 33.8733 53.0676 33.2333 53.0676 32.44V32.36C53.0676 31.5733 53.2943 30.93 53.7476 30.43C54.2076 29.93 54.7976 29.68 55.5176 29.68C56.1843 29.68 56.741 29.8967 57.1876 30.33C57.641 30.7567 57.8676 31.4067 57.8676 32.28V32.55H53.9276C53.9676 33.7833 54.5276 34.4 55.6076 34.4C56.4276 34.4 56.891 34.0967 56.9976 33.49H57.8276C57.7343 34.01 57.491 34.4067 57.0976 34.68C56.7043 34.9533 56.2043 35.09 55.5976 35.09ZM57.0176 31.88C56.9443 30.8733 56.4443 30.37 55.5176 30.37C55.0976 30.37 54.751 30.5033 54.4776 30.77C54.2043 31.0367 54.031 31.4067 53.9576 31.88H57.0176ZM58.6196 29.77H59.5196L61.0696 34.16L62.5996 29.77H63.4596L61.5796 35H60.5196L58.6196 29.77ZM66.6621 35.09C65.9154 35.09 65.3054 34.8467 64.8321 34.36C64.3654 33.8733 64.1321 33.2333 64.1321 32.44V32.36C64.1321 31.5733 64.3587 30.93 64.8121 30.43C65.2721 29.93 65.8621 29.68 66.5821 29.68C67.2487 29.68 67.8054 29.8967 68.2521 30.33C68.7054 30.7567 68.9321 31.4067 68.9321 32.28V32.55H64.9921C65.0321 33.7833 65.5921 34.4 66.6721 34.4C67.4921 34.4 67.9554 34.0967 68.0621 33.49H68.8921C68.7987 34.01 68.5554 34.4067 68.1621 34.68C67.7687 34.9533 67.2687 35.09 66.6621 35.09ZM68.0821 31.88C68.0087 30.8733 67.5087 30.37 66.5821 30.37C66.1621 30.37 65.8154 30.5033 65.5421 30.77C65.2687 31.0367 65.0954 31.4067 65.0221 31.88H68.0821ZM70.3229 29.77H71.1529V30.71C71.3262 30.39 71.5462 30.1433 71.8129 29.97C72.0795 29.79 72.4329 29.6933 72.8729 29.68V30.46C72.2995 30.4867 71.8695 30.62 71.5829 30.86C71.2962 31.1 71.1529 31.5233 71.1529 32.13V35H70.3229V29.77ZM75.7086 34.46L73.6586 29.77H74.5486L76.1486 33.52L77.5986 29.77H78.4486L75.5586 36.82H74.7186L75.7086 34.46ZM85.3553 34.67C85.0286 34.95 84.5519 35.09 83.9253 35.09C83.2986 35.09 82.8053 34.9433 82.4453 34.65C82.0919 34.35 81.9019 33.93 81.8753 33.39H82.6853C82.7253 33.7233 82.8386 33.9767 83.0253 34.15C83.2186 34.3167 83.5153 34.4 83.9153 34.4C84.3086 34.4 84.5953 34.3333 84.7753 34.2C84.9619 34.06 85.0553 33.85 85.0553 33.57C85.0553 33.31 84.9586 33.12 84.7653 33C84.5786 32.8733 84.2686 32.77 83.8353 32.69C83.1553 32.57 82.6819 32.3967 82.4153 32.17C82.1486 31.9433 82.0153 31.6033 82.0153 31.15C82.0153 30.6967 82.1953 30.34 82.5553 30.08C82.9219 29.8133 83.3319 29.68 83.7853 29.68C84.2986 29.68 84.7253 29.8 85.0653 30.04C85.4119 30.28 85.6153 30.6633 85.6753 31.19H84.8753C84.8153 30.9033 84.6986 30.6967 84.5253 30.57C84.3586 30.4367 84.1086 30.37 83.7753 30.37C83.4753 30.37 83.2353 30.44 83.0553 30.58C82.8753 30.7133 82.7853 30.8933 82.7853 31.12C82.7853 31.3533 82.8686 31.53 83.0353 31.65C83.2086 31.77 83.5319 31.87 84.0053 31.95C84.2653 32.0033 84.4686 32.05 84.6153 32.09C84.7686 32.13 84.9319 32.19 85.1053 32.27C85.2853 32.3433 85.4219 32.4333 85.5153 32.54C85.6086 32.64 85.6853 32.77 85.7453 32.93C85.8119 33.09 85.8453 33.28 85.8453 33.5C85.8453 33.9933 85.6819 34.3833 85.3553 34.67ZM89.3671 35.09C88.6205 35.09 88.0105 34.8467 87.5371 34.36C87.0705 33.8733 86.8371 33.2333 86.8371 32.44V32.36C86.8371 31.5733 87.0638 30.93 87.5171 30.43C87.9771 29.93 88.5671 29.68 89.2871 29.68C89.9538 29.68 90.5105 29.8967 90.9571 30.33C91.4105 30.7567 91.6371 31.4067 91.6371 32.28V32.55H87.6971C87.7371 33.7833 88.2971 34.4 89.3771 34.4C90.1971 34.4 90.6605 34.0967 90.7671 33.49H91.5971C91.5038 34.01 91.2605 34.4067 90.8671 34.68C90.4738 34.9533 89.9738 35.09 89.3671 35.09ZM90.7871 31.88C90.7138 30.8733 90.2138 30.37 89.2871 30.37C88.8671 30.37 88.5205 30.5033 88.2471 30.77C87.9738 31.0367 87.8005 31.4067 87.7271 31.88H90.7871ZM95.1979 35.09C94.4513 35.09 93.8379 34.85 93.3579 34.37C92.8779 33.8833 92.6379 33.24 92.6379 32.44V32.36C92.6379 31.5733 92.8813 30.93 93.3679 30.43C93.8613 29.93 94.4646 29.68 95.1779 29.68C95.7779 29.68 96.2879 29.83 96.7079 30.13C97.1279 30.4233 97.3746 30.8833 97.4479 31.51H96.6279C96.5079 30.75 96.0246 30.37 95.1779 30.37C94.6913 30.37 94.2879 30.5533 93.9679 30.92C93.6546 31.28 93.4979 31.76 93.4979 32.36V32.44C93.4979 33.0667 93.6513 33.55 93.9579 33.89C94.2713 34.23 94.6879 34.4 95.2079 34.4C95.6013 34.4 95.9379 34.29 96.2179 34.07C96.5046 33.8433 96.6679 33.5267 96.7079 33.12H97.4779C97.4246 33.6933 97.1846 34.1667 96.7579 34.54C96.3379 34.9067 95.8179 35.09 95.1979 35.09ZM101.028 34.4C101.548 34.4 101.962 34.22 102.268 33.86C102.582 33.5 102.738 33.0233 102.738 32.43V32.36C102.738 31.7533 102.582 31.27 102.268 30.91C101.962 30.55 101.548 30.37 101.028 30.37C100.502 30.37 100.085 30.55 99.7782 30.91C99.4716 31.27 99.3182 31.75 99.3182 32.35V32.43C99.3182 33.0367 99.4682 33.5167 99.7682 33.87C100.075 34.2233 100.495 34.4 101.028 34.4ZM101.018 35.09C100.278 35.09 99.6649 34.84 99.1782 34.34C98.6982 33.8333 98.4582 33.1967 98.4582 32.43V32.35C98.4582 31.57 98.6982 30.93 99.1782 30.43C99.6649 29.93 100.282 29.68 101.028 29.68C101.775 29.68 102.388 29.93 102.868 30.43C103.355 30.9233 103.598 31.56 103.598 32.34V32.42C103.598 33.2067 103.355 33.85 102.868 34.35C102.382 34.8433 101.765 35.09 101.018 35.09ZM105.01 29.77H105.84V30.6C105.974 30.3333 106.184 30.1133 106.47 29.94C106.757 29.7667 107.107 29.68 107.52 29.68C108.094 29.68 108.544 29.85 108.87 30.19C109.197 30.53 109.36 31.0633 109.36 31.79V35H108.53V31.73C108.53 31.27 108.43 30.9333 108.23 30.72C108.03 30.5067 107.72 30.4 107.3 30.4C106.894 30.4 106.547 30.5267 106.26 30.78C105.98 31.0333 105.84 31.3833 105.84 31.83V35H105.01V29.77ZM113.084 35.09C112.384 35.09 111.814 34.86 111.374 34.4C110.941 33.9333 110.724 33.2967 110.724 32.49V32.41C110.724 31.61 110.951 30.9567 111.404 30.45C111.857 29.9367 112.444 29.68 113.164 29.68C113.924 29.68 114.494 29.99 114.874 30.61V27.27H115.704V35H114.874V34.1C114.721 34.3667 114.474 34.6 114.134 34.8C113.794 34.9933 113.444 35.09 113.084 35.09ZM113.174 34.4C113.687 34.4 114.104 34.2333 114.424 33.9C114.744 33.56 114.904 33.0667 114.904 32.42V32.34C114.904 31.68 114.757 31.1867 114.464 30.86C114.177 30.5333 113.771 30.37 113.244 30.37C112.724 30.37 112.317 30.5433 112.024 30.89C111.731 31.2367 111.584 31.73 111.584 32.37V32.45C111.584 33.0833 111.731 33.5667 112.024 33.9C112.324 34.2333 112.707 34.4 113.174 34.4Z" fill="black"></path> <path fill-rule="evenodd" clip-rule="evenodd" d="M16.9358 0.539334L18.1492 0.0933807C18.409 -0.00776877 18.5093 -0.0226423 18.5662 0.0290192C18.6214 0.0794582 18.6255 0.124293 18.6104 0.18768L18.5798 0.292233C18.2797 1.28487 17.8808 2.07028 17.3608 2.69348C16.4797 3.74897 15.461 4.32571 14.2547 4.44882L13.9491 4.47015C13.9037 4.47269 13.8662 4.48573 13.8518 4.49624C13.6622 4.63582 13.5237 4.7462 13.4008 4.85605C13.0121 5.20481 12.6298 5.57513 12.256 5.96686C12.8123 5.62698 13.4926 5.47323 14.2579 5.51239C14.5374 5.52604 14.8156 5.55739 15.0892 5.59387L16.1245 5.74136L16.6156 5.8233C16.7094 5.83925 16.9316 5.88892 16.9827 5.99533C17.0008 6.0314 16.9993 6.07113 16.9792 6.10721L16.9207 6.19565C16.2562 7.0409 15.4981 7.59825 14.6035 7.89862C13.6218 8.22931 12.7097 8.23642 11.885 7.92187L11.6133 7.80514C11.4726 7.72937 11.3067 7.69107 11.1169 7.69107C11.0098 7.69107 10.9226 7.70388 10.8732 7.71286L10.8371 7.71991C10.7778 7.73006 10.705 7.7591 10.6906 7.77832C10.1307 8.50122 9.59919 9.27216 9.10276 10.0832C9.52199 9.68292 10.0688 9.41314 10.814 9.23749C11.3363 9.11524 11.8678 9.06995 12.3901 9.04037L13.3 8.99258L13.9491 8.95294C14.0047 8.95294 14.0472 8.97391 14.0733 9.01034C14.1021 9.04787 14.1093 9.09814 14.0921 9.14346L14.0558 9.23382C14.0495 9.2481 14.0438 9.26023 14.0395 9.26742C13.3591 10.3853 12.5598 11.1586 11.596 11.6309C10.6545 12.093 9.80326 12.2158 8.9456 12.0138C8.84587 11.9899 8.73045 11.9779 8.61225 11.9779C8.24714 11.9779 7.99171 12.0869 7.9376 12.1904C7.46667 13.1448 7.04523 14.1383 6.68178 15.1514C7.06259 14.6352 7.59652 14.2159 8.27097 13.9032C8.71777 13.6959 9.17705 13.5007 9.6337 13.312L11.2144 12.6655C11.2547 12.6477 11.3088 12.6512 11.3492 12.6775C11.3897 12.7038 11.4135 12.7476 11.4135 12.795L11.3896 12.8804C11.2318 13.3573 10.3052 15.6492 9.01189 16.6052C8.43107 17.0343 7.71691 17.4755 6.81512 17.4967C6.59027 17.5007 6.35901 17.5274 6.1658 17.6732L6.00063 17.8237L5.93511 17.8562C5.86216 17.8797 5.84278 17.923 5.80658 18.0702C5.51515 19.2733 5.30241 20.5132 5.17184 21.7727C5.21154 21.6447 5.25698 21.5156 5.30961 21.3847C5.62856 20.5924 6.16376 19.8991 6.9963 19.2025L7.6505 18.6703L9.0479 17.573L9.16981 17.4704C9.21395 17.4343 9.27728 17.4266 9.32714 17.4514C9.37903 17.477 9.41007 17.5301 9.40583 17.5866L9.38773 17.8656C9.37831 18.0249 9.36888 18.175 9.35244 18.3236C9.19879 19.7667 8.76148 20.9713 8.01629 22.0063C7.60076 22.5826 7.02335 23.2734 6.15944 23.6758L5.86069 23.7987C5.60971 23.8893 5.42724 24.0258 5.2324 24.2716C5.04846 24.5024 5.01374 24.7129 5.01817 24.9775C5.03553 26.0872 5.11623 27.1868 5.25844 28.2643C5.2915 27.965 5.36149 27.6561 5.46971 27.3353C5.69336 26.6713 6.04188 26.0256 6.53534 25.3614L7.18274 24.4993L8.36774 22.9518C8.38694 22.9233 8.41321 22.9069 8.43734 22.8961L8.47079 22.8831C8.50034 22.869 8.54799 22.8661 8.58622 22.881C8.6117 22.8922 8.63333 22.9099 8.6488 22.9319L8.68096 23.0118L8.68723 23.0388C8.98309 24.7686 8.80193 26.318 8.1332 27.7766C7.84782 28.4005 7.47688 29.0966 6.87158 29.6504L6.59739 29.8783C6.2452 30.1432 5.96689 30.5153 5.81379 30.9255C5.78147 31.0138 5.78275 31.0522 5.78644 31.067C6.11332 32.3952 6.53959 33.6765 7.05909 34.8885C6.92483 34.2493 6.93424 33.5787 7.08642 32.8824C7.23072 32.2258 7.44428 31.5825 7.66891 30.9843L8.00688 30.1247L8.58049 28.7091C8.60062 28.6582 8.65048 28.6236 8.70681 28.6207C8.74424 28.6192 8.78043 28.6322 8.80768 28.6552L8.84088 28.6965L8.9563 28.9152C9.62355 30.3936 9.8487 31.9091 9.62579 33.4194C9.46641 34.499 9.19583 35.2724 8.74928 35.9266C8.51768 36.2652 8.29848 36.6418 8.25804 37.1048C8.24862 37.2144 8.25305 37.2902 8.30273 37.3767C8.7535 38.1512 9.24811 38.8912 9.78213 39.5907L10.1859 40.1012C9.68431 39.2016 9.66974 38.2358 9.72035 37.4095C9.74965 36.9368 9.79592 36.4649 9.84728 36L10.1048 33.7642C10.1106 33.7167 10.1394 33.6755 10.1835 33.6545C10.1972 33.6474 10.2151 33.6431 10.2354 33.6431C10.3169 33.6431 10.4151 33.7084 10.5254 33.8365C11.4696 34.9325 12.0554 36.1717 12.2669 37.5185C12.4861 38.9148 12.3672 40.11 11.9033 41.1719L11.8943 41.2079L11.8911 41.2796L11.9162 41.8914C11.9199 41.9327 11.943 41.9821 11.9631 42.0007C12.9053 42.8922 13.9434 43.6666 15.058 44.3119C14.5307 43.8439 14.1512 43.2334 13.9059 42.4602C13.6877 41.774 13.5545 41.0658 13.4409 40.3682L13.2728 39.3116L13.1391 38.5006C13.1312 38.4489 13.1513 38.398 13.1932 38.3668C13.2187 38.3464 13.2529 38.3361 13.2867 38.3374L13.336 38.3483L13.3864 38.3683C13.4398 38.3902 13.4867 38.4093 13.5316 38.4319C15.6373 39.4642 17.0232 41.8718 16.8276 44.1565C16.7966 44.5144 16.8298 44.8505 16.9301 45.184C16.9395 45.2138 16.9691 45.2472 16.9805 45.252C17.9811 45.6662 18.932 45.9685 19.8885 46.1755C19.9383 46.1868 19.9773 46.2216 19.9925 46.2676C20.0083 46.3144 19.9989 46.3653 19.9664 46.4029C19.8619 46.524 19.7718 46.6543 19.6973 46.7902C19.6722 46.8361 19.6238 46.8646 19.5712 46.8646L19.538 46.8607C18.9536 46.7295 18.3806 46.5697 17.8278 46.3835L17.2821 46.1887C17.223 46.1653 17.1761 46.1557 17.1379 46.1613C17.0311 46.1755 16.9205 46.1945 16.803 46.2191L16.6213 46.2605C16.5823 46.2696 16.5513 46.2872 16.5441 46.2943C16.1408 47.0866 15.4367 47.5974 14.3979 47.8452C14.1713 47.899 13.9384 47.938 13.7046 47.9617C13.4601 47.9875 13.1873 48 12.8937 48L12.3433 47.9852C12.2502 47.98 12.1954 47.9756 12.1954 47.9756C11.2936 47.8771 10.5246 47.6781 9.84296 47.367C9.56372 47.2398 9.24497 47.0685 9.00027 46.763C8.95336 46.7045 8.9613 46.6193 9.01837 46.5707C9.71018 45.9716 10.4151 45.5362 11.1725 45.2394C12.295 44.8011 13.3179 44.6829 14.32 44.8718C14.4701 44.901 14.6166 44.9363 14.7586 44.978C13.8208 44.4277 12.9234 43.7815 12.0758 43.0448C12.0591 43.0299 12.0324 43.0175 12.01 43.0133L11.6837 42.9673C11.6225 42.9604 11.5589 42.9541 11.4942 42.9495L11.4545 42.9619C11.0031 43.4581 10.4331 43.7285 9.71981 43.7824L9.44552 43.7925L9.31625 43.7908C8.39931 43.7616 7.47812 43.5143 6.57633 43.0557C5.92127 42.72 5.23887 42.3297 4.68482 41.7469L4.51062 41.5443L4.21518 41.1578C4.19136 41.1274 4.18138 41.0878 4.18711 41.0498C4.19431 41.0108 4.2174 40.9758 4.2499 40.9546L4.50205 40.8311C4.56898 40.8005 4.64246 40.7687 4.71363 40.7414C6.14712 40.1976 7.59429 40.142 8.97515 40.5788C9.33639 40.6925 9.68106 40.8527 10.0165 41.0634L10.2646 41.229L9.81364 40.6967C9.36783 40.1524 8.94321 39.5787 8.54154 38.9782L8.14759 38.3687C8.14038 38.3575 8.1223 38.3284 8.11381 38.3215L7.78877 38.1299L7.63473 38.0276C7.57143 37.9813 7.54262 37.969 7.49594 37.9884L7.44136 38.0184C7.32021 38.0956 7.18023 38.1351 7.05834 38.1661C6.34049 38.3469 5.61913 38.2568 4.81983 37.8888C4.08979 37.5531 3.52837 37.0221 3.03065 36.4988C2.30634 35.7347 1.83317 35.0457 1.54175 34.3299L1.46081 34.1023L1.33251 33.6587C1.31575 33.6052 1.33348 33.5487 1.37409 33.5133L1.42188 33.486L1.44498 33.4818L1.71962 33.4874C2.46616 33.519 4.61885 33.7216 5.95229 34.9914C6.28786 35.3106 6.58871 35.6497 6.86277 36.0213C6.37507 35.0075 5.94657 33.9501 5.58155 32.8581L5.30461 31.9839L5.29593 31.9629L4.89408 31.4216C4.88349 31.4057 4.87896 31.4003 4.87007 31.3986L4.42458 31.4162C4.29496 31.4173 4.19646 31.411 4.10992 31.3977C3.53575 31.3084 3.01772 31.0254 2.52573 30.5302C1.37646 29.3733 0.585108 27.9297 0.106786 26.117C0.0726815 25.9874 0.0548917 25.8571 0.042347 25.7232L0.000772691 25.2274C-0.00421347 25.1801 0.0151741 25.1341 0.0519249 25.1035C0.0894157 25.0739 0.141499 25.0633 0.18693 25.0781L0.350551 25.1263C0.460251 25.1575 0.554819 25.1843 0.648638 25.2219C2.13033 25.7997 3.29752 26.7896 4.21593 28.2487C4.44254 28.6094 4.61853 28.9839 4.75851 29.3578C4.55446 28.2406 4.48963 27.7292 4.44895 26.6413L4.43329 26.115L4.4331 26.0256C4.4331 25.8634 4.4331 25.7099 4.39709 25.5688C4.36766 25.4584 4.31912 25.3476 4.26502 25.2385L4.1114 24.9405L4.07593 24.9239C3.65319 24.8601 3.27811 24.6837 2.9311 24.3842C2.58057 24.0803 2.29265 23.7086 2.07473 23.2794C1.29279 21.7395 0.901097 20.0379 0.911253 18.2223L0.925409 17.9613L0.986233 17.435C0.991219 17.3868 1.02151 17.3437 1.06565 17.3232C1.10813 17.3028 1.16222 17.3045 1.2034 17.3288L1.37294 17.4322C2.04019 17.9024 2.62879 18.4867 3.12225 19.1693C3.83865 20.1612 4.28816 21.2683 4.4678 22.4768L4.52153 22.9305L4.56515 22.4142C4.61409 21.8082 4.66544 21.1808 4.70717 20.5639L4.7348 20.3356L4.77642 20.1137C4.83497 19.8256 4.8891 19.5586 4.80248 19.2789L4.74983 19.0891C4.71612 18.9575 4.57381 18.7675 4.35235 18.5545L4.16086 18.3819C3.99307 18.2324 3.48691 17.7221 3.18946 16.7894C2.94153 16.0139 2.89379 15.2124 2.89304 14.5272L2.90302 13.8647C2.92684 12.7806 3.04652 11.963 3.28956 11.2153L3.46133 10.7639C3.4729 10.733 3.49563 10.7076 3.5245 10.6915L3.57175 10.675L3.59558 10.6728C3.62439 10.6728 3.65197 10.6813 3.67526 10.6968L3.70657 10.7252L3.94334 11.0077C5.07728 12.3649 5.63427 13.9578 5.59955 15.7406C5.59309 16.0543 5.56926 16.3763 5.52678 16.7093C5.81525 15.7322 6.15361 14.7818 6.53811 13.8664L6.54764 13.8351L6.55121 13.8018L6.55398 13.6773C6.55841 13.4968 6.56193 13.3095 6.55473 13.1265C6.55325 13.096 6.53311 13.0412 6.49118 12.9876L6.39867 12.8733L6.30226 12.7615C6.18185 12.6236 6.06199 12.4869 5.96614 12.3298C5.66013 11.8264 5.5159 11.2309 5.51368 10.4569C5.50944 9.54636 5.65292 8.58691 5.96466 7.43838C6.13568 6.81173 6.39238 5.99857 6.87219 5.26098L7.03379 5.0451C7.06112 5.00867 7.10303 4.98761 7.14698 4.98761C7.20756 4.99123 7.25096 5.01806 7.27478 5.05993C7.87629 6.12544 8.17586 7.26418 8.19026 8.54086C8.20245 9.60491 8.0329 10.5212 7.82088 11.2451C8.22603 10.518 8.66494 9.80971 9.13363 9.12643L9.64375 8.40921L9.71302 7.90182L9.73427 7.68265L9.634 7.51574L9.56372 7.40991C9.46067 7.25547 9.3567 7.10053 9.2904 6.92688C9.08984 6.40228 9.0444 5.80771 9.15262 5.10946C9.39068 3.56378 10.0845 2.17165 11.275 0.853818L11.4674 0.659726L11.8874 0.282437C11.9234 0.24854 11.9782 0.235524 12.0274 0.249844C12.0601 0.260116 12.0874 0.280919 12.1055 0.308164L12.1254 0.353299L12.1932 0.657163C12.3535 1.59505 12.3411 2.60073 12.1572 3.73022C11.974 4.8501 11.6096 5.81605 11.0506 6.65497C11.8889 5.68499 12.7055 4.87014 13.5604 4.14651L13.5669 4.12317C13.5006 3.56214 13.6418 3.03118 14.0005 2.50296C14.4707 1.80833 15.1245 1.27938 15.9424 0.929532C16.2691 0.7908 16.6037 0.662382 16.9358 0.539334Z" fill="black"></path> <path fill-rule="evenodd" clip-rule="evenodd" d="M120.064 0.539334L118.851 0.0933807C118.591 -0.00776877 118.491 -0.0226423 118.434 0.0290192C118.379 0.0794582 118.375 0.124293 118.39 0.18768L118.42 0.292233C118.72 1.28487 119.119 2.07028 119.639 2.69348C120.52 3.74897 121.539 4.32571 122.745 4.44882L123.051 4.47015C123.096 4.47269 123.134 4.48573 123.148 4.49624C123.338 4.63582 123.476 4.7462 123.599 4.85605C123.988 5.20481 124.37 5.57513 124.744 5.96686C124.188 5.62698 123.507 5.47323 122.742 5.51239C122.463 5.52604 122.184 5.55739 121.911 5.59387L120.876 5.74136L120.384 5.8233C120.291 5.83925 120.068 5.88892 120.017 5.99533C119.999 6.0314 120.001 6.07113 120.021 6.10721L120.079 6.19565C120.744 7.0409 121.502 7.59825 122.397 7.89862C123.378 8.22931 124.29 8.23642 125.115 7.92187L125.387 7.80514C125.527 7.72937 125.693 7.69107 125.883 7.69107C125.99 7.69107 126.077 7.70388 126.127 7.71286L126.163 7.71991C126.222 7.73006 126.295 7.7591 126.309 7.77832C126.869 8.50122 127.401 9.27216 127.897 10.0832C127.478 9.68292 126.931 9.41314 126.186 9.23749C125.664 9.11524 125.132 9.06995 124.61 9.04037L123.7 8.99258L123.051 8.95294C122.995 8.95294 122.953 8.97391 122.927 9.01034C122.898 9.04787 122.891 9.09814 122.908 9.14346L122.944 9.23382C122.95 9.2481 122.956 9.26023 122.961 9.26742C123.641 10.3853 124.44 11.1586 125.404 11.6309C126.346 12.093 127.197 12.2158 128.054 12.0138C128.154 11.9899 128.27 11.9779 128.388 11.9779C128.753 11.9779 129.008 12.0869 129.062 12.1904C129.533 13.1448 129.955 14.1383 130.318 15.1514C129.937 14.6352 129.403 14.2159 128.729 13.9032C128.282 13.6959 127.823 13.5007 127.366 13.312L125.786 12.6655C125.745 12.6477 125.691 12.6512 125.651 12.6775C125.61 12.7038 125.587 12.7476 125.587 12.795L125.61 12.8804C125.768 13.3573 126.695 15.6492 127.988 16.6052C128.569 17.0343 129.283 17.4755 130.185 17.4967C130.41 17.5007 130.641 17.5274 130.834 17.6732L130.999 17.8237L131.065 17.8562C131.138 17.8797 131.157 17.923 131.193 18.0702C131.485 19.2733 131.698 20.5132 131.828 21.7727C131.788 21.6447 131.743 21.5156 131.69 21.3847C131.371 20.5924 130.836 19.8991 130.004 19.2025L129.349 18.6703L127.952 17.573L127.83 17.4704C127.786 17.4343 127.723 17.4266 127.673 17.4514C127.621 17.477 127.59 17.5301 127.594 17.5866L127.612 17.8656C127.622 18.0249 127.631 18.175 127.648 18.3236C127.801 19.7667 128.239 20.9713 128.984 22.0063C129.399 22.5826 129.977 23.2734 130.841 23.6758L131.139 23.7987C131.39 23.8893 131.573 24.0258 131.768 24.2716C131.952 24.5024 131.986 24.7129 131.982 24.9775C131.964 26.0872 131.884 27.1868 131.742 28.2643C131.709 27.965 131.639 27.6561 131.53 27.3353C131.307 26.6713 130.958 26.0256 130.465 25.3614L129.817 24.4993L128.632 22.9518C128.613 22.9233 128.587 22.9069 128.563 22.8961L128.529 22.8831C128.5 22.869 128.452 22.8661 128.414 22.881C128.388 22.8922 128.367 22.9099 128.351 22.9319L128.319 23.0118L128.313 23.0388C128.017 24.7686 128.198 26.318 128.867 27.7766C129.152 28.4005 129.523 29.0966 130.128 29.6504L130.403 29.8783C130.755 30.1432 131.033 30.5153 131.186 30.9255C131.219 31.0138 131.217 31.0522 131.214 31.067C130.887 32.3952 130.46 33.6765 129.941 34.8885C130.075 34.2493 130.066 33.5787 129.914 32.8824C129.769 32.2258 129.556 31.5825 129.331 30.9843L128.993 30.1247L128.42 28.7091C128.399 28.6582 128.35 28.6236 128.293 28.6207C128.256 28.6192 128.22 28.6322 128.192 28.6552L128.159 28.6965L128.044 28.9152C127.376 30.3936 127.151 31.9091 127.374 33.4194C127.534 34.499 127.804 35.2724 128.251 35.9266C128.482 36.2652 128.702 36.6418 128.742 37.1048C128.751 37.2144 128.747 37.2902 128.697 37.3767C128.246 38.1512 127.752 38.8912 127.218 39.5907L126.814 40.1012C127.316 39.2016 127.33 38.2358 127.28 37.4095C127.25 36.9368 127.204 36.4649 127.153 36L126.895 33.7642C126.889 33.7167 126.861 33.6755 126.816 33.6545C126.803 33.6474 126.785 33.6431 126.765 33.6431C126.683 33.6431 126.585 33.7084 126.475 33.8365C125.53 34.9325 124.945 36.1717 124.733 37.5185C124.514 38.9148 124.633 40.11 125.097 41.1719L125.106 41.2079L125.109 41.2796L125.084 41.8914C125.08 41.9327 125.057 41.9821 125.037 42.0007C124.095 42.8922 123.057 43.6666 121.942 44.3119C122.469 43.8439 122.849 43.2334 123.094 42.4602C123.312 41.774 123.446 41.0658 123.559 40.3682L123.727 39.3116L123.861 38.5006C123.869 38.4489 123.849 38.398 123.807 38.3668C123.781 38.3464 123.747 38.3361 123.713 38.3374L123.664 38.3483L123.614 38.3683C123.56 38.3902 123.513 38.4093 123.468 38.4319C121.363 39.4642 119.977 41.8718 120.172 44.1565C120.203 44.5144 120.17 44.8505 120.07 45.184C120.061 45.2138 120.031 45.2472 120.019 45.252C119.019 45.6662 118.068 45.9685 117.112 46.1755C117.062 46.1868 117.023 46.2216 117.008 46.2676C116.992 46.3144 117.001 46.3653 117.034 46.4029C117.138 46.524 117.228 46.6543 117.303 46.7902C117.328 46.8361 117.376 46.8646 117.429 46.8646L117.462 46.8607C118.046 46.7295 118.619 46.5697 119.172 46.3835L119.718 46.1887C119.777 46.1653 119.824 46.1557 119.862 46.1613C119.969 46.1755 120.079 46.1945 120.197 46.2191L120.379 46.2605C120.418 46.2696 120.449 46.2872 120.456 46.2943C120.859 47.0866 121.563 47.5974 122.602 47.8452C122.829 47.899 123.062 47.938 123.295 47.9617C123.54 47.9875 123.813 48 124.106 48L124.657 47.9852C124.75 47.98 124.805 47.9756 124.805 47.9756C125.706 47.8771 126.475 47.6781 127.157 47.367C127.436 47.2398 127.755 47.0685 128 46.763C128.047 46.7045 128.039 46.6193 127.982 46.5707C127.29 45.9716 126.585 45.5362 125.828 45.2394C124.705 44.8011 123.682 44.6829 122.68 44.8718C122.53 44.901 122.383 44.9363 122.241 44.978C123.179 44.4277 124.077 43.7815 124.924 43.0448C124.941 43.0299 124.968 43.0175 124.99 43.0133L125.316 42.9673C125.377 42.9604 125.441 42.9541 125.506 42.9495L125.546 42.9619C125.997 43.4581 126.567 43.7285 127.28 43.7824L127.554 43.7925L127.684 43.7908C128.601 43.7616 129.522 43.5143 130.424 43.0557C131.079 42.72 131.761 42.3297 132.315 41.7469L132.489 41.5443L132.785 41.1578C132.809 41.1274 132.819 41.0878 132.813 41.0498C132.806 41.0108 132.783 40.9758 132.75 40.9546L132.498 40.8311C132.431 40.8005 132.358 40.7687 132.286 40.7414C130.853 40.1976 129.406 40.142 128.025 40.5788C127.664 40.6925 127.319 40.8527 126.984 41.0634L126.735 41.229L127.186 40.6967C127.632 40.1524 128.057 39.5787 128.458 38.9782L128.852 38.3687C128.86 38.3575 128.878 38.3284 128.886 38.3215L129.211 38.1299L129.365 38.0276C129.429 37.9813 129.457 37.969 129.504 37.9884L129.559 38.0184C129.68 38.0956 129.82 38.1351 129.942 38.1661C130.66 38.3469 131.381 38.2568 132.18 37.8888C132.91 37.5531 133.472 37.0221 133.969 36.4988C134.694 35.7347 135.167 35.0457 135.458 34.3299L135.539 34.1023L135.667 33.6587C135.684 33.6052 135.667 33.5487 135.626 33.5133L135.578 33.486L135.555 33.4818L135.28 33.4874C134.534 33.519 132.381 33.7216 131.048 34.9914C130.712 35.3106 130.411 35.6497 130.137 36.0213C130.625 35.0075 131.053 33.9501 131.418 32.8581L131.695 31.9839L131.704 31.9629L132.106 31.4216C132.117 31.4057 132.121 31.4003 132.13 31.3986L132.575 31.4162C132.705 31.4173 132.804 31.411 132.89 31.3977C133.464 31.3084 133.982 31.0254 134.474 30.5302C135.624 29.3733 136.415 27.9297 136.893 26.117C136.927 25.9874 136.945 25.8571 136.958 25.7232L136.999 25.2274C137.004 25.1801 136.985 25.1341 136.948 25.1035C136.911 25.0739 136.859 25.0633 136.813 25.0781L136.649 25.1263C136.54 25.1575 136.445 25.1843 136.351 25.2219C134.87 25.7997 133.702 26.7896 132.784 28.2487C132.557 28.6094 132.381 28.9839 132.241 29.3578C132.446 28.2406 132.51 27.7292 132.551 26.6413L132.567 26.115L132.567 26.0256C132.567 25.8634 132.567 25.7099 132.603 25.5688C132.632 25.4584 132.681 25.3476 132.735 25.2385L132.889 24.9405L132.924 24.9239C133.347 24.8601 133.722 24.6837 134.069 24.3842C134.419 24.0803 134.707 23.7086 134.925 23.2794C135.707 21.7395 136.099 20.0379 136.089 18.2223L136.075 17.9613L136.014 17.435C136.009 17.3868 135.978 17.3437 135.934 17.3232C135.892 17.3028 135.838 17.3045 135.797 17.3288L135.627 17.4322C134.96 17.9024 134.371 18.4867 133.878 19.1693C133.161 20.1612 132.712 21.2683 132.532 22.4768L132.478 22.9305L132.435 22.4142C132.386 21.8082 132.335 21.1808 132.293 20.5639L132.265 20.3356L132.224 20.1137C132.165 19.8256 132.111 19.5586 132.198 19.2789L132.25 19.0891C132.284 18.9575 132.426 18.7675 132.648 18.5545L132.839 18.3819C133.007 18.2324 133.513 17.7221 133.811 16.7894C134.058 16.0139 134.106 15.2124 134.107 14.5272L134.097 13.8647C134.073 12.7806 133.953 11.963 133.71 11.2153L133.539 10.7639C133.527 10.733 133.504 10.7076 133.476 10.6915L133.428 10.675L133.404 10.6728C133.376 10.6728 133.348 10.6813 133.325 10.6968L133.293 10.7252L133.057 11.0077C131.923 12.3649 131.366 13.9578 131.4 15.7406C131.407 16.0543 131.431 16.3763 131.473 16.7093C131.185 15.7322 130.846 14.7818 130.462 13.8664L130.452 13.8351L130.449 13.8018L130.446 13.6773C130.442 13.4968 130.438 13.3095 130.445 13.1265C130.447 13.096 130.467 13.0412 130.509 12.9876L130.601 12.8733L130.698 12.7615C130.818 12.6236 130.938 12.4869 131.034 12.3298C131.34 11.8264 131.484 11.2309 131.486 10.4569C131.491 9.54636 131.347 8.58691 131.035 7.43838C130.864 6.81173 130.608 5.99857 130.128 5.26098L129.966 5.0451C129.939 5.00867 129.897 4.98761 129.853 4.98761C129.792 4.99123 129.749 5.01806 129.725 5.05993C129.124 6.12544 128.824 7.26418 128.81 8.54086C128.798 9.60491 128.967 10.5212 129.179 11.2451C128.774 10.518 128.335 9.80971 127.866 9.12643L127.356 8.40921L127.287 7.90182L127.266 7.68265L127.366 7.51574L127.436 7.40991C127.539 7.25547 127.643 7.10053 127.71 6.92688C127.91 6.40228 127.956 5.80771 127.847 5.10946C127.609 3.56378 126.915 2.17165 125.725 0.853818L125.533 0.659726L125.113 0.282437C125.077 0.24854 125.022 0.235524 124.973 0.249844C124.94 0.260116 124.913 0.280919 124.894 0.308164L124.875 0.353299L124.807 0.657163C124.646 1.59505 124.659 2.60073 124.843 3.73022C125.026 4.8501 125.39 5.81605 125.949 6.65497C125.111 5.68499 124.294 4.87014 123.44 4.14651L123.433 4.12317C123.499 3.56214 123.358 3.03118 123 2.50296C122.529 1.80833 121.876 1.27938 121.058 0.929532C120.731 0.7908 120.396 0.662382 120.064 0.539334Z" fill="black"></path> <path d="M192.02 13.816C192.46 14.328 193.036 14.584 193.748 14.584C194.46 14.584 195.036 14.324 195.476 13.804C195.9 13.292 196.112 12.604 196.112 11.74V11.644C196.112 10.812 195.904 10.136 195.488 9.616C195.048 9.096 194.46 8.836 193.724 8.836C192.996 8.836 192.412 9.088 191.972 9.592C191.548 10.088 191.336 10.776 191.336 11.656V11.752C191.336 12.624 191.564 13.312 192.02 13.816ZM196.928 14.884C196.112 15.716 195.04 16.132 193.712 16.132C192.384 16.132 191.316 15.716 190.508 14.884C189.708 14.084 189.308 13.044 189.308 11.764V11.668C189.308 10.372 189.728 9.324 190.568 8.524C191.4 7.708 192.452 7.3 193.724 7.3C195.028 7.3 196.088 7.696 196.904 8.488C197.728 9.312 198.14 10.356 198.14 11.62V11.716C198.14 13.004 197.736 14.06 196.928 14.884ZM198.933 9.724H200.793L202.293 14.212L203.781 9.724H205.461L203.181 16H201.225L198.933 9.724ZM209.128 16.132C208.152 16.132 207.372 15.848 206.788 15.28C206.164 14.704 205.852 13.924 205.852 12.94V12.844C205.852 11.868 206.164 11.076 206.788 10.468C207.396 9.876 208.16 9.58 209.08 9.58C209.952 9.58 210.664 9.832 211.216 10.336C211.832 10.896 212.14 11.708 212.14 12.772V13.252H207.616C207.64 13.78 207.784 14.188 208.048 14.476C208.32 14.756 208.696 14.896 209.176 14.896C209.928 14.896 210.364 14.604 210.484 14.02H212.128C212.024 14.7 211.712 15.224 211.192 15.592C210.68 15.952 209.992 16.132 209.128 16.132ZM210.448 12.184C210.392 11.248 209.936 10.78 209.08 10.78C208.688 10.78 208.364 10.904 208.108 11.152C207.86 11.392 207.704 11.736 207.64 12.184H210.448ZM213.42 9.724H215.16V10.924C215.56 10.068 216.236 9.636 217.188 9.628V11.248C216.516 11.24 216.008 11.36 215.664 11.608C215.328 11.856 215.16 12.272 215.16 12.856V16H213.42V9.724ZM222.487 9.34L220.747 10.48V8.824L222.727 7.42H224.431V16H222.487V9.34ZM225.784 17.032L226.84 14.068L228.472 14.68L226.84 17.476L225.784 17.032ZM232.945 14.608C234.121 14.608 234.709 13.7 234.709 11.884V11.5C234.709 9.7 234.113 8.8 232.921 8.8C231.713 8.8 231.109 9.7 231.109 11.5V11.908C231.109 13.708 231.721 14.608 232.945 14.608ZM232.897 16.132C231.745 16.132 230.841 15.756 230.185 15.004C229.505 14.26 229.165 13.232 229.165 11.92V11.512C229.165 10.208 229.513 9.176 230.209 8.416C230.889 7.672 231.789 7.3 232.909 7.3C234.029 7.3 234.929 7.66 235.609 8.38C236.297 9.132 236.641 10.164 236.641 11.476V11.872C236.641 13.184 236.309 14.224 235.645 14.992C234.957 15.752 234.041 16.132 232.897 16.132ZM241.64 14.608C242.816 14.608 243.404 13.7 243.404 11.884V11.5C243.404 9.7 242.808 8.8 241.616 8.8C240.408 8.8 239.804 9.7 239.804 11.5V11.908C239.804 13.708 240.416 14.608 241.64 14.608ZM241.592 16.132C240.44 16.132 239.536 15.756 238.88 15.004C238.2 14.26 237.86 13.232 237.86 11.92V11.512C237.86 10.208 238.208 9.176 238.904 8.416C239.584 7.672 240.484 7.3 241.604 7.3C242.724 7.3 243.624 7.66 244.304 8.38C244.992 9.132 245.336 10.164 245.336 11.476V11.872C245.336 13.184 245.004 14.224 244.34 14.992C243.652 15.752 242.736 16.132 241.592 16.132ZM250.335 14.608C251.511 14.608 252.099 13.7 252.099 11.884V11.5C252.099 9.7 251.503 8.8 250.311 8.8C249.103 8.8 248.499 9.7 248.499 11.5V11.908C248.499 13.708 249.111 14.608 250.335 14.608ZM250.287 16.132C249.135 16.132 248.231 15.756 247.575 15.004C246.895 14.26 246.555 13.232 246.555 11.92V11.512C246.555 10.208 246.903 9.176 247.599 8.416C248.279 7.672 249.179 7.3 250.299 7.3C251.419 7.3 252.319 7.66 252.999 8.38C253.687 9.132 254.031 10.164 254.031 11.476V11.872C254.031 13.184 253.699 14.224 253.035 14.992C252.347 15.752 251.431 16.132 250.287 16.132ZM254.389 17.032L255.445 14.068L257.077 14.68L255.445 17.476L254.389 17.032ZM261.55 14.608C262.726 14.608 263.314 13.7 263.314 11.884V11.5C263.314 9.7 262.718 8.8 261.526 8.8C260.318 8.8 259.714 9.7 259.714 11.5V11.908C259.714 13.708 260.326 14.608 261.55 14.608ZM261.502 16.132C260.35 16.132 259.446 15.756 258.79 15.004C258.11 14.26 257.77 13.232 257.77 11.92V11.512C257.77 10.208 258.118 9.176 258.814 8.416C259.494 7.672 260.394 7.3 261.514 7.3C262.634 7.3 263.534 7.66 264.214 8.38C264.902 9.132 265.246 10.164 265.246 11.476V11.872C265.246 13.184 264.914 14.224 264.25 14.992C263.562 15.752 262.646 16.132 261.502 16.132ZM270.246 14.608C271.422 14.608 272.01 13.7 272.01 11.884V11.5C272.01 9.7 271.414 8.8 270.222 8.8C269.014 8.8 268.41 9.7 268.41 11.5V11.908C268.41 13.708 269.022 14.608 270.246 14.608ZM270.198 16.132C269.046 16.132 268.142 15.756 267.486 15.004C266.806 14.26 266.466 13.232 266.466 11.92V11.512C266.466 10.208 266.814 9.176 267.51 8.416C268.19 7.672 269.09 7.3 270.21 7.3C271.33 7.3 272.23 7.66 272.91 8.38C273.598 9.132 273.942 10.164 273.942 11.476V11.872C273.942 13.184 273.61 14.224 272.946 14.992C272.258 15.752 271.342 16.132 270.198 16.132ZM278.941 14.608C280.117 14.608 280.705 13.7 280.705 11.884V11.5C280.705 9.7 280.109 8.8 278.917 8.8C277.709 8.8 277.105 9.7 277.105 11.5V11.908C277.105 13.708 277.717 14.608 278.941 14.608ZM278.893 16.132C277.741 16.132 276.837 15.756 276.181 15.004C275.501 14.26 275.161 13.232 275.161 11.92V11.512C275.161 10.208 275.509 9.176 276.205 8.416C276.885 7.672 277.785 7.3 278.905 7.3C280.025 7.3 280.925 7.66 281.605 8.38C282.293 9.132 282.637 10.164 282.637 11.476V11.872C282.637 13.184 282.305 14.224 281.641 14.992C280.953 15.752 280.037 16.132 278.893 16.132Z" fill="black"></path> <path d="M190.315 33.09C189.568 33.09 188.955 32.85 188.475 32.37C187.995 31.8833 187.755 31.24 187.755 30.44V30.36C187.755 29.5733 187.998 28.93 188.485 28.43C188.978 27.93 189.582 27.68 190.295 27.68C190.895 27.68 191.405 27.83 191.825 28.13C192.245 28.4233 192.492 28.8833 192.565 29.51H191.745C191.625 28.75 191.142 28.37 190.295 28.37C189.808 28.37 189.405 28.5533 189.085 28.92C188.772 29.28 188.615 29.76 188.615 30.36V30.44C188.615 31.0667 188.768 31.55 189.075 31.89C189.388 32.23 189.805 32.4 190.325 32.4C190.718 32.4 191.055 32.29 191.335 32.07C191.622 31.8433 191.785 31.5267 191.825 31.12H192.595C192.542 31.6933 192.302 32.1667 191.875 32.54C191.455 32.9067 190.935 33.09 190.315 33.09ZM193.965 25.27H194.795V28.6C194.929 28.3333 195.139 28.1133 195.425 27.94C195.712 27.7667 196.062 27.68 196.475 27.68C197.049 27.68 197.499 27.85 197.825 28.19C198.152 28.53 198.315 29.0633 198.315 29.79V33H197.485V29.73C197.485 29.27 197.385 28.9333 197.185 28.72C196.985 28.5067 196.675 28.4 196.255 28.4C195.849 28.4 195.502 28.5267 195.215 28.78C194.935 29.0333 194.795 29.3833 194.795 29.83V33H193.965V25.27ZM200.089 27.77H200.919V33H200.089V27.77ZM200.879 26.52C200.772 26.6267 200.642 26.68 200.489 26.68C200.336 26.68 200.206 26.6267 200.099 26.52C199.992 26.4133 199.939 26.2833 199.939 26.13C199.939 25.9767 199.992 25.8467 200.099 25.74C200.206 25.6333 200.336 25.58 200.489 25.58C200.642 25.58 200.772 25.6333 200.879 25.74C200.986 25.8467 201.039 25.9767 201.039 26.13C201.039 26.2833 200.986 26.4133 200.879 26.52ZM202.755 25.27H203.595V33H202.755V25.27ZM207.381 33.09C206.681 33.09 206.111 32.86 205.671 32.4C205.237 31.9333 205.021 31.2967 205.021 30.49V30.41C205.021 29.61 205.247 28.9567 205.701 28.45C206.154 27.9367 206.741 27.68 207.461 27.68C208.221 27.68 208.791 27.99 209.171 28.61V25.27H210.001V33H209.171V32.1C209.017 32.3667 208.771 32.6 208.431 32.8C208.091 32.9933 207.741 33.09 207.381 33.09ZM207.471 32.4C207.984 32.4 208.401 32.2333 208.721 31.9C209.041 31.56 209.201 31.0667 209.201 30.42V30.34C209.201 29.68 209.054 29.1867 208.761 28.86C208.474 28.5333 208.067 28.37 207.541 28.37C207.021 28.37 206.614 28.5433 206.321 28.89C206.027 29.2367 205.881 29.73 205.881 30.37V30.45C205.881 31.0833 206.027 31.5667 206.321 31.9C206.621 32.2333 207.004 32.4 207.471 32.4ZM211.797 27.77H212.627V28.71C212.801 28.39 213.021 28.1433 213.287 27.97C213.554 27.79 213.907 27.6933 214.347 27.68V28.46C213.774 28.4867 213.344 28.62 213.057 28.86C212.771 29.1 212.627 29.5233 212.627 30.13V33H211.797V27.77ZM217.668 33.09C216.921 33.09 216.311 32.8467 215.838 32.36C215.371 31.8733 215.138 31.2333 215.138 30.44V30.36C215.138 29.5733 215.365 28.93 215.818 28.43C216.278 27.93 216.868 27.68 217.588 27.68C218.255 27.68 218.811 27.8967 219.258 28.33C219.711 28.7567 219.938 29.4067 219.938 30.28V30.55H215.998C216.038 31.7833 216.598 32.4 217.678 32.4C218.498 32.4 218.961 32.0967 219.068 31.49H219.898C219.805 32.01 219.561 32.4067 219.168 32.68C218.775 32.9533 218.275 33.09 217.668 33.09ZM219.088 29.88C219.015 28.8733 218.515 28.37 217.588 28.37C217.168 28.37 216.821 28.5033 216.548 28.77C216.275 29.0367 216.101 29.4067 216.028 29.88H219.088ZM221.329 27.77H222.159V28.6C222.292 28.3333 222.502 28.1133 222.789 27.94C223.075 27.7667 223.425 27.68 223.839 27.68C224.412 27.68 224.862 27.85 225.189 28.19C225.515 28.53 225.679 29.0633 225.679 29.79V33H224.849V29.73C224.849 29.27 224.749 28.9333 224.549 28.72C224.349 28.5067 224.039 28.4 223.619 28.4C223.212 28.4 222.865 28.5267 222.579 28.78C222.299 29.0333 222.159 29.3833 222.159 29.83V33H221.329V27.77ZM230.079 25.27H230.909V28.6C231.042 28.3333 231.252 28.1133 231.539 27.94C231.825 27.7667 232.175 27.68 232.589 27.68C233.162 27.68 233.612 27.85 233.939 28.19C234.265 28.53 234.429 29.0633 234.429 29.79V33H233.599V29.73C233.599 29.27 233.499 28.9333 233.299 28.72C233.099 28.5067 232.789 28.4 232.369 28.4C231.962 28.4 231.615 28.5267 231.329 28.78C231.049 29.0333 230.909 29.3833 230.909 29.83V33H230.079V25.27ZM237.492 33.09C236.979 33.09 236.559 32.9633 236.232 32.71C235.912 32.45 235.752 32.0633 235.752 31.55C235.752 31.2633 235.822 31.0133 235.962 30.8C236.109 30.58 236.309 30.41 236.562 30.29C236.816 30.1633 237.092 30.0733 237.392 30.02C237.692 29.96 238.019 29.93 238.372 29.93H239.122V29.55C239.122 29.13 239.036 28.83 238.862 28.65C238.689 28.4633 238.402 28.37 238.002 28.37C237.282 28.37 236.882 28.6833 236.802 29.31H235.972C236.026 28.75 236.242 28.34 236.622 28.08C237.009 27.8133 237.482 27.68 238.042 27.68C239.316 27.68 239.952 28.3033 239.952 29.55V33H239.122V32.34C238.722 32.84 238.179 33.09 237.492 33.09ZM237.572 32.43C238.026 32.43 238.396 32.32 238.682 32.1C238.976 31.8733 239.122 31.5633 239.122 31.17V30.52H238.402C237.189 30.52 236.582 30.8633 236.582 31.55C236.582 32.1367 236.912 32.43 237.572 32.43ZM240.963 27.77H241.863L243.413 32.16L244.943 27.77H245.803L243.923 33H242.863L240.963 27.77ZM249.006 33.09C248.259 33.09 247.649 32.8467 247.176 32.36C246.709 31.8733 246.476 31.2333 246.476 30.44V30.36C246.476 29.5733 246.702 28.93 247.156 28.43C247.616 27.93 248.206 27.68 248.926 27.68C249.592 27.68 250.149 27.8967 250.596 28.33C251.049 28.7567 251.276 29.4067 251.276 30.28V30.55H247.336C247.376 31.7833 247.936 32.4 249.016 32.4C249.836 32.4 250.299 32.0967 250.406 31.49H251.236C251.142 32.01 250.899 32.4067 250.506 32.68C250.112 32.9533 249.612 33.09 249.006 33.09ZM250.426 29.88C250.352 28.8733 249.852 28.37 248.926 28.37C248.506 28.37 248.159 28.5033 247.886 28.77C247.612 29.0367 247.439 29.4067 247.366 29.88H250.426ZM257.403 34.91C256.67 34.91 256.11 34.76 255.723 34.46C255.336 34.1667 255.106 33.78 255.033 33.3H255.883C256.003 33.9067 256.506 34.21 257.393 34.21C257.926 34.21 258.34 34.0767 258.633 33.81C258.926 33.55 259.073 33.1467 259.073 32.6V31.84C258.92 32.1067 258.676 32.34 258.343 32.54C258.01 32.7333 257.663 32.83 257.303 32.83C256.616 32.83 256.046 32.5967 255.593 32.13C255.146 31.6633 254.923 31.07 254.923 30.35V30.28C254.923 29.5533 255.153 28.94 255.613 28.44C256.073 27.9333 256.656 27.68 257.363 27.68C258.123 27.68 258.693 27.99 259.073 28.61V27.77H259.903V32.65C259.903 33.3833 259.673 33.9433 259.213 34.33C258.76 34.7167 258.156 34.91 257.403 34.91ZM257.393 32.14C257.893 32.14 258.303 31.9767 258.623 31.65C258.943 31.3167 259.103 30.8633 259.103 30.29V30.22C259.103 29.64 258.956 29.1867 258.663 28.86C258.37 28.5333 257.963 28.37 257.443 28.37C256.93 28.37 256.523 28.5433 256.223 28.89C255.93 29.2367 255.783 29.6867 255.783 30.24V30.32C255.783 30.8733 255.936 31.3167 256.243 31.65C256.556 31.9767 256.94 32.14 257.393 32.14ZM261.7 27.77H262.53V28.71C262.703 28.39 262.923 28.1433 263.19 27.97C263.456 27.79 263.81 27.6933 264.25 27.68V28.46C263.676 28.4867 263.246 28.62 262.96 28.86C262.673 29.1 262.53 29.5233 262.53 30.13V33H261.7V27.77ZM267.61 32.4C268.13 32.4 268.544 32.22 268.85 31.86C269.164 31.5 269.32 31.0233 269.32 30.43V30.36C269.32 29.7533 269.164 29.27 268.85 28.91C268.544 28.55 268.13 28.37 267.61 28.37C267.084 28.37 266.667 28.55 266.36 28.91C266.054 29.27 265.9 29.75 265.9 30.35V30.43C265.9 31.0367 266.05 31.5167 266.35 31.87C266.657 32.2233 267.077 32.4 267.61 32.4ZM267.6 33.09C266.86 33.09 266.247 32.84 265.76 32.34C265.28 31.8333 265.04 31.1967 265.04 30.43V30.35C265.04 29.57 265.28 28.93 265.76 28.43C266.247 27.93 266.864 27.68 267.61 27.68C268.357 27.68 268.97 27.93 269.45 28.43C269.937 28.9233 270.18 29.56 270.18 30.34V30.42C270.18 31.2067 269.937 31.85 269.45 32.35C268.964 32.8433 268.347 33.09 267.6 33.09ZM270.935 27.77H271.835L273.055 31.98L274.325 27.77H275.045L276.235 31.98L277.465 27.77H278.315L276.685 33H275.765L274.675 29.08L273.455 33H272.545L270.935 27.77ZM279.551 27.77H280.381V28.6C280.515 28.3333 280.725 28.1133 281.011 27.94C281.298 27.7667 281.648 27.68 282.061 27.68C282.635 27.68 283.085 27.85 283.411 28.19C283.738 28.53 283.901 29.0633 283.901 29.79V33H283.071V29.73C283.071 29.27 282.971 28.9333 282.771 28.72C282.571 28.5067 282.261 28.4 281.841 28.4C281.435 28.4 281.088 28.5267 280.801 28.78C280.521 29.0333 280.381 29.3833 280.381 29.83V33H279.551V27.77ZM219.275 39.77H220.175L221.395 43.98L222.665 39.77H223.385L224.575 43.98L225.805 39.77H226.655L225.025 45H224.105L223.015 41.08L221.795 45H220.885L219.275 39.77ZM227.911 39.77H228.741V45H227.911V39.77ZM228.701 38.52C228.595 38.6267 228.465 38.68 228.311 38.68C228.158 38.68 228.028 38.6267 227.921 38.52C227.815 38.4133 227.761 38.2833 227.761 38.13C227.761 37.9767 227.815 37.8467 227.921 37.74C228.028 37.6333 228.158 37.58 228.311 37.58C228.465 37.58 228.595 37.6333 228.701 37.74C228.808 37.8467 228.861 37.9767 228.861 38.13C228.861 38.2833 228.808 38.4133 228.701 38.52ZM232.147 45.07C231.681 45.07 231.327 44.9467 231.087 44.7C230.854 44.4533 230.737 44.1167 230.737 43.69V40.47H229.987V39.77H230.737V38.58H231.567V39.77H232.787V40.47H231.567V43.61C231.567 44.1167 231.784 44.37 232.217 44.37C232.444 44.37 232.657 44.3333 232.857 44.26V44.96C232.677 45.0333 232.441 45.07 232.147 45.07ZM234.229 37.27H235.059V40.6C235.192 40.3333 235.402 40.1133 235.689 39.94C235.976 39.7667 236.326 39.68 236.739 39.68C237.312 39.68 237.762 39.85 238.089 40.19C238.416 40.53 238.579 41.0633 238.579 41.79V45H237.749V41.73C237.749 41.27 237.649 40.9333 237.449 40.72C237.249 40.5067 236.939 40.4 236.519 40.4C236.112 40.4 235.766 40.5267 235.479 40.78C235.199 41.0333 235.059 41.3833 235.059 41.83V45H234.229V37.27ZM244.749 45.09C244.196 45.09 243.752 44.9267 243.419 44.6C243.092 44.2733 242.929 43.7667 242.929 43.08V39.77H243.759V43.04C243.759 43.5 243.856 43.8367 244.049 44.05C244.249 44.2633 244.556 44.37 244.969 44.37C245.369 44.37 245.709 44.2433 245.989 43.99C246.269 43.7367 246.409 43.3867 246.409 42.94V39.77H247.239V45H246.409V44.17C246.282 44.4367 246.072 44.6567 245.779 44.83C245.492 45.0033 245.149 45.09 244.749 45.09ZM252.094 44.67C251.767 44.95 251.29 45.09 250.664 45.09C250.037 45.09 249.544 44.9433 249.184 44.65C248.83 44.35 248.64 43.93 248.614 43.39H249.424C249.464 43.7233 249.577 43.9767 249.764 44.15C249.957 44.3167 250.254 44.4 250.654 44.4C251.047 44.4 251.334 44.3333 251.514 44.2C251.7 44.06 251.794 43.85 251.794 43.57C251.794 43.31 251.697 43.12 251.504 43C251.317 42.8733 251.007 42.77 250.574 42.69C249.894 42.57 249.42 42.3967 249.154 42.17C248.887 41.9433 248.754 41.6033 248.754 41.15C248.754 40.6967 248.934 40.34 249.294 40.08C249.66 39.8133 250.07 39.68 250.524 39.68C251.037 39.68 251.464 39.8 251.804 40.04C252.15 40.28 252.354 40.6633 252.414 41.19H251.614C251.554 40.9033 251.437 40.6967 251.264 40.57C251.097 40.4367 250.847 40.37 250.514 40.37C250.214 40.37 249.974 40.44 249.794 40.58C249.614 40.7133 249.524 40.8933 249.524 41.12C249.524 41.3533 249.607 41.53 249.774 41.65C249.947 41.77 250.27 41.87 250.744 41.95C251.004 42.0033 251.207 42.05 251.354 42.09C251.507 42.13 251.67 42.19 251.844 42.27C252.024 42.3433 252.16 42.4333 252.254 42.54C252.347 42.64 252.424 42.77 252.484 42.93C252.55 43.09 252.584 43.28 252.584 43.5C252.584 43.9933 252.42 44.3833 252.094 44.67Z" fill="black"></path> <path fill-rule="evenodd" clip-rule="evenodd" d="M177.936 0.539334L179.149 0.0933807C179.409 -0.00776877 179.509 -0.0226423 179.566 0.0290192C179.621 0.0794582 179.625 0.124293 179.61 0.18768L179.58 0.292233C179.28 1.28487 178.881 2.07028 178.361 2.69348C177.48 3.74897 176.461 4.32571 175.255 4.44882L174.949 4.47015C174.904 4.47269 174.866 4.48573 174.852 4.49624C174.662 4.63582 174.524 4.7462 174.401 4.85605C174.012 5.20481 173.63 5.57513 173.256 5.96686C173.812 5.62698 174.493 5.47323 175.258 5.51239C175.537 5.52604 175.816 5.55739 176.089 5.59387L177.124 5.74136L177.616 5.8233C177.709 5.83925 177.932 5.88892 177.983 5.99533C178.001 6.0314 177.999 6.07113 177.979 6.10721L177.921 6.19565C177.256 7.0409 176.498 7.59825 175.603 7.89862C174.622 8.22931 173.71 8.23642 172.885 7.92187L172.613 7.80514C172.473 7.72937 172.307 7.69107 172.117 7.69107C172.01 7.69107 171.923 7.70388 171.873 7.71286L171.837 7.71991C171.778 7.73006 171.705 7.7591 171.691 7.77832C171.131 8.50122 170.599 9.27216 170.103 10.0832C170.522 9.68292 171.069 9.41314 171.814 9.23749C172.336 9.11524 172.868 9.06995 173.39 9.04037L174.3 8.99258L174.949 8.95294C175.005 8.95294 175.047 8.97391 175.073 9.01034C175.102 9.04787 175.109 9.09814 175.092 9.14346L175.056 9.23382C175.05 9.2481 175.044 9.26023 175.039 9.26742C174.359 10.3853 173.56 11.1586 172.596 11.6309C171.654 12.093 170.803 12.2158 169.946 12.0138C169.846 11.9899 169.73 11.9779 169.612 11.9779C169.247 11.9779 168.992 12.0869 168.938 12.1904C168.467 13.1448 168.045 14.1383 167.682 15.1514C168.063 14.6352 168.597 14.2159 169.271 13.9032C169.718 13.6959 170.177 13.5007 170.634 13.312L172.214 12.6655C172.255 12.6477 172.309 12.6512 172.349 12.6775C172.39 12.7038 172.413 12.7476 172.413 12.795L172.39 12.8804C172.232 13.3573 171.305 15.6492 170.012 16.6052C169.431 17.0343 168.717 17.4755 167.815 17.4967C167.59 17.5007 167.359 17.5274 167.166 17.6732L167.001 17.8237L166.935 17.8562C166.862 17.8797 166.843 17.923 166.807 18.0702C166.515 19.2733 166.302 20.5132 166.172 21.7727C166.212 21.6447 166.257 21.5156 166.31 21.3847C166.629 20.5924 167.164 19.8991 167.996 19.2025L168.651 18.6703L170.048 17.573L170.17 17.4704C170.214 17.4343 170.277 17.4266 170.327 17.4514C170.379 17.477 170.41 17.5301 170.406 17.5866L170.388 17.8656C170.378 18.0249 170.369 18.175 170.352 18.3236C170.199 19.7667 169.761 20.9713 169.016 22.0063C168.601 22.5826 168.023 23.2734 167.159 23.6758L166.861 23.7987C166.61 23.8893 166.427 24.0258 166.232 24.2716C166.048 24.5024 166.014 24.7129 166.018 24.9775C166.036 26.0872 166.116 27.1868 166.258 28.2643C166.291 27.965 166.361 27.6561 166.47 27.3353C166.693 26.6713 167.042 26.0256 167.535 25.3614L168.183 24.4993L169.368 22.9518C169.387 22.9233 169.413 22.9069 169.437 22.8961L169.471 22.8831C169.5 22.869 169.548 22.8661 169.586 22.881C169.612 22.8922 169.633 22.9099 169.649 22.9319L169.681 23.0118L169.687 23.0388C169.983 24.7686 169.802 26.318 169.133 27.7766C168.848 28.4005 168.477 29.0966 167.872 29.6504L167.597 29.8783C167.245 30.1432 166.967 30.5153 166.814 30.9255C166.781 31.0138 166.783 31.0522 166.786 31.067C167.113 32.3952 167.54 33.6765 168.059 34.8885C167.925 34.2493 167.934 33.5787 168.086 32.8824C168.231 32.2258 168.444 31.5825 168.669 30.9843L169.007 30.1247L169.58 28.7091C169.601 28.6582 169.65 28.6236 169.707 28.6207C169.744 28.6192 169.78 28.6322 169.808 28.6552L169.841 28.6965L169.956 28.9152C170.624 30.3936 170.849 31.9091 170.626 33.4194C170.466 34.499 170.196 35.2724 169.749 35.9266C169.518 36.2652 169.298 36.6418 169.258 37.1048C169.249 37.2144 169.253 37.2902 169.303 37.3767C169.754 38.1512 170.248 38.8912 170.782 39.5907L171.186 40.1012C170.684 39.2016 170.67 38.2358 170.72 37.4095C170.75 36.9368 170.796 36.4649 170.847 36L171.105 33.7642C171.111 33.7167 171.139 33.6755 171.184 33.6545C171.197 33.6474 171.215 33.6431 171.235 33.6431C171.317 33.6431 171.415 33.7084 171.525 33.8365C172.47 34.9325 173.055 36.1717 173.267 37.5185C173.486 38.9148 173.367 40.11 172.903 41.1719L172.894 41.2079L172.891 41.2796L172.916 41.8914C172.92 41.9327 172.943 41.9821 172.963 42.0007C173.905 42.8922 174.943 43.6666 176.058 44.3119C175.531 43.8439 175.151 43.2334 174.906 42.4602C174.688 41.774 174.554 41.0658 174.441 40.3682L174.273 39.3116L174.139 38.5006C174.131 38.4489 174.151 38.398 174.193 38.3668C174.219 38.3464 174.253 38.3361 174.287 38.3374L174.336 38.3483L174.386 38.3683C174.44 38.3902 174.487 38.4093 174.532 38.4319C176.637 39.4642 178.023 41.8718 177.828 44.1565C177.797 44.5144 177.83 44.8505 177.93 45.184C177.939 45.2138 177.969 45.2472 177.981 45.252C178.981 45.6662 179.932 45.9685 180.888 46.1755C180.938 46.1868 180.977 46.2216 180.992 46.2676C181.008 46.3144 180.999 46.3653 180.966 46.4029C180.862 46.524 180.772 46.6543 180.697 46.7902C180.672 46.8361 180.624 46.8646 180.571 46.8646L180.538 46.8607C179.954 46.7295 179.381 46.5697 178.828 46.3835L178.282 46.1887C178.223 46.1653 178.176 46.1557 178.138 46.1613C178.031 46.1755 177.921 46.1945 177.803 46.2191L177.621 46.2605C177.582 46.2696 177.551 46.2872 177.544 46.2943C177.141 47.0866 176.437 47.5974 175.398 47.8452C175.171 47.899 174.938 47.938 174.705 47.9617C174.46 47.9875 174.187 48 173.894 48L173.343 47.9852C173.25 47.98 173.195 47.9756 173.195 47.9756C172.294 47.8771 171.525 47.6781 170.843 47.367C170.564 47.2398 170.245 47.0685 170 46.763C169.953 46.7045 169.961 46.6193 170.018 46.5707C170.71 45.9716 171.415 45.5362 172.172 45.2394C173.295 44.8011 174.318 44.6829 175.32 44.8718C175.47 44.901 175.617 44.9363 175.759 44.978C174.821 44.4277 173.923 43.7815 173.076 43.0448C173.059 43.0299 173.032 43.0175 173.01 43.0133L172.684 42.9673C172.623 42.9604 172.559 42.9541 172.494 42.9495L172.454 42.9619C172.003 43.4581 171.433 43.7285 170.72 43.7824L170.446 43.7925L170.316 43.7908C169.399 43.7616 168.478 43.5143 167.576 43.0557C166.921 42.72 166.239 42.3297 165.685 41.7469L165.511 41.5443L165.215 41.1578C165.191 41.1274 165.181 41.0878 165.187 41.0498C165.194 41.0108 165.217 40.9758 165.25 40.9546L165.502 40.8311C165.569 40.8005 165.642 40.7687 165.714 40.7414C167.147 40.1976 168.594 40.142 169.975 40.5788C170.336 40.6925 170.681 40.8527 171.016 41.0634L171.265 41.229L170.814 40.6967C170.368 40.1524 169.943 39.5787 169.542 38.9782L169.148 38.3687C169.14 38.3575 169.122 38.3284 169.114 38.3215L168.789 38.1299L168.635 38.0276C168.571 37.9813 168.543 37.969 168.496 37.9884L168.441 38.0184C168.32 38.0956 168.18 38.1351 168.058 38.1661C167.34 38.3469 166.619 38.2568 165.82 37.8888C165.09 37.5531 164.528 37.0221 164.031 36.4988C163.306 35.7347 162.833 35.0457 162.542 34.3299L162.461 34.1023L162.333 33.6587C162.316 33.6052 162.333 33.5487 162.374 33.5133L162.422 33.486L162.445 33.4818L162.72 33.4874C163.466 33.519 165.619 33.7216 166.952 34.9914C167.288 35.3106 167.589 35.6497 167.863 36.0213C167.375 35.0075 166.947 33.9501 166.582 32.8581L166.305 31.9839L166.296 31.9629L165.894 31.4216C165.883 31.4057 165.879 31.4003 165.87 31.3986L165.425 31.4162C165.295 31.4173 165.196 31.411 165.11 31.3977C164.536 31.3084 164.018 31.0254 163.526 30.5302C162.376 29.3733 161.585 27.9297 161.107 26.117C161.073 25.9874 161.055 25.8571 161.042 25.7232L161.001 25.2274C160.996 25.1801 161.015 25.1341 161.052 25.1035C161.089 25.0739 161.141 25.0633 161.187 25.0781L161.351 25.1263C161.46 25.1575 161.555 25.1843 161.649 25.2219C163.13 25.7997 164.298 26.7896 165.216 28.2487C165.443 28.6094 165.619 28.9839 165.759 29.3578C165.554 28.2406 165.49 27.7292 165.449 26.6413L165.433 26.115L165.433 26.0256C165.433 25.8634 165.433 25.7099 165.397 25.5688C165.368 25.4584 165.319 25.3476 165.265 25.2385L165.111 24.9405L165.076 24.9239C164.653 24.8601 164.278 24.6837 163.931 24.3842C163.581 24.0803 163.293 23.7086 163.075 23.2794C162.293 21.7395 161.901 20.0379 161.911 18.2223L161.925 17.9613L161.986 17.435C161.991 17.3868 162.022 17.3437 162.066 17.3232C162.108 17.3028 162.162 17.3045 162.203 17.3288L162.373 17.4322C163.04 17.9024 163.629 18.4867 164.122 19.1693C164.839 20.1612 165.288 21.2683 165.468 22.4768L165.522 22.9305L165.565 22.4142C165.614 21.8082 165.665 21.1808 165.707 20.5639L165.735 20.3356L165.776 20.1137C165.835 19.8256 165.889 19.5586 165.802 19.2789L165.75 19.0891C165.716 18.9575 165.574 18.7675 165.352 18.5545L165.161 18.3819C164.993 18.2324 164.487 17.7221 164.189 16.7894C163.942 16.0139 163.894 15.2124 163.893 14.5272L163.903 13.8647C163.927 12.7806 164.047 11.963 164.29 11.2153L164.461 10.7639C164.473 10.733 164.496 10.7076 164.524 10.6915L164.572 10.675L164.596 10.6728C164.624 10.6728 164.652 10.6813 164.675 10.6968L164.707 10.7252L164.943 11.0077C166.077 12.3649 166.634 13.9578 166.6 15.7406C166.593 16.0543 166.569 16.3763 166.527 16.7093C166.815 15.7322 167.154 14.7818 167.538 13.8664L167.548 13.8351L167.551 13.8018L167.554 13.6773C167.558 13.4968 167.562 13.3095 167.555 13.1265C167.553 13.096 167.533 13.0412 167.491 12.9876L167.399 12.8733L167.302 12.7615C167.182 12.6236 167.062 12.4869 166.966 12.3298C166.66 11.8264 166.516 11.2309 166.514 10.4569C166.509 9.54636 166.653 8.58691 166.965 7.43838C167.136 6.81173 167.392 5.99857 167.872 5.26098L168.034 5.0451C168.061 5.00867 168.103 4.98761 168.147 4.98761C168.208 4.99123 168.251 5.01806 168.275 5.05993C168.876 6.12544 169.176 7.26418 169.19 8.54086C169.202 9.60491 169.033 10.5212 168.821 11.2451C169.226 10.518 169.665 9.80971 170.134 9.12643L170.644 8.40921L170.713 7.90182L170.734 7.68265L170.634 7.51574L170.564 7.40991C170.461 7.25547 170.357 7.10053 170.29 6.92688C170.09 6.40228 170.044 5.80771 170.153 5.10946C170.391 3.56378 171.085 2.17165 172.275 0.853818L172.467 0.659726L172.887 0.282437C172.923 0.24854 172.978 0.235524 173.027 0.249844C173.06 0.260116 173.087 0.280919 173.106 0.308164L173.125 0.353299L173.193 0.657163C173.354 1.59505 173.341 2.60073 173.157 3.73022C172.974 4.8501 172.61 5.81605 172.051 6.65497C172.889 5.68499 173.706 4.87014 174.56 4.14651L174.567 4.12317C174.501 3.56214 174.642 3.03118 175 2.50296C175.471 1.80833 176.124 1.27938 176.942 0.929532C177.269 0.7908 177.604 0.662382 177.936 0.539334Z" fill="black"></path> <path fill-rule="evenodd" clip-rule="evenodd" d="M294.064 0.539334L292.851 0.0933807C292.591 -0.00776877 292.491 -0.0226423 292.434 0.0290192C292.379 0.0794582 292.375 0.124293 292.39 0.18768L292.42 0.292233C292.72 1.28487 293.119 2.07028 293.639 2.69348C294.52 3.74897 295.539 4.32571 296.745 4.44882L297.051 4.47015C297.096 4.47269 297.134 4.48573 297.148 4.49624C297.338 4.63582 297.476 4.7462 297.599 4.85605C297.988 5.20481 298.37 5.57513 298.744 5.96686C298.188 5.62698 297.507 5.47323 296.742 5.51239C296.463 5.52604 296.184 5.55739 295.911 5.59387L294.876 5.74136L294.384 5.8233C294.291 5.83925 294.068 5.88892 294.017 5.99533C293.999 6.0314 294.001 6.07113 294.021 6.10721L294.079 6.19565C294.744 7.0409 295.502 7.59825 296.397 7.89862C297.378 8.22931 298.29 8.23642 299.115 7.92187L299.387 7.80514C299.527 7.72937 299.693 7.69107 299.883 7.69107C299.99 7.69107 300.077 7.70388 300.127 7.71286L300.163 7.71991C300.222 7.73006 300.295 7.7591 300.309 7.77832C300.869 8.50122 301.401 9.27216 301.897 10.0832C301.478 9.68292 300.931 9.41314 300.186 9.23749C299.664 9.11524 299.132 9.06995 298.61 9.04037L297.7 8.99258L297.051 8.95294C296.995 8.95294 296.953 8.97391 296.927 9.01034C296.898 9.04787 296.891 9.09814 296.908 9.14346L296.944 9.23382C296.95 9.2481 296.956 9.26023 296.961 9.26742C297.641 10.3853 298.44 11.1586 299.404 11.6309C300.346 12.093 301.197 12.2158 302.054 12.0138C302.154 11.9899 302.27 11.9779 302.388 11.9779C302.753 11.9779 303.008 12.0869 303.062 12.1904C303.533 13.1448 303.955 14.1383 304.318 15.1514C303.937 14.6352 303.403 14.2159 302.729 13.9032C302.282 13.6959 301.823 13.5007 301.366 13.312L299.786 12.6655C299.745 12.6477 299.691 12.6512 299.651 12.6775C299.61 12.7038 299.587 12.7476 299.587 12.795L299.61 12.8804C299.768 13.3573 300.695 15.6492 301.988 16.6052C302.569 17.0343 303.283 17.4755 304.185 17.4967C304.41 17.5007 304.641 17.5274 304.834 17.6732L304.999 17.8237L305.065 17.8562C305.138 17.8797 305.157 17.923 305.193 18.0702C305.485 19.2733 305.698 20.5132 305.828 21.7727C305.788 21.6447 305.743 21.5156 305.69 21.3847C305.371 20.5924 304.836 19.8991 304.004 19.2025L303.349 18.6703L301.952 17.573L301.83 17.4704C301.786 17.4343 301.723 17.4266 301.673 17.4514C301.621 17.477 301.59 17.5301 301.594 17.5866L301.612 17.8656C301.622 18.0249 301.631 18.175 301.648 18.3236C301.801 19.7667 302.239 20.9713 302.984 22.0063C303.399 22.5826 303.977 23.2734 304.841 23.6758L305.139 23.7987C305.39 23.8893 305.573 24.0258 305.768 24.2716C305.952 24.5024 305.986 24.7129 305.982 24.9775C305.964 26.0872 305.884 27.1868 305.742 28.2643C305.709 27.965 305.639 27.6561 305.53 27.3353C305.307 26.6713 304.958 26.0256 304.465 25.3614L303.817 24.4993L302.632 22.9518C302.613 22.9233 302.587 22.9069 302.563 22.8961L302.529 22.8831C302.5 22.869 302.452 22.8661 302.414 22.881C302.388 22.8922 302.367 22.9099 302.351 22.9319L302.319 23.0118L302.313 23.0388C302.017 24.7686 302.198 26.318 302.867 27.7766C303.152 28.4005 303.523 29.0966 304.128 29.6504L304.403 29.8783C304.755 30.1432 305.033 30.5153 305.186 30.9255C305.219 31.0138 305.217 31.0522 305.214 31.067C304.887 32.3952 304.46 33.6765 303.941 34.8885C304.075 34.2493 304.066 33.5787 303.914 32.8824C303.769 32.2258 303.556 31.5825 303.331 30.9843L302.993 30.1247L302.42 28.7091C302.399 28.6582 302.35 28.6236 302.293 28.6207C302.256 28.6192 302.22 28.6322 302.192 28.6552L302.159 28.6965L302.044 28.9152C301.376 30.3936 301.151 31.9091 301.374 33.4194C301.534 34.499 301.804 35.2724 302.251 35.9266C302.482 36.2652 302.702 36.6418 302.742 37.1048C302.751 37.2144 302.747 37.2902 302.697 37.3767C302.246 38.1512 301.752 38.8912 301.218 39.5907L300.814 40.1012C301.316 39.2016 301.33 38.2358 301.28 37.4095C301.25 36.9368 301.204 36.4649 301.153 36L300.895 33.7642C300.889 33.7167 300.861 33.6755 300.816 33.6545C300.803 33.6474 300.785 33.6431 300.765 33.6431C300.683 33.6431 300.585 33.7084 300.475 33.8365C299.53 34.9325 298.945 36.1717 298.733 37.5185C298.514 38.9148 298.633 40.11 299.097 41.1719L299.106 41.2079L299.109 41.2796L299.084 41.8914C299.08 41.9327 299.057 41.9821 299.037 42.0007C298.095 42.8922 297.057 43.6666 295.942 44.3119C296.469 43.8439 296.849 43.2334 297.094 42.4602C297.312 41.774 297.446 41.0658 297.559 40.3682L297.727 39.3116L297.861 38.5006C297.869 38.4489 297.849 38.398 297.807 38.3668C297.781 38.3464 297.747 38.3361 297.713 38.3374L297.664 38.3483L297.614 38.3683C297.56 38.3902 297.513 38.4093 297.468 38.4319C295.363 39.4642 293.977 41.8718 294.172 44.1565C294.203 44.5144 294.17 44.8505 294.07 45.184C294.061 45.2138 294.031 45.2472 294.019 45.252C293.019 45.6662 292.068 45.9685 291.112 46.1755C291.062 46.1868 291.023 46.2216 291.008 46.2676C290.992 46.3144 291.001 46.3653 291.034 46.4029C291.138 46.524 291.228 46.6543 291.303 46.7902C291.328 46.8361 291.376 46.8646 291.429 46.8646L291.462 46.8607C292.046 46.7295 292.619 46.5697 293.172 46.3835L293.718 46.1887C293.777 46.1653 293.824 46.1557 293.862 46.1613C293.969 46.1755 294.079 46.1945 294.197 46.2191L294.379 46.2605C294.418 46.2696 294.449 46.2872 294.456 46.2943C294.859 47.0866 295.563 47.5974 296.602 47.8452C296.829 47.899 297.062 47.938 297.295 47.9617C297.54 47.9875 297.813 48 298.106 48L298.657 47.9852C298.75 47.98 298.805 47.9756 298.805 47.9756C299.706 47.8771 300.475 47.6781 301.157 47.367C301.436 47.2398 301.755 47.0685 302 46.763C302.047 46.7045 302.039 46.6193 301.982 46.5707C301.29 45.9716 300.585 45.5362 299.828 45.2394C298.705 44.8011 297.682 44.6829 296.68 44.8718C296.53 44.901 296.383 44.9363 296.241 44.978C297.179 44.4277 298.077 43.7815 298.924 43.0448C298.941 43.0299 298.968 43.0175 298.99 43.0133L299.316 42.9673C299.377 42.9604 299.441 42.9541 299.506 42.9495L299.546 42.9619C299.997 43.4581 300.567 43.7285 301.28 43.7824L301.554 43.7925L301.684 43.7908C302.601 43.7616 303.522 43.5143 304.424 43.0557C305.079 42.72 305.761 42.3297 306.315 41.7469L306.489 41.5443L306.785 41.1578C306.809 41.1274 306.819 41.0878 306.813 41.0498C306.806 41.0108 306.783 40.9758 306.75 40.9546L306.498 40.8311C306.431 40.8005 306.358 40.7687 306.286 40.7414C304.853 40.1976 303.406 40.142 302.025 40.5788C301.664 40.6925 301.319 40.8527 300.984 41.0634L300.735 41.229L301.186 40.6967C301.632 40.1524 302.057 39.5787 302.458 38.9782L302.852 38.3687C302.86 38.3575 302.878 38.3284 302.886 38.3215L303.211 38.1299L303.365 38.0276C303.429 37.9813 303.457 37.969 303.504 37.9884L303.559 38.0184C303.68 38.0956 303.82 38.1351 303.942 38.1661C304.66 38.3469 305.381 38.2568 306.18 37.8888C306.91 37.5531 307.472 37.0221 307.969 36.4988C308.694 35.7347 309.167 35.0457 309.458 34.3299L309.539 34.1023L309.667 33.6587C309.684 33.6052 309.667 33.5487 309.626 33.5133L309.578 33.486L309.555 33.4818L309.28 33.4874C308.534 33.519 306.381 33.7216 305.048 34.9914C304.712 35.3106 304.411 35.6497 304.137 36.0213C304.625 35.0075 305.053 33.9501 305.418 32.8581L305.695 31.9839L305.704 31.9629L306.106 31.4216C306.117 31.4057 306.121 31.4003 306.13 31.3986L306.575 31.4162C306.705 31.4173 306.804 31.411 306.89 31.3977C307.464 31.3084 307.982 31.0254 308.474 30.5302C309.624 29.3733 310.415 27.9297 310.893 26.117C310.927 25.9874 310.945 25.8571 310.958 25.7232L310.999 25.2274C311.004 25.1801 310.985 25.1341 310.948 25.1035C310.911 25.0739 310.859 25.0633 310.813 25.0781L310.649 25.1263C310.54 25.1575 310.445 25.1843 310.351 25.2219C308.87 25.7997 307.702 26.7896 306.784 28.2487C306.557 28.6094 306.381 28.9839 306.241 29.3578C306.446 28.2406 306.51 27.7292 306.551 26.6413L306.567 26.115L306.567 26.0256C306.567 25.8634 306.567 25.7099 306.603 25.5688C306.632 25.4584 306.681 25.3476 306.735 25.2385L306.889 24.9405L306.924 24.9239C307.347 24.8601 307.722 24.6837 308.069 24.3842C308.419 24.0803 308.707 23.7086 308.925 23.2794C309.707 21.7395 310.099 20.0379 310.089 18.2223L310.075 17.9613L310.014 17.435C310.009 17.3868 309.978 17.3437 309.934 17.3232C309.892 17.3028 309.838 17.3045 309.797 17.3288L309.627 17.4322C308.96 17.9024 308.371 18.4867 307.878 19.1693C307.161 20.1612 306.712 21.2683 306.532 22.4768L306.478 22.9305L306.435 22.4142C306.386 21.8082 306.335 21.1808 306.293 20.5639L306.265 20.3356L306.224 20.1137C306.165 19.8256 306.111 19.5586 306.198 19.2789L306.25 19.0891C306.284 18.9575 306.426 18.7675 306.648 18.5545L306.839 18.3819C307.007 18.2324 307.513 17.7221 307.811 16.7894C308.058 16.0139 308.106 15.2124 308.107 14.5272L308.097 13.8647C308.073 12.7806 307.953 11.963 307.71 11.2153L307.539 10.7639C307.527 10.733 307.504 10.7076 307.476 10.6915L307.428 10.675L307.404 10.6728C307.376 10.6728 307.348 10.6813 307.325 10.6968L307.293 10.7252L307.057 11.0077C305.923 12.3649 305.366 13.9578 305.4 15.7406C305.407 16.0543 305.431 16.3763 305.473 16.7093C305.185 15.7322 304.846 14.7818 304.462 13.8664L304.452 13.8351L304.449 13.8018L304.446 13.6773C304.442 13.4968 304.438 13.3095 304.445 13.1265C304.447 13.096 304.467 13.0412 304.509 12.9876L304.601 12.8733L304.698 12.7615C304.818 12.6236 304.938 12.4869 305.034 12.3298C305.34 11.8264 305.484 11.2309 305.486 10.4569C305.491 9.54636 305.347 8.58691 305.035 7.43838C304.864 6.81173 304.608 5.99857 304.128 5.26098L303.966 5.0451C303.939 5.00867 303.897 4.98761 303.853 4.98761C303.792 4.99123 303.749 5.01806 303.725 5.05993C303.124 6.12544 302.824 7.26418 302.81 8.54086C302.798 9.60491 302.967 10.5212 303.179 11.2451C302.774 10.518 302.335 9.80971 301.866 9.12643L301.356 8.40921L301.287 7.90182L301.266 7.68265L301.366 7.51574L301.436 7.40991C301.539 7.25547 301.643 7.10053 301.71 6.92688C301.91 6.40228 301.956 5.80771 301.847 5.10946C301.609 3.56378 300.915 2.17165 299.725 0.853818L299.533 0.659726L299.113 0.282437C299.077 0.24854 299.022 0.235524 298.973 0.249844C298.94 0.260116 298.913 0.280919 298.894 0.308164L298.875 0.353299L298.807 0.657163C298.646 1.59505 298.659 2.60073 298.843 3.73022C299.026 4.8501 299.39 5.81605 299.949 6.65497C299.111 5.68499 298.294 4.87014 297.44 4.14651L297.433 4.12317C297.499 3.56214 297.358 3.03118 297 2.50296C296.529 1.80833 295.876 1.27938 295.058 0.929532C294.731 0.7908 294.396 0.662382 294.064 0.539334Z" fill="black"></path> </svg> 