<?xml version="1.0" encoding="UTF-8"?> <svg xmlns="http://www.w3.org/2000/svg" width="338" height="48" viewBox="0 0 338 48" fill="none"> <path d="M61.9416 6.932H59.6256V5.42H66.2136V6.932H63.8976V14H61.9416V6.932ZM69.4788 11.816C69.9188 12.328 70.4948 12.584 71.2068 12.584C71.9188 12.584 72.4948 12.324 72.9348 11.804C73.3588 11.292 73.5708 10.604 73.5708 9.74V9.644C73.5708 8.812 73.3628 8.136 72.9468 7.616C72.5068 7.096 71.9188 6.836 71.1828 6.836C70.4548 6.836 69.8708 7.088 69.4308 7.592C69.0068 8.088 68.7948 8.776 68.7948 9.656V9.752C68.7948 10.624 69.0228 11.312 69.4788 11.816ZM74.3868 12.884C73.5708 13.716 72.4988 14.132 71.1708 14.132C69.8428 14.132 68.7748 13.716 67.9668 12.884C67.1668 12.084 66.7668 11.044 66.7668 9.764V9.668C66.7668 8.372 67.1868 7.324 68.0268 6.524C68.8588 5.708 69.9108 5.3 71.1828 5.3C72.4868 5.3 73.5468 5.696 74.3628 6.488C75.1868 7.312 75.5988 8.356 75.5988 9.62V9.716C75.5988 11.004 75.1948 12.06 74.3868 12.884ZM77.1483 5.42H80.1123C81.1763 5.42 81.9883 5.652 82.5483 6.116C83.1083 6.572 83.3883 7.252 83.3883 8.156V8.204C83.3883 9.092 83.0963 9.764 82.5123 10.22C81.9523 10.66 81.1723 10.88 80.1723 10.88H79.0803V14H77.1483V5.42ZM80.0643 9.524C81.0323 9.524 81.5163 9.088 81.5163 8.216V8.168C81.5163 7.32 81.0323 6.896 80.0643 6.896H79.0803V9.524H80.0643ZM84.3489 9.932H87.4209V11.312H84.3489V9.932ZM91.7928 14.132C90.7208 14.132 89.9008 13.88 89.3328 13.376C88.7648 12.872 88.4608 12.172 88.4208 11.276H90.1728C90.2688 12.228 90.7848 12.704 91.7208 12.704C92.6728 12.704 93.1488 12.292 93.1488 11.468C93.1488 10.644 92.6888 10.232 91.7688 10.232H91.0968V8.936H91.7208C92.5928 8.936 93.0288 8.556 93.0288 7.796C93.0288 7.476 92.9248 7.22 92.7168 7.028C92.5168 6.828 92.2248 6.728 91.8408 6.728C91.4328 6.728 91.1048 6.844 90.8568 7.076C90.6168 7.3 90.4728 7.616 90.4248 8.024H88.7088C88.7568 7.216 89.0528 6.564 89.5968 6.068C90.1568 5.556 90.9168 5.3 91.8768 5.3C92.7968 5.3 93.5288 5.52 94.0728 5.96C94.6008 6.392 94.8648 6.948 94.8648 7.628C94.8648 8.54 94.3928 9.16 93.4488 9.488C93.9688 9.608 94.3768 9.84 94.6728 10.184C94.9688 10.528 95.1168 10.968 95.1168 11.504C95.1168 12.32 94.8208 12.964 94.2288 13.436C93.6448 13.9 92.8328 14.132 91.7928 14.132Z" fill="black"></path> <path d="M29.5275 25.77H30.4275L31.6475 29.98L32.9175 25.77H33.6375L34.8275 29.98L36.0575 25.77H36.9075L35.2775 31H34.3575L33.2675 27.08L32.0475 31H31.1375L29.5275 25.77ZM40.2265 30.4C40.7465 30.4 41.1598 30.22 41.4665 29.86C41.7798 29.5 41.9365 29.0233 41.9365 28.43V28.36C41.9365 27.7533 41.7798 27.27 41.4665 26.91C41.1598 26.55 40.7465 26.37 40.2265 26.37C39.6998 26.37 39.2832 26.55 38.9765 26.91C38.6698 27.27 38.5165 27.75 38.5165 28.35V28.43C38.5165 29.0367 38.6665 29.5167 38.9665 29.87C39.2732 30.2233 39.6932 30.4 40.2265 30.4ZM40.2165 31.09C39.4765 31.09 38.8632 30.84 38.3765 30.34C37.8965 29.8333 37.6565 29.1967 37.6565 28.43V28.35C37.6565 27.57 37.8965 26.93 38.3765 26.43C38.8632 25.93 39.4798 25.68 40.2265 25.68C40.9732 25.68 41.5865 25.93 42.0665 26.43C42.5532 26.9233 42.7965 27.56 42.7965 28.34V28.42C42.7965 29.2067 42.5532 29.85 42.0665 30.35C41.5798 30.8433 40.9632 31.09 40.2165 31.09ZM44.2086 25.77H45.0386V26.57C45.1653 26.31 45.3653 26.0967 45.6386 25.93C45.9119 25.7633 46.2319 25.68 46.5986 25.68C47.3719 25.68 47.8819 26.0067 48.1286 26.66C48.2953 26.3467 48.5486 26.1067 48.8886 25.94C49.2286 25.7667 49.5719 25.68 49.9186 25.68C50.4319 25.68 50.8519 25.85 51.1786 26.19C51.5119 26.5233 51.6786 27.0467 51.6786 27.76V31H50.8486V27.7C50.8486 26.8333 50.4786 26.4 49.7386 26.4C49.3653 26.4 49.0419 26.5233 48.7686 26.77C48.4953 27.0167 48.3586 27.36 48.3586 27.8V31H47.5286V27.7C47.5286 26.8333 47.1586 26.4 46.4186 26.4C46.0453 26.4 45.7219 26.5233 45.4486 26.77C45.1753 27.0167 45.0386 27.36 45.0386 27.8V31H44.2086V25.77ZM55.5673 31.09C54.8207 31.09 54.2107 30.8467 53.7373 30.36C53.2707 29.8733 53.0373 29.2333 53.0373 28.44V28.36C53.0373 27.5733 53.264 26.93 53.7173 26.43C54.1773 25.93 54.7673 25.68 55.4873 25.68C56.154 25.68 56.7107 25.8967 57.1573 26.33C57.6107 26.7567 57.8373 27.4067 57.8373 28.28V28.55H53.8973C53.9373 29.7833 54.4973 30.4 55.5773 30.4C56.3973 30.4 56.8607 30.0967 56.9673 29.49H57.7973C57.704 30.01 57.4607 30.4067 57.0673 30.68C56.674 30.9533 56.174 31.09 55.5673 31.09ZM56.9873 27.88C56.914 26.8733 56.414 26.37 55.4873 26.37C55.0673 26.37 54.7207 26.5033 54.4473 26.77C54.174 27.0367 54.0007 27.4067 53.9273 27.88H56.9873ZM59.2281 25.77H60.0581V26.6C60.1915 26.3333 60.4015 26.1133 60.6881 25.94C60.9748 25.7667 61.3248 25.68 61.7381 25.68C62.3115 25.68 62.7615 25.85 63.0881 26.19C63.4148 26.53 63.5781 27.0633 63.5781 27.79V31H62.7481V27.73C62.7481 27.27 62.6481 26.9333 62.4481 26.72C62.2481 26.5067 61.9381 26.4 61.5181 26.4C61.1115 26.4 60.7648 26.5267 60.4781 26.78C60.1981 27.0333 60.0581 27.3833 60.0581 27.83V31H59.2281V25.77ZM64.7663 25.86L65.6563 23.74L66.4463 24.1L65.2763 26.12L64.7663 25.86ZM69.9539 30.67C69.6272 30.95 69.1506 31.09 68.5239 31.09C67.8972 31.09 67.4039 30.9433 67.0439 30.65C66.6906 30.35 66.5006 29.93 66.4739 29.39H67.2839C67.3239 29.7233 67.4372 29.9767 67.6239 30.15C67.8172 30.3167 68.1139 30.4 68.5139 30.4C68.9072 30.4 69.1939 30.3333 69.3739 30.2C69.5606 30.06 69.6539 29.85 69.6539 29.57C69.6539 29.31 69.5572 29.12 69.3639 29C69.1772 28.8733 68.8672 28.77 68.4339 28.69C67.7539 28.57 67.2806 28.3967 67.0139 28.17C66.7472 27.9433 66.6139 27.6033 66.6139 27.15C66.6139 26.6967 66.7939 26.34 67.1539 26.08C67.5206 25.8133 67.9306 25.68 68.3839 25.68C68.8972 25.68 69.3239 25.8 69.6639 26.04C70.0106 26.28 70.2139 26.6633 70.2739 27.19H69.4739C69.4139 26.9033 69.2972 26.6967 69.1239 26.57C68.9572 26.4367 68.7072 26.37 68.3739 26.37C68.0739 26.37 67.8339 26.44 67.6539 26.58C67.4739 26.7133 67.3839 26.8933 67.3839 27.12C67.3839 27.3533 67.4672 27.53 67.6339 27.65C67.8072 27.77 68.1306 27.87 68.6039 27.95C68.8639 28.0033 69.0672 28.05 69.2139 28.09C69.3672 28.13 69.5306 28.19 69.7039 28.27C69.8839 28.3433 70.0206 28.4333 70.1139 28.54C70.2072 28.64 70.2839 28.77 70.3439 28.93C70.4106 29.09 70.4439 29.28 70.4439 29.5C70.4439 29.9933 70.2806 30.3833 69.9539 30.67ZM76.6423 31.09C75.8956 31.09 75.2823 30.85 74.8023 30.37C74.3223 29.8833 74.0823 29.24 74.0823 28.44V28.36C74.0823 27.5733 74.3256 26.93 74.8123 26.43C75.3056 25.93 75.9089 25.68 76.6223 25.68C77.2223 25.68 77.7323 25.83 78.1523 26.13C78.5723 26.4233 78.8189 26.8833 78.8923 27.51H78.0723C77.9523 26.75 77.4689 26.37 76.6223 26.37C76.1356 26.37 75.7323 26.5533 75.4123 26.92C75.0989 27.28 74.9423 27.76 74.9423 28.36V28.44C74.9423 29.0667 75.0956 29.55 75.4023 29.89C75.7156 30.23 76.1323 30.4 76.6523 30.4C77.0456 30.4 77.3823 30.29 77.6623 30.07C77.9489 29.8433 78.1123 29.5267 78.1523 29.12H78.9223C78.8689 29.6933 78.6289 30.1667 78.2023 30.54C77.7823 30.9067 77.2623 31.09 76.6423 31.09ZM81.7038 30.46L79.6538 25.77H80.5438L82.1438 29.52L83.5938 25.77H84.4438L81.5538 32.82H80.7138L81.7038 30.46ZM87.6774 31.09C86.9308 31.09 86.3174 30.85 85.8374 30.37C85.3574 29.8833 85.1174 29.24 85.1174 28.44V28.36C85.1174 27.5733 85.3608 26.93 85.8474 26.43C86.3408 25.93 86.9441 25.68 87.6574 25.68C88.2574 25.68 88.7674 25.83 89.1874 26.13C89.6074 26.4233 89.8541 26.8833 89.9274 27.51H89.1074C88.9874 26.75 88.5041 26.37 87.6574 26.37C87.1708 26.37 86.7674 26.5533 86.4474 26.92C86.1341 27.28 85.9774 27.76 85.9774 28.36V28.44C85.9774 29.0667 86.1308 29.55 86.4374 29.89C86.7508 30.23 87.1674 30.4 87.6874 30.4C88.0808 30.4 88.4174 30.29 88.6974 30.07C88.9841 29.8433 89.1474 29.5267 89.1874 29.12H89.9574C89.9041 29.6933 89.6641 30.1667 89.2374 30.54C88.8174 30.9067 88.2974 31.09 87.6774 31.09ZM91.3477 23.27H92.1877V31H91.3477V23.27ZM96.1435 31.09C95.3968 31.09 94.7868 30.8467 94.3135 30.36C93.8468 29.8733 93.6135 29.2333 93.6135 28.44V28.36C93.6135 27.5733 93.8402 26.93 94.2935 26.43C94.7535 25.93 95.3435 25.68 96.0635 25.68C96.7302 25.68 97.2868 25.8967 97.7335 26.33C98.1868 26.7567 98.4135 27.4067 98.4135 28.28V28.55H94.4735C94.5135 29.7833 95.0735 30.4 96.1535 30.4C96.9735 30.4 97.4368 30.0967 97.5435 29.49H98.3735C98.2802 30.01 98.0368 30.4067 97.6435 30.68C97.2502 30.9533 96.7502 31.09 96.1435 31.09ZM97.5635 27.88C97.4902 26.8733 96.9902 26.37 96.0635 26.37C95.6435 26.37 95.2968 26.5033 95.0235 26.77C94.7502 27.0367 94.5768 27.4067 94.5035 27.88H97.5635ZM102.903 30.67C102.576 30.95 102.1 31.09 101.473 31.09C100.846 31.09 100.353 30.9433 99.9931 30.65C99.6398 30.35 99.4498 29.93 99.4231 29.39H100.233C100.273 29.7233 100.386 29.9767 100.573 30.15C100.766 30.3167 101.063 30.4 101.463 30.4C101.856 30.4 102.143 30.3333 102.323 30.2C102.51 30.06 102.603 29.85 102.603 29.57C102.603 29.31 102.506 29.12 102.313 29C102.126 28.8733 101.816 28.77 101.383 28.69C100.703 28.57 100.23 28.3967 99.9631 28.17C99.6965 27.9433 99.5631 27.6033 99.5631 27.15C99.5631 26.6967 99.7431 26.34 100.103 26.08C100.47 25.8133 100.88 25.68 101.333 25.68C101.846 25.68 102.273 25.8 102.613 26.04C102.96 26.28 103.163 26.6633 103.223 27.19H102.423C102.363 26.9033 102.246 26.6967 102.073 26.57C101.906 26.4367 101.656 26.37 101.323 26.37C101.023 26.37 100.783 26.44 100.603 26.58C100.423 26.7133 100.333 26.8933 100.333 27.12C100.333 27.3533 100.416 27.53 100.583 27.65C100.756 27.77 101.08 27.87 101.553 27.95C101.813 28.0033 102.016 28.05 102.163 28.09C102.316 28.13 102.48 28.19 102.653 28.27C102.833 28.3433 102.97 28.4333 103.063 28.54C103.156 28.64 103.233 28.77 103.293 28.93C103.36 29.09 103.393 29.28 103.393 29.5C103.393 29.9933 103.23 30.3833 102.903 30.67ZM108.731 31.09C108.218 31.09 107.798 30.9633 107.471 30.71C107.151 30.45 106.991 30.0633 106.991 29.55C106.991 29.2633 107.061 29.0133 107.201 28.8C107.348 28.58 107.548 28.41 107.801 28.29C108.055 28.1633 108.331 28.0733 108.631 28.02C108.931 27.96 109.258 27.93 109.611 27.93H110.361V27.55C110.361 27.13 110.275 26.83 110.101 26.65C109.928 26.4633 109.641 26.37 109.241 26.37C108.521 26.37 108.121 26.6833 108.041 27.31H107.211C107.265 26.75 107.481 26.34 107.861 26.08C108.248 25.8133 108.721 25.68 109.281 25.68C110.555 25.68 111.191 26.3033 111.191 27.55V31H110.361V30.34C109.961 30.84 109.418 31.09 108.731 31.09ZM108.811 30.43C109.265 30.43 109.635 30.32 109.921 30.1C110.215 29.8733 110.361 29.5633 110.361 29.17V28.52H109.641C108.428 28.52 107.821 28.8633 107.821 29.55C107.821 30.1367 108.151 30.43 108.811 30.43ZM112.939 25.77H113.769V26.65C113.922 26.3833 114.162 26.1567 114.489 25.97C114.816 25.7767 115.166 25.68 115.539 25.68C116.239 25.68 116.809 25.9167 117.249 26.39C117.696 26.8633 117.919 27.5033 117.919 28.31V28.39C117.919 29.1967 117.699 29.85 117.259 30.35C116.826 30.8433 116.252 31.09 115.539 31.09C114.739 31.09 114.149 30.7733 113.769 30.14V32.82H112.939V25.77ZM115.459 30.4C115.979 30.4 116.376 30.2333 116.649 29.9C116.922 29.56 117.059 29.07 117.059 28.43V28.35C117.059 27.7167 116.906 27.23 116.599 26.89C116.299 26.5433 115.916 26.37 115.449 26.37C114.942 26.37 114.529 26.54 114.209 26.88C113.896 27.2133 113.739 27.7033 113.739 28.35V28.43C113.739 29.0767 113.892 29.5667 114.199 29.9C114.512 30.2333 114.932 30.4 115.459 30.4ZM119.326 25.77H120.156V26.65C120.309 26.3833 120.549 26.1567 120.876 25.97C121.202 25.7767 121.552 25.68 121.926 25.68C122.626 25.68 123.196 25.9167 123.636 26.39C124.082 26.8633 124.306 27.5033 124.306 28.31V28.39C124.306 29.1967 124.086 29.85 123.646 30.35C123.212 30.8433 122.639 31.09 121.926 31.09C121.126 31.09 120.536 30.7733 120.156 30.14V32.82H119.326V25.77ZM121.846 30.4C122.366 30.4 122.762 30.2333 123.036 29.9C123.309 29.56 123.446 29.07 123.446 28.43V28.35C123.446 27.7167 123.292 27.23 122.986 26.89C122.686 26.5433 122.302 26.37 121.836 26.37C121.329 26.37 120.916 26.54 120.596 26.88C120.282 27.2133 120.126 27.7033 120.126 28.35V28.43C120.126 29.0767 120.279 29.5667 120.586 29.9C120.899 30.2333 121.319 30.4 121.846 30.4ZM55.2491 37.77H56.0791V43H55.2491V37.77ZM56.0391 36.52C55.9324 36.6267 55.8024 36.68 55.6491 36.68C55.4958 36.68 55.3658 36.6267 55.2591 36.52C55.1524 36.4133 55.0991 36.2833 55.0991 36.13C55.0991 35.9767 55.1524 35.8467 55.2591 35.74C55.3658 35.6333 55.4958 35.58 55.6491 35.58C55.8024 35.58 55.9324 35.6333 56.0391 35.74C56.1458 35.8467 56.1991 35.9767 56.1991 36.13C56.1991 36.2833 56.1458 36.4133 56.0391 36.52ZM57.8951 37.77H58.7251V38.6C58.8585 38.3333 59.0685 38.1133 59.3551 37.94C59.6418 37.7667 59.9918 37.68 60.4051 37.68C60.9785 37.68 61.4285 37.85 61.7551 38.19C62.0818 38.53 62.2451 39.0633 62.2451 39.79V43H61.4151V39.73C61.4151 39.27 61.3151 38.9333 61.1151 38.72C60.9151 38.5067 60.6051 38.4 60.1851 38.4C59.7785 38.4 59.4318 38.5267 59.1451 38.78C58.8651 39.0333 58.7251 39.3833 58.7251 39.83V43H57.8951V37.77ZM66.7051 35.85H70.8751V36.56H67.5751V38.99H70.2351V39.7H67.5751V42.29H71.0551V43H66.7051V35.85ZM74.1964 43.09C73.643 43.09 73.1997 42.9267 72.8664 42.6C72.5397 42.2733 72.3764 41.7667 72.3764 41.08V37.77H73.2064V41.04C73.2064 41.5 73.303 41.8367 73.4964 42.05C73.6964 42.2633 74.003 42.37 74.4164 42.37C74.8164 42.37 75.1564 42.2433 75.4364 41.99C75.7164 41.7367 75.8564 41.3867 75.8564 40.94V37.77H76.6864V43H75.8564V42.17C75.7297 42.4367 75.5197 42.6567 75.2264 42.83C74.9397 43.0033 74.5964 43.09 74.1964 43.09ZM78.4908 37.77H79.3208V38.71C79.4942 38.39 79.7142 38.1433 79.9808 37.97C80.2475 37.79 80.6008 37.6933 81.0408 37.68V38.46C80.4675 38.4867 80.0375 38.62 79.7508 38.86C79.4642 39.1 79.3208 39.5233 79.3208 40.13V43H78.4908V37.77ZM84.4013 42.4C84.9213 42.4 85.3346 42.22 85.6413 41.86C85.9546 41.5 86.1113 41.0233 86.1113 40.43V40.36C86.1113 39.7533 85.9546 39.27 85.6413 38.91C85.3346 38.55 84.9213 38.37 84.4013 38.37C83.8746 38.37 83.458 38.55 83.1513 38.91C82.8446 39.27 82.6913 39.75 82.6913 40.35V40.43C82.6913 41.0367 82.8413 41.5167 83.1413 41.87C83.448 42.2233 83.868 42.4 84.4013 42.4ZM84.3913 43.09C83.6513 43.09 83.038 42.84 82.5513 42.34C82.0713 41.8333 81.8313 41.1967 81.8313 40.43V40.35C81.8313 39.57 82.0713 38.93 82.5513 38.43C83.038 37.93 83.6546 37.68 84.4013 37.68C85.148 37.68 85.7613 37.93 86.2413 38.43C86.728 38.9233 86.9713 39.56 86.9713 40.34V40.42C86.9713 41.2067 86.728 41.85 86.2413 42.35C85.7546 42.8433 85.138 43.09 84.3913 43.09ZM88.3834 37.77H89.2134V38.65C89.3667 38.3833 89.6067 38.1567 89.9334 37.97C90.2601 37.7767 90.6101 37.68 90.9834 37.68C91.6834 37.68 92.2534 37.9167 92.6934 38.39C93.1401 38.8633 93.3634 39.5033 93.3634 40.31V40.39C93.3634 41.1967 93.1434 41.85 92.7034 42.35C92.2701 42.8433 91.6967 43.09 90.9834 43.09C90.1834 43.09 89.5934 42.7733 89.2134 42.14V44.82H88.3834V37.77ZM90.9034 42.4C91.4234 42.4 91.8201 42.2333 92.0934 41.9C92.3667 41.56 92.5034 41.07 92.5034 40.43V40.35C92.5034 39.7167 92.3501 39.23 92.0434 38.89C91.7434 38.5433 91.3601 38.37 90.8934 38.37C90.3867 38.37 89.9734 38.54 89.6534 38.88C89.3401 39.2133 89.1834 39.7033 89.1834 40.35V40.43C89.1834 41.0767 89.3367 41.5667 89.6434 41.9C89.9567 42.2333 90.3767 42.4 90.9034 42.4ZM96.9101 43.09C96.1635 43.09 95.5535 42.8467 95.0801 42.36C94.6135 41.8733 94.3801 41.2333 94.3801 40.44V40.36C94.3801 39.5733 94.6068 38.93 95.0601 38.43C95.5201 37.93 96.1101 37.68 96.8301 37.68C97.4968 37.68 98.0535 37.8967 98.5001 38.33C98.9535 38.7567 99.1801 39.4067 99.1801 40.28V40.55H95.2401C95.2801 41.7833 95.8401 42.4 96.9201 42.4C97.7401 42.4 98.2035 42.0967 98.3101 41.49H99.1401C99.0468 42.01 98.8035 42.4067 98.4101 42.68C98.0168 42.9533 97.5168 43.09 96.9101 43.09ZM98.3301 39.88C98.2568 38.8733 97.7568 38.37 96.8301 38.37C96.4101 38.37 96.0635 38.5033 95.7901 38.77C95.5168 39.0367 95.3435 39.4067 95.2701 39.88H98.3301Z" fill="black"></path> <path fill-rule="evenodd" clip-rule="evenodd" d="M16.9358 0.539334L18.1492 0.0933807C18.409 -0.00776877 18.5093 -0.0226423 18.5662 0.0290192C18.6214 0.0794582 18.6255 0.124293 18.6104 0.18768L18.5798 0.292233C18.2797 1.28487 17.8808 2.07028 17.3608 2.69348C16.4797 3.74897 15.461 4.32571 14.2547 4.44882L13.9491 4.47015C13.9037 4.47269 13.8662 4.48573 13.8518 4.49624C13.6622 4.63582 13.5237 4.7462 13.4008 4.85605C13.0121 5.20481 12.6298 5.57513 12.256 5.96686C12.8123 5.62698 13.4926 5.47323 14.2579 5.51239C14.5374 5.52604 14.8156 5.55739 15.0892 5.59387L16.1245 5.74136L16.6156 5.8233C16.7094 5.83925 16.9316 5.88892 16.9827 5.99533C17.0008 6.0314 16.9993 6.07113 16.9792 6.10721L16.9207 6.19565C16.2562 7.0409 15.4981 7.59825 14.6035 7.89862C13.6218 8.22931 12.7097 8.23642 11.885 7.92187L11.6133 7.80514C11.4726 7.72937 11.3067 7.69107 11.1169 7.69107C11.0098 7.69107 10.9226 7.70388 10.8732 7.71286L10.8371 7.71991C10.7778 7.73006 10.705 7.7591 10.6906 7.77832C10.1307 8.50122 9.59919 9.27216 9.10276 10.0832C9.52199 9.68292 10.0688 9.41314 10.814 9.23749C11.3363 9.11524 11.8678 9.06995 12.3901 9.04037L13.3 8.99258L13.9491 8.95294C14.0047 8.95294 14.0472 8.97391 14.0733 9.01034C14.1021 9.04787 14.1093 9.09814 14.0921 9.14346L14.0558 9.23382C14.0495 9.2481 14.0438 9.26023 14.0395 9.26742C13.3591 10.3853 12.5598 11.1586 11.596 11.6309C10.6545 12.093 9.80326 12.2158 8.9456 12.0138C8.84587 11.9899 8.73045 11.9779 8.61225 11.9779C8.24714 11.9779 7.99171 12.0869 7.9376 12.1904C7.46667 13.1448 7.04523 14.1383 6.68178 15.1514C7.06259 14.6352 7.59652 14.2159 8.27097 13.9032C8.71777 13.6959 9.17705 13.5007 9.6337 13.312L11.2144 12.6655C11.2547 12.6477 11.3088 12.6512 11.3492 12.6775C11.3897 12.7038 11.4135 12.7476 11.4135 12.795L11.3896 12.8804C11.2318 13.3573 10.3052 15.6492 9.01189 16.6052C8.43107 17.0343 7.71691 17.4755 6.81512 17.4967C6.59027 17.5007 6.35901 17.5274 6.1658 17.6732L6.00063 17.8237L5.93511 17.8562C5.86216 17.8797 5.84278 17.923 5.80658 18.0702C5.51515 19.2733 5.30241 20.5132 5.17184 21.7727C5.21154 21.6447 5.25698 21.5156 5.30961 21.3847C5.62856 20.5924 6.16376 19.8991 6.9963 19.2025L7.6505 18.6703L9.0479 17.573L9.16981 17.4704C9.21395 17.4343 9.27728 17.4266 9.32714 17.4514C9.37903 17.477 9.41007 17.5301 9.40583 17.5866L9.38773 17.8656C9.37831 18.0249 9.36888 18.175 9.35244 18.3236C9.19879 19.7667 8.76148 20.9713 8.01629 22.0063C7.60076 22.5826 7.02335 23.2734 6.15944 23.6758L5.86069 23.7987C5.60971 23.8893 5.42724 24.0258 5.2324 24.2716C5.04846 24.5024 5.01374 24.7129 5.01817 24.9775C5.03553 26.0872 5.11623 27.1868 5.25844 28.2643C5.2915 27.965 5.36149 27.6561 5.46971 27.3353C5.69336 26.6713 6.04188 26.0256 6.53534 25.3614L7.18274 24.4993L8.36774 22.9518C8.38694 22.9233 8.41321 22.9069 8.43734 22.8961L8.47079 22.8831C8.50034 22.869 8.54799 22.8661 8.58622 22.881C8.6117 22.8922 8.63333 22.9099 8.6488 22.9319L8.68096 23.0118L8.68723 23.0388C8.98309 24.7686 8.80193 26.318 8.1332 27.7766C7.84782 28.4005 7.47688 29.0966 6.87158 29.6504L6.59739 29.8783C6.2452 30.1432 5.96689 30.5153 5.81379 30.9255C5.78147 31.0138 5.78275 31.0522 5.78644 31.067C6.11332 32.3952 6.53959 33.6765 7.05909 34.8885C6.92483 34.2493 6.93424 33.5787 7.08642 32.8824C7.23072 32.2258 7.44428 31.5825 7.66891 30.9843L8.00688 30.1247L8.58049 28.7091C8.60062 28.6582 8.65048 28.6236 8.70681 28.6207C8.74424 28.6192 8.78043 28.6322 8.80768 28.6552L8.84088 28.6965L8.9563 28.9152C9.62355 30.3936 9.8487 31.9091 9.62579 33.4194C9.46641 34.499 9.19583 35.2724 8.74928 35.9266C8.51768 36.2652 8.29848 36.6418 8.25804 37.1048C8.24862 37.2144 8.25305 37.2902 8.30273 37.3767C8.7535 38.1512 9.24811 38.8912 9.78213 39.5907L10.1859 40.1012C9.68431 39.2016 9.66974 38.2358 9.72035 37.4095C9.74965 36.9368 9.79592 36.4649 9.84728 36L10.1048 33.7642C10.1106 33.7167 10.1394 33.6755 10.1835 33.6545C10.1972 33.6474 10.2151 33.6431 10.2354 33.6431C10.3169 33.6431 10.4151 33.7084 10.5254 33.8365C11.4696 34.9325 12.0554 36.1717 12.2669 37.5185C12.4861 38.9148 12.3672 40.11 11.9033 41.1719L11.8943 41.2079L11.8911 41.2796L11.9162 41.8914C11.9199 41.9327 11.943 41.9821 11.9631 42.0007C12.9053 42.8922 13.9434 43.6666 15.058 44.3119C14.5307 43.8439 14.1512 43.2334 13.9059 42.4602C13.6877 41.774 13.5545 41.0658 13.4409 40.3682L13.2728 39.3116L13.1391 38.5006C13.1312 38.4489 13.1513 38.398 13.1932 38.3668C13.2187 38.3464 13.2529 38.3361 13.2867 38.3374L13.336 38.3483L13.3864 38.3683C13.4398 38.3902 13.4867 38.4093 13.5316 38.4319C15.6373 39.4642 17.0232 41.8718 16.8276 44.1565C16.7966 44.5144 16.8298 44.8505 16.9301 45.184C16.9395 45.2138 16.9691 45.2472 16.9805 45.252C17.9811 45.6662 18.932 45.9685 19.8885 46.1755C19.9383 46.1868 19.9773 46.2216 19.9925 46.2676C20.0083 46.3144 19.9989 46.3653 19.9664 46.4029C19.8619 46.524 19.7718 46.6543 19.6973 46.7902C19.6722 46.8361 19.6238 46.8646 19.5712 46.8646L19.538 46.8607C18.9536 46.7295 18.3806 46.5697 17.8278 46.3835L17.2821 46.1887C17.223 46.1653 17.1761 46.1557 17.1379 46.1613C17.0311 46.1755 16.9205 46.1945 16.803 46.2191L16.6213 46.2605C16.5823 46.2696 16.5513 46.2872 16.5441 46.2943C16.1408 47.0866 15.4367 47.5974 14.3979 47.8452C14.1713 47.899 13.9384 47.938 13.7046 47.9617C13.4601 47.9875 13.1873 48 12.8937 48L12.3433 47.9852C12.2502 47.98 12.1954 47.9756 12.1954 47.9756C11.2936 47.8771 10.5246 47.6781 9.84296 47.367C9.56372 47.2398 9.24497 47.0685 9.00027 46.763C8.95336 46.7045 8.9613 46.6193 9.01837 46.5707C9.71018 45.9716 10.4151 45.5362 11.1725 45.2394C12.295 44.8011 13.3179 44.6829 14.32 44.8718C14.4701 44.901 14.6166 44.9363 14.7586 44.978C13.8208 44.4277 12.9234 43.7815 12.0758 43.0448C12.0591 43.0299 12.0324 43.0175 12.01 43.0133L11.6837 42.9673C11.6225 42.9604 11.5589 42.9541 11.4942 42.9495L11.4545 42.9619C11.0031 43.4581 10.4331 43.7285 9.71981 43.7824L9.44552 43.7925L9.31625 43.7908C8.39931 43.7616 7.47812 43.5143 6.57633 43.0557C5.92127 42.72 5.23887 42.3297 4.68482 41.7469L4.51062 41.5443L4.21518 41.1578C4.19136 41.1274 4.18138 41.0878 4.18711 41.0498C4.19431 41.0108 4.2174 40.9758 4.2499 40.9546L4.50205 40.8311C4.56898 40.8005 4.64246 40.7687 4.71363 40.7414C6.14712 40.1976 7.59429 40.142 8.97515 40.5788C9.33639 40.6925 9.68106 40.8527 10.0165 41.0634L10.2646 41.229L9.81364 40.6967C9.36783 40.1524 8.94321 39.5787 8.54154 38.9782L8.14759 38.3687C8.14038 38.3575 8.1223 38.3284 8.11381 38.3215L7.78877 38.1299L7.63473 38.0276C7.57143 37.9813 7.54262 37.969 7.49594 37.9884L7.44136 38.0184C7.32021 38.0956 7.18023 38.1351 7.05834 38.1661C6.34049 38.3469 5.61913 38.2568 4.81983 37.8888C4.08979 37.5531 3.52837 37.0221 3.03065 36.4988C2.30634 35.7347 1.83317 35.0457 1.54175 34.3299L1.46081 34.1023L1.33251 33.6587C1.31575 33.6052 1.33348 33.5487 1.37409 33.5133L1.42188 33.486L1.44498 33.4818L1.71962 33.4874C2.46616 33.519 4.61885 33.7216 5.95229 34.9914C6.28786 35.3106 6.58871 35.6497 6.86277 36.0213C6.37507 35.0075 5.94657 33.9501 5.58155 32.8581L5.30461 31.9839L5.29593 31.9629L4.89408 31.4216C4.88349 31.4057 4.87896 31.4003 4.87007 31.3986L4.42458 31.4162C4.29496 31.4173 4.19646 31.411 4.10992 31.3977C3.53575 31.3084 3.01772 31.0254 2.52573 30.5302C1.37646 29.3733 0.585108 27.9297 0.106786 26.117C0.0726815 25.9874 0.0548917 25.8571 0.042347 25.7232L0.000772691 25.2274C-0.00421347 25.1801 0.0151741 25.1341 0.0519249 25.1035C0.0894157 25.0739 0.141499 25.0633 0.18693 25.0781L0.350551 25.1263C0.460251 25.1575 0.554819 25.1843 0.648638 25.2219C2.13033 25.7997 3.29752 26.7896 4.21593 28.2487C4.44254 28.6094 4.61853 28.9839 4.75851 29.3578C4.55446 28.2406 4.48963 27.7292 4.44895 26.6413L4.43329 26.115L4.4331 26.0256C4.4331 25.8634 4.4331 25.7099 4.39709 25.5688C4.36766 25.4584 4.31912 25.3476 4.26502 25.2385L4.1114 24.9405L4.07593 24.9239C3.65319 24.8601 3.27811 24.6837 2.9311 24.3842C2.58057 24.0803 2.29265 23.7086 2.07473 23.2794C1.29279 21.7395 0.901097 20.0379 0.911253 18.2223L0.925409 17.9613L0.986233 17.435C0.991219 17.3868 1.02151 17.3437 1.06565 17.3232C1.10813 17.3028 1.16222 17.3045 1.2034 17.3288L1.37294 17.4322C2.04019 17.9024 2.62879 18.4867 3.12225 19.1693C3.83865 20.1612 4.28816 21.2683 4.4678 22.4768L4.52153 22.9305L4.56515 22.4142C4.61409 21.8082 4.66544 21.1808 4.70717 20.5639L4.7348 20.3356L4.77642 20.1137C4.83497 19.8256 4.8891 19.5586 4.80248 19.2789L4.74983 19.0891C4.71612 18.9575 4.57381 18.7675 4.35235 18.5545L4.16086 18.3819C3.99307 18.2324 3.48691 17.7221 3.18946 16.7894C2.94153 16.0139 2.89379 15.2124 2.89304 14.5272L2.90302 13.8647C2.92684 12.7806 3.04652 11.963 3.28956 11.2153L3.46133 10.7639C3.4729 10.733 3.49563 10.7076 3.5245 10.6915L3.57175 10.675L3.59558 10.6728C3.62439 10.6728 3.65197 10.6813 3.67526 10.6968L3.70657 10.7252L3.94334 11.0077C5.07728 12.3649 5.63427 13.9578 5.59955 15.7406C5.59309 16.0543 5.56926 16.3763 5.52678 16.7093C5.81525 15.7322 6.15361 14.7818 6.53811 13.8664L6.54764 13.8351L6.55121 13.8018L6.55398 13.6773C6.55841 13.4968 6.56193 13.3095 6.55473 13.1265C6.55325 13.096 6.53311 13.0412 6.49118 12.9876L6.39867 12.8733L6.30226 12.7615C6.18185 12.6236 6.06199 12.4869 5.96614 12.3298C5.66013 11.8264 5.5159 11.2309 5.51368 10.4569C5.50944 9.54636 5.65292 8.58691 5.96466 7.43838C6.13568 6.81173 6.39238 5.99857 6.87219 5.26098L7.03379 5.0451C7.06112 5.00867 7.10303 4.98761 7.14698 4.98761C7.20756 4.99123 7.25096 5.01806 7.27478 5.05993C7.87629 6.12544 8.17586 7.26418 8.19026 8.54086C8.20245 9.60491 8.0329 10.5212 7.82088 11.2451C8.22603 10.518 8.66494 9.80971 9.13363 9.12643L9.64375 8.40921L9.71302 7.90182L9.73427 7.68265L9.634 7.51574L9.56372 7.40991C9.46067 7.25547 9.3567 7.10053 9.2904 6.92688C9.08984 6.40228 9.0444 5.80771 9.15262 5.10946C9.39068 3.56378 10.0845 2.17165 11.275 0.853818L11.4674 0.659726L11.8874 0.282437C11.9234 0.24854 11.9782 0.235524 12.0274 0.249844C12.0601 0.260116 12.0874 0.280919 12.1055 0.308164L12.1254 0.353299L12.1932 0.657163C12.3535 1.59505 12.3411 2.60073 12.1572 3.73022C11.974 4.8501 11.6096 5.81605 11.0506 6.65497C11.8889 5.68499 12.7055 4.87014 13.5604 4.14651L13.5669 4.12317C13.5006 3.56214 13.6418 3.03118 14.0005 2.50296C14.4707 1.80833 15.1245 1.27938 15.9424 0.929532C16.2691 0.7908 16.6037 0.662382 16.9358 0.539334Z" fill="black"></path> <path fill-rule="evenodd" clip-rule="evenodd" d="M137.064 0.539334L135.851 0.0933807C135.591 -0.00776877 135.491 -0.0226423 135.434 0.0290192C135.379 0.0794582 135.375 0.124293 135.39 0.18768L135.42 0.292233C135.72 1.28487 136.119 2.07028 136.639 2.69348C137.52 3.74897 138.539 4.32571 139.745 4.44882L140.051 4.47015C140.096 4.47269 140.134 4.48573 140.148 4.49624C140.338 4.63582 140.476 4.7462 140.599 4.85605C140.988 5.20481 141.37 5.57513 141.744 5.96686C141.188 5.62698 140.507 5.47323 139.742 5.51239C139.463 5.52604 139.184 5.55739 138.911 5.59387L137.876 5.74136L137.384 5.8233C137.291 5.83925 137.068 5.88892 137.017 5.99533C136.999 6.0314 137.001 6.07113 137.021 6.10721L137.079 6.19565C137.744 7.0409 138.502 7.59825 139.397 7.89862C140.378 8.22931 141.29 8.23642 142.115 7.92187L142.387 7.80514C142.527 7.72937 142.693 7.69107 142.883 7.69107C142.99 7.69107 143.077 7.70388 143.127 7.71286L143.163 7.71991C143.222 7.73006 143.295 7.7591 143.309 7.77832C143.869 8.50122 144.401 9.27216 144.897 10.0832C144.478 9.68292 143.931 9.41314 143.186 9.23749C142.664 9.11524 142.132 9.06995 141.61 9.04037L140.7 8.99258L140.051 8.95294C139.995 8.95294 139.953 8.97391 139.927 9.01034C139.898 9.04787 139.891 9.09814 139.908 9.14346L139.944 9.23382C139.95 9.2481 139.956 9.26023 139.961 9.26742C140.641 10.3853 141.44 11.1586 142.404 11.6309C143.346 12.093 144.197 12.2158 145.054 12.0138C145.154 11.9899 145.27 11.9779 145.388 11.9779C145.753 11.9779 146.008 12.0869 146.062 12.1904C146.533 13.1448 146.955 14.1383 147.318 15.1514C146.937 14.6352 146.403 14.2159 145.729 13.9032C145.282 13.6959 144.823 13.5007 144.366 13.312L142.786 12.6655C142.745 12.6477 142.691 12.6512 142.651 12.6775C142.61 12.7038 142.587 12.7476 142.587 12.795L142.61 12.8804C142.768 13.3573 143.695 15.6492 144.988 16.6052C145.569 17.0343 146.283 17.4755 147.185 17.4967C147.41 17.5007 147.641 17.5274 147.834 17.6732L147.999 17.8237L148.065 17.8562C148.138 17.8797 148.157 17.923 148.193 18.0702C148.485 19.2733 148.698 20.5132 148.828 21.7727C148.788 21.6447 148.743 21.5156 148.69 21.3847C148.371 20.5924 147.836 19.8991 147.004 19.2025L146.349 18.6703L144.952 17.573L144.83 17.4704C144.786 17.4343 144.723 17.4266 144.673 17.4514C144.621 17.477 144.59 17.5301 144.594 17.5866L144.612 17.8656C144.622 18.0249 144.631 18.175 144.648 18.3236C144.801 19.7667 145.239 20.9713 145.984 22.0063C146.399 22.5826 146.977 23.2734 147.841 23.6758L148.139 23.7987C148.39 23.8893 148.573 24.0258 148.768 24.2716C148.952 24.5024 148.986 24.7129 148.982 24.9775C148.964 26.0872 148.884 27.1868 148.742 28.2643C148.709 27.965 148.639 27.6561 148.53 27.3353C148.307 26.6713 147.958 26.0256 147.465 25.3614L146.817 24.4993L145.632 22.9518C145.613 22.9233 145.587 22.9069 145.563 22.8961L145.529 22.8831C145.5 22.869 145.452 22.8661 145.414 22.881C145.388 22.8922 145.367 22.9099 145.351 22.9319L145.319 23.0118L145.313 23.0388C145.017 24.7686 145.198 26.318 145.867 27.7766C146.152 28.4005 146.523 29.0966 147.128 29.6504L147.403 29.8783C147.755 30.1432 148.033 30.5153 148.186 30.9255C148.219 31.0138 148.217 31.0522 148.214 31.067C147.887 32.3952 147.46 33.6765 146.941 34.8885C147.075 34.2493 147.066 33.5787 146.914 32.8824C146.769 32.2258 146.556 31.5825 146.331 30.9843L145.993 30.1247L145.42 28.7091C145.399 28.6582 145.35 28.6236 145.293 28.6207C145.256 28.6192 145.22 28.6322 145.192 28.6552L145.159 28.6965L145.044 28.9152C144.376 30.3936 144.151 31.9091 144.374 33.4194C144.534 34.499 144.804 35.2724 145.251 35.9266C145.482 36.2652 145.702 36.6418 145.742 37.1048C145.751 37.2144 145.747 37.2902 145.697 37.3767C145.246 38.1512 144.752 38.8912 144.218 39.5907L143.814 40.1012C144.316 39.2016 144.33 38.2358 144.28 37.4095C144.25 36.9368 144.204 36.4649 144.153 36L143.895 33.7642C143.889 33.7167 143.861 33.6755 143.816 33.6545C143.803 33.6474 143.785 33.6431 143.765 33.6431C143.683 33.6431 143.585 33.7084 143.475 33.8365C142.53 34.9325 141.945 36.1717 141.733 37.5185C141.514 38.9148 141.633 40.11 142.097 41.1719L142.106 41.2079L142.109 41.2796L142.084 41.8914C142.08 41.9327 142.057 41.9821 142.037 42.0007C141.095 42.8922 140.057 43.6666 138.942 44.3119C139.469 43.8439 139.849 43.2334 140.094 42.4602C140.312 41.774 140.446 41.0658 140.559 40.3682L140.727 39.3116L140.861 38.5006C140.869 38.4489 140.849 38.398 140.807 38.3668C140.781 38.3464 140.747 38.3361 140.713 38.3374L140.664 38.3483L140.614 38.3683C140.56 38.3902 140.513 38.4093 140.468 38.4319C138.363 39.4642 136.977 41.8718 137.172 44.1565C137.203 44.5144 137.17 44.8505 137.07 45.184C137.061 45.2138 137.031 45.2472 137.019 45.252C136.019 45.6662 135.068 45.9685 134.112 46.1755C134.062 46.1868 134.023 46.2216 134.008 46.2676C133.992 46.3144 134.001 46.3653 134.034 46.4029C134.138 46.524 134.228 46.6543 134.303 46.7902C134.328 46.8361 134.376 46.8646 134.429 46.8646L134.462 46.8607C135.046 46.7295 135.619 46.5697 136.172 46.3835L136.718 46.1887C136.777 46.1653 136.824 46.1557 136.862 46.1613C136.969 46.1755 137.079 46.1945 137.197 46.2191L137.379 46.2605C137.418 46.2696 137.449 46.2872 137.456 46.2943C137.859 47.0866 138.563 47.5974 139.602 47.8452C139.829 47.899 140.062 47.938 140.295 47.9617C140.54 47.9875 140.813 48 141.106 48L141.657 47.9852C141.75 47.98 141.805 47.9756 141.805 47.9756C142.706 47.8771 143.475 47.6781 144.157 47.367C144.436 47.2398 144.755 47.0685 145 46.763C145.047 46.7045 145.039 46.6193 144.982 46.5707C144.29 45.9716 143.585 45.5362 142.828 45.2394C141.705 44.8011 140.682 44.6829 139.68 44.8718C139.53 44.901 139.383 44.9363 139.241 44.978C140.179 44.4277 141.077 43.7815 141.924 43.0448C141.941 43.0299 141.968 43.0175 141.99 43.0133L142.316 42.9673C142.377 42.9604 142.441 42.9541 142.506 42.9495L142.546 42.9619C142.997 43.4581 143.567 43.7285 144.28 43.7824L144.554 43.7925L144.684 43.7908C145.601 43.7616 146.522 43.5143 147.424 43.0557C148.079 42.72 148.761 42.3297 149.315 41.7469L149.489 41.5443L149.785 41.1578C149.809 41.1274 149.819 41.0878 149.813 41.0498C149.806 41.0108 149.783 40.9758 149.75 40.9546L149.498 40.8311C149.431 40.8005 149.358 40.7687 149.286 40.7414C147.853 40.1976 146.406 40.142 145.025 40.5788C144.664 40.6925 144.319 40.8527 143.984 41.0634L143.735 41.229L144.186 40.6967C144.632 40.1524 145.057 39.5787 145.458 38.9782L145.852 38.3687C145.86 38.3575 145.878 38.3284 145.886 38.3215L146.211 38.1299L146.365 38.0276C146.429 37.9813 146.457 37.969 146.504 37.9884L146.559 38.0184C146.68 38.0956 146.82 38.1351 146.942 38.1661C147.66 38.3469 148.381 38.2568 149.18 37.8888C149.91 37.5531 150.472 37.0221 150.969 36.4988C151.694 35.7347 152.167 35.0457 152.458 34.3299L152.539 34.1023L152.667 33.6587C152.684 33.6052 152.667 33.5487 152.626 33.5133L152.578 33.486L152.555 33.4818L152.28 33.4874C151.534 33.519 149.381 33.7216 148.048 34.9914C147.712 35.3106 147.411 35.6497 147.137 36.0213C147.625 35.0075 148.053 33.9501 148.418 32.8581L148.695 31.9839L148.704 31.9629L149.106 31.4216C149.117 31.4057 149.121 31.4003 149.13 31.3986L149.575 31.4162C149.705 31.4173 149.804 31.411 149.89 31.3977C150.464 31.3084 150.982 31.0254 151.474 30.5302C152.624 29.3733 153.415 27.9297 153.893 26.117C153.927 25.9874 153.945 25.8571 153.958 25.7232L153.999 25.2274C154.004 25.1801 153.985 25.1341 153.948 25.1035C153.911 25.0739 153.859 25.0633 153.813 25.0781L153.649 25.1263C153.54 25.1575 153.445 25.1843 153.351 25.2219C151.87 25.7997 150.702 26.7896 149.784 28.2487C149.557 28.6094 149.381 28.9839 149.241 29.3578C149.446 28.2406 149.51 27.7292 149.551 26.6413L149.567 26.115L149.567 26.0256C149.567 25.8634 149.567 25.7099 149.603 25.5688C149.632 25.4584 149.681 25.3476 149.735 25.2385L149.889 24.9405L149.924 24.9239C150.347 24.8601 150.722 24.6837 151.069 24.3842C151.419 24.0803 151.707 23.7086 151.925 23.2794C152.707 21.7395 153.099 20.0379 153.089 18.2223L153.075 17.9613L153.014 17.435C153.009 17.3868 152.978 17.3437 152.934 17.3232C152.892 17.3028 152.838 17.3045 152.797 17.3288L152.627 17.4322C151.96 17.9024 151.371 18.4867 150.878 19.1693C150.161 20.1612 149.712 21.2683 149.532 22.4768L149.478 22.9305L149.435 22.4142C149.386 21.8082 149.335 21.1808 149.293 20.5639L149.265 20.3356L149.224 20.1137C149.165 19.8256 149.111 19.5586 149.198 19.2789L149.25 19.0891C149.284 18.9575 149.426 18.7675 149.648 18.5545L149.839 18.3819C150.007 18.2324 150.513 17.7221 150.811 16.7894C151.058 16.0139 151.106 15.2124 151.107 14.5272L151.097 13.8647C151.073 12.7806 150.953 11.963 150.71 11.2153L150.539 10.7639C150.527 10.733 150.504 10.7076 150.476 10.6915L150.428 10.675L150.404 10.6728C150.376 10.6728 150.348 10.6813 150.325 10.6968L150.293 10.7252L150.057 11.0077C148.923 12.3649 148.366 13.9578 148.4 15.7406C148.407 16.0543 148.431 16.3763 148.473 16.7093C148.185 15.7322 147.846 14.7818 147.462 13.8664L147.452 13.8351L147.449 13.8018L147.446 13.6773C147.442 13.4968 147.438 13.3095 147.445 13.1265C147.447 13.096 147.467 13.0412 147.509 12.9876L147.601 12.8733L147.698 12.7615C147.818 12.6236 147.938 12.4869 148.034 12.3298C148.34 11.8264 148.484 11.2309 148.486 10.4569C148.491 9.54636 148.347 8.58691 148.035 7.43838C147.864 6.81173 147.608 5.99857 147.128 5.26098L146.966 5.0451C146.939 5.00867 146.897 4.98761 146.853 4.98761C146.792 4.99123 146.749 5.01806 146.725 5.05993C146.124 6.12544 145.824 7.26418 145.81 8.54086C145.798 9.60491 145.967 10.5212 146.179 11.2451C145.774 10.518 145.335 9.80971 144.866 9.12643L144.356 8.40921L144.287 7.90182L144.266 7.68265L144.366 7.51574L144.436 7.40991C144.539 7.25547 144.643 7.10053 144.71 6.92688C144.91 6.40228 144.956 5.80771 144.847 5.10946C144.609 3.56378 143.915 2.17165 142.725 0.853818L142.533 0.659726L142.113 0.282437C142.077 0.24854 142.022 0.235524 141.973 0.249844C141.94 0.260116 141.913 0.280919 141.894 0.308164L141.875 0.353299L141.807 0.657163C141.646 1.59505 141.659 2.60073 141.843 3.73022C142.026 4.8501 142.39 5.81605 142.949 6.65497C142.111 5.68499 141.294 4.87014 140.44 4.14651L140.433 4.12317C140.499 3.56214 140.358 3.03118 140 2.50296C139.529 1.80833 138.876 1.27938 138.058 0.929532C137.731 0.7908 137.396 0.662382 137.064 0.539334Z" fill="black"></path> <path d="M205.705 10.928H204.805L204.529 12.812H203.305L203.581 10.928H202.693V9.548H203.785L203.953 8.396H202.993V7.064H204.145L204.397 5.42H205.609L205.369 7.064H206.269L206.521 5.42H207.733L207.481 7.064H208.417V8.396H207.289L207.121 9.548H208.117V10.928H206.917L206.641 12.812H205.429L205.705 10.928ZM205.009 9.548H205.909L206.077 8.396H205.177L205.009 9.548ZM209.249 13.688L212.393 10.364C212.841 9.892 213.177 9.464 213.401 9.08C213.633 8.696 213.749 8.32 213.749 7.952C213.749 7.584 213.649 7.3 213.449 7.1C213.257 6.892 212.977 6.788 212.609 6.788C212.209 6.788 211.897 6.912 211.673 7.16C211.449 7.408 211.305 7.808 211.241 8.36H209.477C209.525 7.368 209.829 6.612 210.389 6.092C210.949 5.564 211.717 5.3 212.693 5.3C213.605 5.3 214.341 5.54 214.901 6.02C215.413 6.508 215.669 7.136 215.669 7.904C215.669 8.44 215.529 8.952 215.249 9.44C214.969 9.92 214.557 10.42 214.013 10.94L212.393 12.524H215.729V14H209.249V13.688ZM221.407 6.608C221.215 6.784 220.979 6.872 220.699 6.872C220.419 6.872 220.183 6.784 219.991 6.608C219.807 6.424 219.715 6.196 219.715 5.924C219.715 5.652 219.807 5.428 219.991 5.252C220.183 5.068 220.419 4.976 220.699 4.976C220.979 4.976 221.215 5.068 221.407 5.252C221.599 5.428 221.695 5.652 221.695 5.924C221.695 6.196 221.599 6.424 221.407 6.608ZM219.847 7.724H221.575V14H219.847V7.724ZM223.315 7.724H225.055V8.72C225.447 7.96 226.127 7.58 227.095 7.58C227.727 7.58 228.235 7.772 228.619 8.156C229.011 8.572 229.207 9.188 229.207 10.004V14H227.467V10.256C227.467 9.824 227.379 9.508 227.203 9.308C227.027 9.1 226.747 8.996 226.363 8.996C225.971 8.996 225.655 9.116 225.415 9.356C225.175 9.588 225.055 9.928 225.055 10.376V14H223.315V7.724ZM235.79 14.12C234.438 14.12 233.762 13.46 233.762 12.14V8.96H232.958V7.724H233.762V6.368H235.49V7.724H236.81V8.96H235.49V11.984C235.49 12.48 235.722 12.728 236.186 12.728C236.442 12.728 236.662 12.688 236.846 12.608V13.952C236.526 14.064 236.174 14.12 235.79 14.12ZM238.162 4.88H239.902V8.72C240.294 7.96 240.974 7.58 241.942 7.58C242.574 7.58 243.082 7.772 243.466 8.156C243.858 8.572 244.054 9.188 244.054 10.004V14H242.314V10.256C242.314 9.824 242.226 9.508 242.05 9.308C241.874 9.1 241.594 8.996 241.21 8.996C240.818 8.996 240.502 9.116 240.262 9.356C240.022 9.588 239.902 9.928 239.902 10.376V14H238.162V4.88ZM248.578 14.132C247.602 14.132 246.822 13.848 246.238 13.28C245.614 12.704 245.302 11.924 245.302 10.94V10.844C245.302 9.868 245.614 9.076 246.238 8.468C246.846 7.876 247.61 7.58 248.53 7.58C249.402 7.58 250.114 7.832 250.666 8.336C251.282 8.896 251.59 9.708 251.59 10.772V11.252H247.066C247.09 11.78 247.234 12.188 247.498 12.476C247.77 12.756 248.146 12.896 248.626 12.896C249.378 12.896 249.814 12.604 249.934 12.02H251.578C251.474 12.7 251.162 13.224 250.642 13.592C250.13 13.952 249.442 14.132 248.578 14.132ZM249.898 10.184C249.842 9.248 249.386 8.78 248.53 8.78C248.138 8.78 247.814 8.904 247.558 9.152C247.31 9.392 247.154 9.736 247.09 10.184H249.898ZM258.373 14.132C257.429 14.132 256.661 13.856 256.069 13.304C255.453 12.728 255.145 11.94 255.145 10.94V10.844C255.145 9.86 255.461 9.06 256.093 8.444C256.693 7.868 257.457 7.58 258.385 7.58C259.193 7.58 259.849 7.76 260.353 8.12C260.929 8.536 261.257 9.168 261.337 10.016H259.693C259.589 9.304 259.165 8.948 258.421 8.948C257.957 8.948 257.589 9.112 257.317 9.44C257.053 9.768 256.921 10.228 256.921 10.82V10.916C256.921 11.54 257.053 12.016 257.317 12.344C257.589 12.664 257.969 12.824 258.457 12.824C258.825 12.824 259.129 12.72 259.369 12.512C259.617 12.304 259.761 12.004 259.801 11.612H261.373C261.325 12.388 261.041 12.992 260.521 13.424C259.969 13.896 259.253 14.132 258.373 14.132ZM265.536 12.812C266.024 12.812 266.4 12.644 266.664 12.308C266.936 11.972 267.072 11.504 267.072 10.904V10.82C267.072 10.22 266.936 9.752 266.664 9.416C266.4 9.072 266.024 8.9 265.536 8.9C265.056 8.9 264.68 9.068 264.408 9.404C264.136 9.732 264 10.196 264 10.796V10.892C264 11.5 264.132 11.972 264.396 12.308C264.66 12.644 265.04 12.812 265.536 12.812ZM265.524 14.132C264.564 14.132 263.78 13.84 263.172 13.256C262.54 12.672 262.224 11.896 262.224 10.928V10.832C262.224 9.864 262.54 9.076 263.172 8.468C263.788 7.876 264.576 7.58 265.536 7.58C266.504 7.58 267.292 7.872 267.9 8.456C268.524 9.064 268.836 9.844 268.836 10.796V10.892C268.836 11.86 268.52 12.648 267.888 13.256C267.28 13.84 266.492 14.132 265.524 14.132ZM270.191 4.88H271.919V14H270.191V4.88ZM273.695 4.88H275.423V14H273.695V4.88ZM280.043 14.132C279.067 14.132 278.287 13.848 277.703 13.28C277.079 12.704 276.767 11.924 276.767 10.94V10.844C276.767 9.868 277.079 9.076 277.703 8.468C278.311 7.876 279.075 7.58 279.995 7.58C280.867 7.58 281.579 7.832 282.131 8.336C282.747 8.896 283.055 9.708 283.055 10.772V11.252H278.531C278.555 11.78 278.699 12.188 278.963 12.476C279.235 12.756 279.611 12.896 280.091 12.896C280.843 12.896 281.279 12.604 281.399 12.02H283.043C282.939 12.7 282.627 13.224 282.107 13.592C281.595 13.952 280.907 14.132 280.043 14.132ZM281.363 10.184C281.307 9.248 280.851 8.78 279.995 8.78C279.603 8.78 279.279 8.904 279.023 9.152C278.775 9.392 278.619 9.736 278.555 10.184H281.363ZM287.178 14.132C286.234 14.132 285.466 13.856 284.874 13.304C284.258 12.728 283.95 11.94 283.95 10.94V10.844C283.95 9.86 284.266 9.06 284.898 8.444C285.498 7.868 286.262 7.58 287.19 7.58C287.998 7.58 288.654 7.76 289.158 8.12C289.734 8.536 290.062 9.168 290.142 10.016H288.498C288.394 9.304 287.97 8.948 287.226 8.948C286.762 8.948 286.394 9.112 286.122 9.44C285.858 9.768 285.726 10.228 285.726 10.82V10.916C285.726 11.54 285.858 12.016 286.122 12.344C286.394 12.664 286.774 12.824 287.262 12.824C287.63 12.824 287.934 12.72 288.174 12.512C288.422 12.304 288.566 12.004 288.606 11.612H290.178C290.13 12.388 289.846 12.992 289.326 13.424C288.774 13.896 288.058 14.132 287.178 14.132ZM293.704 14.12C292.352 14.12 291.676 13.46 291.676 12.14V8.96H290.872V7.724H291.676V6.368H293.404V7.724H294.724V8.96H293.404V11.984C293.404 12.48 293.636 12.728 294.1 12.728C294.356 12.728 294.576 12.688 294.76 12.608V13.952C294.44 14.064 294.088 14.12 293.704 14.12ZM297.684 6.608C297.492 6.784 297.256 6.872 296.976 6.872C296.696 6.872 296.46 6.784 296.268 6.608C296.084 6.424 295.992 6.196 295.992 5.924C295.992 5.652 296.084 5.428 296.268 5.252C296.46 5.068 296.696 4.976 296.976 4.976C297.256 4.976 297.492 5.068 297.684 5.252C297.876 5.428 297.972 5.652 297.972 5.924C297.972 6.196 297.876 6.424 297.684 6.608ZM296.124 7.724H297.852V14H296.124V7.724ZM302.52 12.812C303.008 12.812 303.384 12.644 303.648 12.308C303.92 11.972 304.056 11.504 304.056 10.904V10.82C304.056 10.22 303.92 9.752 303.648 9.416C303.384 9.072 303.008 8.9 302.52 8.9C302.04 8.9 301.664 9.068 301.392 9.404C301.12 9.732 300.984 10.196 300.984 10.796V10.892C300.984 11.5 301.116 11.972 301.38 12.308C301.644 12.644 302.024 12.812 302.52 12.812ZM302.508 14.132C301.548 14.132 300.764 13.84 300.156 13.256C299.524 12.672 299.208 11.896 299.208 10.928V10.832C299.208 9.864 299.524 9.076 300.156 8.468C300.772 7.876 301.56 7.58 302.52 7.58C303.488 7.58 304.276 7.872 304.884 8.456C305.508 9.064 305.82 9.844 305.82 10.796V10.892C305.82 11.86 305.504 12.648 304.872 13.256C304.264 13.84 303.476 14.132 302.508 14.132ZM307.127 7.724H308.867V8.72C309.259 7.96 309.939 7.58 310.907 7.58C311.539 7.58 312.047 7.772 312.431 8.156C312.823 8.572 313.019 9.188 313.019 10.004V14H311.279V10.256C311.279 9.824 311.191 9.508 311.015 9.308C310.839 9.1 310.559 8.996 310.175 8.996C309.783 8.996 309.467 9.116 309.227 9.356C308.987 9.588 308.867 9.928 308.867 10.376V14H307.127V7.724Z" fill="black"></path> <path d="M219.516 28.39L220.816 26.61H221.636L220.386 28.39L221.636 30.17H220.816L219.516 28.39ZM221.296 28.39L222.596 26.61H223.416L222.166 28.39L223.416 30.17H222.596L221.296 28.39ZM226.068 27.88L223.678 23.85H224.658L226.528 27.17L228.328 23.85H229.198L226.938 27.89V31H226.068V27.88ZM231.868 30.4C232.388 30.4 232.801 30.22 233.108 29.86C233.421 29.5 233.578 29.0233 233.578 28.43V28.36C233.578 27.7533 233.421 27.27 233.108 26.91C232.801 26.55 232.388 26.37 231.868 26.37C231.341 26.37 230.925 26.55 230.618 26.91C230.311 27.27 230.158 27.75 230.158 28.35V28.43C230.158 29.0367 230.308 29.5167 230.608 29.87C230.915 30.2233 231.335 30.4 231.868 30.4ZM231.858 31.09C231.118 31.09 230.505 30.84 230.018 30.34C229.538 29.8333 229.298 29.1967 229.298 28.43V28.35C229.298 27.57 229.538 26.93 230.018 26.43C230.505 25.93 231.121 25.68 231.868 25.68C232.615 25.68 233.228 25.93 233.708 26.43C234.195 26.9233 234.438 27.56 234.438 28.34V28.42C234.438 29.2067 234.195 29.85 233.708 30.35C233.221 30.8433 232.605 31.09 231.858 31.09ZM237.62 31.09C237.067 31.09 236.624 30.9267 236.29 30.6C235.964 30.2733 235.8 29.7667 235.8 29.08V25.77H236.63V29.04C236.63 29.5 236.727 29.8367 236.92 30.05C237.12 30.2633 237.427 30.37 237.84 30.37C238.24 30.37 238.58 30.2433 238.86 29.99C239.14 29.7367 239.28 29.3867 239.28 28.94V25.77H240.11V31H239.28V30.17C239.154 30.4367 238.944 30.6567 238.65 30.83C238.364 31.0033 238.02 31.09 237.62 31.09ZM241.915 25.77H242.745V26.71C242.918 26.39 243.138 26.1433 243.405 25.97C243.671 25.79 244.025 25.6933 244.465 25.68V26.46C243.891 26.4867 243.461 26.62 243.175 26.86C242.888 27.1 242.745 27.5233 242.745 28.13V31H241.915V25.77ZM251.038 31.09C250.638 31.09 250.285 31.0033 249.978 30.83C249.671 30.65 249.435 30.42 249.268 30.14V31H248.438V23.27H249.268V26.65C249.421 26.3833 249.661 26.1567 249.988 25.97C250.315 25.7767 250.665 25.68 251.038 25.68C251.738 25.68 252.308 25.9167 252.748 26.39C253.195 26.8633 253.418 27.5033 253.418 28.31V28.39C253.418 29.1967 253.198 29.85 252.758 30.35C252.325 30.8433 251.751 31.09 251.038 31.09ZM250.958 30.4C251.478 30.4 251.875 30.2333 252.148 29.9C252.421 29.56 252.558 29.07 252.558 28.43V28.35C252.558 27.7167 252.405 27.23 252.098 26.89C251.798 26.5433 251.415 26.37 250.948 26.37C250.441 26.37 250.028 26.54 249.708 26.88C249.395 27.2133 249.238 27.7033 249.238 28.35V28.43C249.238 29.0767 249.391 29.5667 249.698 29.9C250.011 30.2333 250.431 30.4 250.958 30.4ZM257.005 30.4C257.525 30.4 257.938 30.22 258.245 29.86C258.558 29.5 258.715 29.0233 258.715 28.43V28.36C258.715 27.7533 258.558 27.27 258.245 26.91C257.938 26.55 257.525 26.37 257.005 26.37C256.478 26.37 256.061 26.55 255.755 26.91C255.448 27.27 255.295 27.75 255.295 28.35V28.43C255.295 29.0367 255.445 29.5167 255.745 29.87C256.051 30.2233 256.471 30.4 257.005 30.4ZM256.995 31.09C256.255 31.09 255.641 30.84 255.155 30.34C254.675 29.8333 254.435 29.1967 254.435 28.43V28.35C254.435 27.57 254.675 26.93 255.155 26.43C255.641 25.93 256.258 25.68 257.005 25.68C257.751 25.68 258.365 25.93 258.845 26.43C259.331 26.9233 259.575 27.56 259.575 28.34V28.42C259.575 29.2067 259.331 29.85 258.845 30.35C258.358 30.8433 257.741 31.09 256.995 31.09ZM262.957 31.09C262.257 31.09 261.687 30.86 261.247 30.4C260.814 29.9333 260.597 29.2967 260.597 28.49V28.41C260.597 27.61 260.824 26.9567 261.277 26.45C261.73 25.9367 262.317 25.68 263.037 25.68C263.797 25.68 264.367 25.99 264.747 26.61V23.27H265.577V31H264.747V30.1C264.594 30.3667 264.347 30.6 264.007 30.8C263.667 30.9933 263.317 31.09 262.957 31.09ZM263.047 30.4C263.56 30.4 263.977 30.2333 264.297 29.9C264.617 29.56 264.777 29.0667 264.777 28.42V28.34C264.777 27.68 264.63 27.1867 264.337 26.86C264.05 26.5333 263.644 26.37 263.117 26.37C262.597 26.37 262.19 26.5433 261.897 26.89C261.604 27.2367 261.457 27.73 261.457 28.37V28.45C261.457 29.0833 261.604 29.5667 261.897 29.9C262.197 30.2333 262.58 30.4 263.047 30.4ZM268.834 30.46L266.784 25.77H267.674L269.274 29.52L270.724 25.77H271.574L268.684 32.82H267.844L268.834 30.46ZM271.601 31.95L272.561 29.76L273.371 30.14L272.141 32.23L271.601 31.95ZM279.127 30.46L277.077 25.77H277.967L279.567 29.52L281.017 25.77H281.867L278.977 32.82H278.137L279.127 30.46ZM285.11 30.4C285.63 30.4 286.044 30.22 286.35 29.86C286.664 29.5 286.82 29.0233 286.82 28.43V28.36C286.82 27.7533 286.664 27.27 286.35 26.91C286.044 26.55 285.63 26.37 285.11 26.37C284.584 26.37 284.167 26.55 283.86 26.91C283.554 27.27 283.4 27.75 283.4 28.35V28.43C283.4 29.0367 283.55 29.5167 283.85 29.87C284.157 30.2233 284.577 30.4 285.11 30.4ZM285.1 31.09C284.36 31.09 283.747 30.84 283.26 30.34C282.78 29.8333 282.54 29.1967 282.54 28.43V28.35C282.54 27.57 282.78 26.93 283.26 26.43C283.747 25.93 284.364 25.68 285.11 25.68C285.857 25.68 286.47 25.93 286.95 26.43C287.437 26.9233 287.68 27.56 287.68 28.34V28.42C287.68 29.2067 287.437 29.85 286.95 30.35C286.464 30.8433 285.847 31.09 285.1 31.09ZM290.862 31.09C290.309 31.09 289.866 30.9267 289.532 30.6C289.206 30.2733 289.042 29.7667 289.042 29.08V25.77H289.872V29.04C289.872 29.5 289.969 29.8367 290.162 30.05C290.362 30.2633 290.669 30.37 291.082 30.37C291.482 30.37 291.822 30.2433 292.102 29.99C292.382 29.7367 292.522 29.3867 292.522 28.94V25.77H293.352V31H292.522V30.17C292.396 30.4367 292.186 30.6567 291.892 30.83C291.606 31.0033 291.262 31.09 290.862 31.09ZM295.157 25.77H295.987V26.71C296.16 26.39 296.38 26.1433 296.647 25.97C296.914 25.79 297.267 25.6933 297.707 25.68V26.46C297.134 26.4867 296.704 26.62 296.417 26.86C296.13 27.1 295.987 27.5233 295.987 28.13V31H295.157V25.77ZM246.345 43.09C245.599 43.09 244.985 42.85 244.505 42.37C244.025 41.8833 243.785 41.24 243.785 40.44V40.36C243.785 39.5733 244.029 38.93 244.515 38.43C245.009 37.93 245.612 37.68 246.325 37.68C246.925 37.68 247.435 37.83 247.855 38.13C248.275 38.4233 248.522 38.8833 248.595 39.51H247.775C247.655 38.75 247.172 38.37 246.325 38.37C245.839 38.37 245.435 38.5533 245.115 38.92C244.802 39.28 244.645 39.76 244.645 40.36V40.44C244.645 41.0667 244.799 41.55 245.105 41.89C245.419 42.23 245.835 42.4 246.355 42.4C246.749 42.4 247.085 42.29 247.365 42.07C247.652 41.8433 247.815 41.5267 247.855 41.12H248.625C248.572 41.6933 248.332 42.1667 247.905 42.54C247.485 42.9067 246.965 43.09 246.345 43.09ZM251.407 42.46L249.357 37.77H250.247L251.847 41.52L253.297 37.77H254.147L251.257 44.82H250.417L251.407 42.46ZM257.381 43.09C256.634 43.09 256.021 42.85 255.541 42.37C255.061 41.8833 254.821 41.24 254.821 40.44V40.36C254.821 39.5733 255.064 38.93 255.551 38.43C256.044 37.93 256.647 37.68 257.361 37.68C257.961 37.68 258.471 37.83 258.891 38.13C259.311 38.4233 259.557 38.8833 259.631 39.51H258.811C258.691 38.75 258.207 38.37 257.361 38.37C256.874 38.37 256.471 38.5533 256.151 38.92C255.837 39.28 255.681 39.76 255.681 40.36V40.44C255.681 41.0667 255.834 41.55 256.141 41.89C256.454 42.23 256.871 42.4 257.391 42.4C257.784 42.4 258.121 42.29 258.401 42.07C258.687 41.8433 258.851 41.5267 258.891 41.12H259.661C259.607 41.6933 259.367 42.1667 258.941 42.54C258.521 42.9067 258.001 43.09 257.381 43.09ZM261.051 35.27H261.891V43H261.051V35.27ZM265.847 43.09C265.1 43.09 264.49 42.8467 264.017 42.36C263.55 41.8733 263.317 41.2333 263.317 40.44V40.36C263.317 39.5733 263.543 38.93 263.997 38.43C264.457 37.93 265.047 37.68 265.767 37.68C266.433 37.68 266.99 37.8967 267.437 38.33C267.89 38.7567 268.117 39.4067 268.117 40.28V40.55H264.177C264.217 41.7833 264.777 42.4 265.857 42.4C266.677 42.4 267.14 42.0967 267.247 41.49H268.077C267.983 42.01 267.74 42.4067 267.347 42.68C266.953 42.9533 266.453 43.09 265.847 43.09ZM267.267 39.88C267.193 38.8733 266.693 38.37 265.767 38.37C265.347 38.37 265 38.5033 264.727 38.77C264.453 39.0367 264.28 39.4067 264.207 39.88H267.267ZM270.427 40.39L269.177 38.61H269.997L271.297 40.39L269.997 42.17H269.177L270.427 40.39ZM272.207 40.39L270.957 38.61H271.777L273.077 40.39L271.777 42.17H270.957L272.207 40.39Z" fill="black"></path> <path fill-rule="evenodd" clip-rule="evenodd" d="M194.936 0.539334L196.149 0.0933807C196.409 -0.00776877 196.509 -0.0226423 196.566 0.0290192C196.621 0.0794582 196.625 0.124293 196.61 0.18768L196.58 0.292233C196.28 1.28487 195.881 2.07028 195.361 2.69348C194.48 3.74897 193.461 4.32571 192.255 4.44882L191.949 4.47015C191.904 4.47269 191.866 4.48573 191.852 4.49624C191.662 4.63582 191.524 4.7462 191.401 4.85605C191.012 5.20481 190.63 5.57513 190.256 5.96686C190.812 5.62698 191.493 5.47323 192.258 5.51239C192.537 5.52604 192.816 5.55739 193.089 5.59387L194.124 5.74136L194.616 5.8233C194.709 5.83925 194.932 5.88892 194.983 5.99533C195.001 6.0314 194.999 6.07113 194.979 6.10721L194.921 6.19565C194.256 7.0409 193.498 7.59825 192.603 7.89862C191.622 8.22931 190.71 8.23642 189.885 7.92187L189.613 7.80514C189.473 7.72937 189.307 7.69107 189.117 7.69107C189.01 7.69107 188.923 7.70388 188.873 7.71286L188.837 7.71991C188.778 7.73006 188.705 7.7591 188.691 7.77832C188.131 8.50122 187.599 9.27216 187.103 10.0832C187.522 9.68292 188.069 9.41314 188.814 9.23749C189.336 9.11524 189.868 9.06995 190.39 9.04037L191.3 8.99258L191.949 8.95294C192.005 8.95294 192.047 8.97391 192.073 9.01034C192.102 9.04787 192.109 9.09814 192.092 9.14346L192.056 9.23382C192.05 9.2481 192.044 9.26023 192.039 9.26742C191.359 10.3853 190.56 11.1586 189.596 11.6309C188.654 12.093 187.803 12.2158 186.946 12.0138C186.846 11.9899 186.73 11.9779 186.612 11.9779C186.247 11.9779 185.992 12.0869 185.938 12.1904C185.467 13.1448 185.045 14.1383 184.682 15.1514C185.063 14.6352 185.597 14.2159 186.271 13.9032C186.718 13.6959 187.177 13.5007 187.634 13.312L189.214 12.6655C189.255 12.6477 189.309 12.6512 189.349 12.6775C189.39 12.7038 189.413 12.7476 189.413 12.795L189.39 12.8804C189.232 13.3573 188.305 15.6492 187.012 16.6052C186.431 17.0343 185.717 17.4755 184.815 17.4967C184.59 17.5007 184.359 17.5274 184.166 17.6732L184.001 17.8237L183.935 17.8562C183.862 17.8797 183.843 17.923 183.807 18.0702C183.515 19.2733 183.302 20.5132 183.172 21.7727C183.212 21.6447 183.257 21.5156 183.31 21.3847C183.629 20.5924 184.164 19.8991 184.996 19.2025L185.651 18.6703L187.048 17.573L187.17 17.4704C187.214 17.4343 187.277 17.4266 187.327 17.4514C187.379 17.477 187.41 17.5301 187.406 17.5866L187.388 17.8656C187.378 18.0249 187.369 18.175 187.352 18.3236C187.199 19.7667 186.761 20.9713 186.016 22.0063C185.601 22.5826 185.023 23.2734 184.159 23.6758L183.861 23.7987C183.61 23.8893 183.427 24.0258 183.232 24.2716C183.048 24.5024 183.014 24.7129 183.018 24.9775C183.036 26.0872 183.116 27.1868 183.258 28.2643C183.291 27.965 183.361 27.6561 183.47 27.3353C183.693 26.6713 184.042 26.0256 184.535 25.3614L185.183 24.4993L186.368 22.9518C186.387 22.9233 186.413 22.9069 186.437 22.8961L186.471 22.8831C186.5 22.869 186.548 22.8661 186.586 22.881C186.612 22.8922 186.633 22.9099 186.649 22.9319L186.681 23.0118L186.687 23.0388C186.983 24.7686 186.802 26.318 186.133 27.7766C185.848 28.4005 185.477 29.0966 184.872 29.6504L184.597 29.8783C184.245 30.1432 183.967 30.5153 183.814 30.9255C183.781 31.0138 183.783 31.0522 183.786 31.067C184.113 32.3952 184.54 33.6765 185.059 34.8885C184.925 34.2493 184.934 33.5787 185.086 32.8824C185.231 32.2258 185.444 31.5825 185.669 30.9843L186.007 30.1247L186.58 28.7091C186.601 28.6582 186.65 28.6236 186.707 28.6207C186.744 28.6192 186.78 28.6322 186.808 28.6552L186.841 28.6965L186.956 28.9152C187.624 30.3936 187.849 31.9091 187.626 33.4194C187.466 34.499 187.196 35.2724 186.749 35.9266C186.518 36.2652 186.298 36.6418 186.258 37.1048C186.249 37.2144 186.253 37.2902 186.303 37.3767C186.754 38.1512 187.248 38.8912 187.782 39.5907L188.186 40.1012C187.684 39.2016 187.67 38.2358 187.72 37.4095C187.75 36.9368 187.796 36.4649 187.847 36L188.105 33.7642C188.111 33.7167 188.139 33.6755 188.184 33.6545C188.197 33.6474 188.215 33.6431 188.235 33.6431C188.317 33.6431 188.415 33.7084 188.525 33.8365C189.47 34.9325 190.055 36.1717 190.267 37.5185C190.486 38.9148 190.367 40.11 189.903 41.1719L189.894 41.2079L189.891 41.2796L189.916 41.8914C189.92 41.9327 189.943 41.9821 189.963 42.0007C190.905 42.8922 191.943 43.6666 193.058 44.3119C192.531 43.8439 192.151 43.2334 191.906 42.4602C191.688 41.774 191.554 41.0658 191.441 40.3682L191.273 39.3116L191.139 38.5006C191.131 38.4489 191.151 38.398 191.193 38.3668C191.219 38.3464 191.253 38.3361 191.287 38.3374L191.336 38.3483L191.386 38.3683C191.44 38.3902 191.487 38.4093 191.532 38.4319C193.637 39.4642 195.023 41.8718 194.828 44.1565C194.797 44.5144 194.83 44.8505 194.93 45.184C194.939 45.2138 194.969 45.2472 194.981 45.252C195.981 45.6662 196.932 45.9685 197.888 46.1755C197.938 46.1868 197.977 46.2216 197.992 46.2676C198.008 46.3144 197.999 46.3653 197.966 46.4029C197.862 46.524 197.772 46.6543 197.697 46.7902C197.672 46.8361 197.624 46.8646 197.571 46.8646L197.538 46.8607C196.954 46.7295 196.381 46.5697 195.828 46.3835L195.282 46.1887C195.223 46.1653 195.176 46.1557 195.138 46.1613C195.031 46.1755 194.921 46.1945 194.803 46.2191L194.621 46.2605C194.582 46.2696 194.551 46.2872 194.544 46.2943C194.141 47.0866 193.437 47.5974 192.398 47.8452C192.171 47.899 191.938 47.938 191.705 47.9617C191.46 47.9875 191.187 48 190.894 48L190.343 47.9852C190.25 47.98 190.195 47.9756 190.195 47.9756C189.294 47.8771 188.525 47.6781 187.843 47.367C187.564 47.2398 187.245 47.0685 187 46.763C186.953 46.7045 186.961 46.6193 187.018 46.5707C187.71 45.9716 188.415 45.5362 189.172 45.2394C190.295 44.8011 191.318 44.6829 192.32 44.8718C192.47 44.901 192.617 44.9363 192.759 44.978C191.821 44.4277 190.923 43.7815 190.076 43.0448C190.059 43.0299 190.032 43.0175 190.01 43.0133L189.684 42.9673C189.623 42.9604 189.559 42.9541 189.494 42.9495L189.454 42.9619C189.003 43.4581 188.433 43.7285 187.72 43.7824L187.446 43.7925L187.316 43.7908C186.399 43.7616 185.478 43.5143 184.576 43.0557C183.921 42.72 183.239 42.3297 182.685 41.7469L182.511 41.5443L182.215 41.1578C182.191 41.1274 182.181 41.0878 182.187 41.0498C182.194 41.0108 182.217 40.9758 182.25 40.9546L182.502 40.8311C182.569 40.8005 182.642 40.7687 182.714 40.7414C184.147 40.1976 185.594 40.142 186.975 40.5788C187.336 40.6925 187.681 40.8527 188.016 41.0634L188.265 41.229L187.814 40.6967C187.368 40.1524 186.943 39.5787 186.542 38.9782L186.148 38.3687C186.14 38.3575 186.122 38.3284 186.114 38.3215L185.789 38.1299L185.635 38.0276C185.571 37.9813 185.543 37.969 185.496 37.9884L185.441 38.0184C185.32 38.0956 185.18 38.1351 185.058 38.1661C184.34 38.3469 183.619 38.2568 182.82 37.8888C182.09 37.5531 181.528 37.0221 181.031 36.4988C180.306 35.7347 179.833 35.0457 179.542 34.3299L179.461 34.1023L179.333 33.6587C179.316 33.6052 179.333 33.5487 179.374 33.5133L179.422 33.486L179.445 33.4818L179.72 33.4874C180.466 33.519 182.619 33.7216 183.952 34.9914C184.288 35.3106 184.589 35.6497 184.863 36.0213C184.375 35.0075 183.947 33.9501 183.582 32.8581L183.305 31.9839L183.296 31.9629L182.894 31.4216C182.883 31.4057 182.879 31.4003 182.87 31.3986L182.425 31.4162C182.295 31.4173 182.196 31.411 182.11 31.3977C181.536 31.3084 181.018 31.0254 180.526 30.5302C179.376 29.3733 178.585 27.9297 178.107 26.117C178.073 25.9874 178.055 25.8571 178.042 25.7232L178.001 25.2274C177.996 25.1801 178.015 25.1341 178.052 25.1035C178.089 25.0739 178.141 25.0633 178.187 25.0781L178.351 25.1263C178.46 25.1575 178.555 25.1843 178.649 25.2219C180.13 25.7997 181.298 26.7896 182.216 28.2487C182.443 28.6094 182.619 28.9839 182.759 29.3578C182.554 28.2406 182.49 27.7292 182.449 26.6413L182.433 26.115L182.433 26.0256C182.433 25.8634 182.433 25.7099 182.397 25.5688C182.368 25.4584 182.319 25.3476 182.265 25.2385L182.111 24.9405L182.076 24.9239C181.653 24.8601 181.278 24.6837 180.931 24.3842C180.581 24.0803 180.293 23.7086 180.075 23.2794C179.293 21.7395 178.901 20.0379 178.911 18.2223L178.925 17.9613L178.986 17.435C178.991 17.3868 179.022 17.3437 179.066 17.3232C179.108 17.3028 179.162 17.3045 179.203 17.3288L179.373 17.4322C180.04 17.9024 180.629 18.4867 181.122 19.1693C181.839 20.1612 182.288 21.2683 182.468 22.4768L182.522 22.9305L182.565 22.4142C182.614 21.8082 182.665 21.1808 182.707 20.5639L182.735 20.3356L182.776 20.1137C182.835 19.8256 182.889 19.5586 182.802 19.2789L182.75 19.0891C182.716 18.9575 182.574 18.7675 182.352 18.5545L182.161 18.3819C181.993 18.2324 181.487 17.7221 181.189 16.7894C180.942 16.0139 180.894 15.2124 180.893 14.5272L180.903 13.8647C180.927 12.7806 181.047 11.963 181.29 11.2153L181.461 10.7639C181.473 10.733 181.496 10.7076 181.524 10.6915L181.572 10.675L181.596 10.6728C181.624 10.6728 181.652 10.6813 181.675 10.6968L181.707 10.7252L181.943 11.0077C183.077 12.3649 183.634 13.9578 183.6 15.7406C183.593 16.0543 183.569 16.3763 183.527 16.7093C183.815 15.7322 184.154 14.7818 184.538 13.8664L184.548 13.8351L184.551 13.8018L184.554 13.6773C184.558 13.4968 184.562 13.3095 184.555 13.1265C184.553 13.096 184.533 13.0412 184.491 12.9876L184.399 12.8733L184.302 12.7615C184.182 12.6236 184.062 12.4869 183.966 12.3298C183.66 11.8264 183.516 11.2309 183.514 10.4569C183.509 9.54636 183.653 8.58691 183.965 7.43838C184.136 6.81173 184.392 5.99857 184.872 5.26098L185.034 5.0451C185.061 5.00867 185.103 4.98761 185.147 4.98761C185.208 4.99123 185.251 5.01806 185.275 5.05993C185.876 6.12544 186.176 7.26418 186.19 8.54086C186.202 9.60491 186.033 10.5212 185.821 11.2451C186.226 10.518 186.665 9.80971 187.134 9.12643L187.644 8.40921L187.713 7.90182L187.734 7.68265L187.634 7.51574L187.564 7.40991C187.461 7.25547 187.357 7.10053 187.29 6.92688C187.09 6.40228 187.044 5.80771 187.153 5.10946C187.391 3.56378 188.085 2.17165 189.275 0.853818L189.467 0.659726L189.887 0.282437C189.923 0.24854 189.978 0.235524 190.027 0.249844C190.06 0.260116 190.087 0.280919 190.106 0.308164L190.125 0.353299L190.193 0.657163C190.354 1.59505 190.341 2.60073 190.157 3.73022C189.974 4.8501 189.61 5.81605 189.051 6.65497C189.889 5.68499 190.706 4.87014 191.56 4.14651L191.567 4.12317C191.501 3.56214 191.642 3.03118 192 2.50296C192.471 1.80833 193.124 1.27938 193.942 0.929532C194.269 0.7908 194.604 0.662382 194.936 0.539334Z" fill="black"></path> <path fill-rule="evenodd" clip-rule="evenodd" d="M321.064 0.539334L319.851 0.0933807C319.591 -0.00776877 319.491 -0.0226423 319.434 0.0290192C319.379 0.0794582 319.375 0.124293 319.39 0.18768L319.42 0.292233C319.72 1.28487 320.119 2.07028 320.639 2.69348C321.52 3.74897 322.539 4.32571 323.745 4.44882L324.051 4.47015C324.096 4.47269 324.134 4.48573 324.148 4.49624C324.338 4.63582 324.476 4.7462 324.599 4.85605C324.988 5.20481 325.37 5.57513 325.744 5.96686C325.188 5.62698 324.507 5.47323 323.742 5.51239C323.463 5.52604 323.184 5.55739 322.911 5.59387L321.876 5.74136L321.384 5.8233C321.291 5.83925 321.068 5.88892 321.017 5.99533C320.999 6.0314 321.001 6.07113 321.021 6.10721L321.079 6.19565C321.744 7.0409 322.502 7.59825 323.397 7.89862C324.378 8.22931 325.29 8.23642 326.115 7.92187L326.387 7.80514C326.527 7.72937 326.693 7.69107 326.883 7.69107C326.99 7.69107 327.077 7.70388 327.127 7.71286L327.163 7.71991C327.222 7.73006 327.295 7.7591 327.309 7.77832C327.869 8.50122 328.401 9.27216 328.897 10.0832C328.478 9.68292 327.931 9.41314 327.186 9.23749C326.664 9.11524 326.132 9.06995 325.61 9.04037L324.7 8.99258L324.051 8.95294C323.995 8.95294 323.953 8.97391 323.927 9.01034C323.898 9.04787 323.891 9.09814 323.908 9.14346L323.944 9.23382C323.95 9.2481 323.956 9.26023 323.961 9.26742C324.641 10.3853 325.44 11.1586 326.404 11.6309C327.346 12.093 328.197 12.2158 329.054 12.0138C329.154 11.9899 329.27 11.9779 329.388 11.9779C329.753 11.9779 330.008 12.0869 330.062 12.1904C330.533 13.1448 330.955 14.1383 331.318 15.1514C330.937 14.6352 330.403 14.2159 329.729 13.9032C329.282 13.6959 328.823 13.5007 328.366 13.312L326.786 12.6655C326.745 12.6477 326.691 12.6512 326.651 12.6775C326.61 12.7038 326.587 12.7476 326.587 12.795L326.61 12.8804C326.768 13.3573 327.695 15.6492 328.988 16.6052C329.569 17.0343 330.283 17.4755 331.185 17.4967C331.41 17.5007 331.641 17.5274 331.834 17.6732L331.999 17.8237L332.065 17.8562C332.138 17.8797 332.157 17.923 332.193 18.0702C332.485 19.2733 332.698 20.5132 332.828 21.7727C332.788 21.6447 332.743 21.5156 332.69 21.3847C332.371 20.5924 331.836 19.8991 331.004 19.2025L330.349 18.6703L328.952 17.573L328.83 17.4704C328.786 17.4343 328.723 17.4266 328.673 17.4514C328.621 17.477 328.59 17.5301 328.594 17.5866L328.612 17.8656C328.622 18.0249 328.631 18.175 328.648 18.3236C328.801 19.7667 329.239 20.9713 329.984 22.0063C330.399 22.5826 330.977 23.2734 331.841 23.6758L332.139 23.7987C332.39 23.8893 332.573 24.0258 332.768 24.2716C332.952 24.5024 332.986 24.7129 332.982 24.9775C332.964 26.0872 332.884 27.1868 332.742 28.2643C332.709 27.965 332.639 27.6561 332.53 27.3353C332.307 26.6713 331.958 26.0256 331.465 25.3614L330.817 24.4993L329.632 22.9518C329.613 22.9233 329.587 22.9069 329.563 22.8961L329.529 22.8831C329.5 22.869 329.452 22.8661 329.414 22.881C329.388 22.8922 329.367 22.9099 329.351 22.9319L329.319 23.0118L329.313 23.0388C329.017 24.7686 329.198 26.318 329.867 27.7766C330.152 28.4005 330.523 29.0966 331.128 29.6504L331.403 29.8783C331.755 30.1432 332.033 30.5153 332.186 30.9255C332.219 31.0138 332.217 31.0522 332.214 31.067C331.887 32.3952 331.46 33.6765 330.941 34.8885C331.075 34.2493 331.066 33.5787 330.914 32.8824C330.769 32.2258 330.556 31.5825 330.331 30.9843L329.993 30.1247L329.42 28.7091C329.399 28.6582 329.35 28.6236 329.293 28.6207C329.256 28.6192 329.22 28.6322 329.192 28.6552L329.159 28.6965L329.044 28.9152C328.376 30.3936 328.151 31.9091 328.374 33.4194C328.534 34.499 328.804 35.2724 329.251 35.9266C329.482 36.2652 329.702 36.6418 329.742 37.1048C329.751 37.2144 329.747 37.2902 329.697 37.3767C329.246 38.1512 328.752 38.8912 328.218 39.5907L327.814 40.1012C328.316 39.2016 328.33 38.2358 328.28 37.4095C328.25 36.9368 328.204 36.4649 328.153 36L327.895 33.7642C327.889 33.7167 327.861 33.6755 327.816 33.6545C327.803 33.6474 327.785 33.6431 327.765 33.6431C327.683 33.6431 327.585 33.7084 327.475 33.8365C326.53 34.9325 325.945 36.1717 325.733 37.5185C325.514 38.9148 325.633 40.11 326.097 41.1719L326.106 41.2079L326.109 41.2796L326.084 41.8914C326.08 41.9327 326.057 41.9821 326.037 42.0007C325.095 42.8922 324.057 43.6666 322.942 44.3119C323.469 43.8439 323.849 43.2334 324.094 42.4602C324.312 41.774 324.446 41.0658 324.559 40.3682L324.727 39.3116L324.861 38.5006C324.869 38.4489 324.849 38.398 324.807 38.3668C324.781 38.3464 324.747 38.3361 324.713 38.3374L324.664 38.3483L324.614 38.3683C324.56 38.3902 324.513 38.4093 324.468 38.4319C322.363 39.4642 320.977 41.8718 321.172 44.1565C321.203 44.5144 321.17 44.8505 321.07 45.184C321.061 45.2138 321.031 45.2472 321.019 45.252C320.019 45.6662 319.068 45.9685 318.112 46.1755C318.062 46.1868 318.023 46.2216 318.008 46.2676C317.992 46.3144 318.001 46.3653 318.034 46.4029C318.138 46.524 318.228 46.6543 318.303 46.7902C318.328 46.8361 318.376 46.8646 318.429 46.8646L318.462 46.8607C319.046 46.7295 319.619 46.5697 320.172 46.3835L320.718 46.1887C320.777 46.1653 320.824 46.1557 320.862 46.1613C320.969 46.1755 321.079 46.1945 321.197 46.2191L321.379 46.2605C321.418 46.2696 321.449 46.2872 321.456 46.2943C321.859 47.0866 322.563 47.5974 323.602 47.8452C323.829 47.899 324.062 47.938 324.295 47.9617C324.54 47.9875 324.813 48 325.106 48L325.657 47.9852C325.75 47.98 325.805 47.9756 325.805 47.9756C326.706 47.8771 327.475 47.6781 328.157 47.367C328.436 47.2398 328.755 47.0685 329 46.763C329.047 46.7045 329.039 46.6193 328.982 46.5707C328.29 45.9716 327.585 45.5362 326.828 45.2394C325.705 44.8011 324.682 44.6829 323.68 44.8718C323.53 44.901 323.383 44.9363 323.241 44.978C324.179 44.4277 325.077 43.7815 325.924 43.0448C325.941 43.0299 325.968 43.0175 325.99 43.0133L326.316 42.9673C326.377 42.9604 326.441 42.9541 326.506 42.9495L326.546 42.9619C326.997 43.4581 327.567 43.7285 328.28 43.7824L328.554 43.7925L328.684 43.7908C329.601 43.7616 330.522 43.5143 331.424 43.0557C332.079 42.72 332.761 42.3297 333.315 41.7469L333.489 41.5443L333.785 41.1578C333.809 41.1274 333.819 41.0878 333.813 41.0498C333.806 41.0108 333.783 40.9758 333.75 40.9546L333.498 40.8311C333.431 40.8005 333.358 40.7687 333.286 40.7414C331.853 40.1976 330.406 40.142 329.025 40.5788C328.664 40.6925 328.319 40.8527 327.984 41.0634L327.735 41.229L328.186 40.6967C328.632 40.1524 329.057 39.5787 329.458 38.9782L329.852 38.3687C329.86 38.3575 329.878 38.3284 329.886 38.3215L330.211 38.1299L330.365 38.0276C330.429 37.9813 330.457 37.969 330.504 37.9884L330.559 38.0184C330.68 38.0956 330.82 38.1351 330.942 38.1661C331.66 38.3469 332.381 38.2568 333.18 37.8888C333.91 37.5531 334.472 37.0221 334.969 36.4988C335.694 35.7347 336.167 35.0457 336.458 34.3299L336.539 34.1023L336.667 33.6587C336.684 33.6052 336.667 33.5487 336.626 33.5133L336.578 33.486L336.555 33.4818L336.28 33.4874C335.534 33.519 333.381 33.7216 332.048 34.9914C331.712 35.3106 331.411 35.6497 331.137 36.0213C331.625 35.0075 332.053 33.9501 332.418 32.8581L332.695 31.9839L332.704 31.9629L333.106 31.4216C333.117 31.4057 333.121 31.4003 333.13 31.3986L333.575 31.4162C333.705 31.4173 333.804 31.411 333.89 31.3977C334.464 31.3084 334.982 31.0254 335.474 30.5302C336.624 29.3733 337.415 27.9297 337.893 26.117C337.927 25.9874 337.945 25.8571 337.958 25.7232L337.999 25.2274C338.004 25.1801 337.985 25.1341 337.948 25.1035C337.911 25.0739 337.859 25.0633 337.813 25.0781L337.649 25.1263C337.54 25.1575 337.445 25.1843 337.351 25.2219C335.87 25.7997 334.702 26.7896 333.784 28.2487C333.557 28.6094 333.381 28.9839 333.241 29.3578C333.446 28.2406 333.51 27.7292 333.551 26.6413L333.567 26.115L333.567 26.0256C333.567 25.8634 333.567 25.7099 333.603 25.5688C333.632 25.4584 333.681 25.3476 333.735 25.2385L333.889 24.9405L333.924 24.9239C334.347 24.8601 334.722 24.6837 335.069 24.3842C335.419 24.0803 335.707 23.7086 335.925 23.2794C336.707 21.7395 337.099 20.0379 337.089 18.2223L337.075 17.9613L337.014 17.435C337.009 17.3868 336.978 17.3437 336.934 17.3232C336.892 17.3028 336.838 17.3045 336.797 17.3288L336.627 17.4322C335.96 17.9024 335.371 18.4867 334.878 19.1693C334.161 20.1612 333.712 21.2683 333.532 22.4768L333.478 22.9305L333.435 22.4142C333.386 21.8082 333.335 21.1808 333.293 20.5639L333.265 20.3356L333.224 20.1137C333.165 19.8256 333.111 19.5586 333.198 19.2789L333.25 19.0891C333.284 18.9575 333.426 18.7675 333.648 18.5545L333.839 18.3819C334.007 18.2324 334.513 17.7221 334.811 16.7894C335.058 16.0139 335.106 15.2124 335.107 14.5272L335.097 13.8647C335.073 12.7806 334.953 11.963 334.71 11.2153L334.539 10.7639C334.527 10.733 334.504 10.7076 334.476 10.6915L334.428 10.675L334.404 10.6728C334.376 10.6728 334.348 10.6813 334.325 10.6968L334.293 10.7252L334.057 11.0077C332.923 12.3649 332.366 13.9578 332.4 15.7406C332.407 16.0543 332.431 16.3763 332.473 16.7093C332.185 15.7322 331.846 14.7818 331.462 13.8664L331.452 13.8351L331.449 13.8018L331.446 13.6773C331.442 13.4968 331.438 13.3095 331.445 13.1265C331.447 13.096 331.467 13.0412 331.509 12.9876L331.601 12.8733L331.698 12.7615C331.818 12.6236 331.938 12.4869 332.034 12.3298C332.34 11.8264 332.484 11.2309 332.486 10.4569C332.491 9.54636 332.347 8.58691 332.035 7.43838C331.864 6.81173 331.608 5.99857 331.128 5.26098L330.966 5.0451C330.939 5.00867 330.897 4.98761 330.853 4.98761C330.792 4.99123 330.749 5.01806 330.725 5.05993C330.124 6.12544 329.824 7.26418 329.81 8.54086C329.798 9.60491 329.967 10.5212 330.179 11.2451C329.774 10.518 329.335 9.80971 328.866 9.12643L328.356 8.40921L328.287 7.90182L328.266 7.68265L328.366 7.51574L328.436 7.40991C328.539 7.25547 328.643 7.10053 328.71 6.92688C328.91 6.40228 328.956 5.80771 328.847 5.10946C328.609 3.56378 327.915 2.17165 326.725 0.853818L326.533 0.659726L326.113 0.282437C326.077 0.24854 326.022 0.235524 325.973 0.249844C325.94 0.260116 325.913 0.280919 325.894 0.308164L325.875 0.353299L325.807 0.657163C325.646 1.59505 325.659 2.60073 325.843 3.73022C326.026 4.8501 326.39 5.81605 326.949 6.65497C326.111 5.68499 325.294 4.87014 324.44 4.14651L324.433 4.12317C324.499 3.56214 324.358 3.03118 324 2.50296C323.529 1.80833 322.876 1.27938 322.058 0.929532C321.731 0.7908 321.396 0.662382 321.064 0.539334Z" fill="black"></path> </svg> 