<?xml version="1.0" encoding="UTF-8"?> <svg xmlns="http://www.w3.org/2000/svg" width="360" height="72" viewBox="0 0 360 72" fill="none"> <path fill-rule="evenodd" clip-rule="evenodd" d="M92.0165 4.71911L93.5939 4.12451C93.9317 3.98964 94.0621 3.96981 94.136 4.03869C94.2079 4.10594 94.2131 4.16572 94.1935 4.25024L94.1538 4.38964C93.7636 5.71315 93.245 6.76037 92.569 7.5913C91.4237 8.99863 90.0993 9.76761 88.5311 9.93176L88.1339 9.9602C88.0748 9.96359 88.0261 9.98097 88.0074 9.99499C87.7608 10.1811 87.5807 10.3283 87.4211 10.4747C86.9157 10.9397 86.4187 11.4335 85.9328 11.9558C86.6559 11.5026 87.5404 11.2976 88.5353 11.3498C88.8986 11.3681 89.2603 11.4099 89.616 11.4585L90.9618 11.6551L91.6003 11.7644C91.7222 11.7857 92.011 11.8519 92.0775 11.9938C92.101 12.0419 92.0991 12.0948 92.073 12.1429L91.9969 12.2609C91.133 13.3879 90.1475 14.131 88.9845 14.5315C87.7084 14.9724 86.5227 14.9819 85.4505 14.5625L85.0973 14.4069C84.9143 14.3058 84.6987 14.2548 84.4519 14.2548C84.3127 14.2548 84.1994 14.2718 84.1352 14.2838L84.0882 14.2932C84.0112 14.3067 83.9166 14.3455 83.8978 14.3711C83.1699 15.335 82.4789 16.3629 81.8336 17.4442C82.3786 16.9106 83.0895 16.5508 84.0582 16.3166C84.7372 16.1537 85.4281 16.0933 86.1071 16.0538L87.29 15.9901L88.1339 15.9373C88.2061 15.9373 88.2614 15.9652 88.2952 16.0138C88.3327 16.0638 88.3421 16.1309 88.3197 16.1913L88.2725 16.3118C88.2644 16.3308 88.2569 16.347 88.2513 16.3566C87.3668 17.8471 86.3277 18.8781 85.0747 19.5079C83.8508 20.124 82.7442 20.2877 81.6293 20.0184C81.4996 19.9865 81.3496 19.9706 81.1959 19.9706C80.7213 19.9706 80.3892 20.1159 80.3189 20.2539C79.7067 21.5264 79.1588 22.8511 78.6863 24.2019C79.1814 23.5136 79.8755 22.9545 80.7523 22.5376C81.3331 22.2613 81.9302 22.0009 82.5238 21.7494L84.5787 20.8873C84.631 20.8636 84.7014 20.8683 84.754 20.9033C84.8065 20.9384 84.8375 20.9969 84.8375 21.0599L84.8065 21.1738C84.6014 21.8097 83.3967 24.8657 81.7155 26.1403C80.9604 26.7123 80.032 27.3007 78.8596 27.329C78.5673 27.3342 78.2667 27.3698 78.0155 27.5642L77.8008 27.7649L77.7156 27.8082C77.6208 27.8396 77.5956 27.8974 77.5486 28.0936C77.1697 29.6977 76.8931 31.351 76.7234 33.0303C76.775 32.8596 76.8341 32.6874 76.9025 32.5129C77.3171 31.4565 78.0129 30.5321 79.0952 29.6033L79.9456 28.8937L81.7623 27.4307L81.9207 27.2938C81.9781 27.2457 82.0605 27.2354 82.1253 27.2686C82.1927 27.3026 82.2331 27.3734 82.2276 27.4489L82.204 27.8208C82.1918 28.0332 82.1795 28.2333 82.1582 28.4315C81.9584 30.3556 81.3899 31.9617 80.4212 33.3418C79.881 34.1101 79.1304 35.0312 78.0073 35.5678L77.6189 35.7316C77.2926 35.8524 77.0554 36.0344 76.8021 36.3622C76.563 36.6699 76.5179 36.9505 76.5236 37.3033C76.5462 38.783 76.6511 40.249 76.836 41.6857C76.8789 41.2866 76.9699 40.8748 77.1106 40.447C77.4014 39.5617 77.8544 38.7007 78.4959 37.8152L79.3376 36.6658L80.8781 34.6024C80.903 34.5644 80.9372 34.5425 80.9685 34.5281L81.012 34.5109C81.0504 34.492 81.1124 34.4881 81.1621 34.5079C81.1952 34.5229 81.2233 34.5465 81.2434 34.5759L81.2852 34.6824L81.2934 34.7184C81.678 37.0249 81.4425 39.0906 80.5731 41.0355C80.2022 41.8673 79.7199 42.7955 78.933 43.5338L78.5766 43.8378C78.1188 44.1909 77.757 44.6871 77.5579 45.234C77.5159 45.3517 77.5176 45.4029 77.5224 45.4227C77.9473 47.1936 78.5015 48.902 79.1768 50.5179C79.0023 49.6657 79.0145 48.7716 79.2123 47.8433C79.3999 46.9677 79.6776 46.11 79.9696 45.3124L80.4089 44.1663L81.1546 42.2788C81.1808 42.2109 81.2456 42.1648 81.3188 42.1609C81.3675 42.159 81.4146 42.1763 81.45 42.2069L81.4931 42.262L81.6432 42.5536C82.5106 44.5248 82.8033 46.5454 82.5135 48.5592C82.3063 49.9987 81.9546 51.0298 81.3741 51.9021C81.073 52.3536 80.788 52.8557 80.7354 53.473C80.7232 53.6192 80.729 53.7203 80.7935 53.8356C81.3795 54.8683 82.0225 55.8549 82.7168 56.7876L83.2417 57.4683C82.5896 56.2688 82.5707 54.981 82.6364 53.8794C82.6745 53.2491 82.7347 52.6199 82.8015 52L83.1363 49.0189C83.1437 48.9556 83.1812 48.9007 83.2386 48.8727C83.2563 48.8633 83.2796 48.8574 83.306 48.8574C83.4119 48.8574 83.5396 48.9445 83.683 49.1154C84.9105 50.5766 85.6721 52.2289 85.947 54.0247C86.2319 55.8864 86.0773 57.48 85.4742 58.8959L85.4626 58.9438L85.4584 59.0394L85.491 59.8552C85.4958 59.9103 85.5259 59.9761 85.552 60.001C86.7769 61.1896 88.1264 62.2221 89.5753 63.0825C88.8899 62.4585 88.3965 61.6445 88.0777 60.6136C87.794 59.6987 87.6208 58.7545 87.4731 57.8242L87.2546 56.4154L87.0809 55.3341C87.0705 55.2652 87.0967 55.1973 87.1512 55.1558C87.1843 55.1285 87.2287 55.1148 87.2726 55.1166L87.3368 55.1311L87.4023 55.1577C87.4717 55.187 87.5327 55.2123 87.5911 55.2426C90.3285 56.619 92.1301 59.8291 91.8759 62.8754C91.8355 63.3525 91.8787 63.8006 92.0091 64.2454C92.0213 64.285 92.0598 64.3297 92.0746 64.3359C93.3754 64.8882 94.6116 65.2914 95.855 65.5674C95.9198 65.5824 95.9705 65.6288 95.9902 65.6902C96.0108 65.7525 95.9986 65.8205 95.9563 65.8705C95.8204 66.0319 95.7033 66.2057 95.6065 66.387C95.5739 66.4481 95.511 66.4861 95.4426 66.4861L95.3994 66.481C94.6397 66.306 93.8948 66.0929 93.1762 65.8447L92.4667 65.585C92.3899 65.5538 92.3289 65.541 92.2792 65.5485C92.1404 65.5673 91.9966 65.5926 91.8439 65.6255L91.6077 65.6807C91.557 65.6928 91.5167 65.7163 91.5073 65.7257C90.983 66.7821 90.0678 67.4632 88.7173 67.7936C88.4227 67.8654 88.12 67.9173 87.816 67.949C87.4981 67.9833 87.1435 68 86.7618 68L86.0463 67.9802C85.9252 67.9734 85.854 67.9674 85.854 67.9674C84.6817 67.8362 83.682 67.5708 82.7958 67.156C82.4328 66.9863 82.0185 66.758 81.7003 66.3507C81.6394 66.2726 81.6497 66.159 81.7239 66.0942C82.6232 65.2954 83.5396 64.7149 84.5242 64.3192C85.9835 63.7348 87.3133 63.5773 88.616 63.8291C88.8112 63.868 89.0016 63.9151 89.1862 63.9707C87.967 63.2369 86.8005 62.3753 85.6985 61.3931C85.6769 61.3732 85.6421 61.3566 85.613 61.3511L85.1888 61.2898C85.1093 61.2805 85.0266 61.2722 84.9424 61.266L84.8908 61.2826C84.304 61.9441 83.5631 62.3046 82.6357 62.3766L82.2792 62.39L82.1111 62.3877C80.9191 62.3488 79.7216 62.0191 78.5492 61.4076C77.6976 60.96 76.8105 60.4396 76.0903 59.6626L75.8638 59.3923L75.4797 58.8771C75.4488 58.8365 75.4358 58.7838 75.4432 58.733C75.4526 58.6811 75.4826 58.6344 75.5249 58.6061L75.8527 58.4415C75.9397 58.4007 76.0352 58.3582 76.1277 58.3219C77.9913 57.5968 79.8726 57.5226 81.6677 58.1051C82.1373 58.2567 82.5854 58.4703 83.0214 58.7512L83.344 58.972L82.7577 58.2622C82.1782 57.5365 81.6262 56.7717 81.104 55.9709L80.5919 55.1583C80.5825 55.1433 80.559 55.1045 80.5479 55.0953L80.1254 54.8398L79.9251 54.7035C79.8428 54.6417 79.8054 54.6253 79.7447 54.6512L79.6738 54.6912C79.5163 54.7941 79.3343 54.8469 79.1758 54.8882C78.2426 55.1292 77.3049 55.0091 76.2658 54.5184C75.3167 54.0708 74.5869 53.3628 73.9398 52.665C72.9982 51.6463 72.3831 50.7276 72.0043 49.7732L71.899 49.4697L71.7323 48.8783C71.7105 48.8069 71.7335 48.7316 71.7863 48.6844L71.8484 48.6479L71.8785 48.6423L72.2355 48.6499C73.206 48.692 76.0045 48.9622 77.738 50.6552C78.1742 51.0808 78.5653 51.533 78.9216 52.0284C78.2876 50.6767 77.7305 49.2668 77.256 47.8108L76.896 46.6453L76.8847 46.6172L76.3623 45.8955C76.3485 45.8742 76.3426 45.8671 76.3311 45.8647L75.752 45.8883C75.5834 45.8897 75.4554 45.8813 75.3429 45.8636C74.5965 45.7445 73.923 45.3672 73.2834 44.7069C71.7894 43.1644 70.7606 41.2396 70.1388 38.8226C70.0945 38.6499 70.0714 38.4761 70.0551 38.2976L70.001 37.6366C69.9945 37.5735 70.0197 37.5122 70.0675 37.4713C70.1162 37.4319 70.1839 37.4177 70.243 37.4375L70.4557 37.5017C70.5983 37.5433 70.7213 37.5791 70.8432 37.6291C72.7694 38.3997 74.2868 39.7195 75.4807 41.6649C75.7753 42.1459 76.0041 42.6452 76.1861 43.1438C75.9208 41.6541 75.8365 40.9723 75.7836 39.5217L75.7633 38.8199L75.763 38.7008C75.763 38.4845 75.763 38.2798 75.7162 38.0918C75.678 37.9445 75.6149 37.7968 75.5445 37.6514L75.3448 37.254L75.2987 37.2318C74.7492 37.1467 74.2615 36.9116 73.8104 36.5123C73.3547 36.107 72.9804 35.6115 72.6971 35.0392C71.6806 32.986 71.1714 30.7172 71.1846 28.2964L71.203 27.9484L71.2821 27.2467C71.2886 27.1824 71.328 27.125 71.3853 27.0977C71.4406 27.0703 71.5109 27.0727 71.5644 27.1051L71.7848 27.2429C72.6522 27.8699 73.4174 28.6489 74.0589 29.5591C74.9902 30.8816 75.5746 32.3578 75.8081 33.9691L75.878 34.574L75.9347 33.8856C75.9983 33.0776 76.0651 32.2411 76.1193 31.4186L76.1552 31.1141L76.2093 30.8182C76.2855 30.4342 76.3558 30.0781 76.2432 29.7052L76.1748 29.4521C76.131 29.2767 75.946 29.0233 75.658 28.7394L75.4091 28.5092C75.191 28.3098 74.533 27.6294 74.1463 26.3859C73.824 25.3519 73.7619 24.2831 73.761 23.3696L73.7739 22.4863C73.8049 21.0408 73.9605 19.9507 74.2764 18.9537L74.4997 18.3519C74.5148 18.3107 74.5443 18.2768 74.5818 18.2554L74.6433 18.2333L74.6743 18.2303C74.7117 18.2303 74.7476 18.2418 74.7778 18.2624L74.8185 18.3003L75.1263 18.677C76.6005 20.4866 77.3246 22.6104 77.2794 24.9874C77.271 25.4058 77.24 25.8351 77.1848 26.2791C77.5598 24.9763 77.9997 23.7091 78.4995 22.4885L78.5119 22.4468L78.5166 22.4025L78.5202 22.2364C78.5259 21.9957 78.5305 21.7461 78.5211 21.502C78.5192 21.4613 78.493 21.3883 78.4385 21.3168L78.3183 21.1644L78.1929 21.0154C78.0364 20.8315 77.8806 20.6492 77.756 20.4397C77.3582 19.7685 77.1707 18.9745 77.1678 17.9425C77.1623 16.7285 77.3488 15.4492 77.7541 13.9178C77.9764 13.0823 78.3101 11.9981 78.9338 11.0146L79.1439 10.7268C79.1795 10.6782 79.2339 10.6501 79.2911 10.6501C79.3698 10.655 79.4262 10.6907 79.4572 10.7466C80.2392 12.1672 80.6286 13.6856 80.6473 15.3878C80.6632 16.8066 80.4428 18.0283 80.1671 18.9934C80.6938 18.024 81.2644 17.0796 81.8737 16.1686L82.5369 15.2123L82.6269 14.5358L82.6545 14.2435L82.5242 14.021L82.4328 13.8799C82.2989 13.674 82.1637 13.4674 82.0775 13.2358C81.8168 12.5364 81.7577 11.7436 81.8984 10.8126C82.2079 8.75171 83.1099 6.89553 84.6575 5.13842L84.9076 4.87963L85.4536 4.37658C85.5004 4.33139 85.5717 4.31403 85.6356 4.33313C85.6781 4.34682 85.7136 4.37456 85.7372 4.41088L85.7631 4.47107L85.8512 4.87622C86.0596 6.12673 86.0435 7.46764 85.8044 8.97363C85.5662 10.4668 85.0925 11.7547 84.3658 12.8733C85.4555 11.58 86.5172 10.4935 87.6285 9.52868L87.6369 9.49755C87.5507 8.74952 87.7344 8.04157 88.2006 7.33728C88.8119 6.41111 89.6618 5.70584 90.7251 5.23938C91.1498 5.0544 91.5847 4.88318 92.0165 4.71911Z" fill="black"></path> <path fill-rule="evenodd" clip-rule="evenodd" d="M268.984 4.71911L267.406 4.12451C267.068 3.98964 266.938 3.96981 266.864 4.03869C266.792 4.10594 266.787 4.16572 266.807 4.25024L266.846 4.38964C267.236 5.71315 267.755 6.76037 268.431 7.5913C269.576 8.99863 270.901 9.76761 272.469 9.93176L272.866 9.9602C272.925 9.96359 272.974 9.98097 272.993 9.99499C273.239 10.1811 273.419 10.3283 273.579 10.4747C274.084 10.9397 274.581 11.4335 275.067 11.9558C274.344 11.5026 273.46 11.2976 272.465 11.3498C272.101 11.3681 271.74 11.4099 271.384 11.4585L270.038 11.6551L269.4 11.7644C269.278 11.7857 268.989 11.8519 268.922 11.9938C268.899 12.0419 268.901 12.0948 268.927 12.1429L269.003 12.2609C269.867 13.3879 270.853 14.131 272.016 14.5315C273.292 14.9724 274.477 14.9819 275.55 14.5625L275.903 14.4069C276.086 14.3058 276.301 14.2548 276.548 14.2548C276.687 14.2548 276.801 14.2718 276.865 14.2838L276.912 14.2932C276.989 14.3067 277.083 14.3455 277.102 14.3711C277.83 15.335 278.521 16.3629 279.166 17.4442C278.621 16.9106 277.911 16.5508 276.942 16.3166C276.263 16.1537 275.572 16.0933 274.893 16.0538L273.71 15.9901L272.866 15.9373C272.794 15.9373 272.739 15.9652 272.705 16.0138C272.667 16.0638 272.658 16.1309 272.68 16.1913L272.728 16.3118C272.736 16.3308 272.743 16.347 272.749 16.3566C273.633 17.8471 274.672 18.8781 275.925 19.5079C277.149 20.124 278.256 20.2877 279.371 20.0184C279.5 19.9865 279.65 19.9706 279.804 19.9706C280.279 19.9706 280.611 20.1159 280.681 20.2539C281.293 21.5264 281.841 22.8511 282.314 24.2019C281.819 23.5136 281.125 22.9545 280.248 22.5376C279.667 22.2613 279.07 22.0009 278.476 21.7494L276.421 20.8873C276.369 20.8636 276.299 20.8683 276.246 20.9033C276.193 20.9384 276.162 20.9969 276.162 21.0599L276.194 21.1738C276.399 21.8097 277.603 24.8657 279.285 26.1403C280.04 26.7123 280.968 27.3007 282.14 27.329C282.433 27.3342 282.733 27.3698 282.984 27.5642L283.199 27.7649L283.284 27.8082C283.379 27.8396 283.404 27.8974 283.451 28.0936C283.83 29.6977 284.107 31.351 284.277 33.0303C284.225 32.8596 284.166 32.6874 284.098 32.5129C283.683 31.4565 282.987 30.5321 281.905 29.6033L281.054 28.8937L279.238 27.4307L279.079 27.2938C279.022 27.2457 278.94 27.2354 278.875 27.2686C278.807 27.3026 278.767 27.3734 278.772 27.4489L278.796 27.8208C278.808 28.0332 278.82 28.2333 278.842 28.4315C279.042 30.3556 279.61 31.9617 280.579 33.3418C281.119 34.1101 281.87 35.0312 282.993 35.5678L283.381 35.7316C283.707 35.8524 283.945 36.0344 284.198 36.3622C284.437 36.6699 284.482 36.9505 284.476 37.3033C284.454 38.783 284.349 40.249 284.164 41.6857C284.121 41.2866 284.03 40.8748 283.889 40.447C283.599 39.5617 283.146 38.7007 282.504 37.8152L281.662 36.6658L280.122 34.6024C280.097 34.5644 280.063 34.5425 280.031 34.5281L279.988 34.5109C279.95 34.492 279.888 34.4881 279.838 34.5079C279.805 34.5229 279.777 34.5465 279.757 34.5759L279.715 34.6824L279.707 34.7184C279.322 37.0249 279.558 39.0906 280.427 41.0355C280.798 41.8673 281.28 42.7955 282.067 43.5338L282.423 43.8378C282.881 44.1909 283.243 44.6871 283.442 45.234C283.484 45.3517 283.482 45.4029 283.478 45.4227C283.053 47.1936 282.499 48.902 281.823 50.5179C281.998 49.6657 281.985 48.7716 281.788 47.8433C281.6 46.9677 281.322 46.11 281.03 45.3124L280.591 44.1663L279.845 42.2788C279.819 42.2109 279.754 42.1648 279.681 42.1609C279.632 42.159 279.585 42.1763 279.55 42.2069L279.507 42.262L279.357 42.5536C278.489 44.5248 278.197 46.5454 278.486 48.5592C278.694 49.9987 279.045 51.0298 279.626 51.9021C279.927 52.3536 280.212 52.8557 280.265 53.473C280.277 53.6192 280.271 53.7203 280.206 53.8356C279.62 54.8683 278.977 55.8549 278.283 56.7876L277.758 57.4683C278.41 56.2688 278.429 54.981 278.364 53.8794C278.325 53.2491 278.265 52.6199 278.199 52L277.864 49.0189C277.856 48.9556 277.819 48.9007 277.761 48.8727C277.744 48.8633 277.72 48.8574 277.694 48.8574C277.588 48.8574 277.46 48.9445 277.317 49.1154C276.089 50.5766 275.328 52.2289 275.053 54.0247C274.768 55.8864 274.923 57.48 275.526 58.8959L275.537 58.9438L275.542 59.0394L275.509 59.8552C275.504 59.9103 275.474 59.9761 275.448 60.001C274.223 61.1896 272.874 62.2221 271.425 63.0825C272.11 62.4585 272.603 61.6445 272.922 60.6136C273.206 59.6987 273.379 58.7545 273.527 57.8242L273.745 56.4154L273.919 55.3341C273.929 55.2652 273.903 55.1973 273.849 55.1558C273.816 55.1285 273.771 55.1148 273.727 55.1166L273.663 55.1311L273.598 55.1577C273.528 55.187 273.467 55.2123 273.409 55.2426C270.671 56.619 268.87 59.8291 269.124 62.8754C269.164 63.3525 269.121 63.8006 268.991 64.2454C268.979 64.285 268.94 64.3297 268.925 64.3359C267.625 64.8882 266.388 65.2914 265.145 65.5674C265.08 65.5824 265.03 65.6288 265.01 65.6902C264.989 65.7525 265.001 65.8205 265.044 65.8705C265.18 66.0319 265.297 66.2057 265.393 66.387C265.426 66.4481 265.489 66.4861 265.557 66.4861L265.601 66.481C266.36 66.306 267.105 66.0929 267.824 65.8447L268.533 65.585C268.61 65.5538 268.671 65.541 268.721 65.5485C268.86 65.5673 269.003 65.5926 269.156 65.6255L269.392 65.6807C269.443 65.6928 269.483 65.7163 269.493 65.7257C270.017 66.7821 270.932 67.4632 272.283 67.7936C272.577 67.8654 272.88 67.9173 273.184 67.949C273.502 67.9833 273.856 68 274.238 68L274.954 67.9802C275.075 67.9734 275.146 67.9674 275.146 67.9674C276.318 67.8362 277.318 67.5708 278.204 67.156C278.567 66.9863 278.982 66.758 279.3 66.3507C279.361 66.2726 279.35 66.159 279.276 66.0942C278.377 65.2954 277.46 64.7149 276.476 64.3192C275.017 63.7348 273.687 63.5773 272.384 63.8291C272.189 63.868 271.998 63.9151 271.814 63.9707C273.033 63.2369 274.2 62.3753 275.302 61.3931C275.323 61.3732 275.358 61.3566 275.387 61.3511L275.811 61.2898C275.891 61.2805 275.973 61.2722 276.058 61.266L276.109 61.2826C276.696 61.9441 277.437 62.3046 278.364 62.3766L278.721 62.39L278.889 62.3877C280.081 62.3488 281.278 62.0191 282.451 61.4076C283.302 60.96 284.189 60.4396 284.91 59.6626L285.136 59.3923L285.52 58.8771C285.551 58.8365 285.564 58.7838 285.557 58.733C285.547 58.6811 285.517 58.6344 285.475 58.6061L285.147 58.4415C285.06 58.4007 284.965 58.3582 284.872 58.3219C283.009 57.5968 281.127 57.5226 279.332 58.1051C278.863 58.2567 278.415 58.4703 277.979 58.7512L277.656 58.972L278.242 58.2622C278.822 57.5365 279.374 56.7717 279.896 55.9709L280.408 55.1583C280.418 55.1433 280.441 55.1045 280.452 55.0953L280.875 54.8398L281.075 54.7035C281.157 54.6417 281.195 54.6253 281.255 54.6512L281.326 54.6912C281.484 54.7941 281.666 54.8469 281.824 54.8882C282.757 55.1292 283.695 55.0091 284.734 54.5184C285.683 54.0708 286.413 53.3628 287.06 52.665C288.002 51.6463 288.617 50.7276 288.996 49.7732L289.101 49.4697L289.268 48.8783C289.29 48.8069 289.266 48.7316 289.214 48.6844L289.152 48.6479L289.122 48.6423L288.764 48.6499C287.794 48.692 284.995 48.9622 283.262 50.6552C282.826 51.0808 282.435 51.533 282.078 52.0284C282.712 50.6767 283.269 49.2668 283.744 47.8108L284.104 46.6453L284.115 46.6172L284.638 45.8955C284.651 45.8742 284.657 45.8671 284.669 45.8647L285.248 45.8883C285.417 45.8897 285.545 45.8813 285.657 45.8636C286.404 45.7445 287.077 45.3672 287.717 44.7069C289.211 43.1644 290.239 41.2396 290.861 38.8226C290.906 38.6499 290.929 38.4761 290.945 38.2976L290.999 37.6366C291.005 37.5735 290.98 37.5122 290.932 37.4713C290.884 37.4319 290.816 37.4177 290.757 37.4375L290.544 37.5017C290.402 37.5433 290.279 37.5791 290.157 37.6291C288.231 38.3997 286.713 39.7195 285.519 41.6649C285.225 42.1459 284.996 42.6452 284.814 43.1438C285.079 41.6541 285.163 40.9723 285.216 39.5217L285.237 38.8199L285.237 38.7008C285.237 38.4845 285.237 38.2798 285.284 38.0918C285.322 37.9445 285.385 37.7968 285.455 37.6514L285.655 37.254L285.701 37.2318C286.251 37.1467 286.738 36.9116 287.19 36.5123C287.645 36.107 288.02 35.6115 288.303 35.0392C289.319 32.986 289.829 30.7172 289.815 28.2964L289.797 27.9484L289.718 27.2467C289.711 27.1824 289.672 27.125 289.615 27.0977C289.559 27.0703 289.489 27.0727 289.436 27.1051L289.215 27.2429C288.348 27.8699 287.583 28.6489 286.941 29.5591C286.01 30.8816 285.425 32.3578 285.192 33.9691L285.122 34.574L285.065 33.8856C285.002 33.0776 284.935 32.2411 284.881 31.4186L284.845 31.1141L284.791 30.8182C284.715 30.4342 284.644 30.0781 284.757 29.7052L284.825 29.4521C284.869 29.2767 285.054 29.0233 285.342 28.7394L285.591 28.5092C285.809 28.3098 286.467 27.6294 286.854 26.3859C287.176 25.3519 287.238 24.2831 287.239 23.3696L287.226 22.4863C287.195 21.0408 287.04 19.9507 286.724 18.9537L286.5 18.3519C286.485 18.3107 286.456 18.2768 286.418 18.2554L286.357 18.2333L286.326 18.2303C286.288 18.2303 286.252 18.2418 286.222 18.2624L286.181 18.3003L285.874 18.677C284.4 20.4866 283.675 22.6104 283.721 24.9874C283.729 25.4058 283.76 25.8351 283.815 26.2791C283.44 24.9763 283 23.7091 282.5 22.4885L282.488 22.4468L282.483 22.4025L282.48 22.2364C282.474 21.9957 282.469 21.7461 282.479 21.502C282.481 21.4613 282.507 21.3883 282.561 21.3168L282.682 21.1644L282.807 21.0154C282.964 20.8315 283.119 20.6492 283.244 20.4397C283.642 19.7685 283.829 18.9745 283.832 17.9425C283.838 16.7285 283.651 15.4492 283.246 13.9178C283.024 13.0823 282.69 11.9981 282.066 11.0146L281.856 10.7268C281.821 10.6782 281.766 10.6501 281.709 10.6501C281.63 10.655 281.574 10.6907 281.543 10.7466C280.761 12.1672 280.371 13.6856 280.353 15.3878C280.337 16.8066 280.557 18.0283 280.833 18.9934C280.306 18.024 279.736 17.0796 279.126 16.1686L278.463 15.2123L278.373 14.5358L278.345 14.2435L278.476 14.021L278.567 13.8799C278.701 13.674 278.836 13.4674 278.922 13.2358C279.183 12.5364 279.242 11.7436 279.102 10.8126C278.792 8.75171 277.89 6.89553 276.343 5.13842L276.092 4.87963L275.546 4.37658C275.5 4.33139 275.428 4.31403 275.364 4.33313C275.322 4.34682 275.286 4.37456 275.263 4.41088L275.237 4.47107L275.149 4.87622C274.94 6.12673 274.957 7.46764 275.196 8.97363C275.434 10.4668 275.908 11.7547 276.634 12.8733C275.545 11.58 274.483 10.4935 273.371 9.52868L273.363 9.49755C273.449 8.74952 273.266 8.04157 272.799 7.33728C272.188 6.41111 271.338 5.70584 270.275 5.23938C269.85 5.0544 269.415 4.88318 268.984 4.71911Z" fill="black"></path> <path d="M118.623 28.448C119.7 28.448 120.553 28.0747 121.183 27.328C121.823 26.5707 122.143 25.568 122.143 24.32V24.192C122.143 22.9867 121.823 22.0053 121.183 21.248C120.553 20.48 119.689 20.096 118.591 20.096C117.481 20.096 116.607 20.4693 115.967 21.216C115.337 21.9627 115.023 22.96 115.023 24.208V24.336C115.023 25.5733 115.359 26.5707 116.031 27.328C116.703 28.0747 117.567 28.448 118.623 28.448ZM118.591 30.16C116.863 30.16 115.465 29.6107 114.399 28.512C113.332 27.4133 112.799 26.0267 112.799 24.352V24.224C112.799 22.5387 113.337 21.1467 114.414 20.048C115.503 18.9493 116.895 18.4 118.591 18.4C120.287 18.4 121.668 18.944 122.735 20.032C123.812 21.1093 124.351 22.4907 124.351 24.176V24.304C124.351 25.9893 123.817 27.3867 122.751 28.496C121.695 29.6053 120.308 30.16 118.591 30.16ZM125.444 21.632H127.524L129.716 28.016L131.876 21.632H133.78L130.756 30H128.5L125.444 21.632ZM138.645 30.16C137.386 30.16 136.362 29.776 135.573 29.008C134.794 28.24 134.405 27.2053 134.405 25.904V25.776C134.405 24.496 134.794 23.456 135.573 22.656C136.362 21.856 137.359 21.456 138.565 21.456C139.695 21.456 140.634 21.808 141.381 22.512C142.138 23.216 142.517 24.272 142.517 25.68V26.24H136.389C136.421 27.04 136.629 27.6533 137.013 28.08C137.407 28.5067 137.967 28.72 138.693 28.72C139.823 28.72 140.463 28.2933 140.613 27.44H142.485C142.346 28.3253 141.941 29.0027 141.269 29.472C140.607 29.9307 139.733 30.16 138.645 30.16ZM140.597 24.944C140.49 23.5573 139.813 22.864 138.565 22.864C137.989 22.864 137.509 23.0507 137.125 23.424C136.751 23.7867 136.517 24.2933 136.421 24.944H140.597ZM144.308 21.632H146.244V23.2C146.799 22.08 147.706 21.5147 148.964 21.504V23.312C148.068 23.312 147.391 23.4933 146.932 23.856C146.474 24.208 146.244 24.8053 146.244 25.648V30H144.308V21.632ZM153.693 29.616L158.013 25.056C159.176 23.8293 159.757 22.7467 159.757 21.808C159.757 21.264 159.608 20.8373 159.309 20.528C159.01 20.2187 158.589 20.064 158.045 20.064C156.861 20.064 156.178 20.8213 155.997 22.336H154.045C154.12 21.0773 154.509 20.1067 155.213 19.424C155.928 18.7413 156.893 18.4 158.109 18.4C159.282 18.4 160.205 18.7093 160.877 19.328C161.549 19.9467 161.885 20.7627 161.885 21.776C161.885 22.48 161.693 23.1627 161.309 23.824C160.936 24.4747 160.381 25.1573 159.645 25.872L157.101 28.352H161.965V30H153.693V29.616ZM168.352 28.464C170.09 28.464 170.96 27.152 170.96 24.528V23.968C170.96 22.7307 170.73 21.7707 170.272 21.088C169.824 20.4053 169.173 20.064 168.32 20.064C167.456 20.064 166.794 20.4 166.336 21.072C165.877 21.7333 165.648 22.704 165.648 23.984V24.56C165.648 25.8507 165.877 26.8267 166.336 27.488C166.805 28.1387 167.477 28.464 168.352 28.464ZM168.304 30.16C166.853 30.16 165.69 29.6587 164.816 28.656C163.941 27.6427 163.504 26.2827 163.504 24.576V24C163.504 22.2827 163.941 20.9227 164.816 19.92C165.69 18.9067 166.853 18.4 168.304 18.4C169.754 18.4 170.912 18.9013 171.776 19.904C172.65 20.896 173.088 22.2453 173.088 23.952V24.528C173.088 26.256 172.661 27.6267 171.808 28.64C170.954 29.6533 169.786 30.16 168.304 30.16ZM173.62 31.44L175.076 27.648L176.916 28.384L174.82 31.968L173.62 31.44ZM182.773 28.464C184.512 28.464 185.381 27.152 185.381 24.528V23.968C185.381 22.7307 185.152 21.7707 184.693 21.088C184.245 20.4053 183.595 20.064 182.741 20.064C181.877 20.064 181.216 20.4 180.757 21.072C180.299 21.7333 180.069 22.704 180.069 23.984V24.56C180.069 25.8507 180.299 26.8267 180.757 27.488C181.227 28.1387 181.899 28.464 182.773 28.464ZM182.725 30.16C181.275 30.16 180.112 29.6587 179.237 28.656C178.363 27.6427 177.925 26.2827 177.925 24.576V24C177.925 22.2827 178.363 20.9227 179.237 19.92C180.112 18.9067 181.275 18.4 182.725 18.4C184.176 18.4 185.333 18.9013 186.197 19.904C187.072 20.896 187.509 22.2453 187.509 23.952V24.528C187.509 26.256 187.083 27.6267 186.229 28.64C185.376 29.6533 184.208 30.16 182.725 30.16ZM194.055 28.464C195.793 28.464 196.663 27.152 196.663 24.528V23.968C196.663 22.7307 196.433 21.7707 195.975 21.088C195.527 20.4053 194.876 20.064 194.023 20.064C193.159 20.064 192.497 20.4 192.039 21.072C191.58 21.7333 191.351 22.704 191.351 23.984V24.56C191.351 25.8507 191.58 26.8267 192.039 27.488C192.508 28.1387 193.18 28.464 194.055 28.464ZM194.007 30.16C192.556 30.16 191.393 29.6587 190.519 28.656C189.644 27.6427 189.207 26.2827 189.207 24.576V24C189.207 22.2827 189.644 20.9227 190.519 19.92C191.393 18.9067 192.556 18.4 194.007 18.4C195.457 18.4 196.615 18.9013 197.479 19.904C198.353 20.896 198.791 22.2453 198.791 23.952V24.528C198.791 26.256 198.364 27.6267 197.511 28.64C196.657 29.6533 195.489 30.16 194.007 30.16ZM205.336 28.464C207.075 28.464 207.944 27.152 207.944 24.528V23.968C207.944 22.7307 207.715 21.7707 207.256 21.088C206.808 20.4053 206.157 20.064 205.304 20.064C204.44 20.064 203.779 20.4 203.32 21.072C202.861 21.7333 202.632 22.704 202.632 23.984V24.56C202.632 25.8507 202.861 26.8267 203.32 27.488C203.789 28.1387 204.461 28.464 205.336 28.464ZM205.288 30.16C203.837 30.16 202.675 29.6587 201.8 28.656C200.925 27.6427 200.488 26.2827 200.488 24.576V24C200.488 22.2827 200.925 20.9227 201.8 19.92C202.675 18.9067 203.837 18.4 205.288 18.4C206.739 18.4 207.896 18.9013 208.76 19.904C209.635 20.896 210.072 22.2453 210.072 23.952V24.528C210.072 26.256 209.645 27.6267 208.792 28.64C207.939 29.6533 206.771 30.16 205.288 30.16ZM210.604 31.44L212.06 27.648L213.9 28.384L211.804 31.968L210.604 31.44ZM219.758 28.464C221.496 28.464 222.366 27.152 222.366 24.528V23.968C222.366 22.7307 222.136 21.7707 221.678 21.088C221.23 20.4053 220.579 20.064 219.726 20.064C218.862 20.064 218.2 20.4 217.742 21.072C217.283 21.7333 217.054 22.704 217.054 23.984V24.56C217.054 25.8507 217.283 26.8267 217.742 27.488C218.211 28.1387 218.883 28.464 219.758 28.464ZM219.71 30.16C218.259 30.16 217.096 29.6587 216.222 28.656C215.347 27.6427 214.91 26.2827 214.91 24.576V24C214.91 22.2827 215.347 20.9227 216.222 19.92C217.096 18.9067 218.259 18.4 219.71 18.4C221.16 18.4 222.318 18.9013 223.182 19.904C224.056 20.896 224.494 22.2453 224.494 23.952V24.528C224.494 26.256 224.067 27.6267 223.214 28.64C222.36 29.6533 221.192 30.16 219.71 30.16ZM231.039 28.464C232.778 28.464 233.647 27.152 233.647 24.528V23.968C233.647 22.7307 233.418 21.7707 232.959 21.088C232.511 20.4053 231.86 20.064 231.007 20.064C230.143 20.064 229.482 20.4 229.023 21.072C228.564 21.7333 228.335 22.704 228.335 23.984V24.56C228.335 25.8507 228.564 26.8267 229.023 27.488C229.492 28.1387 230.164 28.464 231.039 28.464ZM230.991 30.16C229.54 30.16 228.378 29.6587 227.503 28.656C226.628 27.6427 226.191 26.2827 226.191 24.576V24C226.191 22.2827 226.628 20.9227 227.503 19.92C228.378 18.9067 229.54 18.4 230.991 18.4C232.442 18.4 233.599 18.9013 234.463 19.904C235.338 20.896 235.775 22.2453 235.775 23.952V24.528C235.775 26.256 235.348 27.6267 234.495 28.64C233.642 29.6533 232.474 30.16 230.991 30.16ZM242.32 28.464C244.059 28.464 244.928 27.152 244.928 24.528V23.968C244.928 22.7307 244.699 21.7707 244.24 21.088C243.792 20.4053 243.142 20.064 242.288 20.064C241.424 20.064 240.763 20.4 240.304 21.072C239.846 21.7333 239.616 22.704 239.616 23.984V24.56C239.616 25.8507 239.846 26.8267 240.304 27.488C240.774 28.1387 241.446 28.464 242.32 28.464ZM242.272 30.16C240.822 30.16 239.659 29.6587 238.784 28.656C237.91 27.6427 237.472 26.2827 237.472 24.576V24C237.472 22.2827 237.91 20.9227 238.784 19.92C239.659 18.9067 240.822 18.4 242.272 18.4C243.723 18.4 244.88 18.9013 245.744 19.904C246.619 20.896 247.056 22.2453 247.056 23.952V24.528C247.056 26.256 246.63 27.6267 245.776 28.64C244.923 29.6533 243.755 30.16 242.272 30.16ZM134.755 45.632H136.691V54H134.755V45.632ZM136.515 43.936C136.291 44.1493 136.019 44.256 135.699 44.256C135.379 44.256 135.107 44.1493 134.883 43.936C134.659 43.7227 134.547 43.4613 134.547 43.152C134.547 42.832 134.659 42.5653 134.883 42.352C135.107 42.1387 135.379 42.032 135.699 42.032C136.019 42.032 136.291 42.1387 136.515 42.352C136.739 42.5653 136.851 42.832 136.851 43.152C136.851 43.4613 136.739 43.7227 136.515 43.936ZM139.113 45.632H141.049V46.96C141.262 46.5227 141.598 46.1653 142.057 45.888C142.526 45.6 143.092 45.456 143.753 45.456C144.638 45.456 145.337 45.728 145.849 46.272C146.361 46.8053 146.617 47.6267 146.617 48.736V54H144.681V48.912C144.681 48.272 144.548 47.808 144.281 47.52C144.014 47.2213 143.593 47.072 143.017 47.072C142.441 47.072 141.966 47.248 141.593 47.6C141.23 47.9413 141.049 48.432 141.049 49.072V54H139.113V45.632ZM151.774 54.16C150.686 54.16 149.838 53.9253 149.23 53.456C148.632 52.976 148.312 52.288 148.27 51.392H150.094C150.158 51.84 150.312 52.176 150.558 52.4C150.803 52.624 151.203 52.736 151.758 52.736C152.76 52.736 153.262 52.3787 153.262 51.664C153.262 51.3333 153.123 51.088 152.846 50.928C152.579 50.7573 152.12 50.6187 151.47 50.512C150.35 50.3413 149.566 50.0693 149.118 49.696C148.67 49.3227 148.446 48.7467 148.446 47.968C148.446 47.1787 148.755 46.5653 149.374 46.128C150.003 45.68 150.739 45.456 151.582 45.456C153.587 45.456 154.68 46.2987 154.862 47.984H153.07C152.984 47.5893 152.824 47.3067 152.59 47.136C152.355 46.9547 152.019 46.864 151.582 46.864C151.166 46.864 150.84 46.9547 150.606 47.136C150.371 47.3173 150.254 47.5573 150.254 47.856C150.254 48.1653 150.371 48.3947 150.606 48.544C150.851 48.6933 151.31 48.8213 151.982 48.928C153.07 49.0987 153.864 49.36 154.366 49.712C154.867 50.064 155.118 50.656 155.118 51.488C155.118 52.3413 154.83 53.0027 154.254 53.472C153.678 53.9307 152.851 54.16 151.774 54.16ZM159.727 54.144C158.895 54.144 158.265 53.9307 157.839 53.504C157.412 53.0773 157.199 52.464 157.199 51.664V47.088H156.079V45.632H157.199V43.792H159.135V45.632H160.975V47.088H159.135V51.488C159.135 52.2027 159.455 52.56 160.095 52.56C160.479 52.56 160.793 52.5067 161.039 52.4V53.936C160.665 54.0747 160.228 54.144 159.727 54.144ZM165.117 54.16C164.296 54.16 163.624 53.9573 163.101 53.552C162.579 53.136 162.317 52.512 162.317 51.68C162.317 50.7627 162.707 50.0907 163.485 49.664C164.275 49.2373 165.315 49.024 166.605 49.024H167.645V48.592C167.645 48.0053 167.533 47.5787 167.309 47.312C167.085 47.0453 166.691 46.912 166.125 46.912C165.176 46.912 164.643 47.3493 164.525 48.224H162.653C162.739 47.296 163.107 46.6027 163.757 46.144C164.408 45.6853 165.235 45.456 166.237 45.456C168.467 45.456 169.581 46.4747 169.581 48.512V54H167.677V52.976C167.059 53.7653 166.205 54.16 165.117 54.16ZM165.581 52.768C166.2 52.768 166.696 52.6187 167.069 52.32C167.453 52.0213 167.645 51.6053 167.645 51.072V50.24H166.653C165.043 50.24 164.237 50.6933 164.237 51.6C164.237 52.3787 164.685 52.768 165.581 52.768ZM171.911 41.76H173.847V54H171.911V41.76ZM176.317 41.76H178.253V54H176.317V41.76ZM182.867 54.16C182.046 54.16 181.374 53.9573 180.851 53.552C180.329 53.136 180.067 52.512 180.067 51.68C180.067 50.7627 180.457 50.0907 181.235 49.664C182.025 49.2373 183.065 49.024 184.355 49.024H185.395V48.592C185.395 48.0053 185.283 47.5787 185.059 47.312C184.835 47.0453 184.441 46.912 183.875 46.912C182.926 46.912 182.393 47.3493 182.275 48.224H180.403C180.489 47.296 180.857 46.6027 181.507 46.144C182.158 45.6853 182.985 45.456 183.987 45.456C186.217 45.456 187.331 46.4747 187.331 48.512V54H185.427V52.976C184.809 53.7653 183.955 54.16 182.867 54.16ZM183.331 52.768C183.95 52.768 184.446 52.6187 184.819 52.32C185.203 52.0213 185.395 51.6053 185.395 51.072V50.24H184.403C182.793 50.24 181.987 50.6933 181.987 51.6C181.987 52.3787 182.435 52.768 183.331 52.768ZM192.461 54.144C191.629 54.144 191 53.9307 190.573 53.504C190.146 53.0773 189.933 52.464 189.933 51.664V47.088H188.813V45.632H189.933V43.792H191.869V45.632H193.709V47.088H191.869V51.488C191.869 52.2027 192.189 52.56 192.829 52.56C193.213 52.56 193.528 52.5067 193.773 52.4V53.936C193.4 54.0747 192.962 54.144 192.461 54.144ZM195.63 45.632H197.566V54H195.63V45.632ZM197.39 43.936C197.166 44.1493 196.894 44.256 196.574 44.256C196.254 44.256 195.982 44.1493 195.758 43.936C195.534 43.7227 195.422 43.4613 195.422 43.152C195.422 42.832 195.534 42.5653 195.758 42.352C195.982 42.1387 196.254 42.032 196.574 42.032C196.894 42.032 197.166 42.1387 197.39 42.352C197.614 42.5653 197.726 42.832 197.726 43.152C197.726 43.4613 197.614 43.7227 197.39 43.936ZM203.732 52.656C204.457 52.656 205.023 52.4107 205.428 51.92C205.833 51.4187 206.036 50.736 206.036 49.872V49.76C206.036 48.896 205.833 48.2187 205.428 47.728C205.023 47.2267 204.457 46.976 203.732 46.976C203.007 46.976 202.436 47.2213 202.02 47.712C201.615 48.2027 201.412 48.88 201.412 49.744V49.872C201.412 50.736 201.615 51.4187 202.02 51.92C202.425 52.4107 202.996 52.656 203.732 52.656ZM206.804 52.976C205.993 53.7653 204.964 54.16 203.716 54.16C202.468 54.16 201.439 53.7707 200.628 52.992C199.828 52.2027 199.428 51.1733 199.428 49.904V49.776C199.428 48.496 199.833 47.456 200.644 46.656C201.455 45.856 202.484 45.456 203.732 45.456C204.969 45.456 205.993 45.8507 206.804 46.64C207.615 47.4293 208.02 48.4587 208.02 49.728V49.856C208.02 51.1467 207.615 52.1867 206.804 52.976ZM209.832 45.632H211.768V46.96C211.981 46.5227 212.317 46.1653 212.776 45.888C213.245 45.6 213.81 45.456 214.472 45.456C215.357 45.456 216.056 45.728 216.568 46.272C217.08 46.8053 217.336 47.6267 217.336 48.736V54H215.4V48.912C215.4 48.272 215.266 47.808 215 47.52C214.733 47.2213 214.312 47.072 213.736 47.072C213.16 47.072 212.685 47.248 212.312 47.6C211.949 47.9413 211.768 48.432 211.768 49.072V54H209.832V45.632ZM222.493 54.16C221.405 54.16 220.557 53.9253 219.949 53.456C219.351 52.976 219.031 52.288 218.989 51.392H220.813C220.877 51.84 221.031 52.176 221.277 52.4C221.522 52.624 221.922 52.736 222.477 52.736C223.479 52.736 223.981 52.3787 223.981 51.664C223.981 51.3333 223.842 51.088 223.565 50.928C223.298 50.7573 222.839 50.6187 222.189 50.512C221.069 50.3413 220.285 50.0693 219.837 49.696C219.389 49.3227 219.165 48.7467 219.165 47.968C219.165 47.1787 219.474 46.5653 220.093 46.128C220.722 45.68 221.458 45.456 222.301 45.456C224.306 45.456 225.399 46.2987 225.581 47.984H223.789C223.703 47.5893 223.543 47.3067 223.309 47.136C223.074 46.9547 222.738 46.864 222.301 46.864C221.885 46.864 221.559 46.9547 221.325 47.136C221.09 47.3173 220.973 47.5573 220.973 47.856C220.973 48.1653 221.09 48.3947 221.325 48.544C221.57 48.6933 222.029 48.8213 222.701 48.928C223.789 49.0987 224.583 49.36 225.085 49.712C225.586 50.064 225.837 50.656 225.837 51.488C225.837 52.3413 225.549 53.0027 224.973 53.472C224.397 53.9307 223.57 54.16 222.493 54.16Z" fill="black"></path> </svg> 