<?xml version="1.0" encoding="UTF-8"?> <svg xmlns="http://www.w3.org/2000/svg" width="129" height="48" viewBox="0 0 129 48" fill="none"> <path d="M28.8519 15.928H27.9519L27.6759 17.812H26.4519L26.7279 15.928H25.8399V14.548H26.9319L27.0999 13.396H26.1399V12.064H27.2919L27.5439 10.42H28.7559L28.5159 12.064H29.4159L29.6679 10.42H30.8799L30.6279 12.064H31.5639V13.396H30.4359L30.2679 14.548H31.2639V15.928H30.0639L29.7879 17.812H28.5759L28.8519 15.928ZM28.1559 14.548H29.0559L29.2239 13.396H28.3239L28.1559 14.548ZM34.3757 12.34L32.6357 13.48V11.824L34.6157 10.42H36.3197V19H34.3757V12.34ZM41.0002 12.724H42.7402V13.708C42.9242 13.38 43.1922 13.112 43.5442 12.904C43.9042 12.688 44.3042 12.58 44.7442 12.58C45.5362 12.58 46.1842 12.856 46.6882 13.408C47.2162 13.984 47.4802 14.78 47.4802 15.796V15.892C47.4802 16.9 47.2202 17.696 46.7002 18.28C46.2042 18.848 45.5522 19.132 44.7442 19.132C44.2802 19.132 43.8722 19.032 43.5202 18.832C43.1682 18.624 42.9082 18.36 42.7402 18.04V21.136H41.0002V12.724ZM44.2282 17.776C44.7082 17.776 45.0762 17.62 45.3322 17.308C45.5882 16.988 45.7162 16.52 45.7162 15.904V15.808C45.7162 15.184 45.5802 14.712 45.3082 14.392C45.0362 14.072 44.6722 13.912 44.2162 13.912C43.7442 13.912 43.3682 14.076 43.0882 14.404C42.8162 14.724 42.6802 15.192 42.6802 15.808V15.904C42.6802 16.52 42.8162 16.988 43.0882 17.308C43.3602 17.62 43.7402 17.776 44.2282 17.776ZM48.7931 12.724H50.5331V13.924C50.9331 13.068 51.6091 12.636 52.5611 12.628V14.248C51.8891 14.24 51.3811 14.36 51.0371 14.608C50.7011 14.856 50.5331 15.272 50.5331 15.856V19H48.7931V12.724ZM56.6187 19.132C55.6427 19.132 54.8627 18.848 54.2787 18.28C53.6547 17.704 53.3427 16.924 53.3427 15.94V15.844C53.3427 14.868 53.6547 14.076 54.2787 13.468C54.8867 12.876 55.6507 12.58 56.5707 12.58C57.4427 12.58 58.1547 12.832 58.7067 13.336C59.3227 13.896 59.6307 14.708 59.6307 15.772V16.252H55.1067C55.1307 16.78 55.2747 17.188 55.5387 17.476C55.8107 17.756 56.1867 17.896 56.6667 17.896C57.4187 17.896 57.8547 17.604 57.9747 17.02H59.6187C59.5147 17.7 59.2027 18.224 58.6827 18.592C58.1707 18.952 57.4827 19.132 56.6187 19.132ZM57.9387 15.184C57.8827 14.248 57.4267 13.78 56.5707 13.78C56.1787 13.78 55.8547 13.904 55.5987 14.152C55.3507 14.392 55.1947 14.736 55.1307 15.184H57.9387ZM63.6943 21.316C62.7023 21.316 61.9503 21.116 61.4383 20.716C60.9503 20.356 60.6623 19.828 60.5743 19.132H62.3023C62.4223 19.74 62.8863 20.044 63.6943 20.044C64.7503 20.044 65.2783 19.532 65.2783 18.508V17.56C65.0703 17.912 64.8063 18.18 64.4863 18.364C64.1183 18.604 63.7103 18.724 63.2623 18.724C62.4703 18.724 61.8263 18.456 61.3303 17.92C60.7943 17.36 60.5263 16.628 60.5263 15.724V15.64C60.5263 14.744 60.7903 14.008 61.3183 13.432C61.8463 12.864 62.5023 12.58 63.2863 12.58C64.1903 12.58 64.8543 12.94 65.2783 13.66V12.724H67.0063V18.508C66.9983 19.428 66.7063 20.124 66.1303 20.596C65.5623 21.076 64.7503 21.316 63.6943 21.316ZM63.7783 17.416C64.2423 17.416 64.6143 17.264 64.8943 16.96C65.1823 16.648 65.3263 16.228 65.3263 15.7V15.616C65.3263 15.08 65.1943 14.66 64.9303 14.356C64.6663 14.052 64.2943 13.9 63.8143 13.9C63.3343 13.9 62.9623 14.056 62.6983 14.368C62.4343 14.68 62.3023 15.1 62.3023 15.628V15.724C62.3023 16.244 62.4383 16.656 62.7103 16.96C62.9823 17.264 63.3383 17.416 63.7783 17.416ZM68.6916 12.724H70.4316V13.72C70.8236 12.96 71.5036 12.58 72.4716 12.58C73.1036 12.58 73.6116 12.772 73.9956 13.156C74.3876 13.572 74.5836 14.188 74.5836 15.004V19H72.8436V15.256C72.8436 14.824 72.7556 14.508 72.5796 14.308C72.4036 14.1 72.1236 13.996 71.7396 13.996C71.3476 13.996 71.0316 14.116 70.7916 14.356C70.5516 14.588 70.4316 14.928 70.4316 15.376V19H68.6916V12.724ZM77.907 19.132C77.299 19.132 76.807 18.984 76.431 18.688C76.015 18.36 75.807 17.884 75.807 17.26C75.807 16.564 76.111 16.044 76.719 15.7C77.263 15.396 78.047 15.244 79.071 15.244H79.779V14.992C79.779 14.592 79.703 14.3 79.551 14.116C79.407 13.932 79.143 13.84 78.759 13.84C78.143 13.84 77.787 14.136 77.691 14.728H76.047C76.095 14.024 76.387 13.48 76.923 13.096C77.411 12.752 78.059 12.58 78.867 12.58C79.675 12.58 80.307 12.756 80.763 13.108C81.251 13.492 81.495 14.092 81.495 14.908V19H79.803V18.244C79.379 18.836 78.747 19.132 77.907 19.132ZM78.423 17.92C78.815 17.92 79.139 17.82 79.395 17.62C79.651 17.42 79.779 17.148 79.779 16.804V16.276H79.107C78.579 16.276 78.179 16.344 77.907 16.48C77.643 16.616 77.511 16.844 77.511 17.164C77.511 17.668 77.815 17.92 78.423 17.92ZM83.1291 12.724H84.8691V13.72C85.2611 12.96 85.9411 12.58 86.9091 12.58C87.5411 12.58 88.0491 12.772 88.4331 13.156C88.8251 13.572 89.0211 14.188 89.0211 15.004V19H87.2811V15.256C87.2811 14.824 87.1931 14.508 87.0171 14.308C86.8411 14.1 86.5611 13.996 86.1771 13.996C85.7851 13.996 85.4691 14.116 85.2291 14.356C84.9891 14.588 84.8691 14.928 84.8691 15.376V19H83.1291V12.724ZM93.4965 19.132C92.5525 19.132 91.7845 18.856 91.1925 18.304C90.5765 17.728 90.2685 16.94 90.2685 15.94V15.844C90.2685 14.86 90.5845 14.06 91.2165 13.444C91.8165 12.868 92.5805 12.58 93.5085 12.58C94.3165 12.58 94.9725 12.76 95.4765 13.12C96.0525 13.536 96.3805 14.168 96.4605 15.016H94.8165C94.7125 14.304 94.2885 13.948 93.5445 13.948C93.0805 13.948 92.7125 14.112 92.4405 14.44C92.1765 14.768 92.0445 15.228 92.0445 15.82V15.916C92.0445 16.54 92.1765 17.016 92.4405 17.344C92.7125 17.664 93.0925 17.824 93.5805 17.824C93.9485 17.824 94.2525 17.72 94.4925 17.512C94.7405 17.304 94.8845 17.004 94.9245 16.612H96.4965C96.4485 17.388 96.1645 17.992 95.6445 18.424C95.0925 18.896 94.3765 19.132 93.4965 19.132ZM99.4508 18.364L96.9548 12.724H98.8268L100.351 16.492L101.755 12.724H103.423L100.027 21.136H98.3468L99.4508 18.364Z" fill="black"></path> <path d="M33.5704 36.09C33.057 36.09 32.637 35.9633 32.3104 35.71C31.9904 35.45 31.8304 35.0633 31.8304 34.55C31.8304 34.2633 31.9004 34.0133 32.0404 33.8C32.187 33.58 32.387 33.41 32.6404 33.29C32.8937 33.1633 33.1704 33.0733 33.4704 33.02C33.7704 32.96 34.097 32.93 34.4504 32.93H35.2004V32.55C35.2004 32.13 35.1137 31.83 34.9404 31.65C34.767 31.4633 34.4804 31.37 34.0804 31.37C33.3604 31.37 32.9604 31.6833 32.8804 32.31H32.0504C32.1037 31.75 32.3204 31.34 32.7004 31.08C33.087 30.8133 33.5604 30.68 34.1204 30.68C35.3937 30.68 36.0304 31.3033 36.0304 32.55V36H35.2004V35.34C34.8004 35.84 34.257 36.09 33.5704 36.09ZM33.6504 35.43C34.1037 35.43 34.4737 35.32 34.7604 35.1C35.0537 34.8733 35.2004 34.5633 35.2004 34.17V33.52H34.4804C33.267 33.52 32.6604 33.8633 32.6604 34.55C32.6604 35.1367 32.9904 35.43 33.6504 35.43ZM37.7779 30.77H38.6079V31.65C38.7613 31.3833 39.0013 31.1567 39.3279 30.97C39.6546 30.7767 40.0046 30.68 40.3779 30.68C41.0779 30.68 41.6479 30.9167 42.0879 31.39C42.5346 31.8633 42.7579 32.5033 42.7579 33.31V33.39C42.7579 34.1967 42.5379 34.85 42.0979 35.35C41.6646 35.8433 41.0913 36.09 40.3779 36.09C39.5779 36.09 38.9879 35.7733 38.6079 35.14V37.82H37.7779V30.77ZM40.2979 35.4C40.8179 35.4 41.2146 35.2333 41.4879 34.9C41.7613 34.56 41.8979 34.07 41.8979 33.43V33.35C41.8979 32.7167 41.7446 32.23 41.4379 31.89C41.1379 31.5433 40.7546 31.37 40.2879 31.37C39.7813 31.37 39.3679 31.54 39.0479 31.88C38.7346 32.2133 38.5779 32.7033 38.5779 33.35V33.43C38.5779 34.0767 38.7313 34.5667 39.0379 34.9C39.3513 35.2333 39.7713 35.4 40.2979 35.4ZM44.1646 30.77H44.9946V31.65C45.148 31.3833 45.388 31.1567 45.7146 30.97C46.0413 30.7767 46.3913 30.68 46.7646 30.68C47.4646 30.68 48.0346 30.9167 48.4746 31.39C48.9213 31.8633 49.1446 32.5033 49.1446 33.31V33.39C49.1446 34.1967 48.9246 34.85 48.4846 35.35C48.0513 35.8433 47.478 36.09 46.7646 36.09C45.9646 36.09 45.3746 35.7733 44.9946 35.14V37.82H44.1646V30.77ZM46.6846 35.4C47.2046 35.4 47.6013 35.2333 47.8746 34.9C48.148 34.56 48.2846 34.07 48.2846 33.43V33.35C48.2846 32.7167 48.1313 32.23 47.8246 31.89C47.5246 31.5433 47.1413 31.37 46.6746 31.37C46.168 31.37 45.7546 31.54 45.4346 31.88C45.1213 32.2133 44.9646 32.7033 44.9646 33.35V33.43C44.9646 34.0767 45.118 34.5667 45.4246 34.9C45.738 35.2333 46.158 35.4 46.6846 35.4ZM53.2179 30.77H54.0479V36H53.2179V30.77ZM54.0079 29.52C53.9012 29.6267 53.7712 29.68 53.6179 29.68C53.4645 29.68 53.3345 29.6267 53.2279 29.52C53.1212 29.4133 53.0679 29.2833 53.0679 29.13C53.0679 28.9767 53.1212 28.8467 53.2279 28.74C53.3345 28.6333 53.4645 28.58 53.6179 28.58C53.7712 28.58 53.9012 28.6333 54.0079 28.74C54.1145 28.8467 54.1679 28.9767 54.1679 29.13C54.1679 29.2833 54.1145 29.4133 54.0079 29.52ZM55.8639 30.77H56.6939V31.6C56.8272 31.3333 57.0372 31.1133 57.3239 30.94C57.6105 30.7667 57.9605 30.68 58.3739 30.68C58.9472 30.68 59.3972 30.85 59.7239 31.19C60.0505 31.53 60.2139 32.0633 60.2139 32.79V36H59.3839V32.73C59.3839 32.27 59.2839 31.9333 59.0839 31.72C58.8839 31.5067 58.5739 31.4 58.1539 31.4C57.7472 31.4 57.4005 31.5267 57.1139 31.78C56.8339 32.0333 56.6939 32.3833 56.6939 32.83V36H55.8639V30.77ZM64.6739 28.85H68.8439V29.56H65.5439V31.99H68.2039V32.7H65.5439V35.29H69.0239V36H64.6739V28.85ZM72.1651 36.09C71.6118 36.09 71.1685 35.9267 70.8351 35.6C70.5085 35.2733 70.3451 34.7667 70.3451 34.08V30.77H71.1751V34.04C71.1751 34.5 71.2718 34.8367 71.4651 35.05C71.6651 35.2633 71.9718 35.37 72.3851 35.37C72.7851 35.37 73.1251 35.2433 73.4051 34.99C73.6851 34.7367 73.8251 34.3867 73.8251 33.94V30.77H74.6551V36H73.8251V35.17C73.6985 35.4367 73.4885 35.6567 73.1951 35.83C72.9085 36.0033 72.5651 36.09 72.1651 36.09ZM76.4596 30.77H77.2896V31.71C77.4629 31.39 77.6829 31.1433 77.9496 30.97C78.2162 30.79 78.5696 30.6933 79.0096 30.68V31.46C78.4362 31.4867 78.0062 31.62 77.7196 31.86C77.4329 32.1 77.2896 32.5233 77.2896 33.13V36H76.4596V30.77ZM82.37 35.4C82.89 35.4 83.3034 35.22 83.61 34.86C83.9234 34.5 84.08 34.0233 84.08 33.43V33.36C84.08 32.7533 83.9234 32.27 83.61 31.91C83.3034 31.55 82.89 31.37 82.37 31.37C81.8434 31.37 81.4267 31.55 81.12 31.91C80.8134 32.27 80.66 32.75 80.66 33.35V33.43C80.66 34.0367 80.81 34.5167 81.11 34.87C81.4167 35.2233 81.8367 35.4 82.37 35.4ZM82.36 36.09C81.62 36.09 81.0067 35.84 80.52 35.34C80.04 34.8333 79.8 34.1967 79.8 33.43V33.35C79.8 32.57 80.04 31.93 80.52 31.43C81.0067 30.93 81.6234 30.68 82.37 30.68C83.1167 30.68 83.73 30.93 84.21 31.43C84.6967 31.9233 84.94 32.56 84.94 33.34V33.42C84.94 34.2067 84.6967 34.85 84.21 35.35C83.7234 35.8433 83.1067 36.09 82.36 36.09ZM86.3521 30.77H87.1821V31.65C87.3355 31.3833 87.5755 31.1567 87.9021 30.97C88.2288 30.7767 88.5788 30.68 88.9521 30.68C89.6521 30.68 90.2221 30.9167 90.6621 31.39C91.1088 31.8633 91.3321 32.5033 91.3321 33.31V33.39C91.3321 34.1967 91.1121 34.85 90.6721 35.35C90.2388 35.8433 89.6655 36.09 88.9521 36.09C88.1521 36.09 87.5621 35.7733 87.1821 35.14V37.82H86.3521V30.77ZM88.8721 35.4C89.3921 35.4 89.7888 35.2333 90.0621 34.9C90.3355 34.56 90.4721 34.07 90.4721 33.43V33.35C90.4721 32.7167 90.3188 32.23 90.0121 31.89C89.7121 31.5433 89.3288 31.37 88.8621 31.37C88.3555 31.37 87.9421 31.54 87.6221 31.88C87.3088 32.2133 87.1521 32.7033 87.1521 33.35V33.43C87.1521 34.0767 87.3055 34.5667 87.6121 34.9C87.9255 35.2333 88.3455 35.4 88.8721 35.4ZM94.8789 36.09C94.1322 36.09 93.5222 35.8467 93.0489 35.36C92.5822 34.8733 92.3489 34.2333 92.3489 33.44V33.36C92.3489 32.5733 92.5755 31.93 93.0289 31.43C93.4889 30.93 94.0789 30.68 94.7989 30.68C95.4655 30.68 96.0222 30.8967 96.4689 31.33C96.9222 31.7567 97.1489 32.4067 97.1489 33.28V33.55H93.2089C93.2489 34.7833 93.8089 35.4 94.8889 35.4C95.7089 35.4 96.1722 35.0967 96.2789 34.49H97.1089C97.0155 35.01 96.7722 35.4067 96.3789 35.68C95.9855 35.9533 95.4855 36.09 94.8789 36.09ZM96.2989 32.88C96.2255 31.8733 95.7255 31.37 94.7989 31.37C94.3789 31.37 94.0322 31.5033 93.7589 31.77C93.4855 32.0367 93.3122 32.4067 93.2389 32.88H96.2989Z" fill="black"></path> <path fill-rule="evenodd" clip-rule="evenodd" d="M16.9358 0.539334L18.1492 0.0933807C18.409 -0.00776877 18.5093 -0.0226423 18.5662 0.0290192C18.6214 0.0794582 18.6255 0.124293 18.6104 0.18768L18.5798 0.292233C18.2797 1.28487 17.8808 2.07028 17.3608 2.69348C16.4797 3.74897 15.461 4.32571 14.2547 4.44882L13.9491 4.47015C13.9037 4.47269 13.8662 4.48573 13.8518 4.49624C13.6622 4.63582 13.5237 4.7462 13.4008 4.85605C13.0121 5.20481 12.6298 5.57513 12.256 5.96686C12.8123 5.62698 13.4926 5.47323 14.2579 5.51239C14.5374 5.52604 14.8156 5.55739 15.0892 5.59387L16.1245 5.74136L16.6156 5.8233C16.7094 5.83925 16.9316 5.88892 16.9827 5.99533C17.0008 6.0314 16.9993 6.07113 16.9792 6.10721L16.9207 6.19565C16.2562 7.0409 15.4981 7.59825 14.6035 7.89862C13.6218 8.22931 12.7097 8.23642 11.885 7.92187L11.6133 7.80514C11.4726 7.72937 11.3067 7.69107 11.1169 7.69107C11.0098 7.69107 10.9226 7.70388 10.8732 7.71286L10.8371 7.71991C10.7778 7.73006 10.705 7.7591 10.6906 7.77832C10.1307 8.50122 9.59919 9.27216 9.10276 10.0832C9.52199 9.68292 10.0688 9.41314 10.814 9.23749C11.3363 9.11524 11.8678 9.06995 12.3901 9.04037L13.3 8.99258L13.9491 8.95294C14.0047 8.95294 14.0472 8.97391 14.0733 9.01034C14.1021 9.04787 14.1093 9.09814 14.0921 9.14346L14.0558 9.23382C14.0495 9.2481 14.0438 9.26023 14.0395 9.26742C13.3591 10.3853 12.5598 11.1586 11.596 11.6309C10.6545 12.093 9.80326 12.2158 8.9456 12.0138C8.84587 11.9899 8.73045 11.9779 8.61225 11.9779C8.24714 11.9779 7.99171 12.0869 7.9376 12.1904C7.46667 13.1448 7.04523 14.1383 6.68178 15.1514C7.06259 14.6352 7.59652 14.2159 8.27097 13.9032C8.71777 13.6959 9.17705 13.5007 9.6337 13.312L11.2144 12.6655C11.2547 12.6477 11.3088 12.6512 11.3492 12.6775C11.3897 12.7038 11.4135 12.7476 11.4135 12.795L11.3896 12.8804C11.2318 13.3573 10.3052 15.6492 9.01189 16.6052C8.43107 17.0343 7.71691 17.4755 6.81512 17.4967C6.59027 17.5007 6.35901 17.5274 6.1658 17.6732L6.00063 17.8237L5.93511 17.8562C5.86216 17.8797 5.84278 17.923 5.80658 18.0702C5.51515 19.2733 5.30241 20.5132 5.17184 21.7727C5.21154 21.6447 5.25698 21.5156 5.30961 21.3847C5.62856 20.5924 6.16376 19.8991 6.9963 19.2025L7.6505 18.6703L9.0479 17.573L9.16981 17.4704C9.21395 17.4343 9.27728 17.4266 9.32714 17.4514C9.37903 17.477 9.41007 17.5301 9.40583 17.5866L9.38773 17.8656C9.37831 18.0249 9.36888 18.175 9.35244 18.3236C9.19879 19.7667 8.76148 20.9713 8.01629 22.0063C7.60076 22.5826 7.02335 23.2734 6.15944 23.6758L5.86069 23.7987C5.60971 23.8893 5.42724 24.0258 5.2324 24.2716C5.04846 24.5024 5.01374 24.7129 5.01817 24.9775C5.03553 26.0872 5.11623 27.1868 5.25844 28.2643C5.2915 27.965 5.36149 27.6561 5.46971 27.3353C5.69336 26.6713 6.04188 26.0256 6.53534 25.3614L7.18274 24.4993L8.36774 22.9518C8.38694 22.9233 8.41321 22.9069 8.43734 22.8961L8.47079 22.8831C8.50034 22.869 8.54799 22.8661 8.58622 22.881C8.6117 22.8922 8.63333 22.9099 8.6488 22.9319L8.68096 23.0118L8.68723 23.0388C8.98309 24.7686 8.80193 26.318 8.1332 27.7766C7.84782 28.4005 7.47688 29.0966 6.87158 29.6504L6.59739 29.8783C6.2452 30.1432 5.96689 30.5153 5.81379 30.9255C5.78147 31.0138 5.78275 31.0522 5.78644 31.067C6.11332 32.3952 6.53959 33.6765 7.05909 34.8885C6.92483 34.2493 6.93424 33.5787 7.08642 32.8824C7.23072 32.2258 7.44428 31.5825 7.66891 30.9843L8.00688 30.1247L8.58049 28.7091C8.60062 28.6582 8.65048 28.6236 8.70681 28.6207C8.74424 28.6192 8.78043 28.6322 8.80768 28.6552L8.84088 28.6965L8.9563 28.9152C9.62355 30.3936 9.8487 31.9091 9.62579 33.4194C9.46641 34.499 9.19583 35.2724 8.74928 35.9266C8.51768 36.2652 8.29848 36.6418 8.25804 37.1048C8.24862 37.2144 8.25305 37.2902 8.30273 37.3767C8.7535 38.1512 9.24811 38.8912 9.78213 39.5907L10.1859 40.1012C9.68431 39.2016 9.66974 38.2358 9.72035 37.4095C9.74965 36.9368 9.79592 36.4649 9.84728 36L10.1048 33.7642C10.1106 33.7167 10.1394 33.6755 10.1835 33.6545C10.1972 33.6474 10.2151 33.6431 10.2354 33.6431C10.3169 33.6431 10.4151 33.7084 10.5254 33.8365C11.4696 34.9325 12.0554 36.1717 12.2669 37.5185C12.4861 38.9148 12.3672 40.11 11.9033 41.1719L11.8943 41.2079L11.8911 41.2796L11.9162 41.8914C11.9199 41.9327 11.943 41.9821 11.9631 42.0007C12.9053 42.8922 13.9434 43.6666 15.058 44.3119C14.5307 43.8439 14.1512 43.2334 13.9059 42.4602C13.6877 41.774 13.5545 41.0658 13.4409 40.3682L13.2728 39.3116L13.1391 38.5006C13.1312 38.4489 13.1513 38.398 13.1932 38.3668C13.2187 38.3464 13.2529 38.3361 13.2867 38.3374L13.336 38.3483L13.3864 38.3683C13.4398 38.3902 13.4867 38.4093 13.5316 38.4319C15.6373 39.4642 17.0232 41.8718 16.8276 44.1565C16.7966 44.5144 16.8298 44.8505 16.9301 45.184C16.9395 45.2138 16.9691 45.2472 16.9805 45.252C17.9811 45.6662 18.932 45.9685 19.8885 46.1755C19.9383 46.1868 19.9773 46.2216 19.9925 46.2676C20.0083 46.3144 19.9989 46.3653 19.9664 46.4029C19.8619 46.524 19.7718 46.6543 19.6973 46.7902C19.6722 46.8361 19.6238 46.8646 19.5712 46.8646L19.538 46.8607C18.9536 46.7295 18.3806 46.5697 17.8278 46.3835L17.2821 46.1887C17.223 46.1653 17.1761 46.1557 17.1379 46.1613C17.0311 46.1755 16.9205 46.1945 16.803 46.2191L16.6213 46.2605C16.5823 46.2696 16.5513 46.2872 16.5441 46.2943C16.1408 47.0866 15.4367 47.5974 14.3979 47.8452C14.1713 47.899 13.9384 47.938 13.7046 47.9617C13.4601 47.9875 13.1873 48 12.8937 48L12.3433 47.9852C12.2502 47.98 12.1954 47.9756 12.1954 47.9756C11.2936 47.8771 10.5246 47.6781 9.84296 47.367C9.56372 47.2398 9.24497 47.0685 9.00027 46.763C8.95336 46.7045 8.9613 46.6193 9.01837 46.5707C9.71018 45.9716 10.4151 45.5362 11.1725 45.2394C12.295 44.8011 13.3179 44.6829 14.32 44.8718C14.4701 44.901 14.6166 44.9363 14.7586 44.978C13.8208 44.4277 12.9234 43.7815 12.0758 43.0448C12.0591 43.0299 12.0324 43.0175 12.01 43.0133L11.6837 42.9673C11.6225 42.9604 11.5589 42.9541 11.4942 42.9495L11.4545 42.9619C11.0031 43.4581 10.4331 43.7285 9.71981 43.7824L9.44552 43.7925L9.31625 43.7908C8.39931 43.7616 7.47812 43.5143 6.57633 43.0557C5.92127 42.72 5.23887 42.3297 4.68482 41.7469L4.51062 41.5443L4.21518 41.1578C4.19136 41.1274 4.18138 41.0878 4.18711 41.0498C4.19431 41.0108 4.2174 40.9758 4.2499 40.9546L4.50205 40.8311C4.56898 40.8005 4.64246 40.7687 4.71363 40.7414C6.14712 40.1976 7.59429 40.142 8.97515 40.5788C9.33639 40.6925 9.68106 40.8527 10.0165 41.0634L10.2646 41.229L9.81364 40.6967C9.36783 40.1524 8.94321 39.5787 8.54154 38.9782L8.14759 38.3687C8.14038 38.3575 8.1223 38.3284 8.11381 38.3215L7.78877 38.1299L7.63473 38.0276C7.57143 37.9813 7.54262 37.969 7.49594 37.9884L7.44136 38.0184C7.32021 38.0956 7.18023 38.1351 7.05834 38.1661C6.34049 38.3469 5.61913 38.2568 4.81983 37.8888C4.08979 37.5531 3.52837 37.0221 3.03065 36.4988C2.30634 35.7347 1.83317 35.0457 1.54175 34.3299L1.46081 34.1023L1.33251 33.6587C1.31575 33.6052 1.33348 33.5487 1.37409 33.5133L1.42188 33.486L1.44498 33.4818L1.71962 33.4874C2.46616 33.519 4.61885 33.7216 5.95229 34.9914C6.28786 35.3106 6.58871 35.6497 6.86277 36.0213C6.37507 35.0075 5.94657 33.9501 5.58155 32.8581L5.30461 31.9839L5.29593 31.9629L4.89408 31.4216C4.88349 31.4057 4.87896 31.4003 4.87007 31.3986L4.42458 31.4162C4.29496 31.4173 4.19646 31.411 4.10992 31.3977C3.53575 31.3084 3.01772 31.0254 2.52573 30.5302C1.37646 29.3733 0.585108 27.9297 0.106786 26.117C0.0726815 25.9874 0.0548917 25.8571 0.042347 25.7232L0.000772691 25.2274C-0.00421347 25.1801 0.0151741 25.1341 0.0519249 25.1035C0.0894157 25.0739 0.141499 25.0633 0.18693 25.0781L0.350551 25.1263C0.460251 25.1575 0.554819 25.1843 0.648638 25.2219C2.13033 25.7997 3.29752 26.7896 4.21593 28.2487C4.44254 28.6094 4.61853 28.9839 4.75851 29.3578C4.55446 28.2406 4.48963 27.7292 4.44895 26.6413L4.43329 26.115L4.4331 26.0256C4.4331 25.8634 4.4331 25.7099 4.39709 25.5688C4.36766 25.4584 4.31912 25.3476 4.26502 25.2385L4.1114 24.9405L4.07593 24.9239C3.65319 24.8601 3.27811 24.6837 2.9311 24.3842C2.58057 24.0803 2.29265 23.7086 2.07473 23.2794C1.29279 21.7395 0.901097 20.0379 0.911253 18.2223L0.925409 17.9613L0.986233 17.435C0.991219 17.3868 1.02151 17.3437 1.06565 17.3232C1.10813 17.3028 1.16222 17.3045 1.2034 17.3288L1.37294 17.4322C2.04019 17.9024 2.62879 18.4867 3.12225 19.1693C3.83865 20.1612 4.28816 21.2683 4.4678 22.4768L4.52153 22.9305L4.56515 22.4142C4.61409 21.8082 4.66544 21.1808 4.70717 20.5639L4.7348 20.3356L4.77642 20.1137C4.83497 19.8256 4.8891 19.5586 4.80248 19.2789L4.74983 19.0891C4.71612 18.9575 4.57381 18.7675 4.35235 18.5545L4.16086 18.3819C3.99307 18.2324 3.48691 17.7221 3.18946 16.7894C2.94153 16.0139 2.89379 15.2124 2.89304 14.5272L2.90302 13.8647C2.92684 12.7806 3.04652 11.963 3.28956 11.2153L3.46133 10.7639C3.4729 10.733 3.49563 10.7076 3.5245 10.6915L3.57175 10.675L3.59558 10.6728C3.62439 10.6728 3.65197 10.6813 3.67526 10.6968L3.70657 10.7252L3.94334 11.0077C5.07728 12.3649 5.63427 13.9578 5.59955 15.7406C5.59309 16.0543 5.56926 16.3763 5.52678 16.7093C5.81525 15.7322 6.15361 14.7818 6.53811 13.8664L6.54764 13.8351L6.55121 13.8018L6.55398 13.6773C6.55841 13.4968 6.56193 13.3095 6.55473 13.1265C6.55325 13.096 6.53311 13.0412 6.49118 12.9876L6.39867 12.8733L6.30226 12.7615C6.18185 12.6236 6.06199 12.4869 5.96614 12.3298C5.66013 11.8264 5.5159 11.2309 5.51368 10.4569C5.50944 9.54636 5.65292 8.58691 5.96466 7.43838C6.13568 6.81173 6.39238 5.99857 6.87219 5.26098L7.03379 5.0451C7.06112 5.00867 7.10303 4.98761 7.14698 4.98761C7.20756 4.99123 7.25096 5.01806 7.27478 5.05993C7.87629 6.12544 8.17586 7.26418 8.19026 8.54086C8.20245 9.60491 8.0329 10.5212 7.82088 11.2451C8.22603 10.518 8.66494 9.80971 9.13363 9.12643L9.64375 8.40921L9.71302 7.90182L9.73427 7.68265L9.634 7.51574L9.56372 7.40991C9.46067 7.25547 9.3567 7.10053 9.2904 6.92688C9.08984 6.40228 9.0444 5.80771 9.15262 5.10946C9.39068 3.56378 10.0845 2.17165 11.275 0.853818L11.4674 0.659726L11.8874 0.282437C11.9234 0.24854 11.9782 0.235524 12.0274 0.249844C12.0601 0.260116 12.0874 0.280919 12.1055 0.308164L12.1254 0.353299L12.1932 0.657163C12.3535 1.59505 12.3411 2.60073 12.1572 3.73022C11.974 4.8501 11.6096 5.81605 11.0506 6.65497C11.8889 5.68499 12.7055 4.87014 13.5604 4.14651L13.5669 4.12317C13.5006 3.56214 13.6418 3.03118 14.0005 2.50296C14.4707 1.80833 15.1245 1.27938 15.9424 0.929532C16.2691 0.7908 16.6037 0.662382 16.9358 0.539334Z" fill="black"></path> <path fill-rule="evenodd" clip-rule="evenodd" d="M112.064 0.539334L110.851 0.0933807C110.591 -0.00776877 110.491 -0.0226423 110.434 0.0290192C110.379 0.0794582 110.375 0.124293 110.39 0.18768L110.42 0.292233C110.72 1.28487 111.119 2.07028 111.639 2.69348C112.52 3.74897 113.539 4.32571 114.745 4.44882L115.051 4.47015C115.096 4.47269 115.134 4.48573 115.148 4.49624C115.338 4.63582 115.476 4.7462 115.599 4.85605C115.988 5.20481 116.37 5.57513 116.744 5.96686C116.188 5.62698 115.507 5.47323 114.742 5.51239C114.463 5.52604 114.184 5.55739 113.911 5.59387L112.876 5.74136L112.384 5.8233C112.291 5.83925 112.068 5.88892 112.017 5.99533C111.999 6.0314 112.001 6.07113 112.021 6.10721L112.079 6.19565C112.744 7.0409 113.502 7.59825 114.397 7.89862C115.378 8.22931 116.29 8.23642 117.115 7.92187L117.387 7.80514C117.527 7.72937 117.693 7.69107 117.883 7.69107C117.99 7.69107 118.077 7.70388 118.127 7.71286L118.163 7.71991C118.222 7.73006 118.295 7.7591 118.309 7.77832C118.869 8.50122 119.401 9.27216 119.897 10.0832C119.478 9.68292 118.931 9.41314 118.186 9.23749C117.664 9.11524 117.132 9.06995 116.61 9.04037L115.7 8.99258L115.051 8.95294C114.995 8.95294 114.953 8.97391 114.927 9.01034C114.898 9.04787 114.891 9.09814 114.908 9.14346L114.944 9.23382C114.95 9.2481 114.956 9.26023 114.961 9.26742C115.641 10.3853 116.44 11.1586 117.404 11.6309C118.346 12.093 119.197 12.2158 120.054 12.0138C120.154 11.9899 120.27 11.9779 120.388 11.9779C120.753 11.9779 121.008 12.0869 121.062 12.1904C121.533 13.1448 121.955 14.1383 122.318 15.1514C121.937 14.6352 121.403 14.2159 120.729 13.9032C120.282 13.6959 119.823 13.5007 119.366 13.312L117.786 12.6655C117.745 12.6477 117.691 12.6512 117.651 12.6775C117.61 12.7038 117.587 12.7476 117.587 12.795L117.61 12.8804C117.768 13.3573 118.695 15.6492 119.988 16.6052C120.569 17.0343 121.283 17.4755 122.185 17.4967C122.41 17.5007 122.641 17.5274 122.834 17.6732L122.999 17.8237L123.065 17.8562C123.138 17.8797 123.157 17.923 123.193 18.0702C123.485 19.2733 123.698 20.5132 123.828 21.7727C123.788 21.6447 123.743 21.5156 123.69 21.3847C123.371 20.5924 122.836 19.8991 122.004 19.2025L121.349 18.6703L119.952 17.573L119.83 17.4704C119.786 17.4343 119.723 17.4266 119.673 17.4514C119.621 17.477 119.59 17.5301 119.594 17.5866L119.612 17.8656C119.622 18.0249 119.631 18.175 119.648 18.3236C119.801 19.7667 120.239 20.9713 120.984 22.0063C121.399 22.5826 121.977 23.2734 122.841 23.6758L123.139 23.7987C123.39 23.8893 123.573 24.0258 123.768 24.2716C123.952 24.5024 123.986 24.7129 123.982 24.9775C123.964 26.0872 123.884 27.1868 123.742 28.2643C123.709 27.965 123.639 27.6561 123.53 27.3353C123.307 26.6713 122.958 26.0256 122.465 25.3614L121.817 24.4993L120.632 22.9518C120.613 22.9233 120.587 22.9069 120.563 22.8961L120.529 22.8831C120.5 22.869 120.452 22.8661 120.414 22.881C120.388 22.8922 120.367 22.9099 120.351 22.9319L120.319 23.0118L120.313 23.0388C120.017 24.7686 120.198 26.318 120.867 27.7766C121.152 28.4005 121.523 29.0966 122.128 29.6504L122.403 29.8783C122.755 30.1432 123.033 30.5153 123.186 30.9255C123.219 31.0138 123.217 31.0522 123.214 31.067C122.887 32.3952 122.46 33.6765 121.941 34.8885C122.075 34.2493 122.066 33.5787 121.914 32.8824C121.769 32.2258 121.556 31.5825 121.331 30.9843L120.993 30.1247L120.42 28.7091C120.399 28.6582 120.35 28.6236 120.293 28.6207C120.256 28.6192 120.22 28.6322 120.192 28.6552L120.159 28.6965L120.044 28.9152C119.376 30.3936 119.151 31.9091 119.374 33.4194C119.534 34.499 119.804 35.2724 120.251 35.9266C120.482 36.2652 120.702 36.6418 120.742 37.1048C120.751 37.2144 120.747 37.2902 120.697 37.3767C120.246 38.1512 119.752 38.8912 119.218 39.5907L118.814 40.1012C119.316 39.2016 119.33 38.2358 119.28 37.4095C119.25 36.9368 119.204 36.4649 119.153 36L118.895 33.7642C118.889 33.7167 118.861 33.6755 118.816 33.6545C118.803 33.6474 118.785 33.6431 118.765 33.6431C118.683 33.6431 118.585 33.7084 118.475 33.8365C117.53 34.9325 116.945 36.1717 116.733 37.5185C116.514 38.9148 116.633 40.11 117.097 41.1719L117.106 41.2079L117.109 41.2796L117.084 41.8914C117.08 41.9327 117.057 41.9821 117.037 42.0007C116.095 42.8922 115.057 43.6666 113.942 44.3119C114.469 43.8439 114.849 43.2334 115.094 42.4602C115.312 41.774 115.446 41.0658 115.559 40.3682L115.727 39.3116L115.861 38.5006C115.869 38.4489 115.849 38.398 115.807 38.3668C115.781 38.3464 115.747 38.3361 115.713 38.3374L115.664 38.3483L115.614 38.3683C115.56 38.3902 115.513 38.4093 115.468 38.4319C113.363 39.4642 111.977 41.8718 112.172 44.1565C112.203 44.5144 112.17 44.8505 112.07 45.184C112.061 45.2138 112.031 45.2472 112.019 45.252C111.019 45.6662 110.068 45.9685 109.112 46.1755C109.062 46.1868 109.023 46.2216 109.008 46.2676C108.992 46.3144 109.001 46.3653 109.034 46.4029C109.138 46.524 109.228 46.6543 109.303 46.7902C109.328 46.8361 109.376 46.8646 109.429 46.8646L109.462 46.8607C110.046 46.7295 110.619 46.5697 111.172 46.3835L111.718 46.1887C111.777 46.1653 111.824 46.1557 111.862 46.1613C111.969 46.1755 112.079 46.1945 112.197 46.2191L112.379 46.2605C112.418 46.2696 112.449 46.2872 112.456 46.2943C112.859 47.0866 113.563 47.5974 114.602 47.8452C114.829 47.899 115.062 47.938 115.295 47.9617C115.54 47.9875 115.813 48 116.106 48L116.657 47.9852C116.75 47.98 116.805 47.9756 116.805 47.9756C117.706 47.8771 118.475 47.6781 119.157 47.367C119.436 47.2398 119.755 47.0685 120 46.763C120.047 46.7045 120.039 46.6193 119.982 46.5707C119.29 45.9716 118.585 45.5362 117.828 45.2394C116.705 44.8011 115.682 44.6829 114.68 44.8718C114.53 44.901 114.383 44.9363 114.241 44.978C115.179 44.4277 116.077 43.7815 116.924 43.0448C116.941 43.0299 116.968 43.0175 116.99 43.0133L117.316 42.9673C117.377 42.9604 117.441 42.9541 117.506 42.9495L117.546 42.9619C117.997 43.4581 118.567 43.7285 119.28 43.7824L119.554 43.7925L119.684 43.7908C120.601 43.7616 121.522 43.5143 122.424 43.0557C123.079 42.72 123.761 42.3297 124.315 41.7469L124.489 41.5443L124.785 41.1578C124.809 41.1274 124.819 41.0878 124.813 41.0498C124.806 41.0108 124.783 40.9758 124.75 40.9546L124.498 40.8311C124.431 40.8005 124.358 40.7687 124.286 40.7414C122.853 40.1976 121.406 40.142 120.025 40.5788C119.664 40.6925 119.319 40.8527 118.984 41.0634L118.735 41.229L119.186 40.6967C119.632 40.1524 120.057 39.5787 120.458 38.9782L120.852 38.3687C120.86 38.3575 120.878 38.3284 120.886 38.3215L121.211 38.1299L121.365 38.0276C121.429 37.9813 121.457 37.969 121.504 37.9884L121.559 38.0184C121.68 38.0956 121.82 38.1351 121.942 38.1661C122.66 38.3469 123.381 38.2568 124.18 37.8888C124.91 37.5531 125.472 37.0221 125.969 36.4988C126.694 35.7347 127.167 35.0457 127.458 34.3299L127.539 34.1023L127.667 33.6587C127.684 33.6052 127.667 33.5487 127.626 33.5133L127.578 33.486L127.555 33.4818L127.28 33.4874C126.534 33.519 124.381 33.7216 123.048 34.9914C122.712 35.3106 122.411 35.6497 122.137 36.0213C122.625 35.0075 123.053 33.9501 123.418 32.8581L123.695 31.9839L123.704 31.9629L124.106 31.4216C124.117 31.4057 124.121 31.4003 124.13 31.3986L124.575 31.4162C124.705 31.4173 124.804 31.411 124.89 31.3977C125.464 31.3084 125.982 31.0254 126.474 30.5302C127.624 29.3733 128.415 27.9297 128.893 26.117C128.927 25.9874 128.945 25.8571 128.958 25.7232L128.999 25.2274C129.004 25.1801 128.985 25.1341 128.948 25.1035C128.911 25.0739 128.859 25.0633 128.813 25.0781L128.649 25.1263C128.54 25.1575 128.445 25.1843 128.351 25.2219C126.87 25.7997 125.702 26.7896 124.784 28.2487C124.557 28.6094 124.381 28.9839 124.241 29.3578C124.446 28.2406 124.51 27.7292 124.551 26.6413L124.567 26.115L124.567 26.0256C124.567 25.8634 124.567 25.7099 124.603 25.5688C124.632 25.4584 124.681 25.3476 124.735 25.2385L124.889 24.9405L124.924 24.9239C125.347 24.8601 125.722 24.6837 126.069 24.3842C126.419 24.0803 126.707 23.7086 126.925 23.2794C127.707 21.7395 128.099 20.0379 128.089 18.2223L128.075 17.9613L128.014 17.435C128.009 17.3868 127.978 17.3437 127.934 17.3232C127.892 17.3028 127.838 17.3045 127.797 17.3288L127.627 17.4322C126.96 17.9024 126.371 18.4867 125.878 19.1693C125.161 20.1612 124.712 21.2683 124.532 22.4768L124.478 22.9305L124.435 22.4142C124.386 21.8082 124.335 21.1808 124.293 20.5639L124.265 20.3356L124.224 20.1137C124.165 19.8256 124.111 19.5586 124.198 19.2789L124.25 19.0891C124.284 18.9575 124.426 18.7675 124.648 18.5545L124.839 18.3819C125.007 18.2324 125.513 17.7221 125.811 16.7894C126.058 16.0139 126.106 15.2124 126.107 14.5272L126.097 13.8647C126.073 12.7806 125.953 11.963 125.71 11.2153L125.539 10.7639C125.527 10.733 125.504 10.7076 125.476 10.6915L125.428 10.675L125.404 10.6728C125.376 10.6728 125.348 10.6813 125.325 10.6968L125.293 10.7252L125.057 11.0077C123.923 12.3649 123.366 13.9578 123.4 15.7406C123.407 16.0543 123.431 16.3763 123.473 16.7093C123.185 15.7322 122.846 14.7818 122.462 13.8664L122.452 13.8351L122.449 13.8018L122.446 13.6773C122.442 13.4968 122.438 13.3095 122.445 13.1265C122.447 13.096 122.467 13.0412 122.509 12.9876L122.601 12.8733L122.698 12.7615C122.818 12.6236 122.938 12.4869 123.034 12.3298C123.34 11.8264 123.484 11.2309 123.486 10.4569C123.491 9.54636 123.347 8.58691 123.035 7.43838C122.864 6.81173 122.608 5.99857 122.128 5.26098L121.966 5.0451C121.939 5.00867 121.897 4.98761 121.853 4.98761C121.792 4.99123 121.749 5.01806 121.725 5.05993C121.124 6.12544 120.824 7.26418 120.81 8.54086C120.798 9.60491 120.967 10.5212 121.179 11.2451C120.774 10.518 120.335 9.80971 119.866 9.12643L119.356 8.40921L119.287 7.90182L119.266 7.68265L119.366 7.51574L119.436 7.40991C119.539 7.25547 119.643 7.10053 119.71 6.92688C119.91 6.40228 119.956 5.80771 119.847 5.10946C119.609 3.56378 118.915 2.17165 117.725 0.853818L117.533 0.659726L117.113 0.282437C117.077 0.24854 117.022 0.235524 116.973 0.249844C116.94 0.260116 116.913 0.280919 116.894 0.308164L116.875 0.353299L116.807 0.657163C116.646 1.59505 116.659 2.60073 116.843 3.73022C117.026 4.8501 117.39 5.81605 117.949 6.65497C117.111 5.68499 116.294 4.87014 115.44 4.14651L115.433 4.12317C115.499 3.56214 115.358 3.03118 115 2.50296C114.529 1.80833 113.876 1.27938 113.058 0.929532C112.731 0.7908 112.396 0.662382 112.064 0.539334Z" fill="black"></path> </svg> 