<svg aria-hidden="true" style="position: absolute; width: 0; height: 0; overflow: hidden;" version="1.1" xmlns="http://www.w3.org/2000/svg" xmlns:xlink="http://www.w3.org/1999/xlink">
<defs>
<symbol id="apple" viewBox="0 0 32 32">
<path d="M25.385 17.004c0.047 4.841 4.559 6.449 4.611 6.473-0.041 0.109-0.723 2.295-2.381 4.552-1.434 1.949-2.918 3.89-5.26 3.929-2.303 0.041-3.043-1.271-5.676-1.271-2.632 0-3.454 1.232-5.632 1.312-2.259 0.080-3.981-2.104-5.427-4.048-2.954-3.974-5.21-11.229-2.178-16.125 1.503-2.432 4.192-3.972 7.112-4.013 2.22-0.037 4.317 1.394 5.672 1.394 1.359 0 3.906-1.719 6.582-1.467 1.121 0.043 4.268 0.42 6.287 3.169-0.159 0.097-3.755 2.041-3.71 6.095zM15.956 7.375c-0.261-1.839 0.712-3.751 1.824-4.952 1.241-1.353 3.335-2.359 5.064-2.423 0.221 1.874-0.59 3.755-1.789 5.109-1.201 1.352-3.17 2.405-5.099 2.266z"></path>
</symbol>
<symbol id="play" viewBox="0 0 32 32">
<path d="M6 4l20 12-20 12z"></path>
</symbol>
<symbol id="facebook" viewBox="0 0 16 28">
<path d="M14.984 0.187v4.125h-2.453c-1.922 0-2.281 0.922-2.281 2.25v2.953h4.578l-0.609 4.625h-3.969v11.859h-4.781v-11.859h-3.984v-4.625h3.984v-3.406c0-3.953 2.422-6.109 5.953-6.109 1.687 0 3.141 0.125 3.563 0.187z"></path>
</symbol>
<symbol id="menu" viewBox="0 0 24 24">
<path d="M3 13h18c0.552 0 1-0.448 1-1s-0.448-1-1-1h-18c-0.552 0-1 0.448-1 1s0.448 1 1 1zM3 7h18c0.552 0 1-0.448 1-1s-0.448-1-1-1h-18c-0.552 0-1 0.448-1 1s0.448 1 1 1zM3 19h18c0.552 0 1-0.448 1-1s-0.448-1-1-1h-18c-0.552 0-1 0.448-1 1s0.448 1 1 1z"></path>
</symbol>
<symbol id="close" viewBox="0 0 24 24">
<path d="M5.293 6.707l5.293 5.293-5.293 5.293c-0.391 0.391-0.391 1.024 0 1.414s1.024 0.391 1.414 0l5.293-5.293 5.293 5.293c0.391 0.391 1.024 0.391 1.414 0s0.391-1.024 0-1.414l-5.293-5.293 5.293-5.293c0.391-0.391 0.391-1.024 0-1.414s-1.024-0.391-1.414 0l-5.293 5.293-5.293-5.293c-0.391-0.391-1.024-0.391-1.414 0s-0.391 1.024 0 1.414z"></path>
</symbol>
</defs>
</svg>
