<?xml version="1.0" standalone="no"?>
<!DOCTYPE svg PUBLIC "-//W3C//DTD SVG 20010904//EN"
 "http://www.w3.org/TR/2001/REC-SVG-20010904/DTD/svg10.dtd">
<svg version="1.0" xmlns="http://www.w3.org/2000/svg"
 width="3441.000000pt" height="953.000000pt" viewBox="0 0 3441.000000 953.000000"
 preserveAspectRatio="xMidYMid meet">

<g transform="translate(0.000000,953.000000) scale(0.100000,-0.100000)"
fill="#000000" stroke="none">
<path d="M4544 9384 c-4 -14 -4 -125 -2 -247 5 -219 6 -223 36 -298 16 -41 36
-103 43 -138 21 -109 -7 -270 -47 -263 -36 6 -127 67 -145 97 -11 17 -19 25
-19 18 0 -22 53 -75 107 -105 63 -35 66 -40 50 -62 -11 -15 -22 -13 -131 24
-184 61 -238 102 -255 193 -7 32 -9 35 -10 14 -2 -62 48 -130 124 -170 22 -11
84 -37 138 -56 54 -20 99 -41 99 -46 0 -6 -11 -19 -25 -29 -25 -18 -28 -18
-92 -2 -193 48 -390 168 -431 261 -7 17 -13 23 -14 14 0 -27 55 -94 118 -142
71 -55 171 -106 267 -137 89 -29 96 -36 49 -49 -48 -13 -96 -14 -153 0 -24 5
-46 7 -49 5 -10 -11 50 -96 97 -138 64 -58 131 -89 283 -132 306 -86 532 -183
588 -251 20 -24 26 -211 10 -289 -19 -95 -91 -224 -170 -309 -98 -105 -121
-112 -355 -112 -207 0 -302 15 -428 70 -149 64 -204 104 -410 298 -148 140
-195 176 -291 223 -189 92 -394 85 -606 -21 -84 -42 -135 -83 -183 -148 -105
-140 -166 -333 -187 -596 -26 -324 41 -588 183 -724 l52 -49 -35 -27 c-70 -52
-172 -157 -211 -216 -134 -205 -115 -498 42 -639 72 -66 118 -81 244 -81 124
0 172 16 251 80 83 69 160 226 134 275 -14 26 -29 25 -86 -5 -40 -21 -60 -25
-136 -25 -105 0 -140 12 -190 68 -61 67 -71 153 -32 264 33 94 102 158 215
198 51 18 54 18 79 0 126 -89 335 -111 704 -74 181 18 514 15 649 -6 l77 -12
0 -2493 0 -2493 -33 -44 c-18 -24 -88 -87 -155 -141 -114 -91 -122 -100 -122
-132 0 -47 15 -50 229 -39 219 11 485 11 746 0 172 -7 203 -6 220 7 41 31 1
79 -183 219 -34 26 -74 66 -89 90 l-28 42 -3 2464 -2 2465 37 -6 c21 -3 105
-17 187 -31 430 -75 836 -45 1164 85 40 16 84 29 98 29 14 0 35 11 47 24 12
13 40 33 63 44 36 18 44 19 61 7 63 -44 185 -38 203 10 11 29 -5 94 -26 102
-8 3 -14 9 -14 13 0 5 36 44 79 89 111 112 161 213 168 338 7 118 -12 188 -70
250 -62 67 -112 86 -227 87 -87 1 -99 -1 -149 -29 -65 -36 -127 -104 -143
-157 -15 -50 -10 -54 90 -61 96 -6 158 -30 177 -68 24 -46 19 -137 -10 -196
-25 -50 -81 -103 -107 -103 -7 1 -31 26 -53 58 -109 154 -152 178 -303 169
-105 -6 -227 -37 -369 -91 -155 -60 -245 -79 -373 -80 -114 -1 -117 0 -191 36
-82 41 -128 84 -264 252 -87 107 -177 189 -240 217 -125 57 -242 -26 -282
-200 l-13 -56 4 56 c9 115 79 213 172 239 112 32 236 -49 424 -276 126 -151
179 -194 277 -219 115 -30 243 -13 468 64 148 51 291 81 385 81 l71 0 -36 69
c-60 114 -103 119 -291 30 -161 -77 -223 -99 -250 -89 -33 13 -89 85 -130 170
-22 43 -42 79 -45 79 -4 1 -7 -34 -8 -76 -2 -114 -38 -252 -74 -281 -8 -7 -3
9 10 36 34 69 46 198 33 340 -10 106 -14 122 -60 216 -72 150 -119 327 -135
513 -7 82 0 198 13 220 17 28 129 45 352 53 391 15 607 65 697 162 39 42 34
48 -42 52 -65 3 -176 38 -163 51 3 3 51 17 106 30 56 13 128 36 162 49 77 31
193 109 220 146 29 40 25 47 -6 10 -36 -42 -125 -101 -204 -133 -59 -25 -263
-77 -301 -77 -18 0 -69 37 -69 49 0 4 51 20 113 35 142 34 229 75 262 124 35
51 31 64 -4 15 -18 -26 -50 -51 -83 -67 -60 -29 -279 -82 -303 -73 -30 12 -14
33 48 60 57 25 117 68 117 84 0 4 -10 -3 -23 -15 -26 -25 -129 -72 -156 -72
-43 0 -35 136 15 248 13 30 46 91 73 136 64 105 87 159 116 271 26 101 59 295
51 303 -3 3 -11 0 -18 -6 -25 -20 -163 -61 -276 -81 -127 -23 -181 -47 -255
-116 l-49 -44 -86 43 c-186 93 -296 106 -521 60 -116 -23 -127 -24 -136 -9
-70 117 -127 165 -307 257 -66 33 -140 76 -164 94 -24 19 -46 34 -49 34 -2 0
-8 -12 -11 -26z m428 -764 c57 -16 130 -70 165 -123 35 -52 70 -139 75 -183
l3 -29 -75 2 c-108 3 -224 22 -259 44 -63 38 -111 147 -111 254 0 33 4 45 18
49 24 7 139 -2 184 -14z m1027 -101 c31 -11 33 -14 27 -49 -14 -89 -82 -192
-150 -227 -54 -28 -346 1 -346 34 0 38 82 157 137 199 63 48 126 65 218 60 44
-2 95 -10 114 -17z m-589 -355 c22 -9 40 -19 40 -23 0 -4 -20 -24 -45 -44 -53
-44 -57 -71 -20 -116 75 -88 205 -43 205 72 0 20 5 37 10 37 18 0 11 -54 -12
-100 -42 -83 -140 -92 -209 -20 l-37 38 -20 -28 c-47 -63 -144 -60 -201 5 -17
20 -31 41 -31 48 0 7 -3 23 -7 36 -4 17 -3 22 5 17 7 -4 12 -19 12 -33 0 -16
14 -39 39 -64 34 -34 44 -39 86 -39 38 0 52 5 76 29 41 41 37 64 -22 123 -27
27 -49 52 -47 53 8 8 76 23 105 24 18 1 51 -6 73 -15z m-1783 -1149 c143 -45
253 -141 325 -283 41 -80 43 -89 43 -171 0 -122 -35 -194 -148 -306 -73 -72
-230 -185 -242 -173 -3 2 21 23 53 45 203 144 312 311 299 455 -11 120 -112
273 -236 356 -54 36 -161 76 -271 101 -42 10 -40 10 27 6 40 -3 107 -16 150
-30z m2772 -718 c11 -34 21 -75 23 -92 l3 -30 -90 -9 c-122 -13 -575 14 -575
33 0 8 238 88 365 122 150 41 230 56 242 47 7 -5 21 -37 32 -71z m150 26 c40
-49 59 -102 40 -114 -32 -21 -51 -4 -80 66 -34 86 -37 110 -10 95 11 -5 33
-27 50 -47z"/>
<path d="M4996 8539 c-23 -36 -35 -102 -26 -149 4 -22 10 -43 13 -46 3 -3 15
13 27 36 15 30 22 60 21 103 0 70 -12 90 -35 56z"/>
<path d="M5759 8463 c-15 -28 -19 -145 -6 -178 8 -19 9 -19 23 5 28 51 36 100
24 151 -7 27 -15 49 -19 49 -4 0 -14 -12 -22 -27z"/>
<path d="M1028 9155 c-311 -49 -560 -225 -688 -490 -57 -118 -78 -190 -87
-302 -21 -280 157 -493 412 -493 114 0 165 32 209 129 60 135 37 275 -50 300
-40 11 -89 -11 -110 -50 -8 -16 -14 -56 -14 -91 0 -79 -17 -108 -64 -108 -90
0 -188 67 -228 157 -42 94 -34 252 19 378 87 208 322 393 593 467 121 33 320
33 435 0 171 -49 277 -120 373 -249 243 -328 397 -967 442 -1828 21 -404 68
-587 183 -712 52 -57 106 -83 172 -82 l50 0 -46 13 c-133 35 -216 168 -253
403 -9 54 -23 231 -31 393 -42 794 -116 1230 -270 1591 -121 282 -309 479
-524 548 -127 41 -351 52 -523 26z"/>
<path d="M4190 8675 c-7 -9 -11 -17 -9 -20 3 -2 10 5 17 15 14 24 10 26 -8 5z"/>
<path d="M23255 8219 c-240 -35 -412 -127 -616 -329 -170 -169 -265 -344 -316
-580 -14 -66 -18 -127 -17 -275 1 -288 37 -471 214 -1090 179 -624 224 -868
223 -1215 0 -187 -16 -327 -46 -415 -16 -45 -12 -44 -139 -26 -172 24 -352
-27 -553 -157 -173 -111 -412 -339 -731 -697 -268 -300 -358 -385 -529 -498
-212 -139 -401 -207 -580 -208 -168 -1 -285 59 -371 188 -31 47 -41 76 -65
197 -42 204 -47 186 69 234 113 47 277 102 412 138 128 35 190 66 258 129 52
49 101 119 91 130 -3 2 -34 -1 -71 -7 -164 -29 -283 54 -344 239 -30 90 -25
263 9 368 44 135 74 355 62 450 l-7 56 -36 -7 c-54 -9 -172 -66 -250 -121 -37
-26 -109 -89 -160 -140 l-92 -93 -93 21 c-50 11 -140 23 -200 26 -98 5 -114 4
-192 -22 -46 -15 -139 -58 -206 -95 l-123 -68 -70 57 c-169 137 -330 221 -423
221 -29 0 -33 -3 -29 -22 3 -13 15 -70 26 -128 33 -161 70 -256 155 -404 146
-256 167 -372 85 -484 -38 -53 -83 -64 -135 -33 l-35 20 0 -25 c0 -89 91 -183
223 -233 93 -34 141 -42 311 -47 140 -5 309 -24 322 -37 14 -13 26 -151 26
-282 0 -183 -20 -314 -73 -480 -105 -329 -122 -550 -55 -747 l22 -68 -68 -217
c-37 -120 -70 -224 -73 -231 -3 -8 -41 23 -97 79 -144 144 -321 280 -503 387
l-70 41 -68 -14 c-177 -37 -263 -138 -297 -346 -17 -107 12 -202 73 -240 36
-22 84 -19 104 7 10 14 7 21 -17 44 -25 23 -30 36 -30 72 0 24 7 53 15 64 13
17 14 14 15 -39 0 -68 21 -114 57 -128 30 -11 68 8 78 41 4 11 27 30 52 42 48
22 83 67 83 106 0 30 18 28 89 -8 117 -59 262 -194 383 -357 46 -63 108 -162
108 -174 0 -11 -277 -76 -424 -99 l-129 -21 -48 54 c-149 167 -444 153 -533
-25 -21 -42 -26 -65 -25 -122 1 -68 2 -70 13 -35 13 42 50 97 42 64 -14 -60
-16 -104 -7 -128 11 -29 3 -35 -18 -15 -11 11 -11 9 -2 -9 14 -27 49 -53 72
-53 9 0 28 9 43 21 25 20 28 20 45 5 26 -24 79 -20 117 9 29 22 36 24 61 14
44 -18 211 -12 418 16 501 67 693 108 825 173 l75 37 187 335 187 334 89 23
c111 27 172 52 292 114 206 108 396 265 761 630 357 356 524 491 754 606 l90
46 53 -28 c68 -36 146 -123 172 -194 12 -30 25 -86 30 -125 29 -233 -81 -461
-434 -901 -82 -101 -340 -388 -414 -458 -39 -38 -40 -38 -69 -24 -80 42 -204
39 -297 -7 -66 -33 -142 -94 -155 -126 -22 -53 -33 -123 -29 -177 4 -48 10
-61 37 -85 36 -32 59 -35 102 -12 24 12 37 13 61 5 55 -19 113 -14 146 14 28
23 32 24 58 10 40 -20 121 -18 169 4 52 24 146 122 230 241 227 319 543 687
703 816 208 169 292 267 353 412 53 124 43 207 -45 376 -40 79 -41 81 -39 175
3 108 13 163 31 169 21 7 136 -119 207 -228 77 -117 198 -245 289 -305 229
-149 554 -185 909 -99 56 14 112 22 124 20 33 -9 110 -102 148 -180 75 -156
119 -401 120 -666 0 -169 -1 -177 -25 -225 -27 -52 -39 -59 -145 -84 -61 -15
-111 -59 -120 -107 -9 -49 5 -152 24 -175 15 -18 56 -30 154 -46 29 -4 45 -1
65 14 24 17 38 20 103 15 205 -13 289 93 289 363 0 131 -9 193 -75 545 -29
157 -56 312 -60 345 -24 222 -100 435 -208 581 -43 58 -103 114 -123 114 -5 0
-41 -13 -81 -30 -239 -100 -457 -72 -593 77 -90 99 -112 151 -233 553 -53 173
-116 365 -142 425 -105 248 -243 392 -455 478 -25 10 -46 20 -48 21 -1 2 11
43 27 92 50 150 65 255 65 474 0 345 -50 633 -199 1155 -139 489 -177 660
-195 885 -22 277 17 546 106 723 91 181 314 388 522 484 169 78 389 109 577
80 266 -42 467 -137 625 -297 239 -243 284 -571 122 -897 -91 -184 -230 -284
-397 -286 -188 -1 -315 98 -315 245 0 60 4 67 58 98 23 14 32 27 32 45 0 21
-9 30 -47 47 -39 17 -51 19 -84 9 -89 -27 -134 -165 -93 -288 25 -75 83 -144
150 -180 125 -66 271 -94 384 -73 221 40 424 247 476 485 25 116 30 297 10
395 -51 254 -276 522 -555 660 -201 100 -489 143 -726 109z m-3125 -3556 c0
-83 -69 -373 -89 -373 -4 0 -17 13 -29 29 -20 28 -150 101 -179 101 -24 0 -26
28 -4 64 35 55 141 148 216 188 39 21 73 38 78 38 4 0 7 -21 7 -47z m-1585
-247 c50 -50 102 -114 118 -142 l27 -52 -29 -31 c-17 -18 -33 -41 -36 -52 -9
-27 -18 -24 -60 18 -82 82 -140 202 -152 315 l-6 60 24 -12 c13 -7 65 -54 114
-104z m1423 -302 c19 -6 22 -13 22 -58 0 -106 -55 -194 -144 -231 l-39 -16 9
23 c4 13 8 55 8 95 1 77 -17 116 -63 139 -28 14 -17 23 54 40 56 14 118 17
153 8z m-254 -106 c30 -42 10 -128 -29 -128 -21 0 -45 40 -45 75 0 35 24 75
45 75 8 0 21 -10 29 -22z m-677 -19 c71 -30 193 -176 193 -231 0 -29 -157 -36
-257 -11 l-22 5 19 39 c27 53 26 124 -4 182 l-23 47 26 -6 c14 -4 45 -15 68
-25z m-224 -6 c-10 -17 -11 -23 -3 -15 52 46 107 -45 64 -106 -31 -44 -73 -15
-75 51 l-1 42 -13 -55 -12 -55 -21 45 c-30 64 -29 96 6 108 15 6 37 11 50 11
22 1 22 0 5 -26z m816 -55 c0 -57 13 -103 38 -131 9 -9 14 -19 12 -21 -10 -8
-129 -15 -133 -7 -11 17 61 211 78 211 3 0 5 -24 5 -52z m-171 -221 c22 -13
22 -13 -23 -57 -49 -48 -54 -64 -27 -96 23 -30 58 -46 97 -46 45 0 72 17 94
60 11 20 20 30 21 22 0 -8 -9 -29 -19 -46 -39 -64 -138 -67 -197 -6 -21 21
-27 24 -32 12 -3 -8 -18 -27 -33 -42 -53 -53 -151 -30 -148 35 2 30 2 30 6 5
9 -61 86 -77 134 -29 39 39 37 69 -6 111 -19 19 -35 40 -35 47 0 35 119 57
168 30z m530 -4 c-2 -10 -10 -18 -18 -18 -8 0 -16 8 -18 18 -2 12 3 17 18 17
15 0 20 -5 18 -17z m-193 -33 c-5 -8 -11 -8 -17 -2 -6 6 -7 16 -3 22 5 8 11 8
17 2 6 -6 7 -16 3 -22z m-744 -43 c-1 -12 -15 -9 -19 4 -3 6 1 10 8 8 6 -3 11
-8 11 -12z m-151 -38 c0 -5 -7 -9 -15 -9 -15 0 -20 12 -9 23 8 8 24 -1 24 -14z
m991 -42 c-5 -5 -17 -7 -26 -3 -14 5 -15 9 -5 21 10 12 16 13 27 4 9 -8 10
-16 4 -22z m-867 -62 c3 -9 -1 -18 -10 -22 -19 -7 -28 2 -21 22 8 19 23 19 31
0z m3464 -443 c51 -25 84 -57 158 -156 24 -33 25 -37 8 -28 -11 6 -26 18 -33
26 -25 30 -107 75 -163 90 -43 11 -73 12 -120 6 -67 -10 -239 -60 -350 -103
-38 -14 -68 -24 -68 -21 0 11 205 138 275 170 128 59 195 63 293 16z m-2774
-1214 c-12 -84 -36 -164 -74 -244 -20 -45 -42 -84 -48 -88 -8 -5 74 260 113
362 10 26 15 10 9 -30z m506 -69 c-28 -82 -51 -127 -115 -224 -74 -112 -109
-142 -58 -50 21 39 72 132 113 207 41 75 76 135 78 134 2 -2 -7 -32 -18 -67z
m-766 -339 c32 -17 65 -30 72 -30 8 0 14 -5 14 -11 0 -10 -187 -379 -236 -465
-17 -30 -35 -46 -65 -58 -23 -9 -44 -15 -46 -12 -3 2 25 89 60 193 36 103 82
239 103 301 21 61 38 112 38 112 1 0 28 -14 60 -30z m-1147 -85 c0 -34 6 -64
17 -80 20 -31 10 -33 -21 -3 -17 16 -23 32 -23 64 0 23 3 49 6 58 12 32 21 15
21 -39z m-212 -125 c9 -29 29 -60 46 -75 27 -22 28 -25 10 -25 -11 0 -32 10
-47 23 -21 18 -28 35 -32 75 -2 29 -2 52 1 52 3 0 13 -22 22 -50z m6293 -277
c-7 -36 -7 -61 0 -82 14 -40 -3 -40 -23 0 -18 34 -13 78 12 117 20 33 23 25
11 -35z m-114 -12 c-4 -37 -2 -66 5 -80 13 -23 0 -29 -18 -8 -20 25 -23 72 -7
110 8 20 18 37 21 37 3 0 3 -26 -1 -59z m-117 -3 c-7 -36 -7 -60 1 -81 14 -37
10 -44 -12 -22 -26 26 -30 62 -11 110 23 61 34 57 22 -7z m-3055 -80 c-9 -44
-8 -87 2 -118 9 -25 8 -25 -12 -6 -30 26 -36 66 -16 115 19 49 36 55 26 9z
m-138 -51 c-4 -41 -2 -71 5 -85 16 -29 -3 -29 -23 0 -20 29 -20 71 0 114 9 19
18 34 20 34 3 0 2 -29 -2 -63z m-136 1 c-9 -43 -8 -75 6 -113 6 -15 2 -13 -18
8 -30 33 -32 52 -10 107 21 53 34 51 22 -2z m-2628 -186 c-6 -35 -6 -61 1 -78
12 -34 2 -45 -17 -20 -19 26 -18 90 2 127 21 42 26 32 14 -29z m-135 -29 c-4
-34 -2 -70 4 -85 6 -17 7 -28 1 -28 -13 0 -40 54 -40 80 0 22 28 90 37 90 2 0
1 -26 -2 -57z"/>
<path d="M33219 6845 c-268 -55 -492 -268 -560 -532 -22 -88 -27 -256 -10
-335 63 -279 287 -506 556 -563 332 -70 665 87 815 385 55 109 75 193 75 325
0 141 -16 212 -75 330 -91 185 -262 325 -465 381 -81 22 -253 27 -336 9z"/>
<path d="M7945 6609 c-365 -53 -625 -354 -625 -724 0 -343 226 -632 557 -711
90 -22 258 -22 343 -1 219 56 416 224 502 428 186 442 -100 942 -576 1008 -87
12 -115 12 -201 0z"/>
<path d="M10436 6487 c-34 -34 -118 -127 -188 -207 -69 -80 -251 -269 -404
-420 -152 -151 -287 -289 -300 -306 -27 -35 -31 -85 -9 -104 21 -17 52 -4 184
79 131 81 178 98 218 79 15 -7 30 -24 34 -38 4 -14 7 -1069 8 -2346 l1 -2320
-28 -45 c-16 -24 -74 -82 -129 -127 -105 -87 -139 -132 -122 -164 14 -26 49
-31 157 -24 290 18 425 19 642 1 263 -21 300 -17 300 38 0 40 -24 69 -144 168
-49 40 -100 91 -115 113 l-26 40 0 865 0 866 40 3 c55 5 174 -15 270 -45 229
-72 449 -233 699 -512 192 -214 254 -311 468 -736 239 -477 319 -605 451 -732
134 -128 262 -183 429 -183 116 0 179 24 257 96 76 70 104 132 104 230 -1 165
-94 264 -248 264 -146 0 -215 -72 -215 -224 0 -84 -16 -111 -62 -110 -48 1
-83 29 -112 89 -29 59 -38 108 -66 360 -54 486 -153 765 -375 1051 -227 290
-622 511 -1125 629 -152 35 -150 35 -120 48 368 154 914 472 1187 691 371 299
554 625 556 991 1 179 -40 307 -139 436 -166 215 -442 279 -683 157 -216 -110
-328 -380 -237 -574 31 -66 95 -136 146 -159 42 -19 43 -19 56 0 8 10 14 37
14 60 0 63 36 125 94 160 43 26 58 30 120 29 79 0 115 -15 165 -65 54 -54 74
-104 79 -200 10 -191 -60 -351 -227 -523 -242 -249 -558 -471 -976 -687 -163
-84 -470 -221 -527 -235 l-28 -6 0 1398 c0 1391 7 1742 35 1987 18 156 19 199
3 215 -24 24 -52 11 -112 -51z"/>
<path d="M8125 4602 c-169 -123 -345 -235 -524 -333 -147 -80 -221 -133 -221
-158 0 -25 42 -50 133 -80 111 -37 147 -67 174 -145 17 -48 18 -138 18 -1517
l0 -1466 -27 -39 c-15 -22 -73 -78 -127 -124 -108 -91 -143 -138 -125 -168 21
-33 57 -36 267 -22 125 8 261 10 353 6 422 -18 440 -19 462 -7 45 24 16 88
-66 151 -83 63 -163 143 -183 181 -19 37 -19 75 -19 1566 0 877 5 1605 10
1708 10 177 32 386 49 455 11 47 -2 80 -31 80 -13 0 -76 -39 -143 -88z"/>
<path d="M33580 4583 c-167 -121 -342 -231 -520 -328 -171 -92 -192 -109 -188
-148 3 -31 6 -33 118 -73 109 -39 117 -44 147 -87 17 -26 36 -69 42 -97 8 -35
11 -493 11 -1494 l0 -1442 -28 -45 c-16 -25 -71 -80 -123 -124 -105 -87 -125
-110 -134 -147 -5 -21 -2 -30 20 -44 23 -15 41 -16 168 -8 179 11 470 11 697
0 199 -10 220 -6 220 45 0 33 -18 52 -169 181 -43 36 -84 82 -98 107 l-23 44
0 1441 c1 1687 9 2015 60 2243 12 52 0 83 -33 82 -12 0 -87 -48 -167 -106z"/>
<path d="M14760 4609 c-317 -41 -586 -155 -742 -316 -120 -124 -163 -232 -162
-408 2 -184 45 -303 151 -415 117 -124 253 -177 433 -167 149 8 261 58 367
163 95 96 138 263 98 383 -22 68 -108 161 -180 196 -57 28 -158 44 -169 27 -3
-6 5 -54 19 -107 30 -115 30 -137 6 -190 -35 -77 -102 -115 -199 -115 -152 0
-249 130 -240 323 6 140 66 237 204 327 218 143 562 168 870 65 274 -92 583
-324 820 -615 143 -176 304 -437 386 -625 45 -104 87 -250 75 -262 -3 -3 -30
18 -59 47 -150 145 -433 283 -702 342 -89 20 -130 22 -336 22 -217 0 -245 -2
-361 -27 -357 -76 -621 -218 -875 -471 -218 -218 -339 -444 -390 -724 -21
-117 -21 -377 0 -504 45 -276 158 -492 365 -698 280 -279 604 -421 1026 -450
356 -24 670 60 975 260 224 148 400 327 508 519 l37 66 6 -45 c4 -25 10 -126
14 -225 8 -202 3 -230 -62 -337 -56 -93 -33 -116 100 -104 194 17 292 18 455
6 124 -10 179 -10 191 -3 27 18 14 63 -43 148 -72 106 -102 173 -126 281 -22
105 -69 431 -105 739 -63 540 -114 843 -190 1130 -202 767 -596 1300 -1182
1597 -167 85 -316 135 -483 163 -103 16 -386 19 -500 4z m1021 -1648 c261 -56
466 -161 622 -318 86 -87 130 -148 178 -248 70 -145 83 -212 83 -435 0 -179
-3 -203 -26 -292 -97 -357 -350 -623 -708 -742 -147 -48 -277 -68 -450 -69
-228 -1 -378 31 -555 120 -120 60 -202 119 -308 222 -244 237 -350 532 -315
876 45 435 420 808 904 900 116 22 445 14 575 -14z"/>
<path d="M31260 4605 c-337 -62 -669 -288 -875 -595 -35 -52 -76 -121 -91
-152 -16 -32 -31 -58 -35 -58 -3 0 -9 17 -13 38 -10 61 -68 193 -119 269 -90
136 -222 266 -403 398 -127 93 -145 98 -184 54 -109 -128 -157 -179 -252 -269
-75 -71 -108 -109 -108 -124 0 -19 21 -33 126 -84 244 -120 335 -196 404 -335
81 -163 74 -35 77 -1511 l3 -1318 -24 -43 c-15 -24 -71 -81 -131 -131 -105
-88 -142 -137 -130 -174 10 -30 62 -34 265 -20 177 12 260 12 651 -6 160 -7
189 -1 189 41 0 41 -10 54 -114 141 -115 98 -148 134 -164 183 -9 25 -12 363
-12 1301 l0 1266 46 95 c131 269 357 516 587 639 100 53 195 80 307 86 172 10
329 -35 411 -117 63 -63 74 -92 74 -194 0 -106 -17 -147 -88 -212 -49 -45 -90
-61 -182 -70 -92 -9 -105 -29 -60 -95 62 -92 308 -152 485 -118 124 24 249
116 308 228 67 127 86 331 43 463 -66 206 -266 368 -518 419 -120 24 -353 26
-473 5z"/>
<path d="M26890 4244 c-14 -2 -65 -9 -115 -15 -127 -16 -297 -61 -428 -115
-904 -370 -1353 -1376 -1025 -2294 99 -277 285 -552 502 -742 671 -588 1661
-609 2347 -51 101 81 266 257 341 363 136 191 249 458 300 710 20 101 23 143
23 340 -1 205 -3 236 -28 351 -77 365 -237 660 -496 919 -165 165 -278 246
-476 345 -221 110 -395 160 -634 184 -98 10 -256 13 -311 5z"/>
</g>
</svg>
