<?xml version="1.0" encoding="UTF-8"?> <svg xmlns="http://www.w3.org/2000/svg" width="360" height="72" viewBox="0 0 360 72" fill="none"> <path fill-rule="evenodd" clip-rule="evenodd" d="M91.0165 4.71911L92.5939 4.12451C92.9317 3.98964 93.0621 3.96981 93.136 4.03869C93.2079 4.10594 93.2131 4.16572 93.1935 4.25024L93.1538 4.38964C92.7636 5.71315 92.245 6.76037 91.569 7.5913C90.4237 8.99863 89.0993 9.76761 87.5311 9.93176L87.1339 9.9602C87.0748 9.96359 87.0261 9.98097 87.0074 9.99499C86.7608 10.1811 86.5807 10.3283 86.4211 10.4747C85.9157 10.9397 85.4187 11.4335 84.9328 11.9558C85.6559 11.5026 86.5404 11.2976 87.5353 11.3498C87.8986 11.3681 88.2603 11.4099 88.616 11.4585L89.9618 11.6551L90.6003 11.7644C90.7222 11.7857 91.011 11.8519 91.0775 11.9938C91.101 12.0419 91.0991 12.0948 91.073 12.1429L90.9969 12.2609C90.133 13.3879 89.1475 14.131 87.9845 14.5315C86.7084 14.9724 85.5227 14.9819 84.4505 14.5625L84.0973 14.4069C83.9143 14.3058 83.6987 14.2548 83.4519 14.2548C83.3127 14.2548 83.1994 14.2718 83.1352 14.2838L83.0882 14.2932C83.0112 14.3067 82.9166 14.3455 82.8978 14.3711C82.1699 15.335 81.4789 16.3629 80.8336 17.4442C81.3786 16.9106 82.0895 16.5508 83.0582 16.3166C83.7372 16.1537 84.4281 16.0933 85.1071 16.0538L86.29 15.9901L87.1339 15.9373C87.2061 15.9373 87.2614 15.9652 87.2952 16.0138C87.3327 16.0638 87.3421 16.1309 87.3197 16.1913L87.2725 16.3118C87.2644 16.3308 87.2569 16.347 87.2513 16.3566C86.3668 17.8471 85.3277 18.8781 84.0747 19.5079C82.8508 20.124 81.7442 20.2877 80.6293 20.0184C80.4996 19.9865 80.3496 19.9706 80.1959 19.9706C79.7213 19.9706 79.3892 20.1159 79.3189 20.2539C78.7067 21.5264 78.1588 22.8511 77.6863 24.2019C78.1814 23.5136 78.8755 22.9545 79.7523 22.5376C80.3331 22.2613 80.9302 22.0009 81.5238 21.7494L83.5787 20.8873C83.631 20.8636 83.7014 20.8683 83.754 20.9033C83.8065 20.9384 83.8375 20.9969 83.8375 21.0599L83.8065 21.1738C83.6014 21.8097 82.3967 24.8657 80.7155 26.1403C79.9604 26.7123 79.032 27.3007 77.8596 27.329C77.5673 27.3342 77.2667 27.3698 77.0155 27.5642L76.8008 27.7649L76.7156 27.8082C76.6208 27.8396 76.5956 27.8974 76.5486 28.0936C76.1697 29.6977 75.8931 31.351 75.7234 33.0303C75.775 32.8596 75.8341 32.6874 75.9025 32.5129C76.3171 31.4565 77.0129 30.5321 78.0952 29.6033L78.9456 28.8937L80.7623 27.4307L80.9207 27.2938C80.9781 27.2457 81.0605 27.2354 81.1253 27.2686C81.1927 27.3026 81.2331 27.3734 81.2276 27.4489L81.204 27.8208C81.1918 28.0332 81.1795 28.2333 81.1582 28.4315C80.9584 30.3556 80.3899 31.9617 79.4212 33.3418C78.881 34.1101 78.1304 35.0312 77.0073 35.5678L76.6189 35.7316C76.2926 35.8524 76.0554 36.0344 75.8021 36.3622C75.563 36.6699 75.5179 36.9505 75.5236 37.3033C75.5462 38.783 75.6511 40.249 75.836 41.6857C75.8789 41.2866 75.9699 40.8748 76.1106 40.447C76.4014 39.5617 76.8544 38.7007 77.4959 37.8152L78.3376 36.6658L79.8781 34.6024C79.903 34.5644 79.9372 34.5425 79.9685 34.5281L80.012 34.5109C80.0504 34.492 80.1124 34.4881 80.1621 34.5079C80.1952 34.5229 80.2233 34.5465 80.2434 34.5759L80.2852 34.6824L80.2934 34.7184C80.678 37.0249 80.4425 39.0906 79.5731 41.0355C79.2022 41.8673 78.7199 42.7955 77.933 43.5338L77.5766 43.8378C77.1188 44.1909 76.757 44.6871 76.5579 45.234C76.5159 45.3517 76.5176 45.4029 76.5224 45.4227C76.9473 47.1936 77.5015 48.902 78.1768 50.5179C78.0023 49.6657 78.0145 48.7716 78.2123 47.8433C78.3999 46.9677 78.6776 46.11 78.9696 45.3124L79.4089 44.1663L80.1546 42.2788C80.1808 42.2109 80.2456 42.1648 80.3188 42.1609C80.3675 42.159 80.4146 42.1763 80.45 42.2069L80.4931 42.262L80.6432 42.5536C81.5106 44.5248 81.8033 46.5454 81.5135 48.5592C81.3063 49.9987 80.9546 51.0298 80.3741 51.9021C80.073 52.3536 79.788 52.8557 79.7354 53.473C79.7232 53.6192 79.729 53.7203 79.7935 53.8356C80.3795 54.8683 81.0225 55.8549 81.7168 56.7876L82.2417 57.4683C81.5896 56.2688 81.5707 54.981 81.6364 53.8794C81.6745 53.2491 81.7347 52.6199 81.8015 52L82.1363 49.0189C82.1437 48.9556 82.1812 48.9007 82.2386 48.8727C82.2563 48.8633 82.2796 48.8574 82.306 48.8574C82.4119 48.8574 82.5396 48.9445 82.683 49.1154C83.9105 50.5766 84.6721 52.2289 84.947 54.0247C85.2319 55.8864 85.0773 57.48 84.4742 58.8959L84.4626 58.9438L84.4584 59.0394L84.491 59.8552C84.4958 59.9103 84.5259 59.9761 84.552 60.001C85.7769 61.1896 87.1264 62.2221 88.5753 63.0825C87.8899 62.4585 87.3965 61.6445 87.0777 60.6136C86.794 59.6987 86.6208 58.7545 86.4731 57.8242L86.2546 56.4154L86.0809 55.3341C86.0705 55.2652 86.0967 55.1973 86.1512 55.1558C86.1843 55.1285 86.2287 55.1148 86.2726 55.1166L86.3368 55.1311L86.4023 55.1577C86.4717 55.187 86.5327 55.2123 86.5911 55.2426C89.3285 56.619 91.1301 59.8291 90.8759 62.8754C90.8355 63.3525 90.8787 63.8006 91.0091 64.2454C91.0213 64.285 91.0598 64.3297 91.0746 64.3359C92.3754 64.8882 93.6116 65.2914 94.855 65.5674C94.9198 65.5824 94.9705 65.6288 94.9902 65.6902C95.0108 65.7525 94.9986 65.8205 94.9563 65.8705C94.8204 66.0319 94.7033 66.2057 94.6065 66.387C94.5739 66.4481 94.511 66.4861 94.4426 66.4861L94.3994 66.481C93.6397 66.306 92.8948 66.0929 92.1762 65.8447L91.4667 65.585C91.3899 65.5538 91.3289 65.541 91.2792 65.5485C91.1404 65.5673 90.9966 65.5926 90.8439 65.6255L90.6077 65.6807C90.557 65.6928 90.5167 65.7163 90.5073 65.7257C89.983 66.7821 89.0678 67.4632 87.7173 67.7936C87.4227 67.8654 87.12 67.9173 86.816 67.949C86.4981 67.9833 86.1435 68 85.7618 68L85.0463 67.9802C84.9252 67.9734 84.854 67.9674 84.854 67.9674C83.6817 67.8362 82.682 67.5708 81.7958 67.156C81.4328 66.9863 81.0185 66.758 80.7003 66.3507C80.6394 66.2726 80.6497 66.159 80.7239 66.0942C81.6232 65.2954 82.5396 64.7149 83.5242 64.3192C84.9835 63.7348 86.3133 63.5773 87.616 63.8291C87.8112 63.868 88.0016 63.9151 88.1862 63.9707C86.967 63.2369 85.8005 62.3753 84.6985 61.3931C84.6769 61.3732 84.6421 61.3566 84.613 61.3511L84.1888 61.2898C84.1093 61.2805 84.0266 61.2722 83.9424 61.266L83.8908 61.2826C83.304 61.9441 82.5631 62.3046 81.6357 62.3766L81.2792 62.39L81.1111 62.3877C79.9191 62.3488 78.7216 62.0191 77.5492 61.4076C76.6976 60.96 75.8105 60.4396 75.0903 59.6626L74.8638 59.3923L74.4797 58.8771C74.4488 58.8365 74.4358 58.7838 74.4432 58.733C74.4526 58.6811 74.4826 58.6344 74.5249 58.6061L74.8527 58.4415C74.9397 58.4007 75.0352 58.3582 75.1277 58.3219C76.9913 57.5968 78.8726 57.5226 80.6677 58.1051C81.1373 58.2567 81.5854 58.4703 82.0214 58.7512L82.344 58.972L81.7577 58.2622C81.1782 57.5365 80.6262 56.7717 80.104 55.9709L79.5919 55.1583C79.5825 55.1433 79.559 55.1045 79.5479 55.0953L79.1254 54.8398L78.9251 54.7035C78.8428 54.6417 78.8054 54.6253 78.7447 54.6512L78.6738 54.6912C78.5163 54.7941 78.3343 54.8469 78.1758 54.8882C77.2426 55.1292 76.3049 55.0091 75.2658 54.5184C74.3167 54.0708 73.5869 53.3628 72.9398 52.665C71.9982 51.6463 71.3831 50.7276 71.0043 49.7732L70.899 49.4697L70.7323 48.8783C70.7105 48.8069 70.7335 48.7316 70.7863 48.6844L70.8484 48.6479L70.8785 48.6423L71.2355 48.6499C72.206 48.692 75.0045 48.9622 76.738 50.6552C77.1742 51.0808 77.5653 51.533 77.9216 52.0284C77.2876 50.6767 76.7305 49.2668 76.256 47.8108L75.896 46.6453L75.8847 46.6172L75.3623 45.8955C75.3485 45.8742 75.3426 45.8671 75.3311 45.8647L74.752 45.8883C74.5834 45.8897 74.4554 45.8813 74.3429 45.8636C73.5965 45.7445 72.923 45.3672 72.2834 44.7069C70.7894 43.1644 69.7606 41.2396 69.1388 38.8226C69.0945 38.6499 69.0714 38.4761 69.0551 38.2976L69.001 37.6366C68.9945 37.5735 69.0197 37.5122 69.0675 37.4713C69.1162 37.4319 69.1839 37.4177 69.243 37.4375L69.4557 37.5017C69.5983 37.5433 69.7213 37.5791 69.8432 37.6291C71.7694 38.3997 73.2868 39.7195 74.4807 41.6649C74.7753 42.1459 75.0041 42.6452 75.1861 43.1438C74.9208 41.6541 74.8365 40.9723 74.7836 39.5217L74.7633 38.8199L74.763 38.7008C74.763 38.4845 74.763 38.2798 74.7162 38.0918C74.678 37.9445 74.6149 37.7968 74.5445 37.6514L74.3448 37.254L74.2987 37.2318C73.7492 37.1467 73.2615 36.9116 72.8104 36.5123C72.3547 36.107 71.9804 35.6115 71.6971 35.0392C70.6806 32.986 70.1714 30.7172 70.1846 28.2964L70.203 27.9484L70.2821 27.2467C70.2886 27.1824 70.328 27.125 70.3853 27.0977C70.4406 27.0703 70.5109 27.0727 70.5644 27.1051L70.7848 27.2429C71.6522 27.8699 72.4174 28.6489 73.0589 29.5591C73.9902 30.8816 74.5746 32.3578 74.8081 33.9691L74.878 34.574L74.9347 33.8856C74.9983 33.0776 75.0651 32.2411 75.1193 31.4186L75.1552 31.1141L75.2093 30.8182C75.2855 30.4342 75.3558 30.0781 75.2432 29.7052L75.1748 29.4521C75.131 29.2767 74.946 29.0233 74.658 28.7394L74.4091 28.5092C74.191 28.3098 73.533 27.6294 73.1463 26.3859C72.824 25.3519 72.7619 24.2831 72.761 23.3696L72.7739 22.4863C72.8049 21.0408 72.9605 19.9507 73.2764 18.9537L73.4997 18.3519C73.5148 18.3107 73.5443 18.2768 73.5818 18.2554L73.6433 18.2333L73.6743 18.2303C73.7117 18.2303 73.7476 18.2418 73.7778 18.2624L73.8185 18.3003L74.1263 18.677C75.6005 20.4866 76.3246 22.6104 76.2794 24.9874C76.271 25.4058 76.24 25.8351 76.1848 26.2791C76.5598 24.9763 76.9997 23.7091 77.4995 22.4885L77.5119 22.4468L77.5166 22.4025L77.5202 22.2364C77.5259 21.9957 77.5305 21.7461 77.5211 21.502C77.5192 21.4613 77.493 21.3883 77.4385 21.3168L77.3183 21.1644L77.1929 21.0154C77.0364 20.8315 76.8806 20.6492 76.756 20.4397C76.3582 19.7685 76.1707 18.9745 76.1678 17.9425C76.1623 16.7285 76.3488 15.4492 76.7541 13.9178C76.9764 13.0823 77.3101 11.9981 77.9338 11.0146L78.1439 10.7268C78.1795 10.6782 78.2339 10.6501 78.2911 10.6501C78.3698 10.655 78.4262 10.6907 78.4572 10.7466C79.2392 12.1672 79.6286 13.6856 79.6473 15.3878C79.6632 16.8066 79.4428 18.0283 79.1671 18.9934C79.6938 18.024 80.2644 17.0796 80.8737 16.1686L81.5369 15.2123L81.6269 14.5358L81.6545 14.2435L81.5242 14.021L81.4328 13.8799C81.2989 13.674 81.1637 13.4674 81.0775 13.2358C80.8168 12.5364 80.7577 11.7436 80.8984 10.8126C81.2079 8.75171 82.1099 6.89553 83.6575 5.13842L83.9076 4.87963L84.4536 4.37658C84.5004 4.33139 84.5717 4.31403 84.6356 4.33313C84.6781 4.34682 84.7136 4.37456 84.7372 4.41088L84.7631 4.47107L84.8512 4.87622C85.0596 6.12673 85.0435 7.46764 84.8044 8.97363C84.5662 10.4668 84.0925 11.7547 83.3658 12.8733C84.4555 11.58 85.5172 10.4935 86.6285 9.52868L86.6369 9.49755C86.5507 8.74952 86.7344 8.04157 87.2006 7.33728C87.8119 6.41111 88.6618 5.70584 89.7251 5.23938C90.1498 5.0544 90.5847 4.88318 91.0165 4.71911Z" fill="black"></path> <path fill-rule="evenodd" clip-rule="evenodd" d="M267.984 4.71911L266.406 4.12451C266.068 3.98964 265.938 3.96981 265.864 4.03869C265.792 4.10594 265.787 4.16572 265.807 4.25024L265.846 4.38964C266.236 5.71315 266.755 6.76037 267.431 7.5913C268.576 8.99863 269.901 9.76761 271.469 9.93176L271.866 9.9602C271.925 9.96359 271.974 9.98097 271.993 9.99499C272.239 10.1811 272.419 10.3283 272.579 10.4747C273.084 10.9397 273.581 11.4335 274.067 11.9558C273.344 11.5026 272.46 11.2976 271.465 11.3498C271.101 11.3681 270.74 11.4099 270.384 11.4585L269.038 11.6551L268.4 11.7644C268.278 11.7857 267.989 11.8519 267.922 11.9938C267.899 12.0419 267.901 12.0948 267.927 12.1429L268.003 12.2609C268.867 13.3879 269.853 14.131 271.016 14.5315C272.292 14.9724 273.477 14.9819 274.55 14.5625L274.903 14.4069C275.086 14.3058 275.301 14.2548 275.548 14.2548C275.687 14.2548 275.801 14.2718 275.865 14.2838L275.912 14.2932C275.989 14.3067 276.083 14.3455 276.102 14.3711C276.83 15.335 277.521 16.3629 278.166 17.4442C277.621 16.9106 276.911 16.5508 275.942 16.3166C275.263 16.1537 274.572 16.0933 273.893 16.0538L272.71 15.9901L271.866 15.9373C271.794 15.9373 271.739 15.9652 271.705 16.0138C271.667 16.0638 271.658 16.1309 271.68 16.1913L271.728 16.3118C271.736 16.3308 271.743 16.347 271.749 16.3566C272.633 17.8471 273.672 18.8781 274.925 19.5079C276.149 20.124 277.256 20.2877 278.371 20.0184C278.5 19.9865 278.65 19.9706 278.804 19.9706C279.279 19.9706 279.611 20.1159 279.681 20.2539C280.293 21.5264 280.841 22.8511 281.314 24.2019C280.819 23.5136 280.125 22.9545 279.248 22.5376C278.667 22.2613 278.07 22.0009 277.476 21.7494L275.421 20.8873C275.369 20.8636 275.299 20.8683 275.246 20.9033C275.193 20.9384 275.162 20.9969 275.162 21.0599L275.194 21.1738C275.399 21.8097 276.603 24.8657 278.285 26.1403C279.04 26.7123 279.968 27.3007 281.14 27.329C281.433 27.3342 281.733 27.3698 281.984 27.5642L282.199 27.7649L282.284 27.8082C282.379 27.8396 282.404 27.8974 282.451 28.0936C282.83 29.6977 283.107 31.351 283.277 33.0303C283.225 32.8596 283.166 32.6874 283.098 32.5129C282.683 31.4565 281.987 30.5321 280.905 29.6033L280.054 28.8937L278.238 27.4307L278.079 27.2938C278.022 27.2457 277.94 27.2354 277.875 27.2686C277.807 27.3026 277.767 27.3734 277.772 27.4489L277.796 27.8208C277.808 28.0332 277.82 28.2333 277.842 28.4315C278.042 30.3556 278.61 31.9617 279.579 33.3418C280.119 34.1101 280.87 35.0312 281.993 35.5678L282.381 35.7316C282.707 35.8524 282.945 36.0344 283.198 36.3622C283.437 36.6699 283.482 36.9505 283.476 37.3033C283.454 38.783 283.349 40.249 283.164 41.6857C283.121 41.2866 283.03 40.8748 282.889 40.447C282.599 39.5617 282.146 38.7007 281.504 37.8152L280.662 36.6658L279.122 34.6024C279.097 34.5644 279.063 34.5425 279.031 34.5281L278.988 34.5109C278.95 34.492 278.888 34.4881 278.838 34.5079C278.805 34.5229 278.777 34.5465 278.757 34.5759L278.715 34.6824L278.707 34.7184C278.322 37.0249 278.558 39.0906 279.427 41.0355C279.798 41.8673 280.28 42.7955 281.067 43.5338L281.423 43.8378C281.881 44.1909 282.243 44.6871 282.442 45.234C282.484 45.3517 282.482 45.4029 282.478 45.4227C282.053 47.1936 281.499 48.902 280.823 50.5179C280.998 49.6657 280.985 48.7716 280.788 47.8433C280.6 46.9677 280.322 46.11 280.03 45.3124L279.591 44.1663L278.845 42.2788C278.819 42.2109 278.754 42.1648 278.681 42.1609C278.632 42.159 278.585 42.1763 278.55 42.2069L278.507 42.262L278.357 42.5536C277.489 44.5248 277.197 46.5454 277.486 48.5592C277.694 49.9987 278.045 51.0298 278.626 51.9021C278.927 52.3536 279.212 52.8557 279.265 53.473C279.277 53.6192 279.271 53.7203 279.206 53.8356C278.62 54.8683 277.977 55.8549 277.283 56.7876L276.758 57.4683C277.41 56.2688 277.429 54.981 277.364 53.8794C277.325 53.2491 277.265 52.6199 277.199 52L276.864 49.0189C276.856 48.9556 276.819 48.9007 276.761 48.8727C276.744 48.8633 276.72 48.8574 276.694 48.8574C276.588 48.8574 276.46 48.9445 276.317 49.1154C275.089 50.5766 274.328 52.2289 274.053 54.0247C273.768 55.8864 273.923 57.48 274.526 58.8959L274.537 58.9438L274.542 59.0394L274.509 59.8552C274.504 59.9103 274.474 59.9761 274.448 60.001C273.223 61.1896 271.874 62.2221 270.425 63.0825C271.11 62.4585 271.603 61.6445 271.922 60.6136C272.206 59.6987 272.379 58.7545 272.527 57.8242L272.745 56.4154L272.919 55.3341C272.929 55.2652 272.903 55.1973 272.849 55.1558C272.816 55.1285 272.771 55.1148 272.727 55.1166L272.663 55.1311L272.598 55.1577C272.528 55.187 272.467 55.2123 272.409 55.2426C269.671 56.619 267.87 59.8291 268.124 62.8754C268.164 63.3525 268.121 63.8006 267.991 64.2454C267.979 64.285 267.94 64.3297 267.925 64.3359C266.625 64.8882 265.388 65.2914 264.145 65.5674C264.08 65.5824 264.03 65.6288 264.01 65.6902C263.989 65.7525 264.001 65.8205 264.044 65.8705C264.18 66.0319 264.297 66.2057 264.393 66.387C264.426 66.4481 264.489 66.4861 264.557 66.4861L264.601 66.481C265.36 66.306 266.105 66.0929 266.824 65.8447L267.533 65.585C267.61 65.5538 267.671 65.541 267.721 65.5485C267.86 65.5673 268.003 65.5926 268.156 65.6255L268.392 65.6807C268.443 65.6928 268.483 65.7163 268.493 65.7257C269.017 66.7821 269.932 67.4632 271.283 67.7936C271.577 67.8654 271.88 67.9173 272.184 67.949C272.502 67.9833 272.856 68 273.238 68L273.954 67.9802C274.075 67.9734 274.146 67.9674 274.146 67.9674C275.318 67.8362 276.318 67.5708 277.204 67.156C277.567 66.9863 277.982 66.758 278.3 66.3507C278.361 66.2726 278.35 66.159 278.276 66.0942C277.377 65.2954 276.46 64.7149 275.476 64.3192C274.017 63.7348 272.687 63.5773 271.384 63.8291C271.189 63.868 270.998 63.9151 270.814 63.9707C272.033 63.2369 273.2 62.3753 274.302 61.3931C274.323 61.3732 274.358 61.3566 274.387 61.3511L274.811 61.2898C274.891 61.2805 274.973 61.2722 275.058 61.266L275.109 61.2826C275.696 61.9441 276.437 62.3046 277.364 62.3766L277.721 62.39L277.889 62.3877C279.081 62.3488 280.278 62.0191 281.451 61.4076C282.302 60.96 283.189 60.4396 283.91 59.6626L284.136 59.3923L284.52 58.8771C284.551 58.8365 284.564 58.7838 284.557 58.733C284.547 58.6811 284.517 58.6344 284.475 58.6061L284.147 58.4415C284.06 58.4007 283.965 58.3582 283.872 58.3219C282.009 57.5968 280.127 57.5226 278.332 58.1051C277.863 58.2567 277.415 58.4703 276.979 58.7512L276.656 58.972L277.242 58.2622C277.822 57.5365 278.374 56.7717 278.896 55.9709L279.408 55.1583C279.418 55.1433 279.441 55.1045 279.452 55.0953L279.875 54.8398L280.075 54.7035C280.157 54.6417 280.195 54.6253 280.255 54.6512L280.326 54.6912C280.484 54.7941 280.666 54.8469 280.824 54.8882C281.757 55.1292 282.695 55.0091 283.734 54.5184C284.683 54.0708 285.413 53.3628 286.06 52.665C287.002 51.6463 287.617 50.7276 287.996 49.7732L288.101 49.4697L288.268 48.8783C288.29 48.8069 288.266 48.7316 288.214 48.6844L288.152 48.6479L288.122 48.6423L287.764 48.6499C286.794 48.692 283.995 48.9622 282.262 50.6552C281.826 51.0808 281.435 51.533 281.078 52.0284C281.712 50.6767 282.269 49.2668 282.744 47.8108L283.104 46.6453L283.115 46.6172L283.638 45.8955C283.651 45.8742 283.657 45.8671 283.669 45.8647L284.248 45.8883C284.417 45.8897 284.545 45.8813 284.657 45.8636C285.404 45.7445 286.077 45.3672 286.717 44.7069C288.211 43.1644 289.239 41.2396 289.861 38.8226C289.906 38.6499 289.929 38.4761 289.945 38.2976L289.999 37.6366C290.005 37.5735 289.98 37.5122 289.932 37.4713C289.884 37.4319 289.816 37.4177 289.757 37.4375L289.544 37.5017C289.402 37.5433 289.279 37.5791 289.157 37.6291C287.231 38.3997 285.713 39.7195 284.519 41.6649C284.225 42.1459 283.996 42.6452 283.814 43.1438C284.079 41.6541 284.163 40.9723 284.216 39.5217L284.237 38.8199L284.237 38.7008C284.237 38.4845 284.237 38.2798 284.284 38.0918C284.322 37.9445 284.385 37.7968 284.455 37.6514L284.655 37.254L284.701 37.2318C285.251 37.1467 285.738 36.9116 286.19 36.5123C286.645 36.107 287.02 35.6115 287.303 35.0392C288.319 32.986 288.829 30.7172 288.815 28.2964L288.797 27.9484L288.718 27.2467C288.711 27.1824 288.672 27.125 288.615 27.0977C288.559 27.0703 288.489 27.0727 288.436 27.1051L288.215 27.2429C287.348 27.8699 286.583 28.6489 285.941 29.5591C285.01 30.8816 284.425 32.3578 284.192 33.9691L284.122 34.574L284.065 33.8856C284.002 33.0776 283.935 32.2411 283.881 31.4186L283.845 31.1141L283.791 30.8182C283.715 30.4342 283.644 30.0781 283.757 29.7052L283.825 29.4521C283.869 29.2767 284.054 29.0233 284.342 28.7394L284.591 28.5092C284.809 28.3098 285.467 27.6294 285.854 26.3859C286.176 25.3519 286.238 24.2831 286.239 23.3696L286.226 22.4863C286.195 21.0408 286.04 19.9507 285.724 18.9537L285.5 18.3519C285.485 18.3107 285.456 18.2768 285.418 18.2554L285.357 18.2333L285.326 18.2303C285.288 18.2303 285.252 18.2418 285.222 18.2624L285.181 18.3003L284.874 18.677C283.4 20.4866 282.675 22.6104 282.721 24.9874C282.729 25.4058 282.76 25.8351 282.815 26.2791C282.44 24.9763 282 23.7091 281.5 22.4885L281.488 22.4468L281.483 22.4025L281.48 22.2364C281.474 21.9957 281.469 21.7461 281.479 21.502C281.481 21.4613 281.507 21.3883 281.561 21.3168L281.682 21.1644L281.807 21.0154C281.964 20.8315 282.119 20.6492 282.244 20.4397C282.642 19.7685 282.829 18.9745 282.832 17.9425C282.838 16.7285 282.651 15.4492 282.246 13.9178C282.024 13.0823 281.69 11.9981 281.066 11.0146L280.856 10.7268C280.821 10.6782 280.766 10.6501 280.709 10.6501C280.63 10.655 280.574 10.6907 280.543 10.7466C279.761 12.1672 279.371 13.6856 279.353 15.3878C279.337 16.8066 279.557 18.0283 279.833 18.9934C279.306 18.024 278.736 17.0796 278.126 16.1686L277.463 15.2123L277.373 14.5358L277.345 14.2435L277.476 14.021L277.567 13.8799C277.701 13.674 277.836 13.4674 277.922 13.2358C278.183 12.5364 278.242 11.7436 278.102 10.8126C277.792 8.75171 276.89 6.89553 275.343 5.13842L275.092 4.87963L274.546 4.37658C274.5 4.33139 274.428 4.31403 274.364 4.33313C274.322 4.34682 274.286 4.37456 274.263 4.41088L274.237 4.47107L274.149 4.87622C273.94 6.12673 273.957 7.46764 274.196 8.97363C274.434 10.4668 274.908 11.7547 275.634 12.8733C274.545 11.58 273.483 10.4935 272.371 9.52868L272.363 9.49755C272.449 8.74952 272.266 8.04157 271.799 7.33728C271.188 6.41111 270.338 5.70584 269.275 5.23938C268.85 5.0544 268.415 4.88318 267.984 4.71911Z" fill="black"></path> <path d="M146.545 7.24H143.361V5.56H151.873V7.24H148.689V17H146.545V7.24ZM156.029 15.656C156.754 15.656 157.319 15.4107 157.725 14.92C158.13 14.4187 158.333 13.736 158.333 12.872V12.76C158.333 11.896 158.13 11.2187 157.725 10.728C157.319 10.2267 156.754 9.976 156.029 9.976C155.303 9.976 154.733 10.2213 154.317 10.712C153.911 11.2027 153.709 11.88 153.709 12.744V12.872C153.709 13.736 153.911 14.4187 154.317 14.92C154.722 15.4107 155.293 15.656 156.029 15.656ZM159.101 15.976C158.29 16.7653 157.261 17.16 156.013 17.16C154.765 17.16 153.735 16.7707 152.925 15.992C152.125 15.2027 151.725 14.1733 151.725 12.904V12.776C151.725 11.496 152.13 10.456 152.941 9.656C153.751 8.856 154.781 8.456 156.029 8.456C157.266 8.456 158.29 8.85067 159.101 9.64C159.911 10.4293 160.317 11.4587 160.317 12.728V12.856C160.317 14.1467 159.911 15.1867 159.101 15.976ZM162.129 8.632H164.065V9.976C164.31 9.54933 164.678 9.192 165.169 8.904C165.67 8.60533 166.214 8.456 166.801 8.456C167.878 8.456 168.763 8.84 169.457 9.608C170.161 10.3653 170.513 11.4 170.513 12.712V12.84C170.513 14.1627 170.166 15.2133 169.473 15.992C168.79 16.7707 167.899 17.16 166.801 17.16C166.161 17.16 165.601 17.0267 165.121 16.76C164.651 16.4827 164.299 16.1253 164.065 15.688V19.864H162.129V8.632ZM166.321 15.624C167.035 15.624 167.579 15.3893 167.953 14.92C168.337 14.4507 168.529 13.768 168.529 12.872V12.744C168.529 11.848 168.321 11.1653 167.905 10.696C167.499 10.216 166.966 9.976 166.305 9.976C165.601 9.976 165.041 10.2107 164.625 10.68C164.209 11.1493 164.001 11.8373 164.001 12.744V12.872C164.001 13.7787 164.203 14.4667 164.609 14.936C165.025 15.3947 165.595 15.624 166.321 15.624ZM179.055 17.16C177.967 17.16 177.119 16.9253 176.511 16.456C175.914 15.976 175.594 15.288 175.551 14.392H177.375C177.439 14.84 177.594 15.176 177.839 15.4C178.084 15.624 178.484 15.736 179.039 15.736C180.042 15.736 180.543 15.3787 180.543 14.664C180.543 14.3333 180.404 14.088 180.127 13.928C179.86 13.7573 179.402 13.6187 178.751 13.512C177.631 13.3413 176.847 13.0693 176.399 12.696C175.951 12.3227 175.727 11.7467 175.727 10.968C175.727 10.1787 176.036 9.56533 176.655 9.128C177.284 8.68 178.02 8.456 178.863 8.456C180.868 8.456 181.962 9.29867 182.143 10.984H180.351C180.266 10.5893 180.106 10.3067 179.871 10.136C179.636 9.95467 179.3 9.864 178.863 9.864C178.447 9.864 178.122 9.95467 177.887 10.136C177.652 10.3173 177.535 10.5573 177.535 10.856C177.535 11.1653 177.652 11.3947 177.887 11.544C178.132 11.6933 178.591 11.8213 179.263 11.928C180.351 12.0987 181.146 12.36 181.647 12.712C182.148 13.064 182.399 13.656 182.399 14.488C182.399 15.3413 182.111 16.0027 181.535 16.472C180.959 16.9307 180.132 17.16 179.055 17.16ZM184.16 8.632H186.096V9.976C186.341 9.54933 186.709 9.192 187.2 8.904C187.701 8.60533 188.245 8.456 188.832 8.456C189.909 8.456 190.794 8.84 191.488 9.608C192.192 10.3653 192.544 11.4 192.544 12.712V12.84C192.544 14.1627 192.197 15.2133 191.504 15.992C190.821 16.7707 189.93 17.16 188.832 17.16C188.192 17.16 187.632 17.0267 187.152 16.76C186.682 16.4827 186.33 16.1253 186.096 15.688V19.864H184.16V8.632ZM188.352 15.624C189.066 15.624 189.61 15.3893 189.984 14.92C190.368 14.4507 190.56 13.768 190.56 12.872V12.744C190.56 11.848 190.352 11.1653 189.936 10.696C189.53 10.216 188.997 9.976 188.336 9.976C187.632 9.976 187.072 10.2107 186.656 10.68C186.24 11.1493 186.032 11.8373 186.032 12.744V12.872C186.032 13.7787 186.234 14.4667 186.64 14.936C187.056 15.3947 187.626 15.624 188.352 15.624ZM198.091 15.656C198.817 15.656 199.382 15.4107 199.787 14.92C200.193 14.4187 200.395 13.736 200.395 12.872V12.76C200.395 11.896 200.193 11.2187 199.787 10.728C199.382 10.2267 198.817 9.976 198.091 9.976C197.366 9.976 196.795 10.2213 196.379 10.712C195.974 11.2027 195.771 11.88 195.771 12.744V12.872C195.771 13.736 195.974 14.4187 196.379 14.92C196.785 15.4107 197.355 15.656 198.091 15.656ZM201.163 15.976C200.353 16.7653 199.323 17.16 198.075 17.16C196.827 17.16 195.798 16.7707 194.987 15.992C194.187 15.2027 193.787 14.1733 193.787 12.904V12.776C193.787 11.496 194.193 10.456 195.003 9.656C195.814 8.856 196.843 8.456 198.091 8.456C199.329 8.456 200.353 8.85067 201.163 9.64C201.974 10.4293 202.379 11.4587 202.379 12.728V12.856C202.379 14.1467 201.974 15.1867 201.163 15.976ZM207.039 17.144C206.207 17.144 205.578 16.9307 205.151 16.504C204.724 16.0773 204.511 15.464 204.511 14.664V10.088H203.391V8.632H204.511V6.792H206.447V8.632H208.287V10.088H206.447V14.488C206.447 15.2027 206.767 15.56 207.407 15.56C207.791 15.56 208.106 15.5067 208.351 15.4V16.936C207.978 17.0747 207.54 17.144 207.039 17.144ZM213.102 17.16C212.014 17.16 211.166 16.9253 210.558 16.456C209.961 15.976 209.641 15.288 209.598 14.392H211.422C211.486 14.84 211.641 15.176 211.886 15.4C212.131 15.624 212.531 15.736 213.086 15.736C214.089 15.736 214.59 15.3787 214.59 14.664C214.59 14.3333 214.451 14.088 214.174 13.928C213.907 13.7573 213.449 13.6187 212.798 13.512C211.678 13.3413 210.894 13.0693 210.446 12.696C209.998 12.3227 209.774 11.7467 209.774 10.968C209.774 10.1787 210.083 9.56533 210.702 9.128C211.331 8.68 212.067 8.456 212.91 8.456C214.915 8.456 216.009 9.29867 216.19 10.984H214.398C214.313 10.5893 214.153 10.3067 213.918 10.136C213.683 9.95467 213.347 9.864 212.91 9.864C212.494 9.864 212.169 9.95467 211.934 10.136C211.699 10.3173 211.582 10.5573 211.582 10.856C211.582 11.1653 211.699 11.3947 211.934 11.544C212.179 11.6933 212.638 11.8213 213.31 11.928C214.398 12.0987 215.193 12.36 215.694 12.712C216.195 13.064 216.446 13.656 216.446 14.488C216.446 15.3413 216.158 16.0027 215.582 16.472C215.006 16.9307 214.179 17.16 213.102 17.16ZM120.044 39.656C120.77 39.656 121.335 39.4107 121.74 38.92C122.146 38.4187 122.348 37.736 122.348 36.872V36.76C122.348 35.896 122.146 35.2187 121.74 34.728C121.335 34.2267 120.77 33.976 120.044 33.976C119.319 33.976 118.748 34.2213 118.332 34.712C117.927 35.2027 117.724 35.88 117.724 36.744V36.872C117.724 37.736 117.927 38.4187 118.332 38.92C118.738 39.4107 119.308 39.656 120.044 39.656ZM123.116 39.976C122.306 40.7653 121.276 41.16 120.028 41.16C118.78 41.16 117.751 40.7707 116.94 39.992C116.14 39.2027 115.74 38.1733 115.74 36.904V36.776C115.74 35.496 116.146 34.456 116.956 33.656C117.767 32.856 118.796 32.456 120.044 32.456C121.282 32.456 122.306 32.8507 123.116 33.64C123.927 34.4293 124.332 35.4587 124.332 36.728V36.856C124.332 38.1467 123.927 39.1867 123.116 39.976ZM126.144 32.632H128.08V33.96C128.294 33.5227 128.63 33.1653 129.088 32.888C129.558 32.6 130.123 32.456 130.784 32.456C131.67 32.456 132.368 32.728 132.88 33.272C133.392 33.8053 133.648 34.6267 133.648 35.736V41H131.712V35.912C131.712 35.272 131.579 34.808 131.312 34.52C131.046 34.2213 130.624 34.072 130.048 34.072C129.472 34.072 128.998 34.248 128.624 34.6C128.262 34.9413 128.08 35.432 128.08 36.072V41H126.144V32.632ZM142.664 41.144C141.832 41.144 141.203 40.9307 140.776 40.504C140.349 40.0773 140.136 39.464 140.136 38.664V34.088H139.016V32.632H140.136V30.792H142.072V32.632H143.912V34.088H142.072V38.488C142.072 39.2027 142.392 39.56 143.032 39.56C143.416 39.56 143.731 39.5067 143.976 39.4V40.936C143.603 41.0747 143.165 41.144 142.664 41.144ZM145.785 28.76H147.721V33.96C147.934 33.5227 148.27 33.1653 148.729 32.888C149.198 32.6 149.763 32.456 150.425 32.456C151.31 32.456 152.009 32.728 152.521 33.272C153.033 33.8053 153.289 34.6267 153.289 35.736V41H151.353V35.912C151.353 35.272 151.219 34.808 150.953 34.52C150.686 34.2213 150.265 34.072 149.689 34.072C149.113 34.072 148.638 34.248 148.265 34.6C147.902 34.9413 147.721 35.432 147.721 36.072V41H145.785V28.76ZM159.262 41.16C158.003 41.16 156.979 40.776 156.19 40.008C155.411 39.24 155.022 38.2053 155.022 36.904V36.776C155.022 35.496 155.411 34.456 156.19 33.656C156.979 32.856 157.976 32.456 159.182 32.456C160.312 32.456 161.251 32.808 161.998 33.512C162.755 34.216 163.134 35.272 163.134 36.68V37.24H157.006C157.038 38.04 157.246 38.6533 157.63 39.08C158.024 39.5067 158.584 39.72 159.31 39.72C160.44 39.72 161.08 39.2933 161.23 38.44H163.102C162.963 39.3253 162.558 40.0027 161.886 40.472C161.224 40.9307 160.35 41.16 159.262 41.16ZM161.214 35.944C161.107 34.5573 160.43 33.864 159.182 33.864C158.606 33.864 158.126 34.0507 157.742 34.424C157.368 34.7867 157.134 35.2933 157.038 35.944H161.214ZM171.904 29.56H174.688L178.464 41H176.256L175.344 38.168H170.976L170.08 41H168.08L171.904 29.56ZM171.472 36.616H174.848L173.168 31.304L171.472 36.616ZM180.113 32.632H182.049V33.976C182.294 33.5493 182.662 33.192 183.153 32.904C183.654 32.6053 184.198 32.456 184.785 32.456C185.862 32.456 186.748 32.84 187.441 33.608C188.145 34.3653 188.497 35.4 188.497 36.712V36.84C188.497 38.1627 188.15 39.2133 187.457 39.992C186.774 40.7707 185.884 41.16 184.785 41.16C184.145 41.16 183.585 41.0267 183.105 40.76C182.636 40.4827 182.284 40.1253 182.049 39.688V43.864H180.113V32.632ZM184.305 39.624C185.02 39.624 185.564 39.3893 185.937 38.92C186.321 38.4507 186.513 37.768 186.513 36.872V36.744C186.513 35.848 186.305 35.1653 185.889 34.696C185.484 34.216 184.95 33.976 184.289 33.976C183.585 33.976 183.025 34.2107 182.609 34.68C182.193 35.1493 181.985 35.8373 181.985 36.744V36.872C181.985 37.7787 182.188 38.4667 182.593 38.936C183.009 39.3947 183.58 39.624 184.305 39.624ZM190.3 32.632H192.236V33.976C192.482 33.5493 192.85 33.192 193.34 32.904C193.842 32.6053 194.386 32.456 194.972 32.456C196.05 32.456 196.935 32.84 197.628 33.608C198.332 34.3653 198.684 35.4 198.684 36.712V36.84C198.684 38.1627 198.338 39.2133 197.644 39.992C196.962 40.7707 196.071 41.16 194.972 41.16C194.332 41.16 193.772 41.0267 193.292 40.76C192.823 40.4827 192.471 40.1253 192.236 39.688V43.864H190.3V32.632ZM194.492 39.624C195.207 39.624 195.751 39.3893 196.124 38.92C196.508 38.4507 196.7 37.768 196.7 36.872V36.744C196.7 35.848 196.492 35.1653 196.076 34.696C195.671 34.216 195.138 33.976 194.476 33.976C193.772 33.976 193.212 34.2107 192.796 34.68C192.38 35.1493 192.172 35.8373 192.172 36.744V36.872C192.172 37.7787 192.375 38.4667 192.78 38.936C193.196 39.3947 193.767 39.624 194.492 39.624ZM208.411 41.16C206.928 41.16 205.814 40.8293 205.067 40.168C204.331 39.5067 203.915 38.6 203.819 37.448H205.867C205.942 38.1093 206.16 38.6267 206.523 39C206.896 39.3733 207.526 39.56 208.411 39.56C209.051 39.56 209.568 39.4 209.963 39.08C210.368 38.76 210.571 38.3333 210.571 37.8C210.571 37.2667 210.406 36.8773 210.075 36.632C209.744 36.3867 209.115 36.1893 208.187 36.04C206.768 35.8373 205.739 35.4907 205.099 35C204.47 34.5093 204.155 33.7413 204.155 32.696C204.155 31.7467 204.523 30.9627 205.259 30.344C205.995 29.7253 206.955 29.416 208.139 29.416C210.667 29.416 212.054 30.52 212.299 32.728H210.347C210.24 32.12 210.011 31.6827 209.659 31.416C209.318 31.1493 208.811 31.016 208.139 31.016C207.51 31.016 207.024 31.1547 206.683 31.432C206.342 31.6987 206.171 32.0613 206.171 32.52C206.171 33.0213 206.326 33.3947 206.635 33.64C206.955 33.8747 207.59 34.0613 208.539 34.2C209.968 34.4027 211.003 34.7493 211.643 35.24C212.294 35.7307 212.619 36.5253 212.619 37.624C212.619 38.6267 212.224 39.4693 211.435 40.152C210.656 40.824 209.648 41.16 208.411 41.16ZM217.43 41.144C216.598 41.144 215.968 40.9307 215.542 40.504C215.115 40.0773 214.902 39.464 214.902 38.664V34.088H213.782V32.632H214.902V30.792H216.838V32.632H218.678V34.088H216.838V38.488C216.838 39.2027 217.158 39.56 217.798 39.56C218.182 39.56 218.496 39.5067 218.742 39.4V40.936C218.368 41.0747 217.931 41.144 217.43 41.144ZM224.294 39.656C225.02 39.656 225.585 39.4107 225.99 38.92C226.396 38.4187 226.598 37.736 226.598 36.872V36.76C226.598 35.896 226.396 35.2187 225.99 34.728C225.585 34.2267 225.02 33.976 224.294 33.976C223.569 33.976 222.998 34.2213 222.582 34.712C222.177 35.2027 221.974 35.88 221.974 36.744V36.872C221.974 37.736 222.177 38.4187 222.582 38.92C222.988 39.4107 223.558 39.656 224.294 39.656ZM227.366 39.976C226.556 40.7653 225.526 41.16 224.278 41.16C223.03 41.16 222.001 40.7707 221.19 39.992C220.39 39.2027 219.99 38.1733 219.99 36.904V36.776C219.99 35.496 220.396 34.456 221.206 33.656C222.017 32.856 223.046 32.456 224.294 32.456C225.532 32.456 226.556 32.8507 227.366 33.64C228.177 34.4293 228.582 35.4587 228.582 36.728V36.856C228.582 38.1467 228.177 39.1867 227.366 39.976ZM230.394 32.632H232.33V34.2C232.885 33.08 233.792 32.5147 235.05 32.504V34.312C234.154 34.312 233.477 34.4933 233.018 34.856C232.56 35.208 232.33 35.8053 232.33 36.648V41H230.394V32.632ZM240.34 41.16C239.081 41.16 238.057 40.776 237.268 40.008C236.489 39.24 236.1 38.2053 236.1 36.904V36.776C236.1 35.496 236.489 34.456 237.268 33.656C238.057 32.856 239.054 32.456 240.26 32.456C241.39 32.456 242.329 32.808 243.076 33.512C243.833 34.216 244.212 35.272 244.212 36.68V37.24H238.084C238.116 38.04 238.324 38.6533 238.708 39.08C239.102 39.5067 239.662 39.72 240.388 39.72C241.518 39.72 242.158 39.2933 242.308 38.44H244.18C244.041 39.3253 243.636 40.0027 242.964 40.472C242.302 40.9307 241.428 41.16 240.34 41.16ZM242.292 35.944C242.185 34.5573 241.508 33.864 240.26 33.864C239.684 33.864 239.204 34.0507 238.82 34.424C238.446 34.7867 238.212 35.2933 238.116 35.944H242.292ZM122.5 65.16C121.679 65.16 121.007 64.9573 120.484 64.552C119.962 64.136 119.7 63.512 119.7 62.68C119.7 61.7627 120.09 61.0907 120.868 60.664C121.658 60.2373 122.698 60.024 123.988 60.024H125.028V59.592C125.028 59.0053 124.916 58.5787 124.692 58.312C124.468 58.0453 124.074 57.912 123.508 57.912C122.559 57.912 122.026 58.3493 121.908 59.224H120.036C120.122 58.296 120.49 57.6027 121.14 57.144C121.791 56.6853 122.618 56.456 123.62 56.456C125.85 56.456 126.964 57.4747 126.964 59.512V65H125.06V63.976C124.442 64.7653 123.588 65.16 122.5 65.16ZM122.964 63.768C123.583 63.768 124.079 63.6187 124.452 63.32C124.836 63.0213 125.028 62.6053 125.028 62.072V61.24H124.036C122.426 61.24 121.62 61.6933 121.62 62.6C121.62 63.3787 122.068 63.768 122.964 63.768ZM129.246 56.632H131.182V57.96C131.395 57.5227 131.731 57.1653 132.19 56.888C132.659 56.6 133.224 56.456 133.886 56.456C134.771 56.456 135.47 56.728 135.982 57.272C136.494 57.8053 136.75 58.6267 136.75 59.736V65H134.814V59.912C134.814 59.272 134.68 58.808 134.414 58.52C134.147 58.2213 133.726 58.072 133.15 58.072C132.574 58.072 132.099 58.248 131.726 58.6C131.363 58.9413 131.182 59.432 131.182 60.072V65H129.246V56.632ZM142.179 65.16C141.091 65.16 140.205 64.792 139.523 64.056C138.84 63.32 138.499 62.2853 138.499 60.952V60.824C138.499 59.5013 138.845 58.4453 139.539 57.656C140.243 56.856 141.149 56.456 142.259 56.456C143.496 56.456 144.387 56.9413 144.931 57.912V52.76H146.867V65H144.931V63.592C144.685 64.0293 144.312 64.4027 143.811 64.712C143.32 65.0107 142.776 65.16 142.179 65.16ZM142.659 63.624C143.363 63.624 143.928 63.3893 144.355 62.92C144.781 62.4507 144.995 61.7627 144.995 60.856V60.728C144.995 59.8213 144.797 59.1387 144.403 58.68C144.008 58.2107 143.453 57.976 142.739 57.976C142.024 57.976 141.469 58.2213 141.075 58.712C140.68 59.192 140.483 59.88 140.483 60.776V60.904C140.483 61.7893 140.68 62.4667 141.075 62.936C141.469 63.3947 141.997 63.624 142.659 63.624ZM153.265 53.56H156.945C158.268 53.56 159.302 53.8587 160.049 54.456C160.806 55.0533 161.185 55.9333 161.185 57.096V57.16C161.185 58.3227 160.806 59.1973 160.049 59.784C159.292 60.36 158.273 60.648 156.993 60.648H155.393V65H153.265V53.56ZM156.945 59.112C158.385 59.112 159.105 58.4613 159.105 57.16V57.096C159.105 55.8373 158.385 55.208 156.945 55.208H155.393V59.112H156.945ZM162.966 52.76H164.902V65H162.966V52.76ZM169.516 65.16C168.695 65.16 168.023 64.9573 167.5 64.552C166.977 64.136 166.716 63.512 166.716 62.68C166.716 61.7627 167.105 61.0907 167.884 60.664C168.673 60.2373 169.713 60.024 171.004 60.024H172.044V59.592C172.044 59.0053 171.932 58.5787 171.708 58.312C171.484 58.0453 171.089 57.912 170.524 57.912C169.575 57.912 169.041 58.3493 168.924 59.224H167.052C167.137 58.296 167.505 57.6027 168.156 57.144C168.807 56.6853 169.633 56.456 170.636 56.456C172.865 56.456 173.98 57.4747 173.98 59.512V65H172.076V63.976C171.457 64.7653 170.604 65.16 169.516 65.16ZM169.98 63.768C170.599 63.768 171.095 63.6187 171.468 63.32C171.852 63.0213 172.044 62.6053 172.044 62.072V61.24H171.052C169.441 61.24 168.636 61.6933 168.636 62.6C168.636 63.3787 169.084 63.768 169.98 63.768ZM178.475 64.152L175.163 56.632H177.259L179.483 62.024L181.531 56.632H183.419L178.859 67.864H176.955L178.475 64.152ZM188.968 53.56H191.816L194.824 61.368L197.768 53.56H200.584V65H198.456V56.36L195.048 65H194.36L190.888 56.36V65H188.968V53.56ZM205.219 65.16C204.398 65.16 203.726 64.9573 203.203 64.552C202.68 64.136 202.419 63.512 202.419 62.68C202.419 61.7627 202.808 61.0907 203.587 60.664C204.376 60.2373 205.416 60.024 206.707 60.024H207.747V59.592C207.747 59.0053 207.635 58.5787 207.411 58.312C207.187 58.0453 206.792 57.912 206.227 57.912C205.278 57.912 204.744 58.3493 204.627 59.224H202.755C202.84 58.296 203.208 57.6027 203.859 57.144C204.51 56.6853 205.336 56.456 206.339 56.456C208.568 56.456 209.683 57.4747 209.683 59.512V65H207.779V63.976C207.16 64.7653 206.307 65.16 205.219 65.16ZM205.683 63.768C206.302 63.768 206.798 63.6187 207.171 63.32C207.555 63.0213 207.747 62.6053 207.747 62.072V61.24H206.755C205.144 61.24 204.339 61.6933 204.339 62.6C204.339 63.3787 204.787 63.768 205.683 63.768ZM211.965 56.632H213.901V58.2C214.455 57.08 215.362 56.5147 216.621 56.504V58.312C215.725 58.312 215.047 58.4933 214.589 58.856C214.13 59.208 213.901 59.8053 213.901 60.648V65H211.965V56.632ZM218.386 52.76H220.322V60.312L223.314 56.632H225.426L222.178 60.472L225.698 65H223.458L220.322 60.888V65H218.386V52.76ZM230.363 65.16C229.105 65.16 228.081 64.776 227.291 64.008C226.513 63.24 226.123 62.2053 226.123 60.904V60.776C226.123 59.496 226.513 58.456 227.291 57.656C228.081 56.856 229.078 56.456 230.283 56.456C231.414 56.456 232.353 56.808 233.099 57.512C233.857 58.216 234.235 59.272 234.235 60.68V61.24H228.107C228.139 62.04 228.347 62.6533 228.731 63.08C229.126 63.5067 229.686 63.72 230.411 63.72C231.542 63.72 232.182 63.2933 232.331 62.44H234.203C234.065 63.3253 233.659 64.0027 232.987 64.472C232.326 64.9307 231.451 65.16 230.363 65.16ZM232.315 59.944C232.209 58.5573 231.531 57.864 230.283 57.864C229.707 57.864 229.227 58.0507 228.843 58.424C228.47 58.7867 228.235 59.2933 228.139 59.944H232.315ZM238.875 65.144C238.043 65.144 237.414 64.9307 236.987 64.504C236.56 64.0773 236.347 63.464 236.347 62.664V58.088H235.227V56.632H236.347V54.792H238.283V56.632H240.123V58.088H238.283V62.488C238.283 63.2027 238.603 63.56 239.243 63.56C239.627 63.56 239.942 63.5067 240.187 63.4V64.936C239.814 65.0747 239.376 65.144 238.875 65.144Z" fill="black"></path> </svg> 