<?xml version="1.0"?>
<svg width="129" height="48" xmlns="http://www.w3.org/2000/svg" xmlns:svg="http://www.w3.org/2000/svg">
 <g class="layer">
  <title>Layer 1</title>
  <path clip-rule="evenodd" d="m16.94,0.54l1.21,-0.45c0.26,-0.1 0.36,-0.11 0.42,-0.06c0.05,0.05 0.06,0.09 0.04,0.16l-0.03,0.1c-0.3,0.99 -0.7,1.78 -1.22,2.4c-0.88,1.06 -1.9,1.64 -3.11,1.76l-0.3,0.02c-0.05,0 -0.08,0.02 -0.1,0.03c-0.19,0.14 -0.33,0.25 -0.45,0.36c-0.39,0.34 -0.77,0.72 -1.14,1.11c0.55,-0.34 1.23,-0.5 2,-0.46c0.28,0.02 0.56,0.05 0.83,0.08l1.03,0.15l0.5,0.08c0.09,0.02 0.31,0.07 0.36,0.18c0.02,0.03 0.02,0.07 0,0.11l-0.06,0.09c-0.66,0.84 -1.42,1.4 -2.32,1.7c-0.98,0.33 -1.89,0.34 -2.72,0.02l-0.27,-0.11c-0.14,-0.08 -0.3,-0.12 -0.49,-0.12c-0.11,0 -0.2,0.01 -0.25,0.02l-0.03,0.01c-0.06,0.01 -0.13,0.04 -0.15,0.06c-0.56,0.72 -1.09,1.49 -1.59,2.3c0.42,-0.4 0.97,-0.67 1.71,-0.84c0.53,-0.12 1.06,-0.17 1.58,-0.2l0.91,-0.05l0.65,-0.04c0.05,0 0.1,0.02 0.12,0.06c0.03,0.04 0.04,0.09 0.02,0.13l-0.03,0.09c-0.01,0.02 -0.02,0.03 -0.02,0.04c-0.68,1.12 -1.48,1.89 -2.44,2.36c-0.95,0.46 -1.8,0.59 -2.65,0.38c-0.1,-0.02 -0.22,-0.03 -0.34,-0.03c-0.36,0 -0.62,0.11 -0.67,0.21c-0.47,0.95 -0.89,1.95 -1.26,2.96c0.38,-0.51 0.92,-0.93 1.59,-1.25c0.45,-0.2 0.91,-0.4 1.36,-0.59l1.58,-0.64c0.04,-0.02 0.1,-0.02 0.14,0.01c0.04,0.02 0.06,0.07 0.06,0.11l-0.02,0.09c-0.16,0.48 -1.08,2.77 -2.38,3.73c-0.58,0.42 -1.29,0.87 -2.19,0.89c-0.23,0 -0.46,0.03 -0.65,0.17l-0.17,0.15l-0.06,0.04c-0.08,0.02 -0.1,0.06 -0.13,0.21c-0.29,1.2 -0.51,2.44 -0.64,3.7c0.04,-0.13 0.09,-0.25 0.14,-0.39c0.32,-0.79 0.85,-1.48 1.69,-2.18l0.65,-0.53l1.4,-1.1l0.12,-0.1c0.04,-0.04 0.11,-0.04 0.16,-0.02c0.05,0.03 0.08,0.08 0.08,0.14l-0.02,0.28c-0.01,0.15 -0.02,0.31 -0.04,0.45c-0.15,1.45 -0.59,2.65 -1.33,3.69c-0.42,0.57 -1,1.26 -1.86,1.67l-0.3,0.12c-0.25,0.09 -0.43,0.23 -0.63,0.47c-0.18,0.23 -0.22,0.44 -0.21,0.71c0.02,1.11 0.1,2.21 0.24,3.28c0.03,-0.3 0.1,-0.6 0.21,-0.92c0.22,-0.67 0.57,-1.31 1.07,-1.98l0.64,-0.86l1.19,-1.55c0.02,-0.03 0.04,-0.04 0.07,-0.05l0.03,-0.02c0.03,-0.01 0.08,-0.01 0.12,0c0.02,0.01 0.04,0.03 0.06,0.05l0.03,0.08l0.01,0.03c0.29,1.73 0.11,3.28 -0.56,4.74c-0.28,0.62 -0.65,1.32 -1.26,1.87l-0.27,0.23c-0.35,0.26 -0.63,0.64 -0.79,1.05c-0.03,0.08 -0.03,0.12 -0.02,0.14c0.32,1.33 0.75,2.61 1.27,3.82c-0.14,-0.64 -0.13,-1.31 0.03,-2.01c0.14,-0.65 0.35,-1.3 0.58,-1.9l0.34,-0.86l0.57,-1.41c0.02,-0.05 0.07,-0.09 0.13,-0.09c0.03,0 0.07,0.01 0.1,0.04l0.03,0.04l0.12,0.22c0.66,1.47 0.89,2.99 0.67,4.5c-0.16,1.08 -0.43,1.85 -0.88,2.51c-0.23,0.34 -0.45,0.71 -0.49,1.17c-0.01,0.11 -0.01,0.19 0.04,0.28c0.45,0.77 0.95,1.51 1.48,2.21l0.41,0.51c-0.51,-0.9 -0.52,-1.86 -0.47,-2.69c0.03,-0.47 0.08,-0.95 0.13,-1.41l0.25,-2.24c0.01,-0.04 0.04,-0.08 0.08,-0.11c0.02,0 0.04,-0.01 0.06,-0.01c0.08,0 0.18,0.07 0.29,0.2c0.94,1.09 1.53,2.33 1.74,3.68c0.22,1.39 0.1,2.59 -0.37,3.65l-0.01,0.04l0,0.07l0.03,0.61c0,0.04 0.02,0.09 0.04,0.11c0.95,0.89 1.98,1.67 3.1,2.31c-0.53,-0.47 -0.91,-1.08 -1.15,-1.85c-0.22,-0.69 -0.36,-1.39 -0.47,-2.09l-0.17,-1.06l-0.13,-0.81c-0.01,-0.05 0.01,-0.1 0.05,-0.13c0.03,-0.02 0.06,-0.03 0.1,-0.03l0.05,0.01l0.05,0.02c0.05,0.02 0.1,0.04 0.14,0.06c2.11,1.03 3.49,3.44 3.3,5.73c-0.03,0.35 0,0.69 0.1,1.02c0.01,0.03 0.04,0.07 0.05,0.07c1,0.42 1.95,0.72 2.91,0.93c0.05,0.01 0.09,0.04 0.1,0.09c0.02,0.04 0.01,0.1 -0.02,0.13c-0.11,0.12 -0.2,0.25 -0.27,0.39c-0.03,0.05 -0.08,0.07 -0.13,0.07l-0.03,0c-0.59,-0.13 -1.16,-0.29 -1.71,-0.48l-0.55,-0.19c-0.06,-0.02 -0.1,-0.03 -0.14,-0.03c-0.11,0.02 -0.22,0.03 -0.34,0.06l-0.18,0.04c-0.04,0.01 -0.07,0.03 -0.08,0.03c-0.4,0.8 -1.1,1.31 -2.14,1.56c-0.23,0.05 -0.46,0.09 -0.7,0.11c-0.24,0.03 -0.51,0.04 -0.81,0.04l-0.55,-0.01c-0.09,-0.01 -0.14,-0.01 -0.14,-0.01c-0.91,-0.1 -1.68,-0.3 -2.36,-0.61c-0.28,-0.13 -0.6,-0.3 -0.84,-0.61c-0.05,-0.06 -0.04,-0.14 0.02,-0.19c0.69,-0.6 1.4,-1.03 2.15,-1.33c1.12,-0.44 2.15,-0.56 3.15,-0.37c0.15,0.03 0.3,0.07 0.44,0.11c-0.94,-0.55 -1.84,-1.2 -2.68,-1.94c-0.02,-0.01 -0.05,-0.02 -0.07,-0.03l-0.33,-0.04c-0.06,-0.01 -0.12,-0.02 -0.19,-0.02l-0.04,0.01c-0.45,0.5 -1.02,0.77 -1.73,0.82l-0.27,0.01l-0.13,0c-0.92,-0.03 -1.84,-0.28 -2.74,-0.73c-0.66,-0.34 -1.34,-0.73 -1.9,-1.31l-0.17,-0.21l-0.29,-0.38c-0.03,-0.03 -0.04,-0.07 -0.03,-0.11c0,-0.04 0.03,-0.07 0.06,-0.1l0.25,-0.12c0.07,-0.03 0.14,-0.06 0.21,-0.09c1.44,-0.54 2.88,-0.6 4.27,-0.16c0.36,0.11 0.7,0.27 1.04,0.48l0.24,0.17l-0.45,-0.53c-0.44,-0.55 -0.87,-1.12 -1.27,-1.72l-0.39,-0.61c-0.01,-0.01 -0.03,-0.04 -0.04,-0.05l-0.32,-0.19l-0.16,-0.1c-0.06,-0.05 -0.09,-0.06 -0.13,-0.04l-0.06,0.03c-0.12,0.08 -0.26,0.12 -0.38,0.15c-0.72,0.18 -1.44,0.09 -2.24,-0.28c-0.73,-0.34 -1.29,-0.87 -1.79,-1.39c-0.72,-0.77 -1.2,-1.45 -1.49,-2.17l-0.08,-0.23l-0.13,-0.44c-0.01,-0.05 0,-0.11 0.04,-0.15l0.05,-0.02l0.02,-0.01l0.28,0.01c0.75,0.03 2.9,0.23 4.23,1.5c0.34,0.32 0.64,0.66 0.91,1.03c-0.48,-1.01 -0.91,-2.07 -1.28,-3.16l-0.28,-0.88l0,-0.02l-0.41,-0.54c-0.01,-0.01 -0.01,-0.02 -0.02,-0.02l-0.45,0.02c-0.13,0 -0.22,-0.01 -0.31,-0.02c-0.57,-0.09 -1.09,-0.37 -1.58,-0.87c-1.15,-1.16 -1.94,-2.6 -2.42,-4.41c-0.04,-0.13 -0.06,-0.26 -0.07,-0.4l-0.04,-0.49c0,-0.05 0.02,-0.1 0.05,-0.13c0.04,-0.03 0.09,-0.04 0.14,-0.02l0.16,0.05c0.11,0.03 0.2,0.05 0.3,0.09c1.48,0.58 2.65,1.57 3.57,3.03c0.22,0.36 0.4,0.73 0.54,1.11c-0.21,-1.12 -0.27,-1.63 -0.31,-2.72l-0.02,-0.53l0,-0.08c0,-0.17 0,-0.32 -0.03,-0.46c-0.03,-0.11 -0.08,-0.22 -0.13,-0.33l-0.16,-0.3l-0.03,-0.02c-0.43,-0.06 -0.8,-0.24 -1.15,-0.54c-0.35,-0.3 -0.64,-0.67 -0.86,-1.1c-0.78,-1.54 -1.17,-3.24 -1.16,-5.06l0.02,-0.26l0.06,-0.53c0,-0.04 0.03,-0.09 0.08,-0.11c0.04,-0.02 0.09,-0.02 0.13,0.01l0.17,0.1c0.67,0.47 1.26,1.06 1.75,1.74c0.72,0.99 1.17,2.1 1.35,3.31l0.05,0.45l0.05,-0.52c0.04,-0.6 0.1,-1.23 0.14,-1.85l0.02,-0.22l0.05,-0.23c0.05,-0.28 0.11,-0.55 0.02,-0.83l-0.05,-0.19c-0.03,-0.13 -0.18,-0.32 -0.4,-0.54l-0.19,-0.17c-0.17,-0.15 -0.67,-0.66 -0.97,-1.59c-0.25,-0.78 -0.3,-1.58 -0.3,-2.26l0.01,-0.67c0.03,-1.08 0.15,-1.9 0.39,-2.64l0.17,-0.46c0.01,-0.03 0.04,-0.05 0.06,-0.07l0.05,-0.01l0.03,-0.01c0.02,0 0.05,0.01 0.08,0.03l0.03,0.03l0.23,0.28c1.14,1.35 1.69,2.95 1.66,4.73c-0.01,0.31 -0.03,0.64 -0.07,0.97c0.29,-0.98 0.62,-1.93 1.01,-2.84l0.01,-0.03l0,-0.04l0,-0.12c0.01,-0.18 0.01,-0.37 0,-0.55c0,-0.03 -0.02,-0.09 -0.06,-0.14l-0.09,-0.12l-0.1,-0.11c-0.12,-0.14 -0.24,-0.27 -0.33,-0.43c-0.31,-0.5 -0.45,-1.1 -0.46,-1.87c0,-0.91 0.14,-1.87 0.45,-3.02c0.18,-0.63 0.43,-1.44 0.91,-2.18l0.16,-0.21c0.03,-0.04 0.07,-0.06 0.12,-0.06c0.06,0 0.1,0.03 0.12,0.07c0.61,1.07 0.91,2.2 0.92,3.48c0.01,1.06 -0.16,1.98 -0.37,2.71c0.41,-0.73 0.84,-1.44 1.31,-2.12l0.51,-0.72l0.07,-0.51l0.02,-0.22l-0.1,-0.16l-0.07,-0.11c-0.1,-0.15 -0.2,-0.31 -0.27,-0.48c-0.2,-0.53 -0.25,-1.12 -0.14,-1.82c0.24,-1.55 0.93,-2.94 2.13,-4.26l0.19,-0.19l0.42,-0.38c0.03,-0.03 0.09,-0.04 0.14,-0.03c0.03,0.01 0.06,0.03 0.08,0.06l0.02,0.04l0.06,0.31c0.16,0.94 0.15,1.94 -0.03,3.07c-0.19,1.12 -0.55,2.09 -1.11,2.92c0.84,-0.97 1.66,-1.78 2.51,-2.5l0.01,-0.03c-0.07,-0.56 0.07,-1.09 0.43,-1.62c0.47,-0.69 1.12,-1.22 1.94,-1.57c0.33,-0.14 0.66,-0.27 1,-0.39z" fill="black" fill-rule="evenodd" id="svg_3"/>
  <path clip-rule="evenodd" d="m112.06,0.54l-1.21,-0.45c-0.26,-0.1 -0.36,-0.11 -0.42,-0.06c-0.05,0.05 -0.05,0.09 -0.04,0.16l0.03,0.1c0.3,0.99 0.7,1.78 1.22,2.4c0.88,1.06 1.9,1.64 3.11,1.76l0.3,0.02c0.05,0 0.08,0.02 0.1,0.03c0.19,0.14 0.33,0.25 0.45,0.36c0.39,0.34 0.77,0.72 1.14,1.11c-0.55,-0.34 -1.23,-0.5 -2,-0.46c-0.28,0.02 -0.56,0.05 -0.83,0.08l-1.03,0.15l-0.5,0.08c-0.09,0.02 -0.31,0.07 -0.36,0.18c-0.02,0.03 -0.02,0.07 0,0.11l0.06,0.09c0.66,0.84 1.42,1.4 2.32,1.7c0.98,0.33 1.89,0.34 2.71,0.02l0.28,-0.11c0.14,-0.08 0.3,-0.12 0.49,-0.12c0.11,0 0.2,0.01 0.25,0.02l0.03,0.01c0.06,0.01 0.14,0.04 0.15,0.06c0.56,0.72 1.09,1.49 1.59,2.3c-0.42,-0.4 -0.97,-0.67 -1.71,-0.84c-0.53,-0.12 -1.06,-0.17 -1.58,-0.2l-0.91,-0.05l-0.65,-0.04c-0.05,0 -0.1,0.02 -0.12,0.06c-0.03,0.04 -0.04,0.09 -0.02,0.13l0.03,0.09c0.01,0.02 0.02,0.03 0.02,0.04c0.68,1.12 1.48,1.89 2.44,2.36c0.95,0.46 1.8,0.59 2.65,0.38c0.1,-0.02 0.22,-0.03 0.34,-0.03c0.36,0 0.62,0.11 0.67,0.21c0.47,0.95 0.89,1.95 1.26,2.96c-0.38,-0.51 -0.92,-0.93 -1.59,-1.25c-0.45,-0.2 -0.91,-0.4 -1.36,-0.59l-1.58,-0.64c-0.04,-0.02 -0.1,-0.02 -0.14,0.01c-0.04,0.02 -0.06,0.07 -0.06,0.11l0.02,0.09c0.16,0.48 1.08,2.77 2.38,3.73c0.58,0.42 1.29,0.87 2.2,0.89c0.22,0 0.45,0.03 0.64,0.17l0.17,0.15l0.06,0.04c0.08,0.02 0.1,0.06 0.13,0.21c0.29,1.2 0.51,2.44 0.64,3.7c-0.04,-0.13 -0.09,-0.25 -0.14,-0.39c-0.32,-0.79 -0.85,-1.48 -1.69,-2.18l-0.65,-0.53l-1.4,-1.1l-0.12,-0.1c-0.04,-0.04 -0.11,-0.04 -0.16,-0.02c-0.05,0.03 -0.08,0.08 -0.08,0.14l0.02,0.28c0.01,0.15 0.02,0.31 0.04,0.45c0.15,1.45 0.59,2.65 1.33,3.69c0.42,0.57 1,1.26 1.86,1.67l0.3,0.12c0.25,0.09 0.43,0.23 0.63,0.47c0.18,0.23 0.22,0.44 0.21,0.71c-0.02,1.11 -0.1,2.21 -0.24,3.28c-0.03,-0.3 -0.1,-0.6 -0.21,-0.92c-0.22,-0.67 -0.57,-1.31 -1.06,-1.98l-0.65,-0.86l-1.19,-1.55c-0.02,-0.03 -0.04,-0.04 -0.07,-0.05l-0.03,-0.02c-0.03,-0.01 -0.08,-0.01 -0.12,0c-0.02,0.01 -0.04,0.03 -0.06,0.05l-0.03,0.08l-0.01,0.03c-0.29,1.73 -0.11,3.28 0.56,4.74c0.28,0.62 0.65,1.32 1.26,1.87l0.27,0.23c0.35,0.26 0.63,0.64 0.79,1.05c0.03,0.08 0.03,0.12 0.02,0.14c-0.32,1.33 -0.75,2.61 -1.27,3.82c0.14,-0.64 0.13,-1.31 -0.03,-2.01c-0.14,-0.65 -0.35,-1.3 -0.58,-1.9l-0.34,-0.86l-0.57,-1.41c-0.02,-0.05 -0.07,-0.09 -0.13,-0.09c-0.03,0 -0.07,0.01 -0.1,0.04l-0.03,0.04l-0.12,0.22c-0.66,1.47 -0.89,2.99 -0.67,4.5c0.16,1.08 0.43,1.85 0.88,2.51c0.23,0.34 0.45,0.71 0.49,1.17c0.01,0.11 0.01,0.19 -0.04,0.28c-0.45,0.77 -0.95,1.51 -1.48,2.21l-0.41,0.51c0.51,-0.9 0.52,-1.86 0.47,-2.69c-0.03,-0.47 -0.08,-0.95 -0.13,-1.41l-0.26,-2.24c0,-0.04 -0.03,-0.08 -0.07,-0.11c-0.02,0 -0.04,-0.01 -0.05,-0.01c-0.09,0 -0.19,0.07 -0.3,0.2c-0.94,1.09 -1.53,2.33 -1.74,3.68c-0.22,1.39 -0.1,2.59 0.37,3.65l0.01,0.04l0,0.07l-0.03,0.61c0,0.04 -0.02,0.09 -0.04,0.11c-0.95,0.89 -1.98,1.67 -3.1,2.31c0.53,-0.47 0.91,-1.08 1.15,-1.85c0.22,-0.69 0.36,-1.39 0.47,-2.09l0.17,-1.06l0.13,-0.81c0.01,-0.05 -0.01,-0.1 -0.05,-0.13c-0.03,-0.02 -0.06,-0.03 -0.1,-0.03l-0.05,0.01l-0.05,0.02c-0.05,0.02 -0.1,0.04 -0.14,0.06c-2.11,1.03 -3.49,3.44 -3.3,5.73c0.03,0.35 0,0.69 -0.1,1.02c-0.01,0.03 -0.04,0.07 -0.05,0.07c-1,0.42 -1.95,0.72 -2.91,0.93c-0.05,0.01 -0.09,0.04 -0.1,0.09c-0.02,0.04 -0.01,0.1 0.02,0.13c0.11,0.12 0.2,0.25 0.27,0.39c0.03,0.05 0.08,0.07 0.13,0.07l0.03,0c0.59,-0.13 1.16,-0.29 1.71,-0.48l0.55,-0.19c0.06,-0.02 0.1,-0.03 0.14,-0.03c0.11,0.02 0.22,0.03 0.34,0.06l0.18,0.04c0.04,0.01 0.07,0.03 0.08,0.03c0.4,0.8 1.1,1.31 2.14,1.56c0.23,0.05 0.46,0.09 0.7,0.11c0.24,0.03 0.51,0.04 0.81,0.04l0.55,-0.01c0.09,-0.01 0.15,-0.01 0.15,-0.01c0.9,-0.1 1.66,-0.3 2.35,-0.61c0.28,-0.13 0.59,-0.3 0.84,-0.61c0.05,-0.06 0.04,-0.14 -0.02,-0.19c-0.69,-0.6 -1.4,-1.03 -2.15,-1.33c-1.13,-0.44 -2.15,-0.56 -3.15,-0.37c-0.15,0.03 -0.3,0.07 -0.44,0.11c0.94,-0.55 1.84,-1.2 2.68,-1.94c0.02,-0.01 0.05,-0.02 0.07,-0.03l0.33,-0.04c0.06,-0.01 0.12,-0.02 0.19,-0.02l0.04,0.01c0.45,0.5 1.02,0.77 1.73,0.82l0.27,0.01l0.13,0c0.92,-0.03 1.84,-0.28 2.74,-0.73c0.66,-0.34 1.34,-0.73 1.89,-1.31l0.18,-0.21l0.29,-0.38c0.03,-0.03 0.04,-0.07 0.03,-0.11c0,-0.04 -0.03,-0.07 -0.06,-0.1l-0.25,-0.12c-0.07,-0.03 -0.14,-0.06 -0.21,-0.09c-1.44,-0.54 -2.88,-0.6 -4.26,-0.16c-0.37,0.11 -0.71,0.27 -1.05,0.48l-0.25,0.17l0.46,-0.53c0.44,-0.55 0.87,-1.12 1.27,-1.72l0.39,-0.61c0.01,-0.01 0.03,-0.04 0.04,-0.05l0.32,-0.19l0.15,-0.1c0.07,-0.05 0.1,-0.06 0.14,-0.04l0.06,0.03c0.12,0.08 0.26,0.12 0.38,0.15c0.72,0.18 1.44,0.09 2.24,-0.28c0.73,-0.34 1.29,-0.87 1.79,-1.39c0.72,-0.77 1.2,-1.45 1.49,-2.17l0.08,-0.23l0.13,-0.44c0.01,-0.05 0,-0.11 -0.04,-0.15l-0.05,-0.02l-0.02,-0.01l-0.28,0.01c-0.75,0.03 -2.9,0.23 -4.23,1.5c-0.34,0.32 -0.64,0.66 -0.91,1.03c0.49,-1.01 0.91,-2.07 1.28,-3.16l0.27,-0.88l0.01,-0.02l0.41,-0.54c0.01,-0.01 0.01,-0.02 0.02,-0.02l0.45,0.02c0.12,0 0.22,-0.01 0.31,-0.02c0.57,-0.09 1.09,-0.37 1.58,-0.87c1.15,-1.16 1.94,-2.6 2.42,-4.41c0.04,-0.13 0.05,-0.26 0.07,-0.4l0.04,-0.49c0,-0.05 -0.01,-0.1 -0.05,-0.13c-0.04,-0.03 -0.09,-0.04 -0.14,-0.02l-0.16,0.05c-0.11,0.03 -0.21,0.05 -0.3,0.09c-1.48,0.58 -2.65,1.57 -3.57,3.03c-0.22,0.36 -0.4,0.73 -0.54,1.11c0.21,-1.12 0.27,-1.63 0.31,-2.72l0.02,-0.53l0,-0.08c0,-0.17 0,-0.32 0.03,-0.46c0.03,-0.11 0.08,-0.22 0.13,-0.33l0.16,-0.3l0.03,-0.02c0.43,-0.06 0.8,-0.24 1.15,-0.54c0.35,-0.3 0.64,-0.67 0.85,-1.1c0.79,-1.54 1.18,-3.24 1.17,-5.06l-0.02,-0.26l-0.06,-0.53c0,-0.04 -0.03,-0.09 -0.08,-0.11c-0.04,-0.02 -0.09,-0.02 -0.13,0.01l-0.17,0.1c-0.67,0.47 -1.26,1.06 -1.75,1.74c-0.72,0.99 -1.17,2.1 -1.35,3.31l-0.05,0.45l-0.04,-0.52c-0.05,-0.6 -0.11,-1.23 -0.15,-1.85l-0.02,-0.22l-0.05,-0.23c-0.05,-0.28 -0.11,-0.55 -0.02,-0.83l0.05,-0.19c0.03,-0.13 0.18,-0.32 0.4,-0.54l0.19,-0.17c0.17,-0.15 0.67,-0.66 0.97,-1.59c0.25,-0.78 0.3,-1.58 0.3,-2.26l-0.01,-0.67c-0.03,-1.08 -0.15,-1.9 -0.39,-2.64l-0.17,-0.46c-0.01,-0.03 -0.04,-0.05 -0.06,-0.07l-0.05,-0.01l-0.03,-0.01c-0.02,0 -0.05,0.01 -0.07,0.03l-0.04,0.03l-0.23,0.28c-1.14,1.35 -1.69,2.95 -1.66,4.73c0.01,0.31 0.03,0.64 0.07,0.97c-0.28,-0.98 -0.62,-1.93 -1.01,-2.84l-0.01,-0.03l0,-0.04l0,-0.12c-0.01,-0.18 -0.01,-0.37 -0.01,-0.55c0.01,-0.03 0.03,-0.09 0.07,-0.14l0.09,-0.12l0.1,-0.11c0.12,-0.14 0.24,-0.27 0.33,-0.43c0.31,-0.5 0.45,-1.1 0.46,-1.87c0,-0.91 -0.14,-1.87 -0.46,-3.02c-0.17,-0.63 -0.42,-1.44 -0.9,-2.18l-0.16,-0.21c-0.03,-0.04 -0.07,-0.06 -0.12,-0.06c-0.06,0 -0.1,0.03 -0.13,0.07c-0.6,1.07 -0.9,2.2 -0.91,3.48c-0.01,1.06 0.16,1.98 0.37,2.71c-0.41,-0.73 -0.85,-1.44 -1.31,-2.12l-0.51,-0.72l-0.07,-0.51l-0.02,-0.22l0.1,-0.16l0.07,-0.11c0.1,-0.15 0.2,-0.31 0.27,-0.48c0.2,-0.53 0.25,-1.12 0.14,-1.82c-0.24,-1.55 -0.93,-2.94 -2.13,-4.26l-0.19,-0.19l-0.42,-0.38c-0.03,-0.03 -0.09,-0.04 -0.14,-0.03c-0.03,0.01 -0.06,0.03 -0.08,0.06l-0.01,0.04l-0.07,0.31c-0.16,0.94 -0.15,1.94 0.03,3.07c0.19,1.12 0.55,2.09 1.11,2.92c-0.84,-0.97 -1.66,-1.78 -2.51,-2.5l-0.01,-0.03c0.07,-0.56 -0.07,-1.09 -0.43,-1.62c-0.47,-0.69 -1.12,-1.22 -1.94,-1.57c-0.33,-0.14 -0.66,-0.27 -1,-0.39z" fill="black" fill-rule="evenodd" id="svg_4"/>
  <text fill="#000000" font-family="Serif" font-size="24" font-weight="bold" id="svg_5" stroke-width="0" style="cursor: move;" text-anchor="middle" transform="matrix(0.514157 0 0 0.427269 49.3324 10.8619)" x="29.5" xml:space="preserve" y="17.54">Over 4,000,000</text>
  <text fill="#000000" font-family="Serif" font-size="18" id="svg_6" stroke-width="0" text-anchor="middle" transform="matrix(0.636278 0 0 0.653787 24.3454 3.53148)" x="63.64" xml:space="preserve" y="46.44">happy users</text>
 </g>
</svg>